<?xml version="1.0" encoding="UTF-8" standalone="no"?><svg xmlns="http://www.w3.org/2000/svg" xmlns:xlink="http://www.w3.org/1999/xlink" clip-rule="evenodd" stroke-miterlimit="4.00" viewBox="0 0 325 789"><desc>SVG generated by Keynote</desc><defs></defs><g transform="matrix(1.00, 0.00, -0.00, -1.00, 0.0, 789.0)"><g><clipPath id="clip-270"><path d="M 0.9 0.5 L 324.5 0.5 L 324.5 673.4 L 0.9 673.4 Z M 0.9 0.5 "></path></clipPath><g clip-path="url(#clip-270)"><path d="M 33.6 4.0 C 17.0 4.0 4.4 16.6 4.4 33.2 C 4.4 640.7 4.4 640.7 4.4 640.7 C 4.4 657.3 17.0 669.9 33.6 669.9 C 292.6 669.9 292.6 669.9 292.6 669.9 C 308.4 669.9 321.0 657.3 321.0 640.7 C 321.0 33.2 321.0 33.2 321.0 33.2 C 321.0 16.6 308.4 4.0 292.6 4.0 L 33.6 4.0 Z M 33.6 4.0 " fill="#3F3F3F"></path><path d="M 29.2 665.9 C 12.6 665.9 0.0 653.3 0.0 636.7 C 0.0 29.2 0.0 29.2 0.0 29.2 C 0.0 12.6 12.6 0.0 29.2 0.0 C 288.3 0.0 288.3 0.0 288.3 0.0 C 304.0 0.0 316.7 12.6 316.7 29.2 C 316.7 636.7 316.7 636.7 316.7 636.7 C 316.7 653.3 304.0 665.9 288.3 665.9 L 29.2 665.9 Z M 29.2 665.9 " fill="none" stroke="#BFBFBF" stroke-width="5.00" stroke-linejoin="round" transform="matrix(1.00, 0.00, 0.00, -1.00, 4.4, 669.9)"></path></g></g><g><clipPath id="clip-271"><path d="M 157.4 631.0 L 168.8 631.0 L 168.8 642.5 L 157.4 642.5 Z M 157.4 631.0 "></path></clipPath><g clip-path="url(#clip-271)"><path d="M 166.4 640.1 C 168.3 638.3 168.3 635.3 166.4 633.4 C 164.6 631.5 161.6 631.5 159.7 633.4 C 157.9 635.3 157.9 638.3 159.7 640.1 C 161.6 642.0 164.6 642.0 166.4 640.1 Z M 166.4 640.1 " fill="#F2F2F2"></path></g></g><g><clipPath id="clip-272"><path d="M 159.6 634.1 L 165.8 634.1 L 165.8 640.2 L 159.6 640.2 Z M 159.6 634.1 "></path></clipPath><g clip-path="url(#clip-272)"><path d="M 160.6 637.1 C 160.6 638.3 161.5 639.2 162.7 639.2 C 163.9 639.2 164.8 638.3 164.8 637.1 C 164.8 636.0 163.9 635.1 162.7 635.1 C 161.5 635.1 160.6 636.0 160.6 637.1 Z M 160.6 637.1 " fill="#F2F2F2"></path></g></g><g><clipPath id="clip-273"><path d="M 157.4 631.8 L 168.8 631.8 L 168.8 643.3 L 157.4 643.3 Z M 157.4 631.8 "></path></clipPath><g clip-path="url(#clip-273)"><path d="M 166.4 640.9 C 168.3 639.0 168.3 636.0 166.4 634.2 C 164.6 632.3 161.6 632.3 159.7 634.2 C 157.9 636.0 157.9 639.0 159.7 640.9 C 161.6 642.7 164.6 642.7 166.4 640.9 Z M 166.4 640.9 " fill="#F2F2F2"></path></g></g><g><clipPath id="clip-274"><path d="M 159.6 634.8 L 165.8 634.8 L 165.8 641.0 L 159.6 641.0 Z M 159.6 634.8 "></path></clipPath><g clip-path="url(#clip-274)"><path d="M 160.6 637.9 C 160.6 639.1 161.5 640.0 162.7 640.0 C 163.9 640.0 164.8 639.1 164.8 637.9 C 164.8 636.8 163.9 635.8 162.7 635.8 C 161.5 635.8 160.6 636.8 160.6 637.9 Z M 160.6 637.9 " fill="#F2F2F2"></path></g></g><g><clipPath id="clip-275"><path d="M 158.9 633.4 L 167.2 633.4 L 167.2 641.7 L 158.9 641.7 Z M 158.9 633.4 "></path></clipPath><g clip-path="url(#clip-275)"><path d="M 165.3 639.8 C 166.6 638.5 166.6 636.5 165.3 635.3 C 164.1 634.1 162.1 634.1 160.9 635.3 C 159.6 636.5 159.6 638.5 160.9 639.8 C 162.1 641.0 164.1 641.0 165.3 639.8 Z M 165.3 639.8 " fill="#F2F2F2"></path></g></g><g><clipPath id="clip-276"><path d="M 158.9 633.4 L 167.2 633.4 L 167.2 641.7 L 158.9 641.7 Z M 158.9 633.4 "></path></clipPath><g clip-path="url(#clip-276)"><path d="M 165.3 639.8 C 166.6 638.5 166.6 636.5 165.3 635.3 C 164.1 634.1 162.1 634.1 160.9 635.3 C 159.6 636.5 159.6 638.5 160.9 639.8 C 162.1 641.0 164.1 641.0 165.3 639.8 Z M 165.3 639.8 " fill="#F2F2F2"></path></g></g><g><clipPath id="clip-277"><path d="M 160.0 634.4 L 166.2 634.4 L 166.2 640.6 L 160.0 640.6 Z M 160.0 634.4 "></path></clipPath><g clip-path="url(#clip-277)"><path d="M 161.0 637.5 C 161.0 638.7 161.9 639.6 163.1 639.6 C 164.2 639.6 165.2 638.7 165.2 637.5 C 165.2 636.4 164.2 635.4 163.1 635.4 C 161.9 635.4 161.0 636.4 161.0 637.5 Z M 161.0 637.5 " fill="#F2F2F2"></path></g></g><g><clipPath id="clip-278"><path d="M 160.0 634.4 L 166.2 634.4 L 166.2 640.6 L 160.0 640.6 Z M 160.0 634.4 "></path></clipPath><g clip-path="url(#clip-278)"><path d="M 161.0 637.5 C 161.0 638.7 161.9 639.6 163.1 639.6 C 164.2 639.6 165.2 638.7 165.2 637.5 C 165.2 636.4 164.2 635.4 163.1 635.4 C 161.9 635.4 161.0 636.4 161.0 637.5 Z M 161.0 637.5 " fill="#F2F2F2"></path></g></g><g><clipPath id="clip-279"><path d="M 159.6 634.8 L 165.8 634.8 L 165.8 641.0 L 159.6 641.0 Z M 159.6 634.8 "></path></clipPath><g clip-path="url(#clip-279)"><path d="M 164.8 635.8 L 160.6 635.8 L 164.8 640.0 L 164.8 635.8 Z M 164.8 635.8 " fill="#F2F2F2"></path></g></g><g><clipPath id="clip-280"><path d="M 159.6 634.8 L 165.8 634.8 L 165.8 641.0 L 159.6 641.0 Z M 159.6 634.8 "></path></clipPath><g clip-path="url(#clip-280)"><path d="M 164.8 635.8 L 160.6 635.8 L 164.8 640.0 L 164.8 635.8 Z M 164.8 635.8 " fill="#F2F2F2"></path></g></g><g><clipPath id="clip-281"><path d="M 135.5 18.3 L 189.9 18.3 L 189.9 72.7 L 135.5 72.7 Z M 135.5 18.3 "></path></clipPath><g clip-path="url(#clip-281)"><path d="M 43.8 7.5 C 53.8 17.5 53.8 33.8 43.8 43.8 C 33.8 53.9 17.5 53.9 7.5 43.8 C -2.5 33.8 -2.5 17.5 7.5 7.5 C 17.5 -2.5 33.8 -2.5 43.8 7.5 Z M 43.8 7.5 " fill="none" stroke="#F2F2F2" stroke-width="1.00" stroke-linejoin="round" transform="matrix(1.00, 0.00, 0.00, -1.00, 137.0, 71.2)"></path></g></g><g><clipPath id="clip-282"><path d="M 23.1 86.0 L 303.1 86.0 L 303.1 575.3 L 23.1 575.3 Z M 23.1 86.0 "></path></clipPath><g clip-path="url(#clip-282)"><path d="M 24.1 574.3 L 302.1 574.3 L 302.1 87.0 L 24.1 87.0 Z M 24.1 574.3 " fill="#F2F2F2"></path></g></g><g><clipPath id="clip-283"><path d="M 137.6 604.2 L 197.3 604.2 L 197.3 619.6 L 137.6 619.6 Z M 137.6 604.2 "></path></clipPath><g clip-path="url(#clip-283)"><path d="M 144.9 605.2 C 141.0 605.2 138.6 608.3 138.6 611.5 C 138.6 615.4 141.0 618.6 144.9 618.6 C 189.9 618.6 189.9 618.6 189.9 618.6 C 193.9 618.6 196.3 615.4 196.3 611.5 C 196.3 608.3 193.9 605.2 189.9 605.2 L 144.9 605.2 Z M 144.9 605.2 " fill="#F2F2F2"></path></g></g><g><clipPath id="clip-284"><path d="M 140.8 608.1 L 194.1 608.1 L 194.1 615.6 L 140.8 615.6 Z M 140.8 608.1 "></path></clipPath><g clip-path="url(#clip-284)"><path d="M 193.1 611.5 C 193.1 609.9 191.5 609.1 189.9 609.1 C 144.9 609.1 144.9 609.1 144.9 609.1 C 143.3 609.1 141.8 609.9 141.8 611.5 C 141.8 613.1 143.3 614.6 144.9 614.6 C 189.9 614.6 189.9 614.6 189.9 614.6 C 191.5 614.6 193.1 613.1 193.1 611.5 Z M 193.1 611.5 " fill="#3F3F3F"></path></g></g><g><clipPath id="clip-285"><path d="M 118.6 606.5 L 129.3 606.5 L 129.3 617.2 L 118.6 617.2 Z M 118.6 606.5 "></path></clipPath><g clip-path="url(#clip-285)"><path d="M 127.1 614.9 C 128.8 613.2 128.8 610.5 127.1 608.8 C 125.4 607.1 122.6 607.1 120.9 608.8 C 119.2 610.5 119.2 613.2 120.9 614.9 C 122.6 616.6 125.4 616.6 127.1 614.9 Z M 127.1 614.9 " fill="#F2F2F2"></path></g></g><g><clipPath id="clip-286"><path d="M 21.0 578.0 L 304.0 578.0 L 304.0 82.0 L 21.0 82.0 Z M 21.0 578.4 "></path></clipPath><g clip-path="url(#clip-286)"><g><clipPath id="clip-287"><path d="M 21.0 81.6 L 304.4 81.6 L 304.4 578.4 L 21.0 578.4 Z M 21.0 81.6 "></path></clipPath><g clip-path="url(#clip-287)"><image xlink:href="../../0785EC35-3674-4E92-BA57-BBA8FB4EA274/assets/7984708696FDB39ED09EB253B7E7F135.jpeg" width="428.00" height="734.00" transform="matrix(0.68, 0.00, -0.00, -0.68, 18.0, 578.0)"></image></g></g></g></g><g><clipPath id="clip-288"><path d="M 13.0 636.6 L 312.4 636.6 L 312.4 744.5 L 13.0 744.5 Z M 13.0 636.6 "></path></clipPath><g clip-path="url(#clip-288)"><text xml:space="preserve" font-family="Roboto-Light" font-size="34.0" fill="#3F3F3F" transform="matrix(1.00, 0.00, -0.00, -1.00, 70.0, 703.0)">L</text><text xml:space="preserve" font-family="Roboto-Light" font-size="34.0" fill="#3F3F3F" transform="matrix(1.00, 0.00, -0.00, -1.00, 87.9, 703.0)">e</text><text xml:space="preserve" font-family="Roboto-Light" font-size="34.0" fill="#3F3F3F" transform="matrix(1.00, 0.00, -0.00, -1.00, 105.5, 703.0)">t</text><text xml:space="preserve" font-family="Roboto-Light" font-size="34.0" fill="#3F3F3F" transform="matrix(1.00, 0.00, -0.00, -1.00, 116.4, 703.0)"> </text><text xml:space="preserve" font-family="Roboto-Light" font-size="34.0" fill="#3F3F3F" transform="matrix(1.00, 0.00, -0.00, -1.00, 124.7, 703.0)">i</text><text xml:space="preserve" font-family="Roboto-Light" font-size="34.0" fill="#3F3F3F" transform="matrix(1.00, 0.00, -0.00, -1.00, 132.3, 703.0)">t</text><text xml:space="preserve" font-family="Roboto-Light" font-size="34.0" fill="#3F3F3F" transform="matrix(1.00, 0.00, -0.00, -1.00, 143.2, 703.0)"> </text><text xml:space="preserve" font-family="Roboto-Light" font-size="34.0" fill="#3F3F3F" transform="matrix(1.00, 0.00, -0.00, -1.00, 151.5, 703.0)">m</text><text xml:space="preserve" font-family="Roboto-Light" font-size="34.0" fill="#3F3F3F" transform="matrix(1.00, 0.00, -0.00, -1.00, 181.6, 703.0)">a</text><text xml:space="preserve" font-family="Roboto-Light" font-size="34.0" fill="#3F3F3F" transform="matrix(1.00, 0.00, -0.00, -1.00, 199.8, 703.0)">t</text><text xml:space="preserve" font-family="Roboto-Light" font-size="34.0" fill="#3F3F3F" transform="matrix(1.00, 0.00, -0.00, -1.00, 210.7, 703.0)">c</text><text xml:space="preserve" font-family="Roboto-Light" font-size="34.0" fill="#3F3F3F" transform="matrix(1.00, 0.00, -0.00, -1.00, 228.2, 703.0)">h</text><text xml:space="preserve" font-family="Roboto-Light" font-size="34.0" fill="#3F3F3F" transform="matrix(1.00, 0.00, -0.00, -1.00, 246.9, 703.0)">!</text><text xml:space="preserve" font-family="Roboto-Light" font-size="34.0" fill="#3F3F3F" transform="matrix(1.00, 0.00, -0.00, -1.00, 254.5, 703.0)"> </text></g></g><g><clipPath id="clip-289"><path d="M 118.0 789.0 L 208.0 789.0 L 208.0 750.0 L 118.0 750.0 Z M 118.0 789.0 "></path></clipPath><g clip-path="url(#clip-289)"><g><clipPath id="clip-290"><path d="M 118.0 750.1 L 207.6 750.1 L 207.6 788.7 L 118.0 788.7 Z M 118.0 750.1 "></path></clipPath><g clip-path="url(#clip-290)"><path d="M 0.0 0.0 L -28.0 -47.6 L -0.7 -94.0 L -0.3 -94.0 L 27.5 -46.7 L 0.0 0.0 Z M 0.0 0.0 " fill="none" stroke="#000000" stroke-width="2.00" stroke-miterlimit="0.00" transform="matrix(0.40, 0.00, 0.00, 0.40, 163.2, 788.2)"></path><path d="M 0.0 0.0 L -27.5 -46.7 L 0.3 -94.0 L 55.3 -94.0 L 0.0 0.0 Z M 0.0 0.0 " fill="none" stroke="#000000" stroke-width="2.00" stroke-miterlimit="0.00" transform="matrix(0.40, 0.00, 0.00, 0.40, 185.2, 788.2)"></path><path d="M 0.0 0.0 L 55.6 0.0 L 27.8 47.3 L 0.0 0.0 Z M 0.0 0.0 " fill="none" stroke="#000000" stroke-width="2.00" stroke-miterlimit="0.00" transform="matrix(0.40, 0.00, 0.00, 0.40, 163.1, 750.4)"></path><path d="M 0.0 0.0 L -55.3 -94.0 L 0.7 -94.0 L 28.0 -47.6 L 0.0 0.0 Z M 0.0 0.0 " fill="none" stroke="#000000" stroke-width="2.00" stroke-miterlimit="0.00" transform="matrix(0.40, 0.00, 0.00, 0.40, 140.8, 788.2)"></path><path d="M 0.0 0.0 L 54.6 0.0 L 27.3 46.4 L 0.0 0.0 Z M 0.0 0.0 " fill="none" stroke="#000000" stroke-width="2.00" stroke-miterlimit="0.00" transform="matrix(0.40, 0.00, 0.00, 0.40, 141.1, 750.4)"></path></g></g></g></g></g></svg>