<?xml version="1.0" encoding="UTF-8" standalone="no"?><svg xmlns="http://www.w3.org/2000/svg" xmlns:xlink="http://www.w3.org/1999/xlink" clip-rule="evenodd" stroke-miterlimit="4.00" viewBox="0 0 367 795"><desc>SVG generated by Keynote</desc><defs></defs><g transform="matrix(1.00, 0.00, -0.00, -1.00, 0.0, 795.0)"><g><clipPath id="clip-230"><path d="M 21.9 0.5 L 345.6 0.5 L 345.6 673.4 L 21.9 673.4 Z M 21.9 0.5 "></path></clipPath><g clip-path="url(#clip-230)"><path d="M 54.6 4.0 C 38.0 4.0 25.4 16.6 25.4 33.2 C 25.4 640.7 25.4 640.7 25.4 640.7 C 25.4 657.3 38.0 669.9 54.6 669.9 C 313.6 669.9 313.6 669.9 313.6 669.9 C 329.4 669.9 342.1 657.3 342.1 640.7 C 342.1 33.2 342.1 33.2 342.1 33.2 C 342.1 16.6 329.4 4.0 313.6 4.0 L 54.6 4.0 Z M 54.6 4.0 " fill="#3F3F3F"></path><path d="M 29.2 665.9 C 12.6 665.9 0.0 653.3 0.0 636.7 C 0.0 29.2 0.0 29.2 0.0 29.2 C 0.0 12.6 12.6 0.0 29.2 0.0 C 288.3 0.0 288.3 0.0 288.3 0.0 C 304.0 0.0 316.7 12.6 316.7 29.2 C 316.7 636.7 316.7 636.7 316.7 636.7 C 316.7 653.3 304.0 665.9 288.3 665.9 L 29.2 665.9 Z M 29.2 665.9 " fill="none" stroke="#BFBFBF" stroke-width="5.00" stroke-linejoin="round" transform="matrix(1.00, 0.00, 0.00, -1.00, 25.4, 669.9)"></path></g></g><g><clipPath id="clip-231"><path d="M 178.4 631.0 L 189.9 631.0 L 189.9 642.5 L 178.4 642.5 Z M 178.4 631.0 "></path></clipPath><g clip-path="url(#clip-231)"><path d="M 187.5 640.1 C 189.3 638.3 189.3 635.3 187.5 633.4 C 185.6 631.5 182.6 631.5 180.8 633.4 C 178.9 635.3 178.9 638.3 180.8 640.1 C 182.6 642.0 185.6 642.0 187.5 640.1 Z M 187.5 640.1 " fill="#F2F2F2"></path></g></g><g><clipPath id="clip-232"><path d="M 180.6 634.1 L 186.8 634.1 L 186.8 640.2 L 180.6 640.2 Z M 180.6 634.1 "></path></clipPath><g clip-path="url(#clip-232)"><path d="M 181.6 637.1 C 181.6 638.3 182.6 639.2 183.7 639.2 C 184.9 639.2 185.8 638.3 185.8 637.1 C 185.8 636.0 184.9 635.1 183.7 635.1 C 182.6 635.1 181.6 636.0 181.6 637.1 Z M 181.6 637.1 " fill="#F2F2F2"></path></g></g><g><clipPath id="clip-233"><path d="M 178.4 631.8 L 189.9 631.8 L 189.9 643.3 L 178.4 643.3 Z M 178.4 631.8 "></path></clipPath><g clip-path="url(#clip-233)"><path d="M 187.5 640.9 C 189.3 639.0 189.3 636.0 187.5 634.2 C 185.6 632.3 182.6 632.3 180.8 634.2 C 178.9 636.0 178.9 639.0 180.8 640.9 C 182.6 642.7 185.6 642.7 187.5 640.9 Z M 187.5 640.9 " fill="#F2F2F2"></path></g></g><g><clipPath id="clip-234"><path d="M 180.6 634.8 L 186.8 634.8 L 186.8 641.0 L 180.6 641.0 Z M 180.6 634.8 "></path></clipPath><g clip-path="url(#clip-234)"><path d="M 181.6 637.9 C 181.6 639.1 182.6 640.0 183.7 640.0 C 184.9 640.0 185.8 639.1 185.8 637.9 C 185.8 636.8 184.9 635.8 183.7 635.8 C 182.6 635.8 181.6 636.8 181.6 637.9 Z M 181.6 637.9 " fill="#F2F2F2"></path></g></g><g><clipPath id="clip-235"><path d="M 180.0 633.4 L 188.3 633.4 L 188.3 641.7 L 180.0 641.7 Z M 180.0 633.4 "></path></clipPath><g clip-path="url(#clip-235)"><path d="M 186.4 639.8 C 187.6 638.5 187.6 636.5 186.4 635.3 C 185.1 634.1 183.1 634.1 181.9 635.3 C 180.7 636.5 180.7 638.5 181.9 639.8 C 183.1 641.0 185.1 641.0 186.4 639.8 Z M 186.4 639.8 " fill="#F2F2F2"></path></g></g><g><clipPath id="clip-236"><path d="M 180.0 633.4 L 188.3 633.4 L 188.3 641.7 L 180.0 641.7 Z M 180.0 633.4 "></path></clipPath><g clip-path="url(#clip-236)"><path d="M 186.4 639.8 C 187.6 638.5 187.6 636.5 186.4 635.3 C 185.1 634.1 183.1 634.1 181.9 635.3 C 180.7 636.5 180.7 638.5 181.9 639.8 C 183.1 641.0 185.1 641.0 186.4 639.8 Z M 186.4 639.8 " fill="#F2F2F2"></path></g></g><g><clipPath id="clip-237"><path d="M 181.0 634.4 L 187.2 634.4 L 187.2 640.6 L 181.0 640.6 Z M 181.0 634.4 "></path></clipPath><g clip-path="url(#clip-237)"><path d="M 182.0 637.5 C 182.0 638.7 183.0 639.6 184.1 639.6 C 185.3 639.6 186.2 638.7 186.2 637.5 C 186.2 636.4 185.3 635.4 184.1 635.4 C 183.0 635.4 182.0 636.4 182.0 637.5 Z M 182.0 637.5 " fill="#F2F2F2"></path></g></g><g><clipPath id="clip-238"><path d="M 181.0 634.4 L 187.2 634.4 L 187.2 640.6 L 181.0 640.6 Z M 181.0 634.4 "></path></clipPath><g clip-path="url(#clip-238)"><path d="M 182.0 637.5 C 182.0 638.7 183.0 639.6 184.1 639.6 C 185.3 639.6 186.2 638.7 186.2 637.5 C 186.2 636.4 185.3 635.4 184.1 635.4 C 183.0 635.4 182.0 636.4 182.0 637.5 Z M 182.0 637.5 " fill="#F2F2F2"></path></g></g><g><clipPath id="clip-239"><path d="M 180.6 634.8 L 186.8 634.8 L 186.8 641.0 L 180.6 641.0 Z M 180.6 634.8 "></path></clipPath><g clip-path="url(#clip-239)"><path d="M 185.8 635.8 L 181.6 635.8 L 185.8 640.0 L 185.8 635.8 Z M 185.8 635.8 " fill="#F2F2F2"></path></g></g><g><clipPath id="clip-240"><path d="M 180.6 634.8 L 186.8 634.8 L 186.8 641.0 L 180.6 641.0 Z M 180.6 634.8 "></path></clipPath><g clip-path="url(#clip-240)"><path d="M 185.8 635.8 L 181.6 635.8 L 185.8 640.0 L 185.8 635.8 Z M 185.8 635.8 " fill="#F2F2F2"></path></g></g><g><clipPath id="clip-241"><path d="M 156.6 18.3 L 210.9 18.3 L 210.9 72.7 L 156.6 72.7 Z M 156.6 18.3 "></path></clipPath><g clip-path="url(#clip-241)"><path d="M 43.8 7.5 C 53.8 17.5 53.8 33.8 43.8 43.8 C 33.8 53.9 17.5 53.9 7.5 43.8 C -2.5 33.8 -2.5 17.5 7.5 7.5 C 17.5 -2.5 33.8 -2.5 43.8 7.5 Z M 43.8 7.5 " fill="none" stroke="#F2F2F2" stroke-width="1.00" stroke-linejoin="round" transform="matrix(1.00, 0.00, 0.00, -1.00, 158.1, 71.2)"></path></g></g><g><clipPath id="clip-242"><path d="M 44.1 86.0 L 324.1 86.0 L 324.1 575.3 L 44.1 575.3 Z M 44.1 86.0 "></path></clipPath><g clip-path="url(#clip-242)"><path d="M 45.1 574.3 L 323.1 574.3 L 323.1 87.0 L 45.1 87.0 Z M 45.1 574.3 " fill="#F2F2F2"></path></g></g><g><clipPath id="clip-243"><path d="M 158.6 604.2 L 218.3 604.2 L 218.3 619.6 L 158.6 619.6 Z M 158.6 604.2 "></path></clipPath><g clip-path="url(#clip-243)"><path d="M 166.0 605.2 C 162.0 605.2 159.6 608.3 159.6 611.5 C 159.6 615.4 162.0 618.6 166.0 618.6 C 211.0 618.6 211.0 618.6 211.0 618.6 C 214.9 618.6 217.3 615.4 217.3 611.5 C 217.3 608.3 214.9 605.2 211.0 605.2 L 166.0 605.2 Z M 166.0 605.2 " fill="#F2F2F2"></path></g></g><g><clipPath id="clip-244"><path d="M 161.8 608.1 L 215.1 608.1 L 215.1 615.6 L 161.8 615.6 Z M 161.8 608.1 "></path></clipPath><g clip-path="url(#clip-244)"><path d="M 214.1 611.5 C 214.1 609.9 212.6 609.1 211.0 609.1 C 166.0 609.1 166.0 609.1 166.0 609.1 C 164.4 609.1 162.8 609.9 162.8 611.5 C 162.8 613.1 164.4 614.6 166.0 614.6 C 211.0 614.6 211.0 614.6 211.0 614.6 C 212.6 614.6 214.1 613.1 214.1 611.5 Z M 214.1 611.5 " fill="#3F3F3F"></path></g></g><g><clipPath id="clip-245"><path d="M 139.7 606.5 L 150.4 606.5 L 150.4 617.2 L 139.7 617.2 Z M 139.7 606.5 "></path></clipPath><g clip-path="url(#clip-245)"><path d="M 148.1 614.9 C 149.8 613.2 149.8 610.5 148.1 608.8 C 146.4 607.1 143.6 607.1 142.0 608.8 C 140.3 610.5 140.3 613.2 142.0 614.9 C 143.6 616.6 146.4 616.6 148.1 614.9 Z M 148.1 614.9 " fill="#F2F2F2"></path></g></g><g><clipPath id="clip-246"><path d="M 42.0 578.0 L 325.0 578.0 L 325.0 82.0 L 42.0 82.0 Z M 42.1 578.4 "></path></clipPath><g clip-path="url(#clip-246)"><g><clipPath id="clip-247"><path d="M 42.1 81.6 L 325.4 81.6 L 325.4 578.4 L 42.1 578.4 Z M 42.1 81.6 "></path></clipPath><g clip-path="url(#clip-247)"><image xlink:href="60522D9708681C6D87436BF7613840F7.jpeg" width="290.00" height="497.00" transform="matrix(1.00, 0.00, -0.00, -1.00, 39.0, 578.0)"></image></g></g></g></g><g><clipPath id="clip-248"><path d="M -4.3 638.6 L 371.7 638.6 L 371.7 746.5 L -4.3 746.5 Z M -4.3 638.6 "></path></clipPath><g clip-path="url(#clip-248)"><text xml:space="preserve" font-family="Roboto-Light" font-size="34.0" fill="#3F3F3F" transform="matrix(1.00, 0.00, -0.00, -1.00, 40.0, 705.0)">P</text><text xml:space="preserve" font-family="Roboto-Light" font-size="34.0" fill="#3F3F3F" transform="matrix(1.00, 0.00, -0.00, -1.00, 60.9, 705.0)">i</text><text xml:space="preserve" font-family="Roboto-Light" font-size="34.0" fill="#3F3F3F" transform="matrix(1.00, 0.00, -0.00, -1.00, 68.5, 705.0)">c</text><text xml:space="preserve" font-family="Roboto-Light" font-size="34.0" fill="#3F3F3F" transform="matrix(1.00, 0.00, -0.00, -1.00, 86.0, 705.0)">k</text><text xml:space="preserve" font-family="Roboto-Light" font-size="34.0" fill="#3F3F3F" transform="matrix(1.00, 0.00, -0.00, -1.00, 102.7, 705.0)"> </text><text xml:space="preserve" font-family="Roboto-Light" font-size="34.0" fill="#3F3F3F" transform="matrix(1.00, 0.00, -0.00, -1.00, 111.0, 705.0)">w</text><text xml:space="preserve" font-family="Roboto-Light" font-size="34.0" fill="#3F3F3F" transform="matrix(1.00, 0.00, -0.00, -1.00, 136.6, 705.0)">h</text><text xml:space="preserve" font-family="Roboto-Light" font-size="34.0" fill="#3F3F3F" transform="matrix(1.00, 0.00, -0.00, -1.00, 155.2, 705.0)">a</text><text xml:space="preserve" font-family="Roboto-Light" font-size="34.0" fill="#3F3F3F" transform="matrix(1.00, 0.00, -0.00, -1.00, 173.4, 705.0)">t</text><text xml:space="preserve" font-family="Roboto-Light" font-size="34.0" fill="#3F3F3F" transform="matrix(1.00, 0.00, -0.00, -1.00, 184.4, 705.0)"> </text><text xml:space="preserve" font-family="Roboto-Light" font-size="34.0" fill="#3F3F3F" transform="matrix(1.00, 0.00, -0.00, -1.00, 192.7, 705.0)">y</text><text xml:space="preserve" font-family="Roboto-Light" font-size="34.0" fill="#3F3F3F" transform="matrix(1.00, 0.00, -0.00, -1.00, 208.6, 705.0)">o</text><text xml:space="preserve" font-family="Roboto-Light" font-size="34.0" fill="#3F3F3F" transform="matrix(1.00, 0.00, -0.00, -1.00, 227.6, 705.0)">u</text><text xml:space="preserve" font-family="Roboto-Light" font-size="34.0" fill="#3F3F3F" transform="matrix(1.00, 0.00, -0.00, -1.00, 246.3, 705.0)"> </text><text xml:space="preserve" font-family="Roboto-Light" font-size="34.0" fill="#3F3F3F" transform="matrix(1.00, 0.00, -0.00, -1.00, 254.6, 705.0)">w</text><text xml:space="preserve" font-family="Roboto-Light" font-size="34.0" fill="#3F3F3F" transform="matrix(1.00, 0.00, -0.00, -1.00, 280.2, 705.0)">a</text><text xml:space="preserve" font-family="Roboto-Light" font-size="34.0" fill="#3F3F3F" transform="matrix(1.00, 0.00, -0.00, -1.00, 298.4, 705.0)">n</text><text xml:space="preserve" font-family="Roboto-Light" font-size="34.0" fill="#3F3F3F" transform="matrix(1.00, 0.00, -0.00, -1.00, 317.1, 705.0)">t</text><text xml:space="preserve" font-family="Roboto-Light" font-size="34.0" fill="#3F3F3F" transform="matrix(1.00, 0.00, -0.00, -1.00, 328.1, 705.0)"> </text></g></g><g><clipPath id="clip-249"><path d="M 158.7 754.2 L 208.7 754.2 L 208.7 794.4 L 158.7 794.4 Z M 158.7 754.2 "></path></clipPath><g clip-path="url(#clip-249)"><path d="M 183.7 791.5 L 205.9 756.2 L 161.5 756.2 Z M 183.7 791.5 " fill="#FFFFFF"></path><path d="M 22.2 0.0 L 44.4 35.3 L 0.0 35.3 Z M 22.2 0.0 " fill="none" stroke="#525252" stroke-width="2.00" stroke-miterlimit="8.00" transform="matrix(1.00, 0.00, 0.00, -1.00, 161.5, 791.5)"></path></g></g></g></svg>