<?xml version="1.0" encoding="UTF-8" standalone="no"?><svg xmlns="http://www.w3.org/2000/svg" xmlns:xlink="http://www.w3.org/1999/xlink" clip-rule="evenodd" stroke-miterlimit="4.00" viewBox="0 0 330 799"><desc>SVG generated by Keynote</desc><defs></defs><g transform="matrix(1.00, 0.00, -0.00, -1.00, 0.0, 799.0)"><g><clipPath id="clip-291"><path d="M 0.3 0.1 L 329.1 0.1 L 329.1 683.8 L 0.3 683.8 Z M 0.3 0.1 "></path></clipPath><g clip-path="url(#clip-291)"><path d="M 33.5 3.6 C 16.6 3.6 3.8 16.5 3.8 33.3 C 3.8 650.6 3.8 650.6 3.8 650.6 C 3.8 667.5 16.6 680.3 33.5 680.3 C 296.7 680.3 296.7 680.3 296.7 680.3 C 312.8 680.3 325.6 667.5 325.6 650.6 C 325.6 33.3 325.6 33.3 325.6 33.3 C 325.6 16.5 312.8 3.6 296.7 3.6 L 33.5 3.6 Z M 33.5 3.6 " fill="#3F3F3F"></path><path d="M 29.7 676.7 C 12.8 676.7 0.0 663.9 0.0 647.0 C 0.0 29.7 0.0 29.7 0.0 29.7 C 0.0 12.8 12.8 0.0 29.7 0.0 C 292.9 0.0 292.9 0.0 292.9 0.0 C 309.0 0.0 321.8 12.8 321.8 29.7 C 321.8 647.0 321.8 647.0 321.8 647.0 C 321.8 663.9 309.0 676.7 292.9 676.7 L 29.7 676.7 Z M 29.7 676.7 " fill="none" stroke="#BFBFBF" stroke-width="5.00" stroke-linejoin="round" transform="matrix(1.00, 0.00, 0.00, -1.00, 3.8, 680.3)"></path></g></g><g><clipPath id="clip-292"><path d="M 159.3 640.8 L 170.9 640.8 L 170.9 652.4 L 159.3 652.4 Z M 159.3 640.8 "></path></clipPath><g clip-path="url(#clip-292)"><path d="M 168.5 650.0 C 170.4 648.1 170.4 645.1 168.5 643.2 C 166.6 641.3 163.6 641.3 161.7 643.2 C 159.8 645.1 159.8 648.1 161.7 650.0 C 163.6 651.9 166.6 651.9 168.5 650.0 Z M 168.5 650.0 " fill="#F2F2F2"></path></g></g><g><clipPath id="clip-293"><path d="M 161.6 643.9 L 167.8 643.9 L 167.8 650.1 L 161.6 650.1 Z M 161.6 643.9 "></path></clipPath><g clip-path="url(#clip-293)"><path d="M 162.6 647.0 C 162.6 648.2 163.5 649.1 164.7 649.1 C 165.9 649.1 166.8 648.2 166.8 647.0 C 166.8 645.8 165.9 644.9 164.7 644.9 C 163.5 644.9 162.6 645.8 162.6 647.0 Z M 162.6 647.0 " fill="#F2F2F2"></path></g></g><g><clipPath id="clip-294"><path d="M 159.3 641.6 L 170.9 641.6 L 170.9 653.2 L 159.3 653.2 Z M 159.3 641.6 "></path></clipPath><g clip-path="url(#clip-294)"><path d="M 168.5 650.8 C 170.4 648.9 170.4 645.9 168.5 644.0 C 166.6 642.1 163.6 642.1 161.7 644.0 C 159.8 645.9 159.8 648.9 161.7 650.8 C 163.6 652.7 166.6 652.7 168.5 650.8 Z M 168.5 650.8 " fill="#F2F2F2"></path></g></g><g><clipPath id="clip-295"><path d="M 161.6 644.7 L 167.8 644.7 L 167.8 650.9 L 161.6 650.9 Z M 161.6 644.7 "></path></clipPath><g clip-path="url(#clip-295)"><path d="M 162.6 647.8 C 162.6 649.0 163.5 649.9 164.7 649.9 C 165.9 649.9 166.8 649.0 166.8 647.8 C 166.8 646.6 165.9 645.7 164.7 645.7 C 163.5 645.7 162.6 646.6 162.6 647.8 Z M 162.6 647.8 " fill="#F2F2F2"></path></g></g><g><clipPath id="clip-296"><path d="M 160.9 643.2 L 169.3 643.2 L 169.3 651.6 L 160.9 651.6 Z M 160.9 643.2 "></path></clipPath><g clip-path="url(#clip-296)"><path d="M 167.4 649.7 C 168.6 648.4 168.6 646.4 167.4 645.1 C 166.1 643.9 164.1 643.9 162.8 645.1 C 161.6 646.4 161.6 648.4 162.8 649.7 C 164.1 650.9 166.1 650.9 167.4 649.7 Z M 167.4 649.7 " fill="#F2F2F2"></path></g></g><g><clipPath id="clip-297"><path d="M 160.9 643.2 L 169.3 643.2 L 169.3 651.6 L 160.9 651.6 Z M 160.9 643.2 "></path></clipPath><g clip-path="url(#clip-297)"><path d="M 167.4 649.7 C 168.6 648.4 168.6 646.4 167.4 645.1 C 166.1 643.9 164.1 643.9 162.8 645.1 C 161.6 646.4 161.6 648.4 162.8 649.7 C 164.1 650.9 166.1 650.9 167.4 649.7 Z M 167.4 649.7 " fill="#F2F2F2"></path></g></g><g><clipPath id="clip-298"><path d="M 162.0 644.3 L 168.2 644.3 L 168.2 650.5 L 162.0 650.5 Z M 162.0 644.3 "></path></clipPath><g clip-path="url(#clip-298)"><path d="M 163.0 647.4 C 163.0 648.6 163.9 649.5 165.1 649.5 C 166.3 649.5 167.2 648.6 167.2 647.4 C 167.2 646.2 166.3 645.3 165.1 645.3 C 163.9 645.3 163.0 646.2 163.0 647.4 Z M 163.0 647.4 " fill="#F2F2F2"></path></g></g><g><clipPath id="clip-299"><path d="M 162.0 644.3 L 168.2 644.3 L 168.2 650.5 L 162.0 650.5 Z M 162.0 644.3 "></path></clipPath><g clip-path="url(#clip-299)"><path d="M 163.0 647.4 C 163.0 648.6 163.9 649.5 165.1 649.5 C 166.3 649.5 167.2 648.6 167.2 647.4 C 167.2 646.2 166.3 645.3 165.1 645.3 C 163.9 645.3 163.0 646.2 163.0 647.4 Z M 163.0 647.4 " fill="#F2F2F2"></path></g></g><g><clipPath id="clip-300"><path d="M 161.6 644.7 L 167.8 644.7 L 167.8 650.9 L 161.6 650.9 Z M 161.6 644.7 "></path></clipPath><g clip-path="url(#clip-300)"><path d="M 166.8 645.7 L 162.6 645.7 L 166.8 649.9 L 166.8 645.7 Z M 166.8 645.7 " fill="#F2F2F2"></path></g></g><g><clipPath id="clip-301"><path d="M 161.6 644.7 L 167.8 644.7 L 167.8 650.9 L 161.6 650.9 Z M 161.6 644.7 "></path></clipPath><g clip-path="url(#clip-301)"><path d="M 166.8 645.7 L 162.6 645.7 L 166.8 649.9 L 166.8 645.7 Z M 166.8 645.7 " fill="#F2F2F2"></path></g></g><g><clipPath id="clip-302"><path d="M 137.1 18.2 L 192.3 18.2 L 192.3 73.3 L 137.1 73.3 Z M 137.1 18.2 "></path></clipPath><g clip-path="url(#clip-302)"><path d="M 44.5 7.6 C 54.7 17.8 54.7 34.3 44.5 44.5 C 34.3 54.7 17.8 54.7 7.6 44.5 C -2.5 34.3 -2.5 17.8 7.6 7.6 C 17.8 -2.5 34.3 -2.5 44.5 7.6 Z M 44.5 7.6 " fill="none" stroke="#F2F2F2" stroke-width="1.00" stroke-linejoin="round" transform="matrix(1.00, 0.00, 0.00, -1.00, 138.6, 71.8)"></path></g></g><g><clipPath id="clip-303"><path d="M 22.9 86.9 L 307.3 86.9 L 307.3 584.2 L 22.9 584.2 Z M 22.9 86.9 "></path></clipPath><g clip-path="url(#clip-303)"><path d="M 23.9 583.2 L 306.3 583.2 L 306.3 87.9 L 23.9 87.9 Z M 23.9 583.2 " fill="#F2F2F2"></path></g></g><g><clipPath id="clip-304"><path d="M 139.2 613.5 L 199.8 613.5 L 199.8 629.1 L 139.2 629.1 Z M 139.2 613.5 "></path></clipPath><g clip-path="url(#clip-304)"><path d="M 146.6 614.5 C 142.6 614.5 140.2 617.7 140.2 620.9 C 140.2 624.9 142.6 628.1 146.6 628.1 C 192.4 628.1 192.4 628.1 192.4 628.1 C 196.4 628.1 198.8 624.9 198.8 620.9 C 198.8 617.7 196.4 614.5 192.4 614.5 L 146.6 614.5 Z M 146.6 614.5 " fill="#F2F2F2"></path></g></g><g><clipPath id="clip-305"><path d="M 142.4 617.5 L 196.6 617.5 L 196.6 625.1 L 142.4 625.1 Z M 142.4 617.5 "></path></clipPath><g clip-path="url(#clip-305)"><path d="M 195.6 620.9 C 195.6 619.3 194.0 618.5 192.4 618.5 C 146.6 618.5 146.6 618.5 146.6 618.5 C 145.0 618.5 143.4 619.3 143.4 620.9 C 143.4 622.5 145.0 624.1 146.6 624.1 C 192.4 624.1 192.4 624.1 192.4 624.1 C 194.0 624.1 195.6 622.5 195.6 620.9 Z M 195.6 620.9 " fill="#3F3F3F"></path></g></g><g><clipPath id="clip-306"><path d="M 120.0 615.9 L 130.8 615.9 L 130.8 626.7 L 120.0 626.7 Z M 120.0 615.9 "></path></clipPath><g clip-path="url(#clip-306)"><path d="M 128.5 624.4 C 130.2 622.7 130.2 619.9 128.5 618.2 C 126.8 616.5 124.0 616.5 122.2 618.2 C 120.5 619.9 120.5 622.7 122.2 624.4 C 124.0 626.2 126.8 626.2 128.5 624.4 Z M 128.5 624.4 " fill="#F2F2F2"></path></g></g><g><clipPath id="clip-307"><path d="M 21.0 587.0 L 309.0 587.0 L 309.0 83.0 L 21.0 83.0 Z M 20.7 587.3 "></path></clipPath><g clip-path="url(#clip-307)"><g><clipPath id="clip-308"><path d="M 20.7 82.5 L 308.7 82.5 L 308.7 587.3 L 20.7 587.3 Z M 20.7 82.5 "></path></clipPath><g clip-path="url(#clip-308)"><image xlink:href="B5584E20A12E913ED0A68E59D3CBEED2.jpeg" width="294.00" height="505.00" transform="matrix(1.00, 0.00, -0.00, -1.00, 17.0, 587.0)"></image></g></g></g></g><g><clipPath id="clip-309"><path d="M 22.9 643.6 L 306.5 643.6 L 306.5 751.5 L 22.9 751.5 Z M 22.9 643.6 "></path></clipPath><g clip-path="url(#clip-309)"><text xml:space="preserve" font-family="Roboto-Light" font-size="34.0" fill="#3F3F3F" transform="matrix(1.00, 0.00, -0.00, -1.00, 109.0, 710.0)">T</text><text xml:space="preserve" font-family="Roboto-Light" font-size="34.0" fill="#3F3F3F" transform="matrix(1.00, 0.00, -0.00, -1.00, 128.1, 710.0)">r</text><text xml:space="preserve" font-family="Roboto-Light" font-size="34.0" fill="#3F3F3F" transform="matrix(1.00, 0.00, -0.00, -1.00, 138.9, 710.0)">a</text><text xml:space="preserve" font-family="Roboto-Light" font-size="34.0" fill="#3F3F3F" transform="matrix(1.00, 0.00, -0.00, -1.00, 157.1, 710.0)">d</text><text xml:space="preserve" font-family="Roboto-Light" font-size="34.0" fill="#3F3F3F" transform="matrix(1.00, 0.00, -0.00, -1.00, 175.9, 710.0)">e</text><text xml:space="preserve" font-family="Roboto-Light" font-size="34.0" fill="#3F3F3F" transform="matrix(1.00, 0.00, -0.00, -1.00, 193.5, 710.0)"> </text><text xml:space="preserve" font-family="Roboto-Light" font-size="34.0" fill="#3F3F3F" transform="matrix(1.00, 0.00, -0.00, -1.00, 201.8, 710.0)">:</text><text xml:space="preserve" font-family="Roboto-Light" font-size="34.0" fill="#3F3F3F" transform="matrix(1.00, 0.00, -0.00, -1.00, 208.9, 710.0)">)</text><text xml:space="preserve" font-family="Roboto-Light" font-size="34.0" fill="#3F3F3F" transform="matrix(1.00, 0.00, -0.00, -1.00, 220.0, 710.0)"> </text></g></g><g><clipPath id="clip-310"><path d="M 119.8 759.9 L 209.6 759.9 L 209.6 798.6 L 119.8 798.6 Z M 119.8 759.9 "></path></clipPath><g clip-path="url(#clip-310)"><g><clipPath id="clip-311"><path d="M 120.0 799.0 L 210.0 799.0 L 210.0 760.0 L 120.0 760.0 Z M 120.0 799.0 "></path></clipPath><g clip-path="url(#clip-311)"><g><clipPath id="clip-312"><path d="M 120.0 760.0 L 210.0 760.0 L 210.0 799.0 L 120.0 799.0 Z M 120.0 760.0 "></path></clipPath><g clip-path="url(#clip-312)"><path d="M 0.0 0.0 L -28.0 -47.6 L -0.7 -94.0 L -0.3 -94.0 L 27.5 -46.7 L 0.0 0.0 Z M 0.0 0.0 " fill="none" stroke="#000000" stroke-width="2.00" stroke-miterlimit="0.00" transform="matrix(0.40, 0.00, 0.00, -0.40, 165.2, 760.8)"></path><path d="M 0.0 0.0 L -27.5 -46.7 L 0.3 -94.0 L 55.3 -94.0 L 0.0 0.0 Z M 0.0 0.0 " fill="none" stroke="#000000" stroke-width="2.00" stroke-miterlimit="0.00" transform="matrix(0.40, 0.00, 0.00, -0.40, 187.2, 760.8)"></path><path d="M 0.0 0.0 L 55.6 0.0 L 27.8 47.3 L 0.0 0.0 Z M 0.0 0.0 " fill="none" stroke="#000000" stroke-width="2.00" stroke-miterlimit="0.00" transform="matrix(0.40, 0.00, 0.00, -0.40, 165.1, 798.6)"></path><path d="M 0.0 0.0 L -55.3 -94.0 L 0.7 -94.0 L 28.0 -47.6 L 0.0 0.0 Z M 0.0 0.0 " fill="none" stroke="#000000" stroke-width="2.00" stroke-miterlimit="0.00" transform="matrix(0.40, 0.00, 0.00, -0.40, 142.8, 760.8)"></path><path d="M 0.0 0.0 L 54.6 0.0 L 27.3 46.4 L 0.0 0.0 Z M 0.0 0.0 " fill="none" stroke="#000000" stroke-width="2.00" stroke-miterlimit="0.00" transform="matrix(0.40, 0.00, 0.00, -0.40, 143.1, 798.6)"></path></g></g></g></g></g></g></g></svg>