<?xml version="1.0" encoding="UTF-8" standalone="no"?><svg xmlns="http://www.w3.org/2000/svg" xmlns:xlink="http://www.w3.org/1999/xlink" clip-rule="evenodd" stroke-miterlimit="4.00" viewBox="0 0 325 793"><desc>SVG generated by Keynote</desc><defs></defs><g transform="matrix(1.00, 0.00, -0.00, -1.00, 0.0, 793.0)"><g><clipPath id="clip-250"><path d="M 0.9 0.9 L 324.6 0.9 L 324.6 673.8 L 0.9 673.8 Z M 0.9 0.9 "></path></clipPath><g clip-path="url(#clip-250)"><path d="M 33.6 4.4 C 17.0 4.4 4.4 17.0 4.4 33.6 C 4.4 641.1 4.4 641.1 4.4 641.1 C 4.4 657.7 17.0 670.3 33.6 670.3 C 292.7 670.3 292.7 670.3 292.7 670.3 C 308.4 670.3 321.1 657.7 321.1 641.1 C 321.1 33.6 321.1 33.6 321.1 33.6 C 321.1 17.0 308.4 4.4 292.7 4.4 L 33.6 4.4 Z M 33.6 4.4 " fill="#3F3F3F"></path><path d="M 29.2 665.9 C 12.6 665.9 0.0 653.3 0.0 636.7 C 0.0 29.2 0.0 29.2 0.0 29.2 C 0.0 12.6 12.6 0.0 29.2 0.0 C 288.3 0.0 288.3 0.0 288.3 0.0 C 304.0 0.0 316.7 12.6 316.7 29.2 C 316.7 636.7 316.7 636.7 316.7 636.7 C 316.7 653.3 304.0 665.9 288.3 665.9 L 29.2 665.9 Z M 29.2 665.9 " fill="none" stroke="#BFBFBF" stroke-width="5.00" stroke-linejoin="round" transform="matrix(1.00, 0.00, 0.00, -1.00, 4.4, 670.3)"></path></g></g><g><clipPath id="clip-251"><path d="M 157.4 631.4 L 168.9 631.4 L 168.9 642.9 L 157.4 642.9 Z M 157.4 631.4 "></path></clipPath><g clip-path="url(#clip-251)"><path d="M 166.5 640.5 C 168.3 638.6 168.3 635.6 166.5 633.8 C 164.6 631.9 161.6 631.9 159.8 633.8 C 157.9 635.6 157.9 638.6 159.8 640.5 C 161.6 642.3 164.6 642.3 166.5 640.5 Z M 166.5 640.5 " fill="#F2F2F2"></path></g></g><g><clipPath id="clip-252"><path d="M 159.6 634.4 L 165.8 634.4 L 165.8 640.6 L 159.6 640.6 Z M 159.6 634.4 "></path></clipPath><g clip-path="url(#clip-252)"><path d="M 160.6 637.5 C 160.6 638.7 161.6 639.6 162.7 639.6 C 163.9 639.6 164.8 638.7 164.8 637.5 C 164.8 636.4 163.9 635.4 162.7 635.4 C 161.6 635.4 160.6 636.4 160.6 637.5 Z M 160.6 637.5 " fill="#F2F2F2"></path></g></g><g><clipPath id="clip-253"><path d="M 157.4 632.2 L 168.9 632.2 L 168.9 643.7 L 157.4 643.7 Z M 157.4 632.2 "></path></clipPath><g clip-path="url(#clip-253)"><path d="M 166.5 641.3 C 168.3 639.4 168.3 636.4 166.5 634.6 C 164.6 632.7 161.6 632.7 159.8 634.6 C 157.9 636.4 157.9 639.4 159.8 641.3 C 161.6 643.1 164.6 643.1 166.5 641.3 Z M 166.5 641.3 " fill="#F2F2F2"></path></g></g><g><clipPath id="clip-254"><path d="M 159.6 635.2 L 165.8 635.2 L 165.8 641.4 L 159.6 641.4 Z M 159.6 635.2 "></path></clipPath><g clip-path="url(#clip-254)"><path d="M 160.6 638.3 C 160.6 639.5 161.6 640.4 162.7 640.4 C 163.9 640.4 164.8 639.5 164.8 638.3 C 164.8 637.2 163.9 636.2 162.7 636.2 C 161.6 636.2 160.6 637.2 160.6 638.3 Z M 160.6 638.3 " fill="#F2F2F2"></path></g></g><g><clipPath id="clip-255"><path d="M 159.0 633.8 L 167.3 633.8 L 167.3 642.1 L 159.0 642.1 Z M 159.0 633.8 "></path></clipPath><g clip-path="url(#clip-255)"><path d="M 165.4 640.2 C 166.6 638.9 166.6 636.9 165.4 635.7 C 164.1 634.5 162.1 634.5 160.9 635.7 C 159.7 636.9 159.7 638.9 160.9 640.2 C 162.1 641.4 164.1 641.4 165.4 640.2 Z M 165.4 640.2 " fill="#F2F2F2"></path></g></g><g><clipPath id="clip-256"><path d="M 159.0 633.8 L 167.3 633.8 L 167.3 642.1 L 159.0 642.1 Z M 159.0 633.8 "></path></clipPath><g clip-path="url(#clip-256)"><path d="M 165.4 640.2 C 166.6 638.9 166.6 636.9 165.4 635.7 C 164.1 634.5 162.1 634.5 160.9 635.7 C 159.7 636.9 159.7 638.9 160.9 640.2 C 162.1 641.4 164.1 641.4 165.4 640.2 Z M 165.4 640.2 " fill="#F2F2F2"></path></g></g><g><clipPath id="clip-257"><path d="M 160.0 634.8 L 166.2 634.8 L 166.2 641.0 L 160.0 641.0 Z M 160.0 634.8 "></path></clipPath><g clip-path="url(#clip-257)"><path d="M 161.0 637.9 C 161.0 639.1 162.0 640.0 163.1 640.0 C 164.3 640.0 165.2 639.1 165.2 637.9 C 165.2 636.8 164.3 635.8 163.1 635.8 C 162.0 635.8 161.0 636.8 161.0 637.9 Z M 161.0 637.9 " fill="#F2F2F2"></path></g></g><g><clipPath id="clip-258"><path d="M 160.0 634.8 L 166.2 634.8 L 166.2 641.0 L 160.0 641.0 Z M 160.0 634.8 "></path></clipPath><g clip-path="url(#clip-258)"><path d="M 161.0 637.9 C 161.0 639.1 162.0 640.0 163.1 640.0 C 164.3 640.0 165.2 639.1 165.2 637.9 C 165.2 636.8 164.3 635.8 163.1 635.8 C 162.0 635.8 161.0 636.8 161.0 637.9 Z M 161.0 637.9 " fill="#F2F2F2"></path></g></g><g><clipPath id="clip-259"><path d="M 159.6 635.2 L 165.8 635.2 L 165.8 641.4 L 159.6 641.4 Z M 159.6 635.2 "></path></clipPath><g clip-path="url(#clip-259)"><path d="M 164.8 636.2 L 160.6 636.2 L 164.8 640.4 L 164.8 636.2 Z M 164.8 636.2 " fill="#F2F2F2"></path></g></g><g><clipPath id="clip-260"><path d="M 159.6 635.2 L 165.8 635.2 L 165.8 641.4 L 159.6 641.4 Z M 159.6 635.2 "></path></clipPath><g clip-path="url(#clip-260)"><path d="M 164.8 636.2 L 160.6 636.2 L 164.8 640.4 L 164.8 636.2 Z M 164.8 636.2 " fill="#F2F2F2"></path></g></g><g><clipPath id="clip-261"><path d="M 135.6 18.7 L 189.9 18.7 L 189.9 73.0 L 135.6 73.0 Z M 135.6 18.7 "></path></clipPath><g clip-path="url(#clip-261)"><path d="M 43.8 7.5 C 53.8 17.5 53.8 33.8 43.8 43.8 C 33.8 53.9 17.5 53.9 7.5 43.8 C -2.5 33.8 -2.5 17.5 7.5 7.5 C 17.5 -2.5 33.8 -2.5 43.8 7.5 Z M 43.8 7.5 " fill="none" stroke="#F2F2F2" stroke-width="1.00" stroke-linejoin="round" transform="matrix(1.00, 0.00, 0.00, -1.00, 137.1, 71.5)"></path></g></g><g><clipPath id="clip-262"><path d="M 23.1 86.3 L 303.1 86.3 L 303.1 575.7 L 23.1 575.7 Z M 23.1 86.3 "></path></clipPath><g clip-path="url(#clip-262)"><path d="M 24.1 574.7 L 302.1 574.7 L 302.1 87.3 L 24.1 87.3 Z M 24.1 574.7 " fill="#F2F2F2"></path></g></g><g><clipPath id="clip-263"><path d="M 137.7 604.5 L 197.3 604.5 L 197.3 620.0 L 137.7 620.0 Z M 137.7 604.5 "></path></clipPath><g clip-path="url(#clip-263)"><path d="M 145.0 605.5 C 141.0 605.5 138.7 608.7 138.7 611.9 C 138.7 615.8 141.0 619.0 145.0 619.0 C 190.0 619.0 190.0 619.0 190.0 619.0 C 193.9 619.0 196.3 615.8 196.3 611.9 C 196.3 608.7 193.9 605.5 190.0 605.5 L 145.0 605.5 Z M 145.0 605.5 " fill="#F2F2F2"></path></g></g><g><clipPath id="clip-264"><path d="M 140.8 608.5 L 194.1 608.5 L 194.1 616.0 L 140.8 616.0 Z M 140.8 608.5 "></path></clipPath><g clip-path="url(#clip-264)"><path d="M 193.1 611.9 C 193.1 610.3 191.6 609.5 190.0 609.5 C 145.0 609.5 145.0 609.5 145.0 609.5 C 143.4 609.5 141.8 610.3 141.8 611.9 C 141.8 613.4 143.4 615.0 145.0 615.0 C 190.0 615.0 190.0 615.0 190.0 615.0 C 191.6 615.0 193.1 613.4 193.1 611.9 Z M 193.1 611.9 " fill="#3F3F3F"></path></g></g><g><clipPath id="clip-265"><path d="M 118.7 606.9 L 129.4 606.9 L 129.4 617.6 L 118.7 617.6 Z M 118.7 606.9 "></path></clipPath><g clip-path="url(#clip-265)"><path d="M 127.1 615.3 C 128.8 613.6 128.8 610.9 127.1 609.2 C 125.4 607.5 122.7 607.5 121.0 609.2 C 119.3 610.9 119.3 613.6 121.0 615.3 C 122.7 617.0 125.4 617.0 127.1 615.3 Z M 127.1 615.3 " fill="#F2F2F2"></path></g></g><g><clipPath id="clip-266"><path d="M 21.0 579.0 L 304.0 579.0 L 304.0 82.0 L 21.0 82.0 Z M 21.1 578.8 "></path></clipPath><g clip-path="url(#clip-266)"><g><clipPath id="clip-267"><path d="M 21.1 82.0 L 304.4 82.0 L 304.4 578.8 L 21.1 578.8 Z M 21.1 82.0 "></path></clipPath><g clip-path="url(#clip-267)"><image xlink:href="527A17DB70220471D5FACF2B7BB07AA0.jpeg" width="290.00" height="497.00" transform="matrix(1.00, 0.00, -0.00, -1.00, 18.0, 576.0)"></image></g></g></g></g><g><clipPath id="clip-268"><path d="M 3.7 637.6 L 323.8 637.6 L 323.8 745.5 L 3.7 745.5 Z M 3.7 637.6 "></path></clipPath><g clip-path="url(#clip-268)"><text xml:space="preserve" font-family="Roboto-Light" font-size="34.0" fill="#3F3F3F" transform="matrix(1.00, 0.00, -0.00, -1.00, 19.0, 704.0)">R</text><text xml:space="preserve" font-family="Roboto-Light" font-size="34.0" fill="#3F3F3F" transform="matrix(1.00, 0.00, -0.00, -1.00, 40.6, 704.0)">e</text><text xml:space="preserve" font-family="Roboto-Light" font-size="34.0" fill="#3F3F3F" transform="matrix(1.00, 0.00, -0.00, -1.00, 58.1, 704.0)">g</text><text xml:space="preserve" font-family="Roboto-Light" font-size="34.0" fill="#3F3F3F" transform="matrix(1.00, 0.00, -0.00, -1.00, 77.0, 704.0)">i</text><text xml:space="preserve" font-family="Roboto-Light" font-size="34.0" fill="#3F3F3F" transform="matrix(1.00, 0.00, -0.00, -1.00, 84.6, 704.0)">s</text><text xml:space="preserve" font-family="Roboto-Light" font-size="34.0" fill="#3F3F3F" transform="matrix(1.00, 0.00, -0.00, -1.00, 101.8, 704.0)">t</text><text xml:space="preserve" font-family="Roboto-Light" font-size="34.0" fill="#3F3F3F" transform="matrix(1.00, 0.00, -0.00, -1.00, 112.8, 704.0)">e</text><text xml:space="preserve" font-family="Roboto-Light" font-size="34.0" fill="#3F3F3F" transform="matrix(1.00, 0.00, -0.00, -1.00, 130.4, 704.0)">r</text><text xml:space="preserve" font-family="Roboto-Light" font-size="34.0" fill="#3F3F3F" transform="matrix(1.00, 0.00, -0.00, -1.00, 141.8, 704.0)"> </text><text xml:space="preserve" font-family="Roboto-Light" font-size="34.0" fill="#3F3F3F" transform="matrix(1.00, 0.00, -0.00, -1.00, 150.1, 704.0)">y</text><text xml:space="preserve" font-family="Roboto-Light" font-size="34.0" fill="#3F3F3F" transform="matrix(1.00, 0.00, -0.00, -1.00, 166.0, 704.0)">o</text><text xml:space="preserve" font-family="Roboto-Light" font-size="34.0" fill="#3F3F3F" transform="matrix(1.00, 0.00, -0.00, -1.00, 185.0, 704.0)">u</text><text xml:space="preserve" font-family="Roboto-Light" font-size="34.0" fill="#3F3F3F" transform="matrix(1.00, 0.00, -0.00, -1.00, 203.7, 704.0)">r</text><text xml:space="preserve" font-family="Roboto-Light" font-size="34.0" fill="#3F3F3F" transform="matrix(1.00, 0.00, -0.00, -1.00, 215.2, 704.0)"> </text><text xml:space="preserve" font-family="Roboto-Light" font-size="34.0" fill="#3F3F3F" transform="matrix(1.00, 0.00, -0.00, -1.00, 223.5, 704.0)">i</text><text xml:space="preserve" font-family="Roboto-Light" font-size="34.0" fill="#3F3F3F" transform="matrix(1.00, 0.00, -0.00, -1.00, 231.1, 704.0)">t</text><text xml:space="preserve" font-family="Roboto-Light" font-size="34.0" fill="#3F3F3F" transform="matrix(1.00, 0.00, -0.00, -1.00, 242.0, 704.0)">e</text><text xml:space="preserve" font-family="Roboto-Light" font-size="34.0" fill="#3F3F3F" transform="matrix(1.00, 0.00, -0.00, -1.00, 259.6, 704.0)">m</text><text xml:space="preserve" font-family="Roboto-Light" font-size="34.0" fill="#3F3F3F" transform="matrix(1.00, 0.00, -0.00, -1.00, 289.7, 704.0)">s</text><text xml:space="preserve" font-family="Roboto-Light" font-size="34.0" fill="#3F3F3F" transform="matrix(1.00, 0.00, -0.00, -1.00, 306.9, 704.0)"> </text></g></g><g><clipPath id="clip-269"><path d="M 137.7 752.3 L 187.7 752.3 L 187.7 792.5 L 137.7 792.5 Z M 137.7 752.3 "></path></clipPath><g clip-path="url(#clip-269)"><path d="M 162.7 755.2 L 184.9 790.5 L 140.6 790.5 Z M 162.7 755.2 " fill="#FFFFFF"></path><path d="M 22.2 0.0 L 44.4 35.3 L 0.0 35.3 Z M 22.2 0.0 " fill="none" stroke="#525252" stroke-width="2.00" stroke-miterlimit="8.00" transform="matrix(1.00, 0.00, 0.00, 1.00, 140.6, 755.2)"></path></g></g></g></svg>