<?xml version="1.0" encoding="UTF-8" standalone="no"?><svg xmlns="http://www.w3.org/2000/svg" xmlns:xlink="http://www.w3.org/1999/xlink" clip-rule="evenodd" stroke-miterlimit="4.00" viewBox="0 0 1920 1080"><desc>SVG generated by Keynote</desc><defs></defs><g transform="matrix(1.00, 0.00, -0.00, -1.00, 0.0, 1080.0)"><path d="M 0.0 1080.0 L 1920.0 1080.0 L 1920.0 0.0 L 0.0 0.0 Z M 0.0 1080.0 " fill="#FEFFFF"></path><path d="M 0.0 0.0 L 505.3 0.0 L 505.3 702.7 L 0.0 702.7 Z M 0.0 0.0 " fill="none" stroke="#9459B2" stroke-width="6.00" stroke-miterlimit="8.00" transform="matrix(1.00, 0.00, 0.00, -1.00, 320.6, 941.9)"></path><g><clipPath id="clip-134"><path d="M 363.0 983.0 L 868.0 983.0 L 868.0 280.0 L 363.0 280.0 Z M 362.7 982.7 "></path></clipPath><g clip-path="url(#clip-134)"><image xlink:href="../../E9D3671E-B727-4905-A536-DD88063092E6/assets/70235209FEE800E3B9B994D56553A69F.jpeg" width="540.00" height="670.00" transform="matrix(1.05, 0.00, -0.00, -1.05, 332.0, 983.0)"></image></g></g><path d="M 0.0 0.0 L 505.3 0.0 L 505.3 702.7 L 0.0 702.7 Z M 0.0 0.0 " fill="none" stroke="#9459B2" stroke-width="6.00" stroke-miterlimit="8.00" transform="matrix(1.00, 0.00, 0.00, -1.00, 1099.0, 941.9)"></path><text xml:space="preserve" font-family="Roboto-Thin" font-size="30.0" fill="#3F3F3F" transform="matrix(1.00, 0.00, -0.00, -1.00, 333.9, 143.3)">L</text><text xml:space="preserve" font-family="Roboto-Thin" font-size="30.0" fill="#3F3F3F" transform="matrix(1.00, 0.00, -0.00, -1.00, 349.4, 143.3)">o</text><text xml:space="preserve" font-family="Roboto-Thin" font-size="30.0" fill="#3F3F3F" transform="matrix(1.00, 0.00, -0.00, -1.00, 365.7, 143.3)">v</text><text xml:space="preserve" font-family="Roboto-Thin" font-size="30.0" fill="#3F3F3F" transform="matrix(1.00, 0.00, -0.00, -1.00, 379.8, 143.3)">e</text><text xml:space="preserve" font-family="Roboto-Thin" font-size="30.0" fill="#3F3F3F" transform="matrix(1.00, 0.00, -0.00, -1.00, 394.9, 143.3)">s</text><text xml:space="preserve" font-family="Roboto-Thin" font-size="30.0" fill="#3F3F3F" transform="matrix(1.00, 0.00, -0.00, -1.00, 409.9, 143.3)"> </text><text xml:space="preserve" font-family="Roboto-Thin" font-size="30.0" fill="#3F3F3F" transform="matrix(1.00, 0.00, -0.00, -1.00, 417.0, 143.3)">s</text><text xml:space="preserve" font-family="Roboto-Thin" font-size="30.0" fill="#3F3F3F" transform="matrix(1.00, 0.00, -0.00, -1.00, 432.0, 143.3)">n</text><text xml:space="preserve" font-family="Roboto-Thin" font-size="30.0" fill="#3F3F3F" transform="matrix(1.00, 0.00, -0.00, -1.00, 448.4, 143.3)">a</text><text xml:space="preserve" font-family="Roboto-Thin" font-size="30.0" fill="#3F3F3F" transform="matrix(1.00, 0.00, -0.00, -1.00, 464.2, 143.3)">p</text><text xml:space="preserve" font-family="Roboto-Thin" font-size="30.0" fill="#3F3F3F" transform="matrix(1.00, 0.00, -0.00, -1.00, 480.6, 143.3)">c</text><text xml:space="preserve" font-family="Roboto-Thin" font-size="30.0" fill="#3F3F3F" transform="matrix(1.00, 0.00, -0.00, -1.00, 495.9, 143.3)">h</text><text xml:space="preserve" font-family="Roboto-Thin" font-size="30.0" fill="#3F3F3F" transform="matrix(1.00, 0.00, -0.00, -1.00, 512.3, 143.3)">a</text><text xml:space="preserve" font-family="Roboto-Thin" font-size="30.0" fill="#3F3F3F" transform="matrix(1.00, 0.00, -0.00, -1.00, 528.1, 143.3)">t</text><text xml:space="preserve" font-family="Roboto-Thin" font-size="30.0" fill="#3F3F3F" transform="matrix(1.00, 0.00, -0.00, -1.00, 537.6, 143.3)">,</text><text xml:space="preserve" font-family="Roboto-Thin" font-size="30.0" fill="#3F3F3F" transform="matrix(1.00, 0.00, -0.00, -1.00, 543.3, 143.3)"> </text><text xml:space="preserve" font-family="Roboto-Thin" font-size="30.0" fill="#3F3F3F" transform="matrix(1.00, 0.00, -0.00, -1.00, 550.4, 143.3)">h</text><text xml:space="preserve" font-family="Roboto-Thin" font-size="30.0" fill="#3F3F3F" transform="matrix(1.00, 0.00, -0.00, -1.00, 566.9, 143.3)">a</text><text xml:space="preserve" font-family="Roboto-Thin" font-size="30.0" fill="#3F3F3F" transform="matrix(1.00, 0.00, -0.00, -1.00, 582.7, 143.3)">n</text><text xml:space="preserve" font-family="Roboto-Thin" font-size="30.0" fill="#3F3F3F" transform="matrix(1.00, 0.00, -0.00, -1.00, 599.1, 143.3)">g</text><text xml:space="preserve" font-family="Roboto-Thin" font-size="30.0" fill="#3F3F3F" transform="matrix(1.00, 0.00, -0.00, -1.00, 615.6, 143.3)">i</text><text xml:space="preserve" font-family="Roboto-Thin" font-size="30.0" fill="#3F3F3F" transform="matrix(1.00, 0.00, -0.00, -1.00, 621.8, 143.3)">n</text><text xml:space="preserve" font-family="Roboto-Thin" font-size="30.0" fill="#3F3F3F" transform="matrix(1.00, 0.00, -0.00, -1.00, 638.2, 143.3)">g</text><text xml:space="preserve" font-family="Roboto-Thin" font-size="30.0" fill="#3F3F3F" transform="matrix(1.00, 0.00, -0.00, -1.00, 654.7, 143.3)"> </text><text xml:space="preserve" font-family="Roboto-Thin" font-size="30.0" fill="#3F3F3F" transform="matrix(1.00, 0.00, -0.00, -1.00, 661.9, 143.3)">o</text><text xml:space="preserve" font-family="Roboto-Thin" font-size="30.0" fill="#3F3F3F" transform="matrix(1.00, 0.00, -0.00, -1.00, 678.4, 143.3)">u</text><text xml:space="preserve" font-family="Roboto-Thin" font-size="30.0" fill="#3F3F3F" transform="matrix(1.00, 0.00, -0.00, -1.00, 694.8, 143.3)">t</text><text xml:space="preserve" font-family="Roboto-Thin" font-size="30.0" fill="#3F3F3F" transform="matrix(1.00, 0.00, -0.00, -1.00, 704.3, 143.3)"> </text><text xml:space="preserve" font-family="Roboto-Thin" font-size="30.0" fill="#3F3F3F" transform="matrix(1.00, 0.00, -0.00, -1.00, 711.5, 143.3)">w</text><text xml:space="preserve" font-family="Roboto-Thin" font-size="30.0" fill="#3F3F3F" transform="matrix(1.00, 0.00, -0.00, -1.00, 734.2, 143.3)">i</text><text xml:space="preserve" font-family="Roboto-Thin" font-size="30.0" fill="#3F3F3F" transform="matrix(1.00, 0.00, -0.00, -1.00, 740.4, 143.3)">t</text><text xml:space="preserve" font-family="Roboto-Thin" font-size="30.0" fill="#3F3F3F" transform="matrix(1.00, 0.00, -0.00, -1.00, 749.9, 143.3)">h</text><text xml:space="preserve" font-family="Roboto-Thin" font-size="30.0" fill="#3F3F3F" transform="matrix(1.00, 0.00, -0.00, -1.00, 766.3, 143.3)"> </text><text xml:space="preserve" font-family="Roboto-Thin" font-size="30.0" fill="#3F3F3F" transform="matrix(1.00, 0.00, -0.00, -1.00, 773.5, 143.3)">h</text><text xml:space="preserve" font-family="Roboto-Thin" font-size="30.0" fill="#3F3F3F" transform="matrix(1.00, 0.00, -0.00, -1.00, 789.9, 143.3)">e</text><text xml:space="preserve" font-family="Roboto-Thin" font-size="30.0" fill="#3F3F3F" transform="matrix(1.00, 0.00, -0.00, -1.00, 805.1, 143.3)">r</text><text xml:space="preserve" font-family="Roboto-Thin" font-size="30.0" fill="#3F3F3F" transform="matrix(1.00, 0.00, -0.00, -1.00, 815.1, 143.3)"> </text><text xml:space="preserve" font-family="Roboto-Thin" font-size="30.0" fill="#3F3F3F" transform="matrix(1.00, 0.00, -0.00, -1.00, 280.5, 108.3)">f</text><text xml:space="preserve" font-family="Roboto-Thin" font-size="30.0" fill="#3F3F3F" transform="matrix(1.00, 0.00, -0.00, -1.00, 289.9, 108.3)">r</text><text xml:space="preserve" font-family="Roboto-Thin" font-size="30.0" fill="#3F3F3F" transform="matrix(1.00, 0.00, -0.00, -1.00, 300.0, 108.3)">i</text><text xml:space="preserve" font-family="Roboto-Thin" font-size="30.0" fill="#3F3F3F" transform="matrix(1.00, 0.00, -0.00, -1.00, 306.2, 108.3)">e</text><text xml:space="preserve" font-family="Roboto-Thin" font-size="30.0" fill="#3F3F3F" transform="matrix(1.00, 0.00, -0.00, -1.00, 321.3, 108.3)">n</text><text xml:space="preserve" font-family="Roboto-Thin" font-size="30.0" fill="#3F3F3F" transform="matrix(1.00, 0.00, -0.00, -1.00, 337.7, 108.3)">d</text><text xml:space="preserve" font-family="Roboto-Thin" font-size="30.0" fill="#3F3F3F" transform="matrix(1.00, 0.00, -0.00, -1.00, 354.1, 108.3)">s</text><text xml:space="preserve" font-family="Roboto-Thin" font-size="30.0" fill="#3F3F3F" transform="matrix(1.00, 0.00, -0.00, -1.00, 369.1, 108.3)">,</text><text xml:space="preserve" font-family="Roboto-Thin" font-size="30.0" fill="#3F3F3F" transform="matrix(1.00, 0.00, -0.00, -1.00, 374.7, 108.3)"> </text><text xml:space="preserve" font-family="Roboto-Thin" font-size="30.0" fill="#3F3F3F" transform="matrix(1.00, 0.00, -0.00, -1.00, 381.8, 108.3)">o</text><text xml:space="preserve" font-family="Roboto-Thin" font-size="30.0" fill="#3F3F3F" transform="matrix(1.00, 0.00, -0.00, -1.00, 398.4, 108.3)">u</text><text xml:space="preserve" font-family="Roboto-Thin" font-size="30.0" fill="#3F3F3F" transform="matrix(1.00, 0.00, -0.00, -1.00, 414.8, 108.3)">t</text><text xml:space="preserve" font-family="Roboto-Thin" font-size="30.0" fill="#3F3F3F" transform="matrix(1.00, 0.00, -0.00, -1.00, 424.3, 108.3)">d</text><text xml:space="preserve" font-family="Roboto-Thin" font-size="30.0" fill="#3F3F3F" transform="matrix(1.00, 0.00, -0.00, -1.00, 440.7, 108.3)">o</text><text xml:space="preserve" font-family="Roboto-Thin" font-size="30.0" fill="#3F3F3F" transform="matrix(1.00, 0.00, -0.00, -1.00, 457.3, 108.3)">o</text><text xml:space="preserve" font-family="Roboto-Thin" font-size="30.0" fill="#3F3F3F" transform="matrix(1.00, 0.00, -0.00, -1.00, 473.8, 108.3)">r</text><text xml:space="preserve" font-family="Roboto-Thin" font-size="30.0" fill="#3F3F3F" transform="matrix(1.00, 0.00, -0.00, -1.00, 483.8, 108.3)"> </text><text xml:space="preserve" font-family="Roboto-Thin" font-size="30.0" fill="#3F3F3F" transform="matrix(1.00, 0.00, -0.00, -1.00, 491.0, 108.3)">a</text><text xml:space="preserve" font-family="Roboto-Thin" font-size="30.0" fill="#3F3F3F" transform="matrix(1.00, 0.00, -0.00, -1.00, 506.8, 108.3)">c</text><text xml:space="preserve" font-family="Roboto-Thin" font-size="30.0" fill="#3F3F3F" transform="matrix(1.00, 0.00, -0.00, -1.00, 522.1, 108.3)">t</text><text xml:space="preserve" font-family="Roboto-Thin" font-size="30.0" fill="#3F3F3F" transform="matrix(1.00, 0.00, -0.00, -1.00, 531.6, 108.3)">i</text><text xml:space="preserve" font-family="Roboto-Thin" font-size="30.0" fill="#3F3F3F" transform="matrix(1.00, 0.00, -0.00, -1.00, 537.8, 108.3)">v</text><text xml:space="preserve" font-family="Roboto-Thin" font-size="30.0" fill="#3F3F3F" transform="matrix(1.00, 0.00, -0.00, -1.00, 552.1, 108.3)">i</text><text xml:space="preserve" font-family="Roboto-Thin" font-size="30.0" fill="#3F3F3F" transform="matrix(1.00, 0.00, -0.00, -1.00, 558.2, 108.3)">t</text><text xml:space="preserve" font-family="Roboto-Thin" font-size="30.0" fill="#3F3F3F" transform="matrix(1.00, 0.00, -0.00, -1.00, 567.8, 108.3)">i</text><text xml:space="preserve" font-family="Roboto-Thin" font-size="30.0" fill="#3F3F3F" transform="matrix(1.00, 0.00, -0.00, -1.00, 573.9, 108.3)">e</text><text xml:space="preserve" font-family="Roboto-Thin" font-size="30.0" fill="#3F3F3F" transform="matrix(1.00, 0.00, -0.00, -1.00, 589.1, 108.3)">s</text><text xml:space="preserve" font-family="Roboto-Thin" font-size="30.0" fill="#3F3F3F" transform="matrix(1.00, 0.00, -0.00, -1.00, 604.0, 108.3)">,</text><text xml:space="preserve" font-family="Roboto-Thin" font-size="30.0" fill="#3F3F3F" transform="matrix(1.00, 0.00, -0.00, -1.00, 609.6, 108.3)"> </text><text xml:space="preserve" font-family="Roboto-Thin" font-size="30.0" fill="#3F3F3F" transform="matrix(1.00, 0.00, -0.00, -1.00, 616.8, 108.3)">a</text><text xml:space="preserve" font-family="Roboto-Thin" font-size="30.0" fill="#3F3F3F" transform="matrix(1.00, 0.00, -0.00, -1.00, 632.6, 108.3)">n</text><text xml:space="preserve" font-family="Roboto-Thin" font-size="30.0" fill="#3F3F3F" transform="matrix(1.00, 0.00, -0.00, -1.00, 649.0, 108.3)">d</text><text xml:space="preserve" font-family="Roboto-Thin" font-size="30.0" fill="#3F3F3F" transform="matrix(1.00, 0.00, -0.00, -1.00, 665.5, 108.3)"> </text><text xml:space="preserve" font-family="Roboto-Medium" font-size="30.0" fill="#3F3F3F" transform="matrix(1.00, 0.00, -0.00, -1.00, 672.5, 108.3)">t</text><text xml:space="preserve" font-family="Roboto-Medium" font-size="30.0" fill="#3F3F3F" transform="matrix(1.00, 0.00, -0.00, -1.00, 682.4, 108.3)">h</text><text xml:space="preserve" font-family="Roboto-Medium" font-size="30.0" fill="#3F3F3F" transform="matrix(1.00, 0.00, -0.00, -1.00, 699.1, 108.3)">i</text><text xml:space="preserve" font-family="Roboto-Medium" font-size="30.0" fill="#3F3F3F" transform="matrix(1.00, 0.00, -0.00, -1.00, 706.8, 108.3)">n</text><text xml:space="preserve" font-family="Roboto-Medium" font-size="30.0" fill="#3F3F3F" transform="matrix(1.00, 0.00, -0.00, -1.00, 723.5, 108.3)">k</text><text xml:space="preserve" font-family="Roboto-Medium" font-size="30.0" fill="#3F3F3F" transform="matrix(1.00, 0.00, -0.00, -1.00, 739.1, 108.3)">s</text><text xml:space="preserve" font-family="Roboto-Medium" font-size="30.0" fill="#3F3F3F" transform="matrix(1.00, 0.00, -0.00, -1.00, 754.6, 108.3)"> </text><text xml:space="preserve" font-family="Roboto-Medium" font-size="30.0" fill="#3F3F3F" transform="matrix(1.00, 0.00, -0.00, -1.00, 762.1, 108.3)">t</text><text xml:space="preserve" font-family="Roboto-Medium" font-size="30.0" fill="#3F3F3F" transform="matrix(1.00, 0.00, -0.00, -1.00, 772.0, 108.3)">h</text><text xml:space="preserve" font-family="Roboto-Medium" font-size="30.0" fill="#3F3F3F" transform="matrix(1.00, 0.00, -0.00, -1.00, 788.7, 108.3)">a</text><text xml:space="preserve" font-family="Roboto-Medium" font-size="30.0" fill="#3F3F3F" transform="matrix(1.00, 0.00, -0.00, -1.00, 804.9, 108.3)">t</text><text xml:space="preserve" font-family="Roboto-Medium" font-size="30.0" fill="#3F3F3F" transform="matrix(1.00, 0.00, -0.00, -1.00, 814.9, 108.3)"> </text><text xml:space="preserve" font-family="Roboto-Medium" font-size="30.0" fill="#3F3F3F" transform="matrix(1.00, 0.00, -0.00, -1.00, 314.8, 73.3)">t</text><text xml:space="preserve" font-family="Roboto-Medium" font-size="30.0" fill="#3F3F3F" transform="matrix(1.00, 0.00, -0.00, -1.00, 324.7, 73.3)">h</text><text xml:space="preserve" font-family="Roboto-Medium" font-size="30.0" fill="#3F3F3F" transform="matrix(1.00, 0.00, -0.00, -1.00, 341.4, 73.3)">e</text><text xml:space="preserve" font-family="Roboto-Medium" font-size="30.0" fill="#3F3F3F" transform="matrix(1.00, 0.00, -0.00, -1.00, 357.5, 73.3)"> </text><text xml:space="preserve" font-family="Roboto-Medium" font-size="30.0" fill="#3F3F3F" transform="matrix(1.00, 0.00, -0.00, -1.00, 365.0, 73.3)">p</text><text xml:space="preserve" font-family="Roboto-Medium" font-size="30.0" fill="#3F3F3F" transform="matrix(1.00, 0.00, -0.00, -1.00, 381.9, 73.3)">r</text><text xml:space="preserve" font-family="Roboto-Medium" font-size="30.0" fill="#3F3F3F" transform="matrix(1.00, 0.00, -0.00, -1.00, 391.9, 73.3)">o</text><text xml:space="preserve" font-family="Roboto-Medium" font-size="30.0" fill="#3F3F3F" transform="matrix(1.00, 0.00, -0.00, -1.00, 408.9, 73.3)">c</text><text xml:space="preserve" font-family="Roboto-Medium" font-size="30.0" fill="#3F3F3F" transform="matrix(1.00, 0.00, -0.00, -1.00, 424.7, 73.3)">e</text><text xml:space="preserve" font-family="Roboto-Medium" font-size="30.0" fill="#3F3F3F" transform="matrix(1.00, 0.00, -0.00, -1.00, 440.7, 73.3)">s</text><text xml:space="preserve" font-family="Roboto-Medium" font-size="30.0" fill="#3F3F3F" transform="matrix(1.00, 0.00, -0.00, -1.00, 456.2, 73.3)">s</text><text xml:space="preserve" font-family="Roboto-Medium" font-size="30.0" fill="#3F3F3F" transform="matrix(1.00, 0.00, -0.00, -1.00, 471.7, 73.3)"> </text><text xml:space="preserve" font-family="Roboto-Medium" font-size="30.0" fill="#3F3F3F" transform="matrix(1.00, 0.00, -0.00, -1.00, 479.2, 73.3)">o</text><text xml:space="preserve" font-family="Roboto-Medium" font-size="30.0" fill="#3F3F3F" transform="matrix(1.00, 0.00, -0.00, -1.00, 496.3, 73.3)">f</text><text xml:space="preserve" font-family="Roboto-Medium" font-size="30.0" fill="#3F3F3F" transform="matrix(1.00, 0.00, -0.00, -1.00, 506.9, 73.3)"> </text><text xml:space="preserve" font-family="Roboto-Medium" font-size="30.0" fill="#3F3F3F" transform="matrix(1.00, 0.00, -0.00, -1.00, 514.4, 73.3)">s</text><text xml:space="preserve" font-family="Roboto-Medium" font-size="30.0" fill="#3F3F3F" transform="matrix(1.00, 0.00, -0.00, -1.00, 529.9, 73.3)">e</text><text xml:space="preserve" font-family="Roboto-Medium" font-size="30.0" fill="#3F3F3F" transform="matrix(1.00, 0.00, -0.00, -1.00, 546.0, 73.3)">l</text><text xml:space="preserve" font-family="Roboto-Medium" font-size="30.0" fill="#3F3F3F" transform="matrix(1.00, 0.00, -0.00, -1.00, 553.6, 73.3)">l</text><text xml:space="preserve" font-family="Roboto-Medium" font-size="30.0" fill="#3F3F3F" transform="matrix(1.00, 0.00, -0.00, -1.00, 561.3, 73.3)">i</text><text xml:space="preserve" font-family="Roboto-Medium" font-size="30.0" fill="#3F3F3F" transform="matrix(1.00, 0.00, -0.00, -1.00, 569.0, 73.3)">n</text><text xml:space="preserve" font-family="Roboto-Medium" font-size="30.0" fill="#3F3F3F" transform="matrix(1.00, 0.00, -0.00, -1.00, 585.7, 73.3)">g</text><text xml:space="preserve" font-family="Roboto-Medium" font-size="30.0" fill="#3F3F3F" transform="matrix(1.00, 0.00, -0.00, -1.00, 602.7, 73.3)"> </text><text xml:space="preserve" font-family="Roboto-Medium" font-size="30.0" fill="#3F3F3F" transform="matrix(1.00, 0.00, -0.00, -1.00, 610.2, 73.3)">i</text><text xml:space="preserve" font-family="Roboto-Medium" font-size="30.0" fill="#3F3F3F" transform="matrix(1.00, 0.00, -0.00, -1.00, 617.8, 73.3)">s</text><text xml:space="preserve" font-family="Roboto-Medium" font-size="30.0" fill="#3F3F3F" transform="matrix(1.00, 0.00, -0.00, -1.00, 633.3, 73.3)"> </text><text xml:space="preserve" font-family="Roboto-Medium" font-size="30.0" fill="#3F3F3F" transform="matrix(1.00, 0.00, -0.00, -1.00, 640.8, 73.3)">t</text><text xml:space="preserve" font-family="Roboto-Medium" font-size="30.0" fill="#3F3F3F" transform="matrix(1.00, 0.00, -0.00, -1.00, 650.3, 73.3)">o</text><text xml:space="preserve" font-family="Roboto-Medium" font-size="30.0" fill="#3F3F3F" transform="matrix(1.00, 0.00, -0.00, -1.00, 667.4, 73.3)">o</text><text xml:space="preserve" font-family="Roboto-Medium" font-size="30.0" fill="#3F3F3F" transform="matrix(1.00, 0.00, -0.00, -1.00, 684.5, 73.3)"> </text><text xml:space="preserve" font-family="Roboto-Medium" font-size="30.0" fill="#3F3F3F" transform="matrix(1.00, 0.00, -0.00, -1.00, 692.0, 73.3)">c</text><text xml:space="preserve" font-family="Roboto-Medium" font-size="30.0" fill="#3F3F3F" transform="matrix(1.00, 0.00, -0.00, -1.00, 707.7, 73.3)">o</text><text xml:space="preserve" font-family="Roboto-Medium" font-size="30.0" fill="#3F3F3F" transform="matrix(1.00, 0.00, -0.00, -1.00, 724.8, 73.3)">m</text><text xml:space="preserve" font-family="Roboto-Medium" font-size="30.0" fill="#3F3F3F" transform="matrix(1.00, 0.00, -0.00, -1.00, 750.9, 73.3)">p</text><text xml:space="preserve" font-family="Roboto-Medium" font-size="30.0" fill="#3F3F3F" transform="matrix(1.00, 0.00, -0.00, -1.00, 767.8, 73.3)">l</text><text xml:space="preserve" font-family="Roboto-Medium" font-size="30.0" fill="#3F3F3F" transform="matrix(1.00, 0.00, -0.00, -1.00, 775.4, 73.3)">e</text><text xml:space="preserve" font-family="Roboto-Medium" font-size="30.0" fill="#3F3F3F" transform="matrix(1.00, 0.00, -0.00, -1.00, 791.5, 73.3)">x</text><text xml:space="preserve" font-family="Roboto-Medium" font-size="30.0" fill="#3F3F3F" transform="matrix(1.00, 0.00, -0.00, -1.00, 806.6, 73.3)">.</text><text xml:space="preserve" font-family="Roboto-Medium" font-size="30.0" fill="#3F3F3F" transform="matrix(1.00, 0.00, -0.00, -1.00, 1099.0, 143.0)">W</text><text xml:space="preserve" font-family="Roboto-Medium" font-size="30.0" fill="#3F3F3F" transform="matrix(1.00, 0.00, -0.00, -1.00, 1124.9, 143.0)">o</text><text xml:space="preserve" font-family="Roboto-Medium" font-size="30.0" fill="#3F3F3F" transform="matrix(1.00, 0.00, -0.00, -1.00, 1142.0, 143.0)">r</text><text xml:space="preserve" font-family="Roboto-Medium" font-size="30.0" fill="#3F3F3F" transform="matrix(1.00, 0.00, -0.00, -1.00, 1152.6, 143.0)">r</text><text xml:space="preserve" font-family="Roboto-Medium" font-size="30.0" fill="#3F3F3F" transform="matrix(1.00, 0.00, -0.00, -1.00, 1163.1, 143.0)">i</text><text xml:space="preserve" font-family="Roboto-Medium" font-size="30.0" fill="#3F3F3F" transform="matrix(1.00, 0.00, -0.00, -1.00, 1170.8, 143.0)">e</text><text xml:space="preserve" font-family="Roboto-Medium" font-size="30.0" fill="#3F3F3F" transform="matrix(1.00, 0.00, -0.00, -1.00, 1186.9, 143.0)">s</text><text xml:space="preserve" font-family="Roboto-Medium" font-size="30.0" fill="#3F3F3F" transform="matrix(1.00, 0.00, -0.00, -1.00, 1202.3, 143.0)"> </text><text xml:space="preserve" font-family="Roboto-Medium" font-size="30.0" fill="#3F3F3F" transform="matrix(1.00, 0.00, -0.00, -1.00, 1209.8, 143.0)">a</text><text xml:space="preserve" font-family="Roboto-Medium" font-size="30.0" fill="#3F3F3F" transform="matrix(1.00, 0.00, -0.00, -1.00, 1226.0, 143.0)">b</text><text xml:space="preserve" font-family="Roboto-Medium" font-size="30.0" fill="#3F3F3F" transform="matrix(1.00, 0.00, -0.00, -1.00, 1242.9, 143.0)">o</text><text xml:space="preserve" font-family="Roboto-Medium" font-size="30.0" fill="#3F3F3F" transform="matrix(1.00, 0.00, -0.00, -1.00, 1260.0, 143.0)">u</text><text xml:space="preserve" font-family="Roboto-Medium" font-size="30.0" fill="#3F3F3F" transform="matrix(1.00, 0.00, -0.00, -1.00, 1276.7, 143.0)">t</text><text xml:space="preserve" font-family="Roboto-Medium" font-size="30.0" fill="#3F3F3F" transform="matrix(1.00, 0.00, -0.00, -1.00, 1286.6, 143.0)"> </text><text xml:space="preserve" font-family="Roboto-Medium" font-size="30.0" fill="#3F3F3F" transform="matrix(1.00, 0.00, -0.00, -1.00, 1294.1, 143.0)">t</text><text xml:space="preserve" font-family="Roboto-Medium" font-size="30.0" fill="#3F3F3F" transform="matrix(1.00, 0.00, -0.00, -1.00, 1304.1, 143.0)">h</text><text xml:space="preserve" font-family="Roboto-Medium" font-size="30.0" fill="#3F3F3F" transform="matrix(1.00, 0.00, -0.00, -1.00, 1320.7, 143.0)">e</text><text xml:space="preserve" font-family="Roboto-Medium" font-size="30.0" fill="#3F3F3F" transform="matrix(1.00, 0.00, -0.00, -1.00, 1336.8, 143.0)"> </text><text xml:space="preserve" font-family="Roboto-Medium" font-size="30.0" fill="#3F3F3F" transform="matrix(1.00, 0.00, -0.00, -1.00, 1344.3, 143.0)">e</text><text xml:space="preserve" font-family="Roboto-Medium" font-size="30.0" fill="#3F3F3F" transform="matrix(1.00, 0.00, -0.00, -1.00, 1360.4, 143.0)">n</text><text xml:space="preserve" font-family="Roboto-Medium" font-size="30.0" fill="#3F3F3F" transform="matrix(1.00, 0.00, -0.00, -1.00, 1377.1, 143.0)">v</text><text xml:space="preserve" font-family="Roboto-Medium" font-size="30.0" fill="#3F3F3F" transform="matrix(1.00, 0.00, -0.00, -1.00, 1391.9, 143.0)">i</text><text xml:space="preserve" font-family="Roboto-Medium" font-size="30.0" fill="#3F3F3F" transform="matrix(1.00, 0.00, -0.00, -1.00, 1399.6, 143.0)">r</text><text xml:space="preserve" font-family="Roboto-Medium" font-size="30.0" fill="#3F3F3F" transform="matrix(1.00, 0.00, -0.00, -1.00, 1409.6, 143.0)">o</text><text xml:space="preserve" font-family="Roboto-Medium" font-size="30.0" fill="#3F3F3F" transform="matrix(1.00, 0.00, -0.00, -1.00, 1426.7, 143.0)">n</text><text xml:space="preserve" font-family="Roboto-Medium" font-size="30.0" fill="#3F3F3F" transform="matrix(1.00, 0.00, -0.00, -1.00, 1443.4, 143.0)">m</text><text xml:space="preserve" font-family="Roboto-Medium" font-size="30.0" fill="#3F3F3F" transform="matrix(1.00, 0.00, -0.00, -1.00, 1469.5, 143.0)">e</text><text xml:space="preserve" font-family="Roboto-Medium" font-size="30.0" fill="#3F3F3F" transform="matrix(1.00, 0.00, -0.00, -1.00, 1485.6, 143.0)">n</text><text xml:space="preserve" font-family="Roboto-Medium" font-size="30.0" fill="#3F3F3F" transform="matrix(1.00, 0.00, -0.00, -1.00, 1502.2, 143.0)">t</text><text xml:space="preserve" font-family="Roboto-Medium" font-size="30.0" fill="#3F3F3F" transform="matrix(1.00, 0.00, -0.00, -1.00, 1512.2, 143.0)">,</text><text xml:space="preserve" font-family="Roboto-Medium" font-size="30.0" fill="#3F3F3F" transform="matrix(1.00, 0.00, -0.00, -1.00, 1518.8, 143.0)"> </text><text xml:space="preserve" font-family="Roboto-Thin" font-size="30.0" fill="#3F3F3F" transform="matrix(1.00, 0.00, -0.00, -1.00, 1526.3, 143.0)">c</text><text xml:space="preserve" font-family="Roboto-Thin" font-size="30.0" fill="#3F3F3F" transform="matrix(1.00, 0.00, -0.00, -1.00, 1541.6, 143.0)">a</text><text xml:space="preserve" font-family="Roboto-Thin" font-size="30.0" fill="#3F3F3F" transform="matrix(1.00, 0.00, -0.00, -1.00, 1557.4, 143.0)">m</text><text xml:space="preserve" font-family="Roboto-Thin" font-size="30.0" fill="#3F3F3F" transform="matrix(1.00, 0.00, -0.00, -1.00, 1584.3, 143.0)">e</text><text xml:space="preserve" font-family="Roboto-Thin" font-size="30.0" fill="#3F3F3F" transform="matrix(1.00, 0.00, -0.00, -1.00, 1599.4, 143.0)"> </text><text xml:space="preserve" font-family="Roboto-Thin" font-size="30.0" fill="#3F3F3F" transform="matrix(1.00, 0.00, -0.00, -1.00, 1606.6, 143.0)">f</text><text xml:space="preserve" font-family="Roboto-Thin" font-size="30.0" fill="#3F3F3F" transform="matrix(1.00, 0.00, -0.00, -1.00, 1616.1, 143.0)">r</text><text xml:space="preserve" font-family="Roboto-Thin" font-size="30.0" fill="#3F3F3F" transform="matrix(1.00, 0.00, -0.00, -1.00, 1625.8, 143.0)">o</text><text xml:space="preserve" font-family="Roboto-Thin" font-size="30.0" fill="#3F3F3F" transform="matrix(1.00, 0.00, -0.00, -1.00, 1642.3, 143.0)">m</text><text xml:space="preserve" font-family="Roboto-Thin" font-size="30.0" fill="#3F3F3F" transform="matrix(1.00, 0.00, -0.00, -1.00, 1669.2, 143.0)"> </text><text xml:space="preserve" font-family="Roboto-Thin" font-size="30.0" fill="#3F3F3F" transform="matrix(1.00, 0.00, -0.00, -1.00, 1099.0, 108.0)">F</text><text xml:space="preserve" font-family="Roboto-Thin" font-size="30.0" fill="#3F3F3F" transform="matrix(1.00, 0.00, -0.00, -1.00, 1115.8, 108.0)">r</text><text xml:space="preserve" font-family="Roboto-Thin" font-size="30.0" fill="#3F3F3F" transform="matrix(1.00, 0.00, -0.00, -1.00, 1125.3, 108.0)">a</text><text xml:space="preserve" font-family="Roboto-Thin" font-size="30.0" fill="#3F3F3F" transform="matrix(1.00, 0.00, -0.00, -1.00, 1141.1, 108.0)">n</text><text xml:space="preserve" font-family="Roboto-Thin" font-size="30.0" fill="#3F3F3F" transform="matrix(1.00, 0.00, -0.00, -1.00, 1157.5, 108.0)">c</text><text xml:space="preserve" font-family="Roboto-Thin" font-size="30.0" fill="#3F3F3F" transform="matrix(1.00, 0.00, -0.00, -1.00, 1172.7, 108.0)">e</text><text xml:space="preserve" font-family="Roboto-Thin" font-size="30.0" fill="#3F3F3F" transform="matrix(1.00, 0.00, -0.00, -1.00, 1187.9, 108.0)"> </text><text xml:space="preserve" font-family="Roboto-Thin" font-size="30.0" fill="#3F3F3F" transform="matrix(1.00, 0.00, -0.00, -1.00, 1195.0, 108.0)">t</text><text xml:space="preserve" font-family="Roboto-Thin" font-size="30.0" fill="#3F3F3F" transform="matrix(1.00, 0.00, -0.00, -1.00, 1204.3, 108.0)">o</text><text xml:space="preserve" font-family="Roboto-Thin" font-size="30.0" fill="#3F3F3F" transform="matrix(1.00, 0.00, -0.00, -1.00, 1220.8, 108.0)"> </text><text xml:space="preserve" font-family="Roboto-Thin" font-size="30.0" fill="#3F3F3F" transform="matrix(1.00, 0.00, -0.00, -1.00, 1228.0, 108.0)">a</text><text xml:space="preserve" font-family="Roboto-Thin" font-size="30.0" fill="#3F3F3F" transform="matrix(1.00, 0.00, -0.00, -1.00, 1243.8, 108.0)">t</text><text xml:space="preserve" font-family="Roboto-Thin" font-size="30.0" fill="#3F3F3F" transform="matrix(1.00, 0.00, -0.00, -1.00, 1253.3, 108.0)">t</text><text xml:space="preserve" font-family="Roboto-Thin" font-size="30.0" fill="#3F3F3F" transform="matrix(1.00, 0.00, -0.00, -1.00, 1262.8, 108.0)">e</text><text xml:space="preserve" font-family="Roboto-Thin" font-size="30.0" fill="#3F3F3F" transform="matrix(1.00, 0.00, -0.00, -1.00, 1277.9, 108.0)">n</text><text xml:space="preserve" font-family="Roboto-Thin" font-size="30.0" fill="#3F3F3F" transform="matrix(1.00, 0.00, -0.00, -1.00, 1294.3, 108.0)">d</text><text xml:space="preserve" font-family="Roboto-Thin" font-size="30.0" fill="#3F3F3F" transform="matrix(1.00, 0.00, -0.00, -1.00, 1310.8, 108.0)"> </text><text xml:space="preserve" font-family="Roboto-Thin" font-size="30.0" fill="#3F3F3F" transform="matrix(1.00, 0.00, -0.00, -1.00, 1318.0, 108.0)">h</text><text xml:space="preserve" font-family="Roboto-Thin" font-size="30.0" fill="#3F3F3F" transform="matrix(1.00, 0.00, -0.00, -1.00, 1334.4, 108.0)">i</text><text xml:space="preserve" font-family="Roboto-Thin" font-size="30.0" fill="#3F3F3F" transform="matrix(1.00, 0.00, -0.00, -1.00, 1340.6, 108.0)">s</text><text xml:space="preserve" font-family="Roboto-Thin" font-size="30.0" fill="#3F3F3F" transform="matrix(1.00, 0.00, -0.00, -1.00, 1355.5, 108.0)"> </text><text xml:space="preserve" font-family="Roboto-Thin" font-size="30.0" fill="#3F3F3F" transform="matrix(1.00, 0.00, -0.00, -1.00, 1362.7, 108.0)">P</text><text xml:space="preserve" font-family="Roboto-Thin" font-size="30.0" fill="#3F3F3F" transform="matrix(1.00, 0.00, -0.00, -1.00, 1380.7, 108.0)">h</text><text xml:space="preserve" font-family="Roboto-Thin" font-size="30.0" fill="#3F3F3F" transform="matrix(1.00, 0.00, -0.00, -1.00, 1397.1, 108.0)">D</text><text xml:space="preserve" font-family="Roboto-Thin" font-size="30.0" fill="#3F3F3F" transform="matrix(1.00, 0.00, -0.00, -1.00, 1416.8, 108.0)"> </text><text xml:space="preserve" font-family="Roboto-Thin" font-size="30.0" fill="#3F3F3F" transform="matrix(1.00, 0.00, -0.00, -1.00, 1423.9, 108.0)">p</text><text xml:space="preserve" font-family="Roboto-Thin" font-size="30.0" fill="#3F3F3F" transform="matrix(1.00, 0.00, -0.00, -1.00, 1440.4, 108.0)">r</text><text xml:space="preserve" font-family="Roboto-Thin" font-size="30.0" fill="#3F3F3F" transform="matrix(1.00, 0.00, -0.00, -1.00, 1450.1, 108.0)">o</text><text xml:space="preserve" font-family="Roboto-Thin" font-size="30.0" fill="#3F3F3F" transform="matrix(1.00, 0.00, -0.00, -1.00, 1466.7, 108.0)">g</text><text xml:space="preserve" font-family="Roboto-Thin" font-size="30.0" fill="#3F3F3F" transform="matrix(1.00, 0.00, -0.00, -1.00, 1483.1, 108.0)">r</text><text xml:space="preserve" font-family="Roboto-Thin" font-size="30.0" fill="#3F3F3F" transform="matrix(1.00, 0.00, -0.00, -1.00, 1492.6, 108.0)">a</text><text xml:space="preserve" font-family="Roboto-Thin" font-size="30.0" fill="#3F3F3F" transform="matrix(1.00, 0.00, -0.00, -1.00, 1508.4, 108.0)">m</text><text xml:space="preserve" font-family="Roboto-Thin" font-size="30.0" fill="#3F3F3F" transform="matrix(1.00, 0.00, -0.00, -1.00, 1535.3, 108.0)">,</text><text xml:space="preserve" font-family="Roboto-Thin" font-size="30.0" fill="#3F3F3F" transform="matrix(1.00, 0.00, -0.00, -1.00, 1540.9, 108.0)"> </text><text xml:space="preserve" font-family="Roboto-Thin" font-size="30.0" fill="#3F3F3F" transform="matrix(1.00, 0.00, -0.00, -1.00, 1548.1, 108.0)">l</text><text xml:space="preserve" font-family="Roboto-Thin" font-size="30.0" fill="#3F3F3F" transform="matrix(1.00, 0.00, -0.00, -1.00, 1554.3, 108.0)">o</text><text xml:space="preserve" font-family="Roboto-Thin" font-size="30.0" fill="#3F3F3F" transform="matrix(1.00, 0.00, -0.00, -1.00, 1570.6, 108.0)">v</text><text xml:space="preserve" font-family="Roboto-Thin" font-size="30.0" fill="#3F3F3F" transform="matrix(1.00, 0.00, -0.00, -1.00, 1584.7, 108.0)">e</text><text xml:space="preserve" font-family="Roboto-Thin" font-size="30.0" fill="#3F3F3F" transform="matrix(1.00, 0.00, -0.00, -1.00, 1599.8, 108.0)">s</text><text xml:space="preserve" font-family="Roboto-Thin" font-size="30.0" fill="#3F3F3F" transform="matrix(1.00, 0.00, -0.00, -1.00, 1614.7, 108.0)"> </text><text xml:space="preserve" font-family="Roboto-Thin" font-size="30.0" fill="#3F3F3F" transform="matrix(1.00, 0.00, -0.00, -1.00, 1099.0, 73.0)">v</text><text xml:space="preserve" font-family="Roboto-Thin" font-size="30.0" fill="#3F3F3F" transform="matrix(1.00, 0.00, -0.00, -1.00, 1113.3, 73.0)">i</text><text xml:space="preserve" font-family="Roboto-Thin" font-size="30.0" fill="#3F3F3F" transform="matrix(1.00, 0.00, -0.00, -1.00, 1119.5, 73.0)">n</text><text xml:space="preserve" font-family="Roboto-Thin" font-size="30.0" fill="#3F3F3F" transform="matrix(1.00, 0.00, -0.00, -1.00, 1135.9, 73.0)">t</text><text xml:space="preserve" font-family="Roboto-Thin" font-size="30.0" fill="#3F3F3F" transform="matrix(1.00, 0.00, -0.00, -1.00, 1145.4, 73.0)">a</text><text xml:space="preserve" font-family="Roboto-Thin" font-size="30.0" fill="#3F3F3F" transform="matrix(1.00, 0.00, -0.00, -1.00, 1161.3, 73.0)">g</text><text xml:space="preserve" font-family="Roboto-Thin" font-size="30.0" fill="#3F3F3F" transform="matrix(1.00, 0.00, -0.00, -1.00, 1177.7, 73.0)">e</text><text xml:space="preserve" font-family="Roboto-Thin" font-size="30.0" fill="#3F3F3F" transform="matrix(1.00, 0.00, -0.00, -1.00, 1192.8, 73.0)"> </text><text xml:space="preserve" font-family="Roboto-Thin" font-size="30.0" fill="#3F3F3F" transform="matrix(1.00, 0.00, -0.00, -1.00, 1200.0, 73.0)">i</text><text xml:space="preserve" font-family="Roboto-Thin" font-size="30.0" fill="#3F3F3F" transform="matrix(1.00, 0.00, -0.00, -1.00, 1206.2, 73.0)">t</text><text xml:space="preserve" font-family="Roboto-Thin" font-size="30.0" fill="#3F3F3F" transform="matrix(1.00, 0.00, -0.00, -1.00, 1215.7, 73.0)">e</text><text xml:space="preserve" font-family="Roboto-Thin" font-size="30.0" fill="#3F3F3F" transform="matrix(1.00, 0.00, -0.00, -1.00, 1230.8, 73.0)">m</text><text xml:space="preserve" font-family="Roboto-Thin" font-size="30.0" fill="#3F3F3F" transform="matrix(1.00, 0.00, -0.00, -1.00, 1257.7, 73.0)">s</text><text xml:space="preserve" font-family="Roboto-Thin" font-size="30.0" fill="#3F3F3F" transform="matrix(1.00, 0.00, -0.00, -1.00, 1272.6, 73.0)">,</text><text xml:space="preserve" font-family="Roboto-Thin" font-size="30.0" fill="#3F3F3F" transform="matrix(1.00, 0.00, -0.00, -1.00, 1278.3, 73.0)"> </text><text xml:space="preserve" font-family="Roboto-Thin" font-size="30.0" fill="#3F3F3F" transform="matrix(1.00, 0.00, -0.00, -1.00, 1285.4, 73.0)">a</text><text xml:space="preserve" font-family="Roboto-Thin" font-size="30.0" fill="#3F3F3F" transform="matrix(1.00, 0.00, -0.00, -1.00, 1301.3, 73.0)">n</text><text xml:space="preserve" font-family="Roboto-Thin" font-size="30.0" fill="#3F3F3F" transform="matrix(1.00, 0.00, -0.00, -1.00, 1317.7, 73.0)">d</text><text xml:space="preserve" font-family="Roboto-Thin" font-size="30.0" fill="#3F3F3F" transform="matrix(1.00, 0.00, -0.00, -1.00, 1334.1, 73.0)"> </text><text xml:space="preserve" font-family="Roboto-Thin" font-size="30.0" fill="#3F3F3F" transform="matrix(1.00, 0.00, -0.00, -1.00, 1341.3, 73.0)">r</text><text xml:space="preserve" font-family="Roboto-Thin" font-size="30.0" fill="#3F3F3F" transform="matrix(1.00, 0.00, -0.00, -1.00, 1351.4, 73.0)">i</text><text xml:space="preserve" font-family="Roboto-Thin" font-size="30.0" fill="#3F3F3F" transform="matrix(1.00, 0.00, -0.00, -1.00, 1357.6, 73.0)">d</text><text xml:space="preserve" font-family="Roboto-Thin" font-size="30.0" fill="#3F3F3F" transform="matrix(1.00, 0.00, -0.00, -1.00, 1374.0, 73.0)">e</text><text xml:space="preserve" font-family="Roboto-Thin" font-size="30.0" fill="#3F3F3F" transform="matrix(1.00, 0.00, -0.00, -1.00, 1389.1, 73.0)">s</text><text xml:space="preserve" font-family="Roboto-Thin" font-size="30.0" fill="#3F3F3F" transform="matrix(1.00, 0.00, -0.00, -1.00, 1404.0, 73.0)"> </text><text xml:space="preserve" font-family="Roboto-Thin" font-size="30.0" fill="#3F3F3F" transform="matrix(1.00, 0.00, -0.00, -1.00, 1411.2, 73.0)">h</text><text xml:space="preserve" font-family="Roboto-Thin" font-size="30.0" fill="#3F3F3F" transform="matrix(1.00, 0.00, -0.00, -1.00, 1427.6, 73.0)">i</text><text xml:space="preserve" font-family="Roboto-Thin" font-size="30.0" fill="#3F3F3F" transform="matrix(1.00, 0.00, -0.00, -1.00, 1433.8, 73.0)">s</text><text xml:space="preserve" font-family="Roboto-Thin" font-size="30.0" fill="#3F3F3F" transform="matrix(1.00, 0.00, -0.00, -1.00, 1448.7, 73.0)"> </text><text xml:space="preserve" font-family="Roboto-Thin" font-size="30.0" fill="#3F3F3F" transform="matrix(1.00, 0.00, -0.00, -1.00, 1455.9, 73.0)">b</text><text xml:space="preserve" font-family="Roboto-Thin" font-size="30.0" fill="#3F3F3F" transform="matrix(1.00, 0.00, -0.00, -1.00, 1472.4, 73.0)">i</text><text xml:space="preserve" font-family="Roboto-Thin" font-size="30.0" fill="#3F3F3F" transform="matrix(1.00, 0.00, -0.00, -1.00, 1478.5, 73.0)">k</text><text xml:space="preserve" font-family="Roboto-Thin" font-size="30.0" fill="#3F3F3F" transform="matrix(1.00, 0.00, -0.00, -1.00, 1492.5, 73.0)">e</text><text xml:space="preserve" font-family="Roboto-Thin" font-size="30.0" fill="#3F3F3F" transform="matrix(1.00, 0.00, -0.00, -1.00, 1507.6, 73.0)"> </text><text xml:space="preserve" font-family="Roboto-Thin" font-size="30.0" fill="#3F3F3F" transform="matrix(1.00, 0.00, -0.00, -1.00, 1514.8, 73.0)">e</text><text xml:space="preserve" font-family="Roboto-Thin" font-size="30.0" fill="#3F3F3F" transform="matrix(1.00, 0.00, -0.00, -1.00, 1529.7, 73.0)">v</text><text xml:space="preserve" font-family="Roboto-Thin" font-size="30.0" fill="#3F3F3F" transform="matrix(1.00, 0.00, -0.00, -1.00, 1543.8, 73.0)">e</text><text xml:space="preserve" font-family="Roboto-Thin" font-size="30.0" fill="#3F3F3F" transform="matrix(1.00, 0.00, -0.00, -1.00, 1558.9, 73.0)">r</text><text xml:space="preserve" font-family="Roboto-Thin" font-size="30.0" fill="#3F3F3F" transform="matrix(1.00, 0.00, -0.00, -1.00, 1569.2, 73.0)">y</text><text xml:space="preserve" font-family="Roboto-Thin" font-size="30.0" fill="#3F3F3F" transform="matrix(1.00, 0.00, -0.00, -1.00, 1583.5, 73.0)">w</text><text xml:space="preserve" font-family="Roboto-Thin" font-size="30.0" fill="#3F3F3F" transform="matrix(1.00, 0.00, -0.00, -1.00, 1606.2, 73.0)">h</text><text xml:space="preserve" font-family="Roboto-Thin" font-size="30.0" fill="#3F3F3F" transform="matrix(1.00, 0.00, -0.00, -1.00, 1622.7, 73.0)">e</text><text xml:space="preserve" font-family="Roboto-Thin" font-size="30.0" fill="#3F3F3F" transform="matrix(1.00, 0.00, -0.00, -1.00, 1637.8, 73.0)">r</text><text xml:space="preserve" font-family="Roboto-Thin" font-size="30.0" fill="#3F3F3F" transform="matrix(1.00, 0.00, -0.00, -1.00, 1647.6, 73.0)">e</text><text xml:space="preserve" font-family="Roboto-Thin" font-size="30.0" fill="#3F3F3F" transform="matrix(1.00, 0.00, -0.00, -1.00, 1662.7, 73.0)">.</text><path d="M 266.7 941.9 L 274.7 941.9 L 274.7 928.5 L 286.1 928.5 L 286.1 924.5 L 274.7 924.5 L 274.7 911.1 L 266.7 911.1 L 266.7 924.5 L 255.3 924.5 L 255.3 928.5 L 266.7 928.5 L 266.7 941.9 Z M 266.7 941.9 " fill="#9459B2"></path><path d="M 1669.6 346.8 L 1674.9 346.8 L 1674.9 314.9 L 1705.4 314.9 L 1705.4 312.3 L 1674.9 312.3 L 1674.9 280.4 L 1669.6 280.4 L 1669.6 312.3 L 1639.0 312.3 L 1639.0 314.9 L 1669.6 314.9 L 1669.6 346.8 Z M 1669.6 346.8 " fill="#9459B2"></path><g><clipPath id="clip-135"><path d="M 1052.0 983.0 L 1557.0 983.0 L 1557.0 280.0 L 1052.0 280.0 Z M 1052.0 982.7 "></path></clipPath><g clip-path="url(#clip-135)"><image xlink:href="../../E9D3671E-B727-4905-A536-DD88063092E6/assets/527FD0521E6F0E2A0DF79E91C9C9A7A1.jpeg" width="800.00" height="530.00" transform="matrix(1.33, 0.00, -0.00, -1.33, 774.0, 983.0)"></image></g></g><path d="M 0.0 0.0 L 127.2 0.0 " fill="none" stroke="#9459B2" stroke-width="1.00" stroke-miterlimit="8.00" transform="matrix(1.00, 0.00, 0.00, -1.00, 896.4, 607.7)"></path><g><clipPath id="clip-136"><path d="M 100.7 808.3 L 289.9 808.3 L 289.9 876.3 L 100.7 876.3 Z M 100.7 808.3 "></path></clipPath><g clip-path="url(#clip-136)"><text xml:space="preserve" font-family="NexaBold" font-weight="bold" font-size="40.0" fill="#9459B2" transform="matrix(1.00, 0.00, -0.00, -1.00, 111.7, 828.3)">K</text><text xml:space="preserve" font-family="NexaBold" font-weight="bold" font-size="40.0" fill="#9459B2" transform="matrix(1.00, 0.00, -0.00, -1.00, 137.9, 828.3)">A</text><text xml:space="preserve" font-family="NexaBold" font-weight="bold" font-size="40.0" fill="#9459B2" transform="matrix(1.00, 0.00, -0.00, -1.00, 167.9, 828.3)">I</text><text xml:space="preserve" font-family="NexaBold" font-weight="bold" font-size="40.0" fill="#9459B2" transform="matrix(1.00, 0.00, -0.00, -1.00, 179.4, 828.3)">T</text><text xml:space="preserve" font-family="NexaBold" font-weight="bold" font-size="40.0" fill="#9459B2" transform="matrix(1.00, 0.00, -0.00, -1.00, 204.0, 828.3)">L</text><text xml:space="preserve" font-family="NexaBold" font-weight="bold" font-size="40.0" fill="#9459B2" transform="matrix(1.00, 0.00, -0.00, -1.00, 222.4, 828.3)">Y</text><text xml:space="preserve" font-family="NexaBold" font-weight="bold" font-size="40.0" fill="#9459B2" transform="matrix(1.00, 0.00, -0.00, -1.00, 250.3, 828.3)">N</text></g></g><g><clipPath id="clip-137"><path d="M 22.3 706.3 L 288.2 706.3 L 288.2 808.7 L 22.3 808.7 Z M 22.3 706.3 "></path></clipPath><g clip-path="url(#clip-137)"><text xml:space="preserve" font-family="Roboto-Regular" font-size="32.0" fill="#9459B2" transform="matrix(1.00, 0.00, -0.00, -1.00, 61.6, 769.1)">T</text><text xml:space="preserve" font-family="Roboto-Regular" font-size="32.0" fill="#9459B2" transform="matrix(1.00, 0.00, -0.00, -1.00, 80.7, 769.1)">H</text><text xml:space="preserve" font-family="Roboto-Regular" font-size="32.0" fill="#9459B2" transform="matrix(1.00, 0.00, -0.00, -1.00, 103.5, 769.1)">E</text><text xml:space="preserve" font-family="Roboto-Regular" font-size="32.0" fill="#9459B2" transform="matrix(1.00, 0.00, -0.00, -1.00, 121.7, 769.1)"> </text><text xml:space="preserve" font-family="Roboto-Regular" font-size="32.0" fill="#9459B2" transform="matrix(1.00, 0.00, -0.00, -1.00, 129.7, 769.1)">S</text><text xml:space="preserve" font-family="Roboto-Regular" font-size="32.0" fill="#9459B2" transform="matrix(1.00, 0.00, -0.00, -1.00, 148.7, 769.1)">O</text><text xml:space="preserve" font-family="Roboto-Regular" font-size="32.0" fill="#9459B2" transform="matrix(1.00, 0.00, -0.00, -1.00, 170.6, 769.1)">R</text><text xml:space="preserve" font-family="Roboto-Regular" font-size="32.0" fill="#9459B2" transform="matrix(1.00, 0.00, -0.00, -1.00, 190.3, 769.1)">O</text><text xml:space="preserve" font-family="Roboto-Regular" font-size="32.0" fill="#9459B2" transform="matrix(1.00, 0.00, -0.00, -1.00, 212.3, 769.1)">R</text><text xml:space="preserve" font-family="Roboto-Regular" font-size="32.0" fill="#9459B2" transform="matrix(1.00, 0.00, -0.00, -1.00, 232.0, 769.1)">I</text><text xml:space="preserve" font-family="Roboto-Regular" font-size="32.0" fill="#9459B2" transform="matrix(1.00, 0.00, -0.00, -1.00, 240.3, 769.1)">T</text><text xml:space="preserve" font-family="Roboto-Regular" font-size="32.0" fill="#9459B2" transform="matrix(1.00, 0.00, -0.00, -1.00, 259.6, 769.1)">Y</text><text xml:space="preserve" font-family="Roboto-Regular" font-size="32.0" fill="#9459B2" transform="matrix(1.00, 0.00, -0.00, -1.00, 278.8, 769.1)"> </text><text xml:space="preserve" font-family="Roboto-Regular" font-size="32.0" fill="#9459B2" transform="matrix(1.00, 0.00, -0.00, -1.00, 211.4, 727.3)">G</text><text xml:space="preserve" font-family="Roboto-Regular" font-size="32.0" fill="#9459B2" transform="matrix(1.00, 0.00, -0.00, -1.00, 233.2, 727.3)">I</text><text xml:space="preserve" font-family="Roboto-Regular" font-size="32.0" fill="#9459B2" transform="matrix(1.00, 0.00, -0.00, -1.00, 241.9, 727.3)">R</text><text xml:space="preserve" font-family="Roboto-Regular" font-size="32.0" fill="#9459B2" transform="matrix(1.00, 0.00, -0.00, -1.00, 261.6, 727.3)">L</text></g></g><g><clipPath id="clip-138"><path d="M 1636.0 489.3 L 1834.3 489.3 L 1834.3 557.3 L 1636.0 557.3 Z M 1636.0 489.3 "></path></clipPath><g clip-path="url(#clip-138)"><text xml:space="preserve" font-family="NexaBold" font-weight="bold" font-size="40.0" fill="#9459B2" transform="matrix(1.00, 0.00, -0.00, -1.00, 1646.0, 509.0)">T</text><text xml:space="preserve" font-family="NexaBold" font-weight="bold" font-size="40.0" fill="#9459B2" transform="matrix(1.00, 0.00, -0.00, -1.00, 1670.6, 509.0)">H</text><text xml:space="preserve" font-family="NexaBold" font-weight="bold" font-size="40.0" fill="#9459B2" transform="matrix(1.00, 0.00, -0.00, -1.00, 1699.9, 509.0)">O</text><text xml:space="preserve" font-family="NexaBold" font-weight="bold" font-size="40.0" fill="#9459B2" transform="matrix(1.00, 0.00, -0.00, -1.00, 1731.3, 509.0)">M</text><text xml:space="preserve" font-family="NexaBold" font-weight="bold" font-size="40.0" fill="#9459B2" transform="matrix(1.00, 0.00, -0.00, -1.00, 1765.9, 509.0)">Ã</text><text xml:space="preserve" font-family="NexaBold" font-weight="bold" font-size="40.0" fill="#9459B2" transform="matrix(1.00, 0.00, -0.00, -1.00, 1795.9, 509.0)">S</text></g></g><g><clipPath id="clip-139"><path d="M 1636.6 380.3 L 1916.9 380.3 L 1916.9 482.7 L 1636.6 482.7 Z M 1636.6 380.3 "></path></clipPath><g clip-path="url(#clip-139)"><text xml:space="preserve" font-family="Roboto-Regular" font-size="32.0" fill="#9459B2" transform="matrix(1.00, 0.00, -0.00, -1.00, 1646.0, 443.0)">T</text><text xml:space="preserve" font-family="Roboto-Regular" font-size="32.0" fill="#9459B2" transform="matrix(1.00, 0.00, -0.00, -1.00, 1665.1, 443.0)">H</text><text xml:space="preserve" font-family="Roboto-Regular" font-size="32.0" fill="#9459B2" transform="matrix(1.00, 0.00, -0.00, -1.00, 1687.9, 443.0)">E</text><text xml:space="preserve" font-family="Roboto-Regular" font-size="32.0" fill="#9459B2" transform="matrix(1.00, 0.00, -0.00, -1.00, 1706.1, 443.0)"> </text><text xml:space="preserve" font-family="Roboto-Regular" font-size="32.0" fill="#9459B2" transform="matrix(1.00, 0.00, -0.00, -1.00, 1714.0, 443.0)">F</text><text xml:space="preserve" font-family="Roboto-Regular" font-size="32.0" fill="#9459B2" transform="matrix(1.00, 0.00, -0.00, -1.00, 1731.7, 443.0)">O</text><text xml:space="preserve" font-family="Roboto-Regular" font-size="32.0" fill="#9459B2" transform="matrix(1.00, 0.00, -0.00, -1.00, 1753.7, 443.0)">R</text><text xml:space="preserve" font-family="Roboto-Regular" font-size="32.0" fill="#9459B2" transform="matrix(1.00, 0.00, -0.00, -1.00, 1773.4, 443.0)">E</text><text xml:space="preserve" font-family="Roboto-Regular" font-size="32.0" fill="#9459B2" transform="matrix(1.00, 0.00, -0.00, -1.00, 1791.6, 443.0)">I</text><text xml:space="preserve" font-family="Roboto-Regular" font-size="32.0" fill="#9459B2" transform="matrix(1.00, 0.00, -0.00, -1.00, 1800.3, 443.0)">G</text><text xml:space="preserve" font-family="Roboto-Regular" font-size="32.0" fill="#9459B2" transform="matrix(1.00, 0.00, -0.00, -1.00, 1822.1, 443.0)">N</text><text xml:space="preserve" font-family="Roboto-Regular" font-size="32.0" fill="#9459B2" transform="matrix(1.00, 0.00, -0.00, -1.00, 1844.9, 443.0)">E</text><text xml:space="preserve" font-family="Roboto-Regular" font-size="32.0" fill="#9459B2" transform="matrix(1.00, 0.00, -0.00, -1.00, 1863.1, 443.0)">R</text><text xml:space="preserve" font-family="Roboto-Regular" font-size="32.0" fill="#9459B2" transform="matrix(1.00, 0.00, -0.00, -1.00, 1882.8, 443.0)"> </text><text xml:space="preserve" font-family="Roboto-Regular" font-size="32.0" fill="#9459B2" transform="matrix(1.00, 0.00, -0.00, -1.00, 1646.0, 401.0)">V</text><text xml:space="preserve" font-family="Roboto-Regular" font-size="32.0" fill="#9459B2" transform="matrix(1.00, 0.00, -0.00, -1.00, 1666.4, 401.0)">E</text><text xml:space="preserve" font-family="Roboto-Regular" font-size="32.0" fill="#9459B2" transform="matrix(1.00, 0.00, -0.00, -1.00, 1684.6, 401.0)">G</text><text xml:space="preserve" font-family="Roboto-Regular" font-size="32.0" fill="#9459B2" transform="matrix(1.00, 0.00, -0.00, -1.00, 1706.4, 401.0)">A</text><text xml:space="preserve" font-family="Roboto-Regular" font-size="32.0" fill="#9459B2" transform="matrix(1.00, 0.00, -0.00, -1.00, 1727.2, 401.0)">N</text></g></g></g></svg>