<?xml version="1.0" encoding="UTF-8" standalone="no"?><svg xmlns="http://www.w3.org/2000/svg" xmlns:xlink="http://www.w3.org/1999/xlink" clip-rule="evenodd" stroke-miterlimit="4.00" viewBox="0 0 538 103"><desc>SVG generated by Keynote</desc><defs></defs><g transform="matrix(1.00, 0.00, -0.00, -1.00, 0.0, 103.0)"><text xml:space="preserve" font-family="Roboto-Thin" font-size="30.0" fill="#3F3F3F" transform="matrix(1.00, 0.00, -0.00, -1.00, 54.9, 78.3)">L</text><text xml:space="preserve" font-family="Roboto-Thin" font-size="30.0" fill="#3F3F3F" transform="matrix(1.00, 0.00, -0.00, -1.00, 70.4, 78.3)">o</text><text xml:space="preserve" font-family="Roboto-Thin" font-size="30.0" fill="#3F3F3F" transform="matrix(1.00, 0.00, -0.00, -1.00, 86.7, 78.3)">v</text><text xml:space="preserve" font-family="Roboto-Thin" font-size="30.0" fill="#3F3F3F" transform="matrix(1.00, 0.00, -0.00, -1.00, 100.8, 78.3)">e</text><text xml:space="preserve" font-family="Roboto-Thin" font-size="30.0" fill="#3F3F3F" transform="matrix(1.00, 0.00, -0.00, -1.00, 115.9, 78.3)">s</text><text xml:space="preserve" font-family="Roboto-Thin" font-size="30.0" fill="#3F3F3F" transform="matrix(1.00, 0.00, -0.00, -1.00, 130.9, 78.3)"> </text><text xml:space="preserve" font-family="Roboto-Thin" font-size="30.0" fill="#3F3F3F" transform="matrix(1.00, 0.00, -0.00, -1.00, 138.0, 78.3)">s</text><text xml:space="preserve" font-family="Roboto-Thin" font-size="30.0" fill="#3F3F3F" transform="matrix(1.00, 0.00, -0.00, -1.00, 153.0, 78.3)">n</text><text xml:space="preserve" font-family="Roboto-Thin" font-size="30.0" fill="#3F3F3F" transform="matrix(1.00, 0.00, -0.00, -1.00, 169.4, 78.3)">a</text><text xml:space="preserve" font-family="Roboto-Thin" font-size="30.0" fill="#3F3F3F" transform="matrix(1.00, 0.00, -0.00, -1.00, 185.2, 78.3)">p</text><text xml:space="preserve" font-family="Roboto-Thin" font-size="30.0" fill="#3F3F3F" transform="matrix(1.00, 0.00, -0.00, -1.00, 201.6, 78.3)">c</text><text xml:space="preserve" font-family="Roboto-Thin" font-size="30.0" fill="#3F3F3F" transform="matrix(1.00, 0.00, -0.00, -1.00, 216.9, 78.3)">h</text><text xml:space="preserve" font-family="Roboto-Thin" font-size="30.0" fill="#3F3F3F" transform="matrix(1.00, 0.00, -0.00, -1.00, 233.3, 78.3)">a</text><text xml:space="preserve" font-family="Roboto-Thin" font-size="30.0" fill="#3F3F3F" transform="matrix(1.00, 0.00, -0.00, -1.00, 249.1, 78.3)">t</text><text xml:space="preserve" font-family="Roboto-Thin" font-size="30.0" fill="#3F3F3F" transform="matrix(1.00, 0.00, -0.00, -1.00, 258.6, 78.3)">,</text><text xml:space="preserve" font-family="Roboto-Thin" font-size="30.0" fill="#3F3F3F" transform="matrix(1.00, 0.00, -0.00, -1.00, 264.3, 78.3)"> </text><text xml:space="preserve" font-family="Roboto-Thin" font-size="30.0" fill="#3F3F3F" transform="matrix(1.00, 0.00, -0.00, -1.00, 271.4, 78.3)">h</text><text xml:space="preserve" font-family="Roboto-Thin" font-size="30.0" fill="#3F3F3F" transform="matrix(1.00, 0.00, -0.00, -1.00, 287.9, 78.3)">a</text><text xml:space="preserve" font-family="Roboto-Thin" font-size="30.0" fill="#3F3F3F" transform="matrix(1.00, 0.00, -0.00, -1.00, 303.7, 78.3)">n</text><text xml:space="preserve" font-family="Roboto-Thin" font-size="30.0" fill="#3F3F3F" transform="matrix(1.00, 0.00, -0.00, -1.00, 320.1, 78.3)">g</text><text xml:space="preserve" font-family="Roboto-Thin" font-size="30.0" fill="#3F3F3F" transform="matrix(1.00, 0.00, -0.00, -1.00, 336.6, 78.3)">i</text><text xml:space="preserve" font-family="Roboto-Thin" font-size="30.0" fill="#3F3F3F" transform="matrix(1.00, 0.00, -0.00, -1.00, 342.8, 78.3)">n</text><text xml:space="preserve" font-family="Roboto-Thin" font-size="30.0" fill="#3F3F3F" transform="matrix(1.00, 0.00, -0.00, -1.00, 359.2, 78.3)">g</text><text xml:space="preserve" font-family="Roboto-Thin" font-size="30.0" fill="#3F3F3F" transform="matrix(1.00, 0.00, -0.00, -1.00, 375.7, 78.3)"> </text><text xml:space="preserve" font-family="Roboto-Thin" font-size="30.0" fill="#3F3F3F" transform="matrix(1.00, 0.00, -0.00, -1.00, 382.9, 78.3)">o</text><text xml:space="preserve" font-family="Roboto-Thin" font-size="30.0" fill="#3F3F3F" transform="matrix(1.00, 0.00, -0.00, -1.00, 399.4, 78.3)">u</text><text xml:space="preserve" font-family="Roboto-Thin" font-size="30.0" fill="#3F3F3F" transform="matrix(1.00, 0.00, -0.00, -1.00, 415.8, 78.3)">t</text><text xml:space="preserve" font-family="Roboto-Thin" font-size="30.0" fill="#3F3F3F" transform="matrix(1.00, 0.00, -0.00, -1.00, 425.3, 78.3)"> </text><text xml:space="preserve" font-family="Roboto-Thin" font-size="30.0" fill="#3F3F3F" transform="matrix(1.00, 0.00, -0.00, -1.00, 432.5, 78.3)">w</text><text xml:space="preserve" font-family="Roboto-Thin" font-size="30.0" fill="#3F3F3F" transform="matrix(1.00, 0.00, -0.00, -1.00, 455.2, 78.3)">i</text><text xml:space="preserve" font-family="Roboto-Thin" font-size="30.0" fill="#3F3F3F" transform="matrix(1.00, 0.00, -0.00, -1.00, 461.4, 78.3)">t</text><text xml:space="preserve" font-family="Roboto-Thin" font-size="30.0" fill="#3F3F3F" transform="matrix(1.00, 0.00, -0.00, -1.00, 470.9, 78.3)">h</text><text xml:space="preserve" font-family="Roboto-Thin" font-size="30.0" fill="#3F3F3F" transform="matrix(1.00, 0.00, -0.00, -1.00, 487.3, 78.3)"> </text><text xml:space="preserve" font-family="Roboto-Thin" font-size="30.0" fill="#3F3F3F" transform="matrix(1.00, 0.00, -0.00, -1.00, 494.5, 78.3)">h</text><text xml:space="preserve" font-family="Roboto-Thin" font-size="30.0" fill="#3F3F3F" transform="matrix(1.00, 0.00, -0.00, -1.00, 510.9, 78.3)">e</text><text xml:space="preserve" font-family="Roboto-Thin" font-size="30.0" fill="#3F3F3F" transform="matrix(1.00, 0.00, -0.00, -1.00, 526.1, 78.3)">r</text><text xml:space="preserve" font-family="Roboto-Thin" font-size="30.0" fill="#3F3F3F" transform="matrix(1.00, 0.00, -0.00, -1.00, 536.1, 78.3)"> </text><text xml:space="preserve" font-family="Roboto-Thin" font-size="30.0" fill="#3F3F3F" transform="matrix(1.00, 0.00, -0.00, -1.00, 1.5, 43.3)">f</text><text xml:space="preserve" font-family="Roboto-Thin" font-size="30.0" fill="#3F3F3F" transform="matrix(1.00, 0.00, -0.00, -1.00, 10.9, 43.3)">r</text><text xml:space="preserve" font-family="Roboto-Thin" font-size="30.0" fill="#3F3F3F" transform="matrix(1.00, 0.00, -0.00, -1.00, 21.0, 43.3)">i</text><text xml:space="preserve" font-family="Roboto-Thin" font-size="30.0" fill="#3F3F3F" transform="matrix(1.00, 0.00, -0.00, -1.00, 27.2, 43.3)">e</text><text xml:space="preserve" font-family="Roboto-Thin" font-size="30.0" fill="#3F3F3F" transform="matrix(1.00, 0.00, -0.00, -1.00, 42.3, 43.3)">n</text><text xml:space="preserve" font-family="Roboto-Thin" font-size="30.0" fill="#3F3F3F" transform="matrix(1.00, 0.00, -0.00, -1.00, 58.7, 43.3)">d</text><text xml:space="preserve" font-family="Roboto-Thin" font-size="30.0" fill="#3F3F3F" transform="matrix(1.00, 0.00, -0.00, -1.00, 75.1, 43.3)">s</text><text xml:space="preserve" font-family="Roboto-Thin" font-size="30.0" fill="#3F3F3F" transform="matrix(1.00, 0.00, -0.00, -1.00, 90.1, 43.3)">,</text><text xml:space="preserve" font-family="Roboto-Thin" font-size="30.0" fill="#3F3F3F" transform="matrix(1.00, 0.00, -0.00, -1.00, 95.7, 43.3)"> </text><text xml:space="preserve" font-family="Roboto-Thin" font-size="30.0" fill="#3F3F3F" transform="matrix(1.00, 0.00, -0.00, -1.00, 102.8, 43.3)">o</text><text xml:space="preserve" font-family="Roboto-Thin" font-size="30.0" fill="#3F3F3F" transform="matrix(1.00, 0.00, -0.00, -1.00, 119.4, 43.3)">u</text><text xml:space="preserve" font-family="Roboto-Thin" font-size="30.0" fill="#3F3F3F" transform="matrix(1.00, 0.00, -0.00, -1.00, 135.8, 43.3)">t</text><text xml:space="preserve" font-family="Roboto-Thin" font-size="30.0" fill="#3F3F3F" transform="matrix(1.00, 0.00, -0.00, -1.00, 145.3, 43.3)">d</text><text xml:space="preserve" font-family="Roboto-Thin" font-size="30.0" fill="#3F3F3F" transform="matrix(1.00, 0.00, -0.00, -1.00, 161.7, 43.3)">o</text><text xml:space="preserve" font-family="Roboto-Thin" font-size="30.0" fill="#3F3F3F" transform="matrix(1.00, 0.00, -0.00, -1.00, 178.3, 43.3)">o</text><text xml:space="preserve" font-family="Roboto-Thin" font-size="30.0" fill="#3F3F3F" transform="matrix(1.00, 0.00, -0.00, -1.00, 194.8, 43.3)">r</text><text xml:space="preserve" font-family="Roboto-Thin" font-size="30.0" fill="#3F3F3F" transform="matrix(1.00, 0.00, -0.00, -1.00, 204.8, 43.3)"> </text><text xml:space="preserve" font-family="Roboto-Thin" font-size="30.0" fill="#3F3F3F" transform="matrix(1.00, 0.00, -0.00, -1.00, 212.0, 43.3)">a</text><text xml:space="preserve" font-family="Roboto-Thin" font-size="30.0" fill="#3F3F3F" transform="matrix(1.00, 0.00, -0.00, -1.00, 227.8, 43.3)">c</text><text xml:space="preserve" font-family="Roboto-Thin" font-size="30.0" fill="#3F3F3F" transform="matrix(1.00, 0.00, -0.00, -1.00, 243.1, 43.3)">t</text><text xml:space="preserve" font-family="Roboto-Thin" font-size="30.0" fill="#3F3F3F" transform="matrix(1.00, 0.00, -0.00, -1.00, 252.6, 43.3)">i</text><text xml:space="preserve" font-family="Roboto-Thin" font-size="30.0" fill="#3F3F3F" transform="matrix(1.00, 0.00, -0.00, -1.00, 258.8, 43.3)">v</text><text xml:space="preserve" font-family="Roboto-Thin" font-size="30.0" fill="#3F3F3F" transform="matrix(1.00, 0.00, -0.00, -1.00, 273.1, 43.3)">i</text><text xml:space="preserve" font-family="Roboto-Thin" font-size="30.0" fill="#3F3F3F" transform="matrix(1.00, 0.00, -0.00, -1.00, 279.2, 43.3)">t</text><text xml:space="preserve" font-family="Roboto-Thin" font-size="30.0" fill="#3F3F3F" transform="matrix(1.00, 0.00, -0.00, -1.00, 288.8, 43.3)">i</text><text xml:space="preserve" font-family="Roboto-Thin" font-size="30.0" fill="#3F3F3F" transform="matrix(1.00, 0.00, -0.00, -1.00, 294.9, 43.3)">e</text><text xml:space="preserve" font-family="Roboto-Thin" font-size="30.0" fill="#3F3F3F" transform="matrix(1.00, 0.00, -0.00, -1.00, 310.1, 43.3)">s</text><text xml:space="preserve" font-family="Roboto-Thin" font-size="30.0" fill="#3F3F3F" transform="matrix(1.00, 0.00, -0.00, -1.00, 325.0, 43.3)">,</text><text xml:space="preserve" font-family="Roboto-Thin" font-size="30.0" fill="#3F3F3F" transform="matrix(1.00, 0.00, -0.00, -1.00, 330.6, 43.3)"> </text><text xml:space="preserve" font-family="Roboto-Thin" font-size="30.0" fill="#3F3F3F" transform="matrix(1.00, 0.00, -0.00, -1.00, 337.8, 43.3)">a</text><text xml:space="preserve" font-family="Roboto-Thin" font-size="30.0" fill="#3F3F3F" transform="matrix(1.00, 0.00, -0.00, -1.00, 353.6, 43.3)">n</text><text xml:space="preserve" font-family="Roboto-Thin" font-size="30.0" fill="#3F3F3F" transform="matrix(1.00, 0.00, -0.00, -1.00, 370.0, 43.3)">d</text><text xml:space="preserve" font-family="Roboto-Thin" font-size="30.0" fill="#3F3F3F" transform="matrix(1.00, 0.00, -0.00, -1.00, 386.5, 43.3)"> </text><text xml:space="preserve" font-family="Roboto-Medium" font-size="30.0" fill="#3F3F3F" transform="matrix(1.00, 0.00, -0.00, -1.00, 393.5, 43.3)">t</text><text xml:space="preserve" font-family="Roboto-Medium" font-size="30.0" fill="#3F3F3F" transform="matrix(1.00, 0.00, -0.00, -1.00, 403.4, 43.3)">h</text><text xml:space="preserve" font-family="Roboto-Medium" font-size="30.0" fill="#3F3F3F" transform="matrix(1.00, 0.00, -0.00, -1.00, 420.1, 43.3)">i</text><text xml:space="preserve" font-family="Roboto-Medium" font-size="30.0" fill="#3F3F3F" transform="matrix(1.00, 0.00, -0.00, -1.00, 427.8, 43.3)">n</text><text xml:space="preserve" font-family="Roboto-Medium" font-size="30.0" fill="#3F3F3F" transform="matrix(1.00, 0.00, -0.00, -1.00, 444.5, 43.3)">k</text><text xml:space="preserve" font-family="Roboto-Medium" font-size="30.0" fill="#3F3F3F" transform="matrix(1.00, 0.00, -0.00, -1.00, 460.1, 43.3)">s</text><text xml:space="preserve" font-family="Roboto-Medium" font-size="30.0" fill="#3F3F3F" transform="matrix(1.00, 0.00, -0.00, -1.00, 475.6, 43.3)"> </text><text xml:space="preserve" font-family="Roboto-Medium" font-size="30.0" fill="#3F3F3F" transform="matrix(1.00, 0.00, -0.00, -1.00, 483.1, 43.3)">t</text><text xml:space="preserve" font-family="Roboto-Medium" font-size="30.0" fill="#3F3F3F" transform="matrix(1.00, 0.00, -0.00, -1.00, 493.0, 43.3)">h</text><text xml:space="preserve" font-family="Roboto-Medium" font-size="30.0" fill="#3F3F3F" transform="matrix(1.00, 0.00, -0.00, -1.00, 509.7, 43.3)">a</text><text xml:space="preserve" font-family="Roboto-Medium" font-size="30.0" fill="#3F3F3F" transform="matrix(1.00, 0.00, -0.00, -1.00, 525.9, 43.3)">t</text><text xml:space="preserve" font-family="Roboto-Medium" font-size="30.0" fill="#3F3F3F" transform="matrix(1.00, 0.00, -0.00, -1.00, 535.9, 43.3)"> </text><text xml:space="preserve" font-family="Roboto-Medium" font-size="30.0" fill="#3F3F3F" transform="matrix(1.00, 0.00, -0.00, -1.00, 35.8, 8.3)">t</text><text xml:space="preserve" font-family="Roboto-Medium" font-size="30.0" fill="#3F3F3F" transform="matrix(1.00, 0.00, -0.00, -1.00, 45.7, 8.3)">h</text><text xml:space="preserve" font-family="Roboto-Medium" font-size="30.0" fill="#3F3F3F" transform="matrix(1.00, 0.00, -0.00, -1.00, 62.4, 8.3)">e</text><text xml:space="preserve" font-family="Roboto-Medium" font-size="30.0" fill="#3F3F3F" transform="matrix(1.00, 0.00, -0.00, -1.00, 78.5, 8.3)"> </text><text xml:space="preserve" font-family="Roboto-Medium" font-size="30.0" fill="#3F3F3F" transform="matrix(1.00, 0.00, -0.00, -1.00, 86.0, 8.3)">p</text><text xml:space="preserve" font-family="Roboto-Medium" font-size="30.0" fill="#3F3F3F" transform="matrix(1.00, 0.00, -0.00, -1.00, 102.9, 8.3)">r</text><text xml:space="preserve" font-family="Roboto-Medium" font-size="30.0" fill="#3F3F3F" transform="matrix(1.00, 0.00, -0.00, -1.00, 112.9, 8.3)">o</text><text xml:space="preserve" font-family="Roboto-Medium" font-size="30.0" fill="#3F3F3F" transform="matrix(1.00, 0.00, -0.00, -1.00, 129.9, 8.3)">c</text><text xml:space="preserve" font-family="Roboto-Medium" font-size="30.0" fill="#3F3F3F" transform="matrix(1.00, 0.00, -0.00, -1.00, 145.7, 8.3)">e</text><text xml:space="preserve" font-family="Roboto-Medium" font-size="30.0" fill="#3F3F3F" transform="matrix(1.00, 0.00, -0.00, -1.00, 161.7, 8.3)">s</text><text xml:space="preserve" font-family="Roboto-Medium" font-size="30.0" fill="#3F3F3F" transform="matrix(1.00, 0.00, -0.00, -1.00, 177.2, 8.3)">s</text><text xml:space="preserve" font-family="Roboto-Medium" font-size="30.0" fill="#3F3F3F" transform="matrix(1.00, 0.00, -0.00, -1.00, 192.7, 8.3)"> </text><text xml:space="preserve" font-family="Roboto-Medium" font-size="30.0" fill="#3F3F3F" transform="matrix(1.00, 0.00, -0.00, -1.00, 200.2, 8.3)">o</text><text xml:space="preserve" font-family="Roboto-Medium" font-size="30.0" fill="#3F3F3F" transform="matrix(1.00, 0.00, -0.00, -1.00, 217.3, 8.3)">f</text><text xml:space="preserve" font-family="Roboto-Medium" font-size="30.0" fill="#3F3F3F" transform="matrix(1.00, 0.00, -0.00, -1.00, 227.9, 8.3)"> </text><text xml:space="preserve" font-family="Roboto-Medium" font-size="30.0" fill="#3F3F3F" transform="matrix(1.00, 0.00, -0.00, -1.00, 235.4, 8.3)">s</text><text xml:space="preserve" font-family="Roboto-Medium" font-size="30.0" fill="#3F3F3F" transform="matrix(1.00, 0.00, -0.00, -1.00, 250.9, 8.3)">e</text><text xml:space="preserve" font-family="Roboto-Medium" font-size="30.0" fill="#3F3F3F" transform="matrix(1.00, 0.00, -0.00, -1.00, 267.0, 8.3)">l</text><text xml:space="preserve" font-family="Roboto-Medium" font-size="30.0" fill="#3F3F3F" transform="matrix(1.00, 0.00, -0.00, -1.00, 274.6, 8.3)">l</text><text xml:space="preserve" font-family="Roboto-Medium" font-size="30.0" fill="#3F3F3F" transform="matrix(1.00, 0.00, -0.00, -1.00, 282.3, 8.3)">i</text><text xml:space="preserve" font-family="Roboto-Medium" font-size="30.0" fill="#3F3F3F" transform="matrix(1.00, 0.00, -0.00, -1.00, 290.0, 8.3)">n</text><text xml:space="preserve" font-family="Roboto-Medium" font-size="30.0" fill="#3F3F3F" transform="matrix(1.00, 0.00, -0.00, -1.00, 306.7, 8.3)">g</text><text xml:space="preserve" font-family="Roboto-Medium" font-size="30.0" fill="#3F3F3F" transform="matrix(1.00, 0.00, -0.00, -1.00, 323.7, 8.3)"> </text><text xml:space="preserve" font-family="Roboto-Medium" font-size="30.0" fill="#3F3F3F" transform="matrix(1.00, 0.00, -0.00, -1.00, 331.2, 8.3)">i</text><text xml:space="preserve" font-family="Roboto-Medium" font-size="30.0" fill="#3F3F3F" transform="matrix(1.00, 0.00, -0.00, -1.00, 338.8, 8.3)">s</text><text xml:space="preserve" font-family="Roboto-Medium" font-size="30.0" fill="#3F3F3F" transform="matrix(1.00, 0.00, -0.00, -1.00, 354.3, 8.3)"> </text><text xml:space="preserve" font-family="Roboto-Medium" font-size="30.0" fill="#3F3F3F" transform="matrix(1.00, 0.00, -0.00, -1.00, 361.8, 8.3)">t</text><text xml:space="preserve" font-family="Roboto-Medium" font-size="30.0" fill="#3F3F3F" transform="matrix(1.00, 0.00, -0.00, -1.00, 371.3, 8.3)">o</text><text xml:space="preserve" font-family="Roboto-Medium" font-size="30.0" fill="#3F3F3F" transform="matrix(1.00, 0.00, -0.00, -1.00, 388.4, 8.3)">o</text><text xml:space="preserve" font-family="Roboto-Medium" font-size="30.0" fill="#3F3F3F" transform="matrix(1.00, 0.00, -0.00, -1.00, 405.5, 8.3)"> </text><text xml:space="preserve" font-family="Roboto-Medium" font-size="30.0" fill="#3F3F3F" transform="matrix(1.00, 0.00, -0.00, -1.00, 413.0, 8.3)">c</text><text xml:space="preserve" font-family="Roboto-Medium" font-size="30.0" fill="#3F3F3F" transform="matrix(1.00, 0.00, -0.00, -1.00, 428.7, 8.3)">o</text><text xml:space="preserve" font-family="Roboto-Medium" font-size="30.0" fill="#3F3F3F" transform="matrix(1.00, 0.00, -0.00, -1.00, 445.8, 8.3)">m</text><text xml:space="preserve" font-family="Roboto-Medium" font-size="30.0" fill="#3F3F3F" transform="matrix(1.00, 0.00, -0.00, -1.00, 471.9, 8.3)">p</text><text xml:space="preserve" font-family="Roboto-Medium" font-size="30.0" fill="#3F3F3F" transform="matrix(1.00, 0.00, -0.00, -1.00, 488.8, 8.3)">l</text><text xml:space="preserve" font-family="Roboto-Medium" font-size="30.0" fill="#3F3F3F" transform="matrix(1.00, 0.00, -0.00, -1.00, 496.4, 8.3)">e</text><text xml:space="preserve" font-family="Roboto-Medium" font-size="30.0" fill="#3F3F3F" transform="matrix(1.00, 0.00, -0.00, -1.00, 512.5, 8.3)">x</text><text xml:space="preserve" font-family="Roboto-Medium" font-size="30.0" fill="#3F3F3F" transform="matrix(1.00, 0.00, -0.00, -1.00, 527.6, 8.3)">.</text></g></svg>