<?xml version="1.0" encoding="UTF-8" standalone="no"?><svg xmlns="http://www.w3.org/2000/svg" xmlns:xlink="http://www.w3.org/1999/xlink" clip-rule="evenodd" stroke-miterlimit="4.00" viewBox="0 0 265 164"><desc>SVG generated by Keynote</desc><defs></defs><g transform="matrix(1.00, 0.00, -0.00, -1.00, 0.0, 164.0)"><g><clipPath id="clip-130"><path d="M 77.7 97.3 L 266.9 97.3 L 266.9 165.3 L 77.7 165.3 Z M 77.7 97.3 "></path></clipPath><g clip-path="url(#clip-130)"><text xml:space="preserve" font-family="NexaBold" font-weight="bold" font-size="40.0" fill="#9459B2" transform="matrix(1.00, 0.00, -0.00, -1.00, 88.7, 117.3)">K</text><text xml:space="preserve" font-family="NexaBold" font-weight="bold" font-size="40.0" fill="#9459B2" transform="matrix(1.00, 0.00, -0.00, -1.00, 114.9, 117.3)">A</text><text xml:space="preserve" font-family="NexaBold" font-weight="bold" font-size="40.0" fill="#9459B2" transform="matrix(1.00, 0.00, -0.00, -1.00, 144.9, 117.3)">I</text><text xml:space="preserve" font-family="NexaBold" font-weight="bold" font-size="40.0" fill="#9459B2" transform="matrix(1.00, 0.00, -0.00, -1.00, 156.4, 117.3)">T</text><text xml:space="preserve" font-family="NexaBold" font-weight="bold" font-size="40.0" fill="#9459B2" transform="matrix(1.00, 0.00, -0.00, -1.00, 181.0, 117.3)">L</text><text xml:space="preserve" font-family="NexaBold" font-weight="bold" font-size="40.0" fill="#9459B2" transform="matrix(1.00, 0.00, -0.00, -1.00, 199.4, 117.3)">Y</text><text xml:space="preserve" font-family="NexaBold" font-weight="bold" font-size="40.0" fill="#9459B2" transform="matrix(1.00, 0.00, -0.00, -1.00, 227.3, 117.3)">N</text></g></g><g><clipPath id="clip-131"><path d="M -0.7 -4.7 L 265.2 -4.7 L 265.2 97.7 L -0.7 97.7 Z M -0.7 -4.7 "></path></clipPath><g clip-path="url(#clip-131)"><text xml:space="preserve" font-family="Roboto-Regular" font-size="32.0" fill="#9459B2" transform="matrix(1.00, 0.00, -0.00, -1.00, 38.6, 58.1)">T</text><text xml:space="preserve" font-family="Roboto-Regular" font-size="32.0" fill="#9459B2" transform="matrix(1.00, 0.00, -0.00, -1.00, 57.7, 58.1)">H</text><text xml:space="preserve" font-family="Roboto-Regular" font-size="32.0" fill="#9459B2" transform="matrix(1.00, 0.00, -0.00, -1.00, 80.5, 58.1)">E</text><text xml:space="preserve" font-family="Roboto-Regular" font-size="32.0" fill="#9459B2" transform="matrix(1.00, 0.00, -0.00, -1.00, 98.7, 58.1)"> </text><text xml:space="preserve" font-family="Roboto-Regular" font-size="32.0" fill="#9459B2" transform="matrix(1.00, 0.00, -0.00, -1.00, 106.7, 58.1)">S</text><text xml:space="preserve" font-family="Roboto-Regular" font-size="32.0" fill="#9459B2" transform="matrix(1.00, 0.00, -0.00, -1.00, 125.7, 58.1)">O</text><text xml:space="preserve" font-family="Roboto-Regular" font-size="32.0" fill="#9459B2" transform="matrix(1.00, 0.00, -0.00, -1.00, 147.6, 58.1)">R</text><text xml:space="preserve" font-family="Roboto-Regular" font-size="32.0" fill="#9459B2" transform="matrix(1.00, 0.00, -0.00, -1.00, 167.3, 58.1)">O</text><text xml:space="preserve" font-family="Roboto-Regular" font-size="32.0" fill="#9459B2" transform="matrix(1.00, 0.00, -0.00, -1.00, 189.3, 58.1)">R</text><text xml:space="preserve" font-family="Roboto-Regular" font-size="32.0" fill="#9459B2" transform="matrix(1.00, 0.00, -0.00, -1.00, 209.0, 58.1)">I</text><text xml:space="preserve" font-family="Roboto-Regular" font-size="32.0" fill="#9459B2" transform="matrix(1.00, 0.00, -0.00, -1.00, 217.3, 58.1)">T</text><text xml:space="preserve" font-family="Roboto-Regular" font-size="32.0" fill="#9459B2" transform="matrix(1.00, 0.00, -0.00, -1.00, 236.6, 58.1)">Y</text><text xml:space="preserve" font-family="Roboto-Regular" font-size="32.0" fill="#9459B2" transform="matrix(1.00, 0.00, -0.00, -1.00, 255.8, 58.1)"> </text><text xml:space="preserve" font-family="Roboto-Regular" font-size="32.0" fill="#9459B2" transform="matrix(1.00, 0.00, -0.00, -1.00, 188.4, 16.3)">G</text><text xml:space="preserve" font-family="Roboto-Regular" font-size="32.0" fill="#9459B2" transform="matrix(1.00, 0.00, -0.00, -1.00, 210.2, 16.3)">I</text><text xml:space="preserve" font-family="Roboto-Regular" font-size="32.0" fill="#9459B2" transform="matrix(1.00, 0.00, -0.00, -1.00, 218.9, 16.3)">R</text><text xml:space="preserve" font-family="Roboto-Regular" font-size="32.0" fill="#9459B2" transform="matrix(1.00, 0.00, -0.00, -1.00, 238.6, 16.3)">L</text></g></g></g></svg>