<?xml version="1.0" encoding="UTF-8" standalone="no"?><svg xmlns="http://www.w3.org/2000/svg" xmlns:xlink="http://www.w3.org/1999/xlink" clip-rule="evenodd" stroke-miterlimit="4.00" viewBox="0 0 1921 531"><desc>SVG generated by Keynote</desc><defs></defs><g transform="matrix(1.00, 0.00, -0.00, -1.00, 0.0, 531.0)"><g><clipPath id="clip-140"><path d="M 1.0 531.0 L 1921.0 531.0 L 1921.0 0.0 L 1.0 0.0 Z M 1.0 531.0 "></path></clipPath><g clip-path="url(#clip-140)"><g><clipPath id="clip-141"><path d="M 1.0 0.2 L 1921.0 0.2 L 1921.0 531.0 L 1.0 531.0 Z M 1.0 0.2 "></path></clipPath><g clip-path="url(#clip-141)"><image xlink:href="C4D010CDF3A603332B7ED73B3110077A.jpeg" width="1153.00" height="768.00" transform="matrix(1.67, 0.00, -0.00, -1.67, 1.0, 1177.0)"></image></g></g></g></g><g><clipPath id="clip-142"><path d="M 676.8 285.9 L 1245.2 285.9 L 1245.2 371.1 L 676.8 371.1 Z M 676.8 285.9 "></path></clipPath><g clip-path="url(#clip-142)"><text xml:space="preserve" font-family="Roboto-Thin" font-size="48.0" fill="#FFFFFF" transform="matrix(1.00, 0.00, -0.00, -1.00, 858.0, 312.0)">W</text><text xml:space="preserve" font-family="Roboto-Thin" font-size="48.0" fill="#FFFFFF" transform="matrix(1.00, 0.00, -0.00, -1.00, 901.5, 312.0)">H</text><text xml:space="preserve" font-family="Roboto-Thin" font-size="48.0" fill="#FFFFFF" transform="matrix(1.00, 0.00, -0.00, -1.00, 935.6, 312.0)">A</text><text xml:space="preserve" font-family="Roboto-Thin" font-size="48.0" fill="#FFFFFF" transform="matrix(1.00, 0.00, -0.00, -1.00, 961.2, 312.0)">T</text><text xml:space="preserve" font-family="Roboto-Thin" font-size="48.0" fill="#FFFFFF" transform="matrix(1.00, 0.00, -0.00, -1.00, 988.9, 312.0)"> </text><text xml:space="preserve" font-family="Roboto-Thin" font-size="48.0" fill="#FFFFFF" transform="matrix(1.00, 0.00, -0.00, -1.00, 1000.5, 312.0)">I</text><text xml:space="preserve" font-family="Roboto-Thin" font-size="48.0" fill="#FFFFFF" transform="matrix(1.00, 0.00, -0.00, -1.00, 1013.0, 312.0)">F</text><text xml:space="preserve" font-family="Roboto-Thin" font-size="48.0" fill="#FFFFFF" transform="matrix(1.00, 0.00, -0.00, -1.00, 1035.0, 312.0)">…</text></g></g></g></svg>