<?xml version="1.0" encoding="UTF-8" standalone="no"?><svg xmlns="http://www.w3.org/2000/svg" xmlns:xlink="http://www.w3.org/1999/xlink" clip-rule="evenodd" stroke-miterlimit="4.00" viewBox="0 0 1920 1080"><desc>SVG generated by Keynote</desc><defs></defs><g transform="matrix(1.00, 0.00, -0.00, -1.00, 0.0, 1080.0)"><path d="M 0.0 1080.0 L 1920.0 1080.0 L 1920.0 0.0 L 0.0 0.0 Z M 0.0 1080.0 " fill="#FEFFFF"></path><g opacity="0.27"><g><clipPath id="clip-154"><path d="M 112.0 942.0 L 450.0 942.0 L 450.0 797.0 L 112.0 797.0 Z M 112.0 942.0 "></path></clipPath><g clip-path="url(#clip-154)"><g><clipPath id="clip-155"><path d="M 112.0 797.0 L 450.0 797.0 L 450.0 942.0 L 112.0 942.0 Z M 112.0 797.0 "></path></clipPath><g clip-path="url(#clip-155)"><path d="M 0.0 0.0 L -28.0 -47.6 L -0.7 -94.0 L -0.3 -94.0 L 27.5 -46.7 L 0.0 0.0 Z M 0.0 0.0 " fill="none" stroke="#000000" stroke-width="2.00" stroke-miterlimit="0.00" transform="matrix(1.50, 0.00, 0.00, 1.50, 281.8, 939.1)"></path><path d="M 0.0 0.0 L -27.5 -46.7 L 0.3 -94.0 L 55.3 -94.0 L 0.0 0.0 Z M 0.0 0.0 " fill="none" stroke="#000000" stroke-width="2.00" stroke-miterlimit="0.00" transform="matrix(1.50, 0.00, 0.00, 1.50, 364.3, 939.1)"></path><path d="M 0.0 0.0 L 55.6 0.0 L 27.8 47.3 L 0.0 0.0 Z M 0.0 0.0 " fill="none" stroke="#000000" stroke-width="2.00" stroke-miterlimit="0.00" transform="matrix(1.50, 0.00, 0.00, 1.50, 281.3, 798.5)"></path><path d="M 0.0 0.0 L -55.3 -94.0 L 0.7 -94.0 L 28.0 -47.6 L 0.0 0.0 Z M 0.0 0.0 " fill="none" stroke="#000000" stroke-width="2.00" stroke-miterlimit="0.00" transform="matrix(1.50, 0.00, 0.00, 1.50, 197.7, 939.1)"></path><path d="M 0.0 0.0 L 54.6 0.0 L 27.3 46.4 L 0.0 0.0 Z M 0.0 0.0 " fill="none" stroke="#000000" stroke-width="2.00" stroke-miterlimit="0.00" transform="matrix(1.50, 0.00, 0.00, 1.50, 198.7, 798.5)"></path></g></g></g></g></g></g></svg>