<?xml version="1.0" encoding="UTF-8" standalone="no"?><svg xmlns="http://www.w3.org/2000/svg" xmlns:xlink="http://www.w3.org/1999/xlink" clip-rule="evenodd" stroke-miterlimit="4.00" viewBox="0 0 638 159"><desc>SVG generated by Keynote</desc><defs></defs><g transform="matrix(1.00, 0.00, -0.00, -1.00, 0.0, 159.0)"><g><clipPath id="clip-143"><path d="M 134.6 -9.0 L 647.1 -9.0 L 647.1 168.2 L 134.6 168.2 Z M 134.6 -9.0 "></path></clipPath><g clip-path="url(#clip-143)"><text xml:space="preserve" font-family="Roboto-Thin" font-size="60.0" fill="#000000" transform="matrix(1.00, 0.00, -0.00, -1.00, 152.0, 94.0)">W</text><text xml:space="preserve" font-family="Roboto-Thin" font-size="60.0" fill="#000000" transform="matrix(1.00, 0.00, -0.00, -1.00, 206.3, 94.0)">H</text><text xml:space="preserve" font-family="Roboto-Thin" font-size="60.0" fill="#000000" transform="matrix(1.00, 0.00, -0.00, -1.00, 249.0, 94.0)">A</text><text xml:space="preserve" font-family="Roboto-Thin" font-size="60.0" fill="#000000" transform="matrix(1.00, 0.00, -0.00, -1.00, 281.0, 94.0)">T</text><text xml:space="preserve" font-family="Roboto-Thin" font-size="60.0" fill="#000000" transform="matrix(1.00, 0.00, -0.00, -1.00, 315.7, 94.0)"> </text><text xml:space="preserve" font-family="Roboto-Thin" font-size="60.0" fill="#000000" transform="matrix(1.00, 0.00, -0.00, -1.00, 330.1, 94.0)">K</text><text xml:space="preserve" font-family="Roboto-Thin" font-size="60.0" fill="#000000" transform="matrix(1.00, 0.00, -0.00, -1.00, 368.2, 94.0)">A</text><text xml:space="preserve" font-family="Roboto-Thin" font-size="60.0" fill="#000000" transform="matrix(1.00, 0.00, -0.00, -1.00, 404.0, 94.0)">I</text><text xml:space="preserve" font-family="Roboto-Thin" font-size="60.0" fill="#000000" transform="matrix(1.00, 0.00, -0.00, -1.00, 418.8, 94.0)">T</text><text xml:space="preserve" font-family="Roboto-Thin" font-size="60.0" fill="#000000" transform="matrix(1.00, 0.00, -0.00, -1.00, 454.6, 94.0)">L</text><text xml:space="preserve" font-family="Roboto-Thin" font-size="60.0" fill="#000000" transform="matrix(1.00, 0.00, -0.00, -1.00, 478.6, 94.0)">Y</text><text xml:space="preserve" font-family="Roboto-Thin" font-size="60.0" fill="#000000" transform="matrix(1.00, 0.00, -0.00, -1.00, 514.4, 94.0)">N</text><text xml:space="preserve" font-family="Roboto-Thin" font-size="60.0" fill="#000000" transform="matrix(1.00, 0.00, -0.00, -1.00, 556.9, 94.0)"> </text><text xml:space="preserve" font-family="Roboto-Thin" font-size="60.0" fill="#000000" transform="matrix(1.00, 0.00, -0.00, -1.00, 152.0, 23.0)">H</text><text xml:space="preserve" font-family="Roboto-Thin" font-size="60.0" fill="#000000" transform="matrix(1.00, 0.00, -0.00, -1.00, 194.7, 23.0)">A</text><text xml:space="preserve" font-family="Roboto-Thin" font-size="60.0" fill="#000000" transform="matrix(1.00, 0.00, -0.00, -1.00, 230.5, 23.0)">S</text><text xml:space="preserve" font-family="Roboto-Thin" font-size="60.0" fill="#000000" transform="matrix(1.00, 0.00, -0.00, -1.00, 266.0, 23.0)"> </text><text xml:space="preserve" font-family="Roboto-Thin" font-size="60.0" fill="#000000" transform="matrix(1.00, 0.00, -0.00, -1.00, 279.2, 23.0)">T</text><text xml:space="preserve" font-family="Roboto-Thin" font-size="60.0" fill="#000000" transform="matrix(1.00, 0.00, -0.00, -1.00, 314.2, 23.0)">O</text><text xml:space="preserve" font-family="Roboto-Thin" font-size="60.0" fill="#000000" transform="matrix(1.00, 0.00, -0.00, -1.00, 354.2, 23.0)"> </text><text xml:space="preserve" font-family="Roboto-Thin" font-size="60.0" fill="#000000" transform="matrix(1.00, 0.00, -0.00, -1.00, 368.6, 23.0)">O</text><text xml:space="preserve" font-family="Roboto-Thin" font-size="60.0" fill="#000000" transform="matrix(1.00, 0.00, -0.00, -1.00, 408.5, 23.0)">F</text><text xml:space="preserve" font-family="Roboto-Thin" font-size="60.0" fill="#000000" transform="matrix(1.00, 0.00, -0.00, -1.00, 442.9, 23.0)">F</text><text xml:space="preserve" font-family="Roboto-Thin" font-size="60.0" fill="#000000" transform="matrix(1.00, 0.00, -0.00, -1.00, 477.2, 23.0)">E</text><text xml:space="preserve" font-family="Roboto-Thin" font-size="60.0" fill="#000000" transform="matrix(1.00, 0.00, -0.00, -1.00, 511.4, 23.0)">R</text></g></g><g><clipPath id="clip-144"><path d="M 0.3 29.3 L 129.8 29.3 L 129.8 132.8 L 0.3 132.8 Z M 0.3 29.3 "></path></clipPath><g clip-path="url(#clip-144)"><path d="M 65.1 32.2 L 127.0 130.8 L 3.2 130.8 Z M 65.1 32.2 " fill="#FFFFFF"></path><path d="M 61.9 0.0 L 123.9 98.5 L 0.0 98.5 Z M 61.9 0.0 " fill="none" stroke="#525252" stroke-width="2.00" stroke-miterlimit="8.00" transform="matrix(1.00, 0.00, 0.00, 1.00, 3.2, 32.2)"></path></g></g></g></svg>