<?xml version="1.0" encoding="UTF-8" standalone="no"?><svg xmlns="http://www.w3.org/2000/svg" xmlns:xlink="http://www.w3.org/1999/xlink" clip-rule="evenodd" stroke-miterlimit="4.00" viewBox="0 0 990 324"><desc>SVG generated by Keynote</desc><defs></defs><g transform="matrix(1.00, 0.00, -0.00, -1.00, 0.0, 324.0)"><text xml:space="preserve" font-family="NexaBold" font-weight="bold" font-size="110.0" fill="#000000" transform="matrix(1.00, 0.00, -0.00, -1.00, 3.0, 245.0)">L</text><text xml:space="preserve" font-family="NexaBold" font-weight="bold" font-size="110.0" fill="#000000" transform="matrix(1.00, 0.00, -0.00, -1.00, 67.3, 245.0)">e</text><text xml:space="preserve" font-family="NexaBold" font-weight="bold" font-size="110.0" fill="#000000" transform="matrix(1.00, 0.00, -0.00, -1.00, 129.2, 245.0)">t</text><text xml:space="preserve" font-family="NexaBold" font-weight="bold" font-size="110.0" fill="#000000" transform="matrix(1.00, 0.00, -0.00, -1.00, 173.1, 245.0)">’</text><text xml:space="preserve" font-family="NexaBold" font-weight="bold" font-size="110.0" fill="#000000" transform="matrix(1.00, 0.00, -0.00, -1.00, 195.3, 245.0)">s</text><text xml:space="preserve" font-family="NexaBold" font-weight="bold" font-size="110.0" fill="#000000" transform="matrix(1.00, 0.00, -0.00, -1.00, 249.3, 245.0)"> </text><text xml:space="preserve" font-family="NexaBold" font-weight="bold" font-size="110.0" fill="#000000" transform="matrix(1.00, 0.00, -0.00, -1.00, 271.5, 245.0)">t</text><text xml:space="preserve" font-family="NexaBold" font-weight="bold" font-size="110.0" fill="#000000" transform="matrix(1.00, 0.00, -0.00, -1.00, 315.4, 245.0)">a</text><text xml:space="preserve" font-family="NexaBold" font-weight="bold" font-size="110.0" fill="#000000" transform="matrix(1.00, 0.00, -0.00, -1.00, 382.6, 245.0)">l</text><text xml:space="preserve" font-family="NexaBold" font-weight="bold" font-size="110.0" fill="#000000" transform="matrix(1.00, 0.00, -0.00, -1.00, 407.7, 245.0)">k</text><text xml:space="preserve" font-family="NexaBold" font-weight="bold" font-size="110.0" fill="#000000" transform="matrix(1.00, 0.00, -0.00, -1.00, 464.3, 245.0)"> </text><text xml:space="preserve" font-family="NexaBold" font-weight="bold" font-size="110.0" fill="#000000" transform="matrix(1.00, 0.00, -0.00, -1.00, 486.6, 245.0)">a</text><text xml:space="preserve" font-family="NexaBold" font-weight="bold" font-size="110.0" fill="#000000" transform="matrix(1.00, 0.00, -0.00, -1.00, 552.7, 245.0)">b</text><text xml:space="preserve" font-family="NexaBold" font-weight="bold" font-size="110.0" fill="#000000" transform="matrix(1.00, 0.00, -0.00, -1.00, 621.4, 245.0)">o</text><text xml:space="preserve" font-family="NexaBold" font-weight="bold" font-size="110.0" fill="#000000" transform="matrix(1.00, 0.00, -0.00, -1.00, 684.6, 245.0)">u</text><text xml:space="preserve" font-family="NexaBold" font-weight="bold" font-size="110.0" fill="#000000" transform="matrix(1.00, 0.00, -0.00, -1.00, 750.4, 245.0)">t</text><text xml:space="preserve" font-family="NexaBold" font-weight="bold" font-size="110.0" fill="#000000" transform="matrix(1.00, 0.00, -0.00, -1.00, 794.3, 245.0)"> </text><text xml:space="preserve" font-family="NexaBold" font-weight="bold" font-size="110.0" fill="#000000" transform="matrix(1.00, 0.00, -0.00, -1.00, 816.6, 245.0)">t</text><text xml:space="preserve" font-family="NexaBold" font-weight="bold" font-size="110.0" fill="#000000" transform="matrix(1.00, 0.00, -0.00, -1.00, 860.4, 245.0)">h</text><text xml:space="preserve" font-family="NexaBold" font-weight="bold" font-size="110.0" fill="#000000" transform="matrix(1.00, 0.00, -0.00, -1.00, 924.4, 245.0)">e</text><text xml:space="preserve" font-family="NexaBold" font-weight="bold" font-size="110.0" fill="#000000" transform="matrix(1.00, 0.00, -0.00, -1.00, 988.5, 245.0)"> </text><text xml:space="preserve" font-family="NexaBold" font-weight="bold" font-size="110.0" fill="#000000" transform="matrix(1.00, 0.00, -0.00, -1.00, 3.0, 125.0)">t</text><text xml:space="preserve" font-family="NexaBold" font-weight="bold" font-size="110.0" fill="#000000" transform="matrix(1.00, 0.00, -0.00, -1.00, 46.9, 125.0)">h</text><text xml:space="preserve" font-family="NexaBold" font-weight="bold" font-size="110.0" fill="#000000" transform="matrix(1.00, 0.00, -0.00, -1.00, 110.8, 125.0)">i</text><text xml:space="preserve" font-family="NexaBold" font-weight="bold" font-size="110.0" fill="#000000" transform="matrix(1.00, 0.00, -0.00, -1.00, 136.3, 125.0)">n</text><text xml:space="preserve" font-family="NexaBold" font-weight="bold" font-size="110.0" fill="#000000" transform="matrix(1.00, 0.00, -0.00, -1.00, 201.2, 125.0)">g</text><text xml:space="preserve" font-family="NexaBold" font-weight="bold" font-size="110.0" fill="#000000" transform="matrix(1.00, 0.00, -0.00, -1.00, 261.9, 125.0)">s</text><text xml:space="preserve" font-family="NexaBold" font-weight="bold" font-size="110.0" fill="#000000" transform="matrix(1.00, 0.00, -0.00, -1.00, 316.0, 125.0)"> </text><text xml:space="preserve" font-family="NexaBold" font-weight="bold" font-size="110.0" fill="#000000" transform="matrix(1.00, 0.00, -0.00, -1.00, 338.2, 125.0)">y</text><text xml:space="preserve" font-family="NexaBold" font-weight="bold" font-size="110.0" fill="#000000" transform="matrix(1.00, 0.00, -0.00, -1.00, 399.9, 125.0)">o</text><text xml:space="preserve" font-family="NexaBold" font-weight="bold" font-size="110.0" fill="#000000" transform="matrix(1.00, 0.00, -0.00, -1.00, 463.0, 125.0)">u</text><text xml:space="preserve" font-family="NexaBold" font-weight="bold" font-size="110.0" fill="#000000" transform="matrix(1.00, 0.00, -0.00, -1.00, 528.9, 125.0)"> </text><text xml:space="preserve" font-family="NexaBold" font-weight="bold" font-size="110.0" fill="#000000" transform="matrix(1.00, 0.00, -0.00, -1.00, 551.1, 125.0)">h</text><text xml:space="preserve" font-family="NexaBold" font-weight="bold" font-size="110.0" fill="#000000" transform="matrix(1.00, 0.00, -0.00, -1.00, 615.0, 125.0)">a</text><text xml:space="preserve" font-family="NexaBold" font-weight="bold" font-size="110.0" fill="#000000" transform="matrix(1.00, 0.00, -0.00, -1.00, 678.8, 125.0)">v</text><text xml:space="preserve" font-family="NexaBold" font-weight="bold" font-size="110.0" fill="#000000" transform="matrix(1.00, 0.00, -0.00, -1.00, 741.5, 125.0)">e</text><text xml:space="preserve" font-family="NexaBold" font-weight="bold" font-size="110.0" fill="#000000" transform="matrix(1.00, 0.00, -0.00, -1.00, 805.7, 125.0)"> </text><text xml:space="preserve" font-family="NexaBold" font-weight="bold" font-size="110.0" fill="#000000" transform="matrix(1.00, 0.00, -0.00, -1.00, 3.0, 5.0)">b</text><text xml:space="preserve" font-family="NexaBold" font-weight="bold" font-size="110.0" fill="#000000" transform="matrix(1.00, 0.00, -0.00, -1.00, 71.8, 5.0)">u</text><text xml:space="preserve" font-family="NexaBold" font-weight="bold" font-size="110.0" fill="#000000" transform="matrix(1.00, 0.00, -0.00, -1.00, 137.6, 5.0)">t</text><text xml:space="preserve" font-family="NexaBold" font-weight="bold" font-size="110.0" fill="#000000" transform="matrix(1.00, 0.00, -0.00, -1.00, 181.5, 5.0)"> </text><text xml:space="preserve" font-family="NexaBold" font-weight="bold" font-size="110.0" fill="#000000" transform="matrix(1.00, 0.00, -0.00, -1.00, 203.7, 5.0)">d</text><text xml:space="preserve" font-family="NexaBold" font-weight="bold" font-size="110.0" fill="#000000" transform="matrix(1.00, 0.00, -0.00, -1.00, 271.7, 5.0)">o</text><text xml:space="preserve" font-family="NexaBold" font-weight="bold" font-size="110.0" fill="#000000" transform="matrix(1.00, 0.00, -0.00, -1.00, 334.9, 5.0)">n</text><text xml:space="preserve" font-family="NexaBold" font-weight="bold" font-size="110.0" fill="#000000" transform="matrix(1.00, 0.00, -0.00, -1.00, 399.8, 5.0)">’</text><text xml:space="preserve" font-family="NexaBold" font-weight="bold" font-size="110.0" fill="#000000" transform="matrix(1.00, 0.00, -0.00, -1.00, 422.0, 5.0)">t</text><text xml:space="preserve" font-family="NexaBold" font-weight="bold" font-size="110.0" fill="#000000" transform="matrix(1.00, 0.00, -0.00, -1.00, 465.9, 5.0)"> </text><text xml:space="preserve" font-family="NexaBold" font-weight="bold" font-size="110.0" fill="#000000" transform="matrix(1.00, 0.00, -0.00, -1.00, 488.1, 5.0)">u</text><text xml:space="preserve" font-family="NexaBold" font-weight="bold" font-size="110.0" fill="#000000" transform="matrix(1.00, 0.00, -0.00, -1.00, 554.0, 5.0)">s</text><text xml:space="preserve" font-family="NexaBold" font-weight="bold" font-size="110.0" fill="#000000" transform="matrix(1.00, 0.00, -0.00, -1.00, 608.0, 5.0)">e</text><text xml:space="preserve" font-family="NexaBold" font-weight="bold" font-size="110.0" fill="#000000" transform="matrix(1.00, 0.00, -0.00, -1.00, 672.1, 5.0)">…</text></g></svg>