<?xml version="1.0" encoding="UTF-8" standalone="no"?><svg xmlns="http://www.w3.org/2000/svg" xmlns:xlink="http://www.w3.org/1999/xlink" clip-rule="evenodd" stroke-miterlimit="4.00" viewBox="0 0 1622 1681"><desc>SVG generated by Keynote</desc><defs></defs><g transform="matrix(1.00, 0.00, -0.00, -1.00, 0.0, 1681.0)"><g><clipPath id="clip-4"><path d="M 811.2 1187.5 L 1188.4 810.3 L 811.2 433.1 L 434.0 810.3 Z M 811.2 1187.5 "></path></clipPath><g clip-path="url(#clip-4)"><g><clipPath id="clip-5"><path d="M 434.0 433.1 L 1188.4 433.1 L 1188.4 1187.5 L 434.0 1187.5 Z M 434.0 433.1 "></path></clipPath><g clip-path="url(#clip-5)"><image xlink:href="74358C75C2361499B36F9071AEA0A759.jpeg" width="1137.00" height="757.00" transform="matrix(1.00, 0.00, -0.00, -1.00, 127.0, 1184.0)"></image></g></g></g></g><g><clipPath id="clip-6"><path d="M 378.1 1620.6 L 755.3 1243.4 L 378.1 866.2 L 0.9 1243.4 Z M 378.1 1620.6 "></path></clipPath><g clip-path="url(#clip-6)"><g><clipPath id="clip-7"><path d="M 0.9 866.2 L 755.3 866.2 L 755.3 1620.6 L 0.9 1620.6 Z M 0.9 866.2 "></path></clipPath><g clip-path="url(#clip-7)"><image xlink:href="../../47ED929E-0D35-48AA-AC12-B5E24C555962/assets/572A451D66E175971B4F5934DACCFCDB.jpeg" width="993.00" height="661.00" transform="matrix(1.00, 0.00, -0.00, -1.00, -23.0, 1471.0)"></image></g></g></g></g><g><clipPath id="clip-8"><path d="M 1206.3 1680.6 L 1583.5 1303.4 L 1206.3 926.2 L 829.1 1303.4 Z M 1206.3 1680.6 "></path></clipPath><g clip-path="url(#clip-8)"><g><clipPath id="clip-9"><path d="M 829.1 926.2 L 1583.5 926.2 L 1583.5 1680.6 L 829.1 1680.6 Z M 829.1 926.2 "></path></clipPath><g clip-path="url(#clip-9)"><image xlink:href="31AA769807E21BB495CA862EFA27F042.jpeg" width="791.00" height="528.00" transform="matrix(1.00, 0.00, -0.00, -1.00, 691.0, 1415.0)"></image></g></g></g></g><g><clipPath id="clip-10"><path d="M 1244.3 754.4 L 1621.5 377.2 L 1244.3 0.0 L 867.1 377.2 Z M 1244.3 754.4 "></path></clipPath><g clip-path="url(#clip-10)"><g><clipPath id="clip-11"><path d="M 867.1 0.0 L 1621.5 0.0 L 1621.5 754.4 L 867.1 754.4 Z M 867.1 0.0 "></path></clipPath><g clip-path="url(#clip-11)"><image xlink:href="84EA35C3A53EFB6FCE89DF3E9D4C8A2B.jpeg" width="934.00" height="622.00" transform="matrix(1.00, 0.00, -0.00, -1.00, 595.0, 762.0)"></image></g></g></g></g></g></svg>