<?xml version="1.0" encoding="UTF-8" standalone="no"?><svg xmlns="http://www.w3.org/2000/svg" xmlns:xlink="http://www.w3.org/1999/xlink" clip-rule="evenodd" stroke-miterlimit="4.00" viewBox="0 0 1920 1080"><desc>SVG generated by Keynote</desc><defs></defs><g transform="matrix(1.00, 0.00, -0.00, -1.00, 0.0, 1080.0)"><path d="M 0.0 1080.0 L 1920.0 1080.0 L 1920.0 0.0 L 0.0 0.0 Z M 0.0 1080.0 " fill="#FEFFFF"></path><text xml:space="preserve" font-family="Roboto-Thin" font-size="48.0" fill="#000000" transform="matrix(1.00, 0.00, -0.00, -1.00, 116.0, 532.0)">P</text><text xml:space="preserve" font-family="Roboto-Thin" font-size="48.0" fill="#000000" transform="matrix(1.00, 0.00, -0.00, -1.00, 144.8, 532.0)">R</text><text xml:space="preserve" font-family="Roboto-Thin" font-size="48.0" fill="#000000" transform="matrix(1.00, 0.00, -0.00, -1.00, 176.2, 532.0)">O</text><text xml:space="preserve" font-family="Roboto-Thin" font-size="48.0" fill="#000000" transform="matrix(1.00, 0.00, -0.00, -1.00, 208.2, 532.0)">B</text><text xml:space="preserve" font-family="Roboto-Thin" font-size="48.0" fill="#000000" transform="matrix(1.00, 0.00, -0.00, -1.00, 237.1, 532.0)">L</text><text xml:space="preserve" font-family="Roboto-Thin" font-size="48.0" fill="#000000" transform="matrix(1.00, 0.00, -0.00, -1.00, 261.9, 532.0)">E</text><text xml:space="preserve" font-family="Roboto-Thin" font-size="48.0" fill="#000000" transform="matrix(1.00, 0.00, -0.00, -1.00, 289.3, 532.0)">M</text><text xml:space="preserve" font-family="NexaBold" font-weight="bold" font-size="110.0" fill="#000000" transform="matrix(1.00, 0.00, -0.00, -1.00, 112.0, 371.0)">L</text><text xml:space="preserve" font-family="NexaBold" font-weight="bold" font-size="110.0" fill="#000000" transform="matrix(1.00, 0.00, -0.00, -1.00, 176.3, 371.0)">e</text><text xml:space="preserve" font-family="NexaBold" font-weight="bold" font-size="110.0" fill="#000000" transform="matrix(1.00, 0.00, -0.00, -1.00, 238.2, 371.0)">t</text><text xml:space="preserve" font-family="NexaBold" font-weight="bold" font-size="110.0" fill="#000000" transform="matrix(1.00, 0.00, -0.00, -1.00, 282.1, 371.0)">’</text><text xml:space="preserve" font-family="NexaBold" font-weight="bold" font-size="110.0" fill="#000000" transform="matrix(1.00, 0.00, -0.00, -1.00, 304.3, 371.0)">s</text><text xml:space="preserve" font-family="NexaBold" font-weight="bold" font-size="110.0" fill="#000000" transform="matrix(1.00, 0.00, -0.00, -1.00, 358.3, 371.0)"> </text><text xml:space="preserve" font-family="NexaBold" font-weight="bold" font-size="110.0" fill="#000000" transform="matrix(1.00, 0.00, -0.00, -1.00, 380.5, 371.0)">t</text><text xml:space="preserve" font-family="NexaBold" font-weight="bold" font-size="110.0" fill="#000000" transform="matrix(1.00, 0.00, -0.00, -1.00, 424.4, 371.0)">a</text><text xml:space="preserve" font-family="NexaBold" font-weight="bold" font-size="110.0" fill="#000000" transform="matrix(1.00, 0.00, -0.00, -1.00, 491.6, 371.0)">l</text><text xml:space="preserve" font-family="NexaBold" font-weight="bold" font-size="110.0" fill="#000000" transform="matrix(1.00, 0.00, -0.00, -1.00, 516.7, 371.0)">k</text><text xml:space="preserve" font-family="NexaBold" font-weight="bold" font-size="110.0" fill="#000000" transform="matrix(1.00, 0.00, -0.00, -1.00, 573.3, 371.0)"> </text><text xml:space="preserve" font-family="NexaBold" font-weight="bold" font-size="110.0" fill="#000000" transform="matrix(1.00, 0.00, -0.00, -1.00, 595.6, 371.0)">a</text><text xml:space="preserve" font-family="NexaBold" font-weight="bold" font-size="110.0" fill="#000000" transform="matrix(1.00, 0.00, -0.00, -1.00, 661.7, 371.0)">b</text><text xml:space="preserve" font-family="NexaBold" font-weight="bold" font-size="110.0" fill="#000000" transform="matrix(1.00, 0.00, -0.00, -1.00, 730.4, 371.0)">o</text><text xml:space="preserve" font-family="NexaBold" font-weight="bold" font-size="110.0" fill="#000000" transform="matrix(1.00, 0.00, -0.00, -1.00, 793.6, 371.0)">u</text><text xml:space="preserve" font-family="NexaBold" font-weight="bold" font-size="110.0" fill="#000000" transform="matrix(1.00, 0.00, -0.00, -1.00, 859.4, 371.0)">t</text><text xml:space="preserve" font-family="NexaBold" font-weight="bold" font-size="110.0" fill="#000000" transform="matrix(1.00, 0.00, -0.00, -1.00, 903.3, 371.0)"> </text><text xml:space="preserve" font-family="NexaBold" font-weight="bold" font-size="110.0" fill="#000000" transform="matrix(1.00, 0.00, -0.00, -1.00, 925.6, 371.0)">t</text><text xml:space="preserve" font-family="NexaBold" font-weight="bold" font-size="110.0" fill="#000000" transform="matrix(1.00, 0.00, -0.00, -1.00, 969.4, 371.0)">h</text><text xml:space="preserve" font-family="NexaBold" font-weight="bold" font-size="110.0" fill="#000000" transform="matrix(1.00, 0.00, -0.00, -1.00, 1033.4, 371.0)">e</text><text xml:space="preserve" font-family="NexaBold" font-weight="bold" font-size="110.0" fill="#000000" transform="matrix(1.00, 0.00, -0.00, -1.00, 1097.5, 371.0)"> </text><text xml:space="preserve" font-family="NexaBold" font-weight="bold" font-size="110.0" fill="#000000" transform="matrix(1.00, 0.00, -0.00, -1.00, 112.0, 251.0)">t</text><text xml:space="preserve" font-family="NexaBold" font-weight="bold" font-size="110.0" fill="#000000" transform="matrix(1.00, 0.00, -0.00, -1.00, 155.9, 251.0)">h</text><text xml:space="preserve" font-family="NexaBold" font-weight="bold" font-size="110.0" fill="#000000" transform="matrix(1.00, 0.00, -0.00, -1.00, 219.8, 251.0)">i</text><text xml:space="preserve" font-family="NexaBold" font-weight="bold" font-size="110.0" fill="#000000" transform="matrix(1.00, 0.00, -0.00, -1.00, 245.3, 251.0)">n</text><text xml:space="preserve" font-family="NexaBold" font-weight="bold" font-size="110.0" fill="#000000" transform="matrix(1.00, 0.00, -0.00, -1.00, 310.2, 251.0)">g</text><text xml:space="preserve" font-family="NexaBold" font-weight="bold" font-size="110.0" fill="#000000" transform="matrix(1.00, 0.00, -0.00, -1.00, 370.9, 251.0)">s</text><text xml:space="preserve" font-family="NexaBold" font-weight="bold" font-size="110.0" fill="#000000" transform="matrix(1.00, 0.00, -0.00, -1.00, 425.0, 251.0)"> </text><text xml:space="preserve" font-family="NexaBold" font-weight="bold" font-size="110.0" fill="#000000" transform="matrix(1.00, 0.00, -0.00, -1.00, 447.2, 251.0)">y</text><text xml:space="preserve" font-family="NexaBold" font-weight="bold" font-size="110.0" fill="#000000" transform="matrix(1.00, 0.00, -0.00, -1.00, 508.9, 251.0)">o</text><text xml:space="preserve" font-family="NexaBold" font-weight="bold" font-size="110.0" fill="#000000" transform="matrix(1.00, 0.00, -0.00, -1.00, 572.0, 251.0)">u</text><text xml:space="preserve" font-family="NexaBold" font-weight="bold" font-size="110.0" fill="#000000" transform="matrix(1.00, 0.00, -0.00, -1.00, 637.9, 251.0)"> </text><text xml:space="preserve" font-family="NexaBold" font-weight="bold" font-size="110.0" fill="#000000" transform="matrix(1.00, 0.00, -0.00, -1.00, 660.1, 251.0)">h</text><text xml:space="preserve" font-family="NexaBold" font-weight="bold" font-size="110.0" fill="#000000" transform="matrix(1.00, 0.00, -0.00, -1.00, 724.0, 251.0)">a</text><text xml:space="preserve" font-family="NexaBold" font-weight="bold" font-size="110.0" fill="#000000" transform="matrix(1.00, 0.00, -0.00, -1.00, 787.8, 251.0)">v</text><text xml:space="preserve" font-family="NexaBold" font-weight="bold" font-size="110.0" fill="#000000" transform="matrix(1.00, 0.00, -0.00, -1.00, 850.5, 251.0)">e</text><text xml:space="preserve" font-family="NexaBold" font-weight="bold" font-size="110.0" fill="#000000" transform="matrix(1.00, 0.00, -0.00, -1.00, 914.7, 251.0)"> </text><text xml:space="preserve" font-family="NexaBold" font-weight="bold" font-size="110.0" fill="#000000" transform="matrix(1.00, 0.00, -0.00, -1.00, 112.0, 131.0)">b</text><text xml:space="preserve" font-family="NexaBold" font-weight="bold" font-size="110.0" fill="#000000" transform="matrix(1.00, 0.00, -0.00, -1.00, 180.8, 131.0)">u</text><text xml:space="preserve" font-family="NexaBold" font-weight="bold" font-size="110.0" fill="#000000" transform="matrix(1.00, 0.00, -0.00, -1.00, 246.6, 131.0)">t</text><text xml:space="preserve" font-family="NexaBold" font-weight="bold" font-size="110.0" fill="#000000" transform="matrix(1.00, 0.00, -0.00, -1.00, 290.5, 131.0)"> </text><text xml:space="preserve" font-family="NexaBold" font-weight="bold" font-size="110.0" fill="#000000" transform="matrix(1.00, 0.00, -0.00, -1.00, 312.8, 131.0)">d</text><text xml:space="preserve" font-family="NexaBold" font-weight="bold" font-size="110.0" fill="#000000" transform="matrix(1.00, 0.00, -0.00, -1.00, 380.7, 131.0)">o</text><text xml:space="preserve" font-family="NexaBold" font-weight="bold" font-size="110.0" fill="#000000" transform="matrix(1.00, 0.00, -0.00, -1.00, 443.9, 131.0)">n</text><text xml:space="preserve" font-family="NexaBold" font-weight="bold" font-size="110.0" fill="#000000" transform="matrix(1.00, 0.00, -0.00, -1.00, 508.8, 131.0)">’</text><text xml:space="preserve" font-family="NexaBold" font-weight="bold" font-size="110.0" fill="#000000" transform="matrix(1.00, 0.00, -0.00, -1.00, 531.0, 131.0)">t</text><text xml:space="preserve" font-family="NexaBold" font-weight="bold" font-size="110.0" fill="#000000" transform="matrix(1.00, 0.00, -0.00, -1.00, 574.9, 131.0)"> </text><text xml:space="preserve" font-family="NexaBold" font-weight="bold" font-size="110.0" fill="#000000" transform="matrix(1.00, 0.00, -0.00, -1.00, 597.1, 131.0)">u</text><text xml:space="preserve" font-family="NexaBold" font-weight="bold" font-size="110.0" fill="#000000" transform="matrix(1.00, 0.00, -0.00, -1.00, 663.0, 131.0)">s</text><text xml:space="preserve" font-family="NexaBold" font-weight="bold" font-size="110.0" fill="#000000" transform="matrix(1.00, 0.00, -0.00, -1.00, 717.0, 131.0)">e</text><text xml:space="preserve" font-family="NexaBold" font-weight="bold" font-size="110.0" fill="#000000" transform="matrix(1.00, 0.00, -0.00, -1.00, 781.1, 131.0)">…</text><g><clipPath id="clip-12"><path d="M 2303.4 1024.5 L 2680.6 647.3 L 2303.4 270.1 L 1926.2 647.3 Z M 2303.4 1024.5 "></path></clipPath><g clip-path="url(#clip-12)"><image xlink:href="../../47ED929E-0D35-48AA-AC12-B5E24C555962/assets/572A451D66E175971B4F5934DACCFCDB.jpeg" width="993.00" height="661.00" transform="matrix(0.90, 0.00, -0.00, -0.90, 1708.0, 868.0)"></image></g></g><g><clipPath id="clip-13"><path d="M 1437.2 1024.5 L 1814.4 647.3 L 1437.2 270.1 L 1060.0 647.3 Z M 1437.2 1024.5 "></path></clipPath><g clip-path="url(#clip-13)"><g><clipPath id="clip-14"><path d="M 1060.0 270.1 L 1814.4 270.1 L 1814.4 1024.5 L 1060.0 1024.5 Z M 1060.0 270.1 "></path></clipPath><g clip-path="url(#clip-14)"><image xlink:href="../../61EB93CF-6BC4-46FC-A504-24BFAD423FF0/assets/74358C75C2361499B36F9071AEA0A759.jpeg" width="1137.00" height="757.00" transform="matrix(1.00, 0.00, -0.00, -1.00, 753.0, 1021.0)"></image></g></g></g></g><g><clipPath id="clip-15"><path d="M 1004.1 1457.6 L 1381.3 1080.4 L 1004.1 703.2 L 626.9 1080.4 Z M 1004.1 1457.6 "></path></clipPath><g clip-path="url(#clip-15)"><g><clipPath id="clip-16"><path d="M 626.9 703.2 L 1381.3 703.2 L 1381.3 1457.6 L 626.9 1457.6 Z M 626.9 703.2 "></path></clipPath><g clip-path="url(#clip-16)"><image xlink:href="../../47ED929E-0D35-48AA-AC12-B5E24C555962/assets/572A451D66E175971B4F5934DACCFCDB.jpeg" width="993.00" height="661.00" transform="matrix(1.00, 0.00, -0.00, -1.00, 603.0, 1308.0)"></image></g></g></g></g><g><clipPath id="clip-17"><path d="M 1832.3 1517.6 L 2209.5 1140.4 L 1832.3 763.2 L 1455.1 1140.4 Z M 1832.3 1517.6 "></path></clipPath><g clip-path="url(#clip-17)"><g><clipPath id="clip-18"><path d="M 1455.1 763.2 L 2209.5 763.2 L 2209.5 1517.6 L 1455.1 1517.6 Z M 1455.1 763.2 "></path></clipPath><g clip-path="url(#clip-18)"><image xlink:href="../../61EB93CF-6BC4-46FC-A504-24BFAD423FF0/assets/31AA769807E21BB495CA862EFA27F042.jpeg" width="791.00" height="528.00" transform="matrix(1.00, 0.00, -0.00, -1.00, 1317.0, 1252.0)"></image></g></g></g></g><g><clipPath id="clip-19"><path d="M 1870.3 591.4 L 2247.5 214.2 L 1870.3 -163.0 L 1493.1 214.2 Z M 1870.3 591.4 "></path></clipPath><g clip-path="url(#clip-19)"><g><clipPath id="clip-20"><path d="M 1493.1 -163.0 L 2247.5 -163.0 L 2247.5 591.4 L 1493.1 591.4 Z M 1493.1 -163.0 "></path></clipPath><g clip-path="url(#clip-20)"><image xlink:href="../../61EB93CF-6BC4-46FC-A504-24BFAD423FF0/assets/84EA35C3A53EFB6FCE89DF3E9D4C8A2B.jpeg" width="934.00" height="622.00" transform="matrix(1.00, 0.00, -0.00, -1.00, 1221.0, 599.0)"></image></g></g></g></g></g></svg>