<?xml version="1.0" encoding="UTF-8" standalone="no"?><svg xmlns="http://www.w3.org/2000/svg" xmlns:xlink="http://www.w3.org/1999/xlink" clip-rule="evenodd" stroke-miterlimit="4.00" viewBox="0 0 1920 1080"><desc>SVG generated by Keynote</desc><defs></defs><g transform="matrix(1.00, 0.00, -0.00, -1.00, 0.0, 1080.0)"><path d="M 0.0 1080.0 L 1920.0 1080.0 L 1920.0 0.0 L 0.0 0.0 Z M 0.0 1080.0 " fill="#FEFFFF"></path><path d="M 0.0 0.0 L 505.3 0.0 L 505.3 702.7 L 0.0 702.7 Z M 0.0 0.0 " fill="none" stroke="#9459B2" stroke-width="6.00" stroke-miterlimit="8.00" transform="matrix(1.00, 0.00, 0.00, -1.00, 320.6, 941.9)"></path><path d="M 0.0 0.0 L 505.3 0.0 L 505.3 702.7 L 0.0 702.7 Z M 0.0 0.0 " fill="none" stroke="#9459B2" stroke-width="6.00" stroke-miterlimit="8.00" transform="matrix(1.00, 0.00, 0.00, -1.00, 1099.0, 941.9)"></path><path d="M 266.7 941.9 L 274.7 941.9 L 274.7 928.5 L 286.1 928.5 L 286.1 924.5 L 274.7 924.5 L 274.7 911.1 L 266.7 911.1 L 266.7 924.5 L 255.3 924.5 L 255.3 928.5 L 266.7 928.5 L 266.7 941.9 Z M 266.7 941.9 " fill="#9459B2"></path><path d="M 1669.6 346.8 L 1674.9 346.8 L 1674.9 314.9 L 1705.4 314.9 L 1705.4 312.3 L 1674.9 312.3 L 1674.9 280.4 L 1669.6 280.4 L 1669.6 312.3 L 1639.0 312.3 L 1639.0 314.9 L 1669.6 314.9 L 1669.6 346.8 Z M 1669.6 346.8 " fill="#9459B2"></path><path d="M 0.0 0.0 L 127.2 0.0 " fill="none" stroke="#9459B2" stroke-width="1.00" stroke-miterlimit="8.00" transform="matrix(1.00, 0.00, 0.00, -1.00, 896.4, 607.7)"></path></g></svg>