<?xml version="1.0" encoding="UTF-8" standalone="no"?><svg xmlns="http://www.w3.org/2000/svg" xmlns:xlink="http://www.w3.org/1999/xlink" clip-rule="evenodd" stroke-miterlimit="4.00" viewBox="0 0 938 825"><desc>SVG generated by Keynote</desc><defs></defs><g transform="matrix(1.00, 0.00, -0.00, -1.00, 0.0, 825.0)"><g><clipPath id="clip-117"><path d="M 937.4 692.3 L 547.5 302.4 L 545.4 304.5 L 935.3 694.4 Z M 937.4 692.3 "></path></clipPath><g clip-path="url(#clip-117)"><path d="M 0.0 0.0 L 549.4 0.0 " fill="none" stroke="#525252" stroke-width="1.00" stroke-miterlimit="8.00" transform="matrix(-0.71, -0.71, -0.71, 0.71, 935.6, 692.6)"></path></g></g><g><clipPath id="clip-118"><path d="M 825.2 822.2 L 3.1 0.1 L 1.0 2.2 L 823.0 824.3 Z M 825.2 822.2 "></path></clipPath><g clip-path="url(#clip-118)"><path d="M 0.0 0.0 L 1160.6 0.0 " fill="none" stroke="#525252" stroke-width="1.00" stroke-miterlimit="8.00" transform="matrix(-0.71, -0.71, -0.71, 0.71, 823.4, 822.5)"></path></g></g><g><clipPath id="clip-119"><path d="M 795.4 596.0 L 405.5 206.1 L 403.4 208.3 L 793.3 598.1 Z M 795.4 596.0 "></path></clipPath><g clip-path="url(#clip-119)"><path d="M 0.0 0.0 L 549.4 0.0 " fill="none" stroke="#525252" stroke-width="1.00" stroke-miterlimit="8.00" transform="matrix(-0.71, -0.71, -0.71, 0.71, 793.7, 596.4)"></path></g></g></g></svg>