<?xml version="1.0" encoding="UTF-8" standalone="no"?><svg xmlns="http://www.w3.org/2000/svg" xmlns:xlink="http://www.w3.org/1999/xlink" clip-rule="evenodd" stroke-miterlimit="4.00" viewBox="0 0 341 148"><desc>SVG generated by Keynote</desc><defs></defs><g transform="matrix(1.00, 0.00, -0.00, -1.00, 0.0, 148.0)"><g><clipPath id="clip-112"><path d="M 1.0 147.0 L 339.0 147.0 L 339.0 1.0 L 1.0 1.0 Z M 1.0 147.0 "></path></clipPath><g clip-path="url(#clip-112)"><g><clipPath id="clip-113"><path d="M 1.0 1.0 L 339.0 1.0 L 339.0 147.0 L 1.0 147.0 Z M 1.0 1.0 "></path></clipPath><g clip-path="url(#clip-113)"><path d="M 0.0 0.0 L -28.0 -47.6 L -0.7 -94.0 L -0.3 -94.0 L 27.5 -46.7 L 0.0 0.0 Z M 0.0 0.0 " fill="none" stroke="#000000" stroke-width="2.00" stroke-miterlimit="0.00" transform="matrix(1.50, 0.00, 0.00, 1.51, 170.8, 144.0)"></path><path d="M 0.0 0.0 L -27.5 -46.7 L 0.3 -94.0 L 55.3 -94.0 L 0.0 0.0 Z M 0.0 0.0 " fill="none" stroke="#000000" stroke-width="2.00" stroke-miterlimit="0.00" transform="matrix(1.50, 0.00, 0.00, 1.51, 253.3, 144.0)"></path><path d="M 0.0 0.0 L 55.6 0.0 L 27.8 47.3 L 0.0 0.0 Z M 0.0 0.0 " fill="none" stroke="#000000" stroke-width="2.00" stroke-miterlimit="0.00" transform="matrix(1.50, 0.00, 0.00, 1.51, 170.3, 2.5)"></path><path d="M 0.0 0.0 L -55.3 -94.0 L 0.7 -94.0 L 28.0 -47.6 L 0.0 0.0 Z M 0.0 0.0 " fill="none" stroke="#000000" stroke-width="2.00" stroke-miterlimit="0.00" transform="matrix(1.50, 0.00, 0.00, 1.51, 86.7, 144.0)"></path><path d="M 0.0 0.0 L 54.6 0.0 L 27.3 46.4 L 0.0 0.0 Z M 0.0 0.0 " fill="none" stroke="#000000" stroke-width="2.00" stroke-miterlimit="0.00" transform="matrix(1.50, 0.00, 0.00, 1.51, 87.7, 2.5)"></path></g></g></g></g></g></svg>