<?xml version="1.0" encoding="UTF-8" standalone="no"?><svg xmlns="http://www.w3.org/2000/svg" xmlns:xlink="http://www.w3.org/1999/xlink" clip-rule="evenodd" stroke-miterlimit="4.00" viewBox="0 0 335 836"><desc>SVG generated by Keynote</desc><defs></defs><g transform="matrix(1.00, 0.00, -0.00, -1.00, 0.0, 836.0)"><g><clipPath id="clip-461"><path d="M 11.6 0.7 L 297.8 0.7 L 297.8 116.1 L 11.6 116.1 Z M 11.6 0.7 "></path></clipPath><g clip-path="url(#clip-461)"><text xml:space="preserve" font-family="Roboto-Regular" font-size="28.0" fill="#3F3F3F" transform="matrix(1.00, 0.00, -0.00, -1.00, 20.0, 82.0)">C</text><text xml:space="preserve" font-family="Roboto-Regular" font-size="28.0" fill="#3F3F3F" transform="matrix(1.00, 0.00, -0.00, -1.00, 38.2, 82.0)">r</text><text xml:space="preserve" font-family="Roboto-Regular" font-size="28.0" fill="#3F3F3F" transform="matrix(1.00, 0.00, -0.00, -1.00, 47.4, 82.0)">e</text><text xml:space="preserve" font-family="Roboto-Regular" font-size="28.0" fill="#3F3F3F" transform="matrix(1.00, 0.00, -0.00, -1.00, 62.3, 82.0)">a</text><text xml:space="preserve" font-family="Roboto-Regular" font-size="28.0" fill="#3F3F3F" transform="matrix(1.00, 0.00, -0.00, -1.00, 77.5, 82.0)">t</text><text xml:space="preserve" font-family="Roboto-Regular" font-size="28.0" fill="#3F3F3F" transform="matrix(1.00, 0.00, -0.00, -1.00, 86.6, 82.0)">e</text><text xml:space="preserve" font-family="Roboto-Regular" font-size="28.0" fill="#3F3F3F" transform="matrix(1.00, 0.00, -0.00, -1.00, 101.5, 82.0)"> </text><text xml:space="preserve" font-family="Roboto-Regular" font-size="28.0" fill="#3F3F3F" transform="matrix(1.00, 0.00, -0.00, -1.00, 108.4, 82.0)">a</text><text xml:space="preserve" font-family="Roboto-Regular" font-size="28.0" fill="#3F3F3F" transform="matrix(1.00, 0.00, -0.00, -1.00, 123.6, 82.0)"> </text><text xml:space="preserve" font-family="Roboto-Regular" font-size="28.0" fill="#3F3F3F" transform="matrix(1.00, 0.00, -0.00, -1.00, 130.5, 82.0)">p</text><text xml:space="preserve" font-family="Roboto-Regular" font-size="28.0" fill="#3F3F3F" transform="matrix(1.00, 0.00, -0.00, -1.00, 146.2, 82.0)">r</text><text xml:space="preserve" font-family="Roboto-Regular" font-size="28.0" fill="#3F3F3F" transform="matrix(1.00, 0.00, -0.00, -1.00, 155.5, 82.0)">o</text><text xml:space="preserve" font-family="Roboto-Regular" font-size="28.0" fill="#3F3F3F" transform="matrix(1.00, 0.00, -0.00, -1.00, 171.4, 82.0)">t</text><text xml:space="preserve" font-family="Roboto-Regular" font-size="28.0" fill="#3F3F3F" transform="matrix(1.00, 0.00, -0.00, -1.00, 180.3, 82.0)">o</text><text xml:space="preserve" font-family="Roboto-Regular" font-size="28.0" fill="#3F3F3F" transform="matrix(1.00, 0.00, -0.00, -1.00, 196.3, 82.0)">t</text><text xml:space="preserve" font-family="Roboto-Regular" font-size="28.0" fill="#3F3F3F" transform="matrix(1.00, 0.00, -0.00, -1.00, 205.4, 82.0)">y</text><text xml:space="preserve" font-family="Roboto-Regular" font-size="28.0" fill="#3F3F3F" transform="matrix(1.00, 0.00, -0.00, -1.00, 218.7, 82.0)">p</text><text xml:space="preserve" font-family="Roboto-Regular" font-size="28.0" fill="#3F3F3F" transform="matrix(1.00, 0.00, -0.00, -1.00, 234.4, 82.0)">e</text><text xml:space="preserve" font-family="Roboto-Regular" font-size="28.0" fill="#3F3F3F" transform="matrix(1.00, 0.00, -0.00, -1.00, 249.2, 82.0)"> </text><text xml:space="preserve" font-family="Roboto-Regular" font-size="28.0" fill="#3F3F3F" transform="matrix(1.00, 0.00, -0.00, -1.00, 256.1, 82.0)">t</text><text xml:space="preserve" font-family="Roboto-Regular" font-size="28.0" fill="#3F3F3F" transform="matrix(1.00, 0.00, -0.00, -1.00, 265.0, 82.0)">o</text><text xml:space="preserve" font-family="Roboto-Regular" font-size="28.0" fill="#3F3F3F" transform="matrix(1.00, 0.00, -0.00, -1.00, 281.0, 82.0)"> </text><text xml:space="preserve" font-family="Roboto-Regular" font-size="28.0" fill="#3F3F3F" transform="matrix(1.00, 0.00, -0.00, -1.00, 20.0, 49.0)">t</text><text xml:space="preserve" font-family="Roboto-Regular" font-size="28.0" fill="#3F3F3F" transform="matrix(1.00, 0.00, -0.00, -1.00, 29.1, 49.0)">e</text><text xml:space="preserve" font-family="Roboto-Regular" font-size="28.0" fill="#3F3F3F" transform="matrix(1.00, 0.00, -0.00, -1.00, 44.0, 49.0)">s</text><text xml:space="preserve" font-family="Roboto-Regular" font-size="28.0" fill="#3F3F3F" transform="matrix(1.00, 0.00, -0.00, -1.00, 58.4, 49.0)">t</text><text xml:space="preserve" font-family="Roboto-Regular" font-size="28.0" fill="#3F3F3F" transform="matrix(1.00, 0.00, -0.00, -1.00, 67.5, 49.0)"> </text><text xml:space="preserve" font-family="Roboto-Regular" font-size="28.0" fill="#3F3F3F" transform="matrix(1.00, 0.00, -0.00, -1.00, 74.5, 49.0)">t</text><text xml:space="preserve" font-family="Roboto-Regular" font-size="28.0" fill="#3F3F3F" transform="matrix(1.00, 0.00, -0.00, -1.00, 83.6, 49.0)">h</text><text xml:space="preserve" font-family="Roboto-Regular" font-size="28.0" fill="#3F3F3F" transform="matrix(1.00, 0.00, -0.00, -1.00, 99.0, 49.0)">e</text><text xml:space="preserve" font-family="Roboto-Regular" font-size="28.0" fill="#3F3F3F" transform="matrix(1.00, 0.00, -0.00, -1.00, 113.8, 49.0)"> </text><text xml:space="preserve" font-family="Roboto-Regular" font-size="28.0" fill="#3F3F3F" transform="matrix(1.00, 0.00, -0.00, -1.00, 120.8, 49.0)">p</text><text xml:space="preserve" font-family="Roboto-Regular" font-size="28.0" fill="#3F3F3F" transform="matrix(1.00, 0.00, -0.00, -1.00, 136.5, 49.0)">r</text><text xml:space="preserve" font-family="Roboto-Regular" font-size="28.0" fill="#3F3F3F" transform="matrix(1.00, 0.00, -0.00, -1.00, 145.7, 49.0)">o</text><text xml:space="preserve" font-family="Roboto-Regular" font-size="28.0" fill="#3F3F3F" transform="matrix(1.00, 0.00, -0.00, -1.00, 161.7, 49.0)">c</text><text xml:space="preserve" font-family="Roboto-Regular" font-size="28.0" fill="#3F3F3F" transform="matrix(1.00, 0.00, -0.00, -1.00, 176.3, 49.0)">e</text><text xml:space="preserve" font-family="Roboto-Regular" font-size="28.0" fill="#3F3F3F" transform="matrix(1.00, 0.00, -0.00, -1.00, 191.1, 49.0)">s</text><text xml:space="preserve" font-family="Roboto-Regular" font-size="28.0" fill="#3F3F3F" transform="matrix(1.00, 0.00, -0.00, -1.00, 205.6, 49.0)">s</text><text xml:space="preserve" font-family="Roboto-Regular" font-size="28.0" fill="#3F3F3F" transform="matrix(1.00, 0.00, -0.00, -1.00, 220.0, 49.0)"> </text><text xml:space="preserve" font-family="Roboto-Regular" font-size="28.0" fill="#3F3F3F" transform="matrix(1.00, 0.00, -0.00, -1.00, 226.9, 49.0)">o</text><text xml:space="preserve" font-family="Roboto-Regular" font-size="28.0" fill="#3F3F3F" transform="matrix(1.00, 0.00, -0.00, -1.00, 242.9, 49.0)">f</text><text xml:space="preserve" font-family="Roboto-Regular" font-size="28.0" fill="#3F3F3F" transform="matrix(1.00, 0.00, -0.00, -1.00, 252.6, 49.0)"> </text><text xml:space="preserve" font-family="Roboto-Regular" font-size="28.0" fill="#3F3F3F" transform="matrix(1.00, 0.00, -0.00, -1.00, 20.0, 16.0)">r</text><text xml:space="preserve" font-family="Roboto-Regular" font-size="28.0" fill="#3F3F3F" transform="matrix(1.00, 0.00, -0.00, -1.00, 29.2, 16.0)">e</text><text xml:space="preserve" font-family="Roboto-Regular" font-size="28.0" fill="#3F3F3F" transform="matrix(1.00, 0.00, -0.00, -1.00, 44.1, 16.0)">g</text><text xml:space="preserve" font-family="Roboto-Regular" font-size="28.0" fill="#3F3F3F" transform="matrix(1.00, 0.00, -0.00, -1.00, 59.8, 16.0)">i</text><text xml:space="preserve" font-family="Roboto-Regular" font-size="28.0" fill="#3F3F3F" transform="matrix(1.00, 0.00, -0.00, -1.00, 66.5, 16.0)">s</text><text xml:space="preserve" font-family="Roboto-Regular" font-size="28.0" fill="#3F3F3F" transform="matrix(1.00, 0.00, -0.00, -1.00, 81.0, 16.0)">t</text><text xml:space="preserve" font-family="Roboto-Regular" font-size="28.0" fill="#3F3F3F" transform="matrix(1.00, 0.00, -0.00, -1.00, 90.1, 16.0)">e</text><text xml:space="preserve" font-family="Roboto-Regular" font-size="28.0" fill="#3F3F3F" transform="matrix(1.00, 0.00, -0.00, -1.00, 104.9, 16.0)">r</text><text xml:space="preserve" font-family="Roboto-Regular" font-size="28.0" fill="#3F3F3F" transform="matrix(1.00, 0.00, -0.00, -1.00, 114.4, 16.0)">i</text><text xml:space="preserve" font-family="Roboto-Regular" font-size="28.0" fill="#3F3F3F" transform="matrix(1.00, 0.00, -0.00, -1.00, 121.2, 16.0)">n</text><text xml:space="preserve" font-family="Roboto-Regular" font-size="28.0" fill="#3F3F3F" transform="matrix(1.00, 0.00, -0.00, -1.00, 136.7, 16.0)">g</text><text xml:space="preserve" font-family="Roboto-Regular" font-size="28.0" fill="#3F3F3F" transform="matrix(1.00, 0.00, -0.00, -1.00, 152.4, 16.0)"> </text><text xml:space="preserve" font-family="Roboto-Regular" font-size="28.0" fill="#3F3F3F" transform="matrix(1.00, 0.00, -0.00, -1.00, 159.3, 16.0)">t</text><text xml:space="preserve" font-family="Roboto-Regular" font-size="28.0" fill="#3F3F3F" transform="matrix(1.00, 0.00, -0.00, -1.00, 168.4, 16.0)">h</text><text xml:space="preserve" font-family="Roboto-Regular" font-size="28.0" fill="#3F3F3F" transform="matrix(1.00, 0.00, -0.00, -1.00, 183.8, 16.0)">e</text><text xml:space="preserve" font-family="Roboto-Regular" font-size="28.0" fill="#3F3F3F" transform="matrix(1.00, 0.00, -0.00, -1.00, 198.7, 16.0)"> </text><text xml:space="preserve" font-family="Roboto-Regular" font-size="28.0" fill="#3F3F3F" transform="matrix(1.00, 0.00, -0.00, -1.00, 205.6, 16.0)">i</text><text xml:space="preserve" font-family="Roboto-Regular" font-size="28.0" fill="#3F3F3F" transform="matrix(1.00, 0.00, -0.00, -1.00, 212.4, 16.0)">t</text><text xml:space="preserve" font-family="Roboto-Regular" font-size="28.0" fill="#3F3F3F" transform="matrix(1.00, 0.00, -0.00, -1.00, 221.5, 16.0)">e</text><text xml:space="preserve" font-family="Roboto-Regular" font-size="28.0" fill="#3F3F3F" transform="matrix(1.00, 0.00, -0.00, -1.00, 236.3, 16.0)">m</text><text xml:space="preserve" font-family="Roboto-Regular" font-size="28.0" fill="#3F3F3F" transform="matrix(1.00, 0.00, -0.00, -1.00, 260.9, 16.0)">s</text><text xml:space="preserve" font-family="Roboto-Regular" font-size="28.0" fill="#3F3F3F" transform="matrix(1.00, 0.00, -0.00, -1.00, 275.3, 16.0)">.</text></g></g><g><clipPath id="clip-462"><path d="M 17.2 475.0 L 192.1 475.0 L 192.1 835.0 L 17.2 835.0 Z M 17.2 475.0 "></path></clipPath><g clip-path="url(#clip-462)"><path d="M 36.2 478.5 C 27.4 478.5 20.7 485.2 20.7 494.0 C 20.7 816.0 20.7 816.0 20.7 816.0 C 20.7 824.8 27.4 831.5 36.2 831.5 C 173.6 831.5 173.6 831.5 173.6 831.5 C 181.9 831.5 188.6 824.8 188.6 816.0 C 188.6 494.0 188.6 494.0 188.6 494.0 C 188.6 485.2 181.9 478.5 173.6 478.5 L 36.2 478.5 Z M 36.2 478.5 " fill="#3F3F3F"></path><path d="M 15.5 353.1 C 6.7 353.1 0.0 346.4 0.0 337.6 C 0.0 15.5 0.0 15.5 0.0 15.5 C 0.0 6.7 6.7 0.0 15.5 0.0 C 152.8 0.0 152.8 0.0 152.8 0.0 C 161.2 0.0 167.9 6.7 167.9 15.5 C 167.9 337.6 167.9 337.6 167.9 337.6 C 167.9 346.4 161.2 353.1 152.8 353.1 L 15.5 353.1 Z M 15.5 353.1 " fill="none" stroke="#BFBFBF" stroke-width="5.00" stroke-linejoin="round" transform="matrix(1.00, 0.00, 0.00, -1.00, 20.7, 831.5)"></path></g></g><g><clipPath id="clip-463"><path d="M 101.4 810.4 L 108.4 810.4 L 108.4 817.5 L 101.4 817.5 Z M 101.4 810.4 "></path></clipPath><g clip-path="url(#clip-463)"><path d="M 106.7 815.7 C 107.7 814.7 107.7 813.1 106.7 812.2 C 105.7 811.2 104.1 811.2 103.1 812.2 C 102.1 813.1 102.1 814.7 103.1 815.7 C 104.1 816.7 105.7 816.7 106.7 815.7 Z M 106.7 815.7 " fill="#F2F2F2"></path></g></g><g><clipPath id="clip-464"><path d="M 102.6 812.0 L 106.8 812.0 L 106.8 816.3 L 102.6 816.3 Z M 102.6 812.0 "></path></clipPath><g clip-path="url(#clip-464)"><path d="M 103.6 814.2 C 103.6 814.8 104.1 815.3 104.7 815.3 C 105.3 815.3 105.8 814.8 105.8 814.2 C 105.8 813.5 105.3 813.0 104.7 813.0 C 104.1 813.0 103.6 813.5 103.6 814.2 Z M 103.6 814.2 " fill="#F2F2F2"></path></g></g><g><clipPath id="clip-465"><path d="M 101.4 810.8 L 108.4 810.8 L 108.4 817.9 L 101.4 817.9 Z M 101.4 810.8 "></path></clipPath><g clip-path="url(#clip-465)"><path d="M 106.7 816.1 C 107.7 815.2 107.7 813.6 106.7 812.6 C 105.7 811.6 104.1 811.6 103.1 812.6 C 102.1 813.6 102.1 815.2 103.1 816.1 C 104.1 817.1 105.7 817.1 106.7 816.1 Z M 106.7 816.1 " fill="#F2F2F2"></path></g></g><g><clipPath id="clip-466"><path d="M 102.6 812.5 L 106.8 812.5 L 106.8 816.7 L 102.6 816.7 Z M 102.6 812.5 "></path></clipPath><g clip-path="url(#clip-466)"><path d="M 103.6 814.6 C 103.6 815.2 104.1 815.7 104.7 815.7 C 105.3 815.7 105.8 815.2 105.8 814.6 C 105.8 814.0 105.3 813.5 104.7 813.5 C 104.1 813.5 103.6 814.0 103.6 814.6 Z M 103.6 814.6 " fill="#F2F2F2"></path></g></g><g><clipPath id="clip-467"><path d="M 102.2 811.7 L 107.6 811.7 L 107.6 817.0 L 102.2 817.0 Z M 102.2 811.7 "></path></clipPath><g clip-path="url(#clip-467)"><path d="M 106.1 815.5 C 106.7 814.9 106.7 813.8 106.1 813.2 C 105.4 812.5 104.4 812.5 103.7 813.2 C 103.1 813.8 103.1 814.9 103.7 815.5 C 104.4 816.2 105.4 816.2 106.1 815.5 Z M 106.1 815.5 " fill="#F2F2F2"></path></g></g><g><clipPath id="clip-468"><path d="M 102.2 811.7 L 107.6 811.7 L 107.6 817.0 L 102.2 817.0 Z M 102.2 811.7 "></path></clipPath><g clip-path="url(#clip-468)"><path d="M 106.1 815.5 C 106.7 814.9 106.7 813.8 106.1 813.2 C 105.4 812.5 104.4 812.5 103.7 813.2 C 103.1 813.8 103.1 814.9 103.7 815.5 C 104.4 816.2 105.4 816.2 106.1 815.5 Z M 106.1 815.5 " fill="#F2F2F2"></path></g></g><g><clipPath id="clip-469"><path d="M 102.8 812.2 L 107.0 812.2 L 107.0 816.5 L 102.8 816.5 Z M 102.8 812.2 "></path></clipPath><g clip-path="url(#clip-469)"><path d="M 103.8 814.4 C 103.8 815.0 104.3 815.5 104.9 815.5 C 105.5 815.5 106.0 815.0 106.0 814.4 C 106.0 813.7 105.5 813.2 104.9 813.2 C 104.3 813.2 103.8 813.7 103.8 814.4 Z M 103.8 814.4 " fill="#F2F2F2"></path></g></g><g><clipPath id="clip-470"><path d="M 102.8 812.2 L 107.0 812.2 L 107.0 816.5 L 102.8 816.5 Z M 102.8 812.2 "></path></clipPath><g clip-path="url(#clip-470)"><path d="M 103.8 814.4 C 103.8 815.0 104.3 815.5 104.9 815.5 C 105.5 815.5 106.0 815.0 106.0 814.4 C 106.0 813.7 105.5 813.2 104.9 813.2 C 104.3 813.2 103.8 813.7 103.8 814.4 Z M 103.8 814.4 " fill="#F2F2F2"></path></g></g><g><clipPath id="clip-471"><path d="M 102.6 812.5 L 106.8 812.5 L 106.8 816.7 L 102.6 816.7 Z M 102.6 812.5 "></path></clipPath><g clip-path="url(#clip-471)"><path d="M 105.8 813.5 L 103.6 813.5 L 105.8 815.7 L 105.8 813.5 Z M 105.8 813.5 " fill="#F2F2F2"></path></g></g><g><clipPath id="clip-472"><path d="M 102.6 812.5 L 106.8 812.5 L 106.8 816.7 L 102.6 816.7 Z M 102.6 812.5 "></path></clipPath><g clip-path="url(#clip-472)"><path d="M 105.8 813.5 L 103.6 813.5 L 105.8 815.7 L 105.8 813.5 Z M 105.8 813.5 " fill="#F2F2F2"></path></g></g><g><clipPath id="clip-473"><path d="M 89.6 485.3 L 119.8 485.3 L 119.8 515.6 L 89.6 515.6 Z M 89.6 485.3 "></path></clipPath><g clip-path="url(#clip-473)"><path d="M 23.2 4.0 C 28.5 9.3 28.5 17.9 23.2 23.2 C 17.9 28.6 9.3 28.6 4.0 23.2 C -1.3 17.9 -1.3 9.3 4.0 4.0 C 9.3 -1.3 17.9 -1.3 23.2 4.0 Z M 23.2 4.0 " fill="none" stroke="#F2F2F2" stroke-width="1.00" stroke-linejoin="round" transform="matrix(1.00, 0.00, 0.00, -1.00, 91.1, 514.1)"></path></g></g><g><clipPath id="clip-474"><path d="M 30.2 521.4 L 179.6 521.4 L 179.6 781.9 L 30.2 781.9 Z M 30.2 521.4 "></path></clipPath><g clip-path="url(#clip-474)"><path d="M 31.2 780.9 L 178.6 780.9 L 178.6 522.4 L 31.2 522.4 Z M 31.2 780.9 " fill="#F2F2F2"></path></g></g><g><clipPath id="clip-475"><path d="M 90.9 796.2 L 123.5 796.2 L 123.5 805.3 L 90.9 805.3 Z M 90.9 796.2 "></path></clipPath><g clip-path="url(#clip-475)"><path d="M 95.3 797.2 C 93.2 797.2 91.9 798.9 91.9 800.5 C 91.9 802.6 93.2 804.3 95.3 804.3 C 119.1 804.3 119.1 804.3 119.1 804.3 C 121.2 804.3 122.5 802.6 122.5 800.5 C 122.5 798.9 121.2 797.2 119.1 797.2 L 95.3 797.2 Z M 95.3 797.2 " fill="#F2F2F2"></path></g></g><g><clipPath id="clip-476"><path d="M 92.6 798.3 L 121.8 798.3 L 121.8 803.2 L 92.6 803.2 Z M 92.6 798.3 "></path></clipPath><g clip-path="url(#clip-476)"><path d="M 120.8 800.5 C 120.8 799.7 120.0 799.3 119.1 799.3 C 95.3 799.3 95.3 799.3 95.3 799.3 C 94.4 799.3 93.6 799.7 93.6 800.5 C 93.6 801.4 94.4 802.2 95.3 802.2 C 119.1 802.2 119.1 802.2 119.1 802.2 C 120.0 802.2 120.8 801.4 120.8 800.5 Z M 120.8 800.5 " fill="#3F3F3F"></path></g></g><g><clipPath id="clip-477"><path d="M 80.9 797.4 L 87.5 797.4 L 87.5 804.1 L 80.9 804.1 Z M 80.9 797.4 "></path></clipPath><g clip-path="url(#clip-477)"><path d="M 85.8 802.4 C 86.7 801.5 86.7 800.0 85.8 799.1 C 84.9 798.2 83.4 798.2 82.5 799.1 C 81.6 800.0 81.6 801.5 82.5 802.4 C 83.4 803.3 84.9 803.3 85.8 802.4 Z M 85.8 802.4 " fill="#F2F2F2"></path></g></g><g><clipPath id="clip-478"><path d="M -7.4 153.9 L 341.9 153.9 L 341.9 397.3 L -7.4 397.3 Z M -7.4 153.9 "></path></clipPath><g clip-path="url(#clip-478)"><text xml:space="preserve" font-family="Roboto-Thin" font-size="55.0" fill="#3F3F3F" transform="matrix(1.00, 0.00, -0.00, -1.00, 9.0, 331.0)">A</text><text xml:space="preserve" font-family="Roboto-Thin" font-size="55.0" fill="#3F3F3F" transform="matrix(1.00, 0.00, -0.00, -1.00, 41.9, 331.0)">p</text><text xml:space="preserve" font-family="Roboto-Thin" font-size="55.0" fill="#3F3F3F" transform="matrix(1.00, 0.00, -0.00, -1.00, 72.0, 331.0)">p</text><text xml:space="preserve" font-family="Roboto-Thin" font-size="55.0" fill="#3F3F3F" transform="matrix(1.00, 0.00, -0.00, -1.00, 102.1, 331.0)"> </text><text xml:space="preserve" font-family="Roboto-Thin" font-size="55.0" fill="#3F3F3F" transform="matrix(1.00, 0.00, -0.00, -1.00, 9.0, 260.0)">I</text><text xml:space="preserve" font-family="Roboto-Thin" font-size="55.0" fill="#3F3F3F" transform="matrix(1.00, 0.00, -0.00, -1.00, 23.3, 260.0)">n</text><text xml:space="preserve" font-family="Roboto-Thin" font-size="55.0" fill="#3F3F3F" transform="matrix(1.00, 0.00, -0.00, -1.00, 53.5, 260.0)">t</text><text xml:space="preserve" font-family="Roboto-Thin" font-size="55.0" fill="#3F3F3F" transform="matrix(1.00, 0.00, -0.00, -1.00, 70.9, 260.0)">e</text><text xml:space="preserve" font-family="Roboto-Thin" font-size="55.0" fill="#3F3F3F" transform="matrix(1.00, 0.00, -0.00, -1.00, 98.6, 260.0)">r</text><text xml:space="preserve" font-family="Roboto-Thin" font-size="55.0" fill="#3F3F3F" transform="matrix(1.00, 0.00, -0.00, -1.00, 115.9, 260.0)">a</text><text xml:space="preserve" font-family="Roboto-Thin" font-size="55.0" fill="#3F3F3F" transform="matrix(1.00, 0.00, -0.00, -1.00, 145.0, 260.0)">c</text><text xml:space="preserve" font-family="Roboto-Thin" font-size="55.0" fill="#3F3F3F" transform="matrix(1.00, 0.00, -0.00, -1.00, 172.9, 260.0)">t</text><text xml:space="preserve" font-family="Roboto-Thin" font-size="55.0" fill="#3F3F3F" transform="matrix(1.00, 0.00, -0.00, -1.00, 190.3, 260.0)">i</text><text xml:space="preserve" font-family="Roboto-Thin" font-size="55.0" fill="#3F3F3F" transform="matrix(1.00, 0.00, -0.00, -1.00, 201.7, 260.0)">v</text><text xml:space="preserve" font-family="Roboto-Thin" font-size="55.0" fill="#3F3F3F" transform="matrix(1.00, 0.00, -0.00, -1.00, 227.5, 260.0)">e</text><text xml:space="preserve" font-family="Roboto-Thin" font-size="55.0" fill="#3F3F3F" transform="matrix(1.00, 0.00, -0.00, -1.00, 255.2, 260.0)"> </text><text xml:space="preserve" font-family="Roboto-Thin" font-size="55.0" fill="#3F3F3F" transform="matrix(1.00, 0.00, -0.00, -1.00, 9.0, 190.0)">P</text><text xml:space="preserve" font-family="Roboto-Thin" font-size="55.0" fill="#3F3F3F" transform="matrix(1.00, 0.00, -0.00, -1.00, 42.0, 190.0)">r</text><text xml:space="preserve" font-family="Roboto-Thin" font-size="55.0" fill="#3F3F3F" transform="matrix(1.00, 0.00, -0.00, -1.00, 59.9, 190.0)">o</text><text xml:space="preserve" font-family="Roboto-Thin" font-size="55.0" fill="#3F3F3F" transform="matrix(1.00, 0.00, -0.00, -1.00, 90.2, 190.0)">t</text><text xml:space="preserve" font-family="Roboto-Thin" font-size="55.0" fill="#3F3F3F" transform="matrix(1.00, 0.00, -0.00, -1.00, 107.1, 190.0)">o</text><text xml:space="preserve" font-family="Roboto-Thin" font-size="55.0" fill="#3F3F3F" transform="matrix(1.00, 0.00, -0.00, -1.00, 137.4, 190.0)">t</text><text xml:space="preserve" font-family="Roboto-Thin" font-size="55.0" fill="#3F3F3F" transform="matrix(1.00, 0.00, -0.00, -1.00, 154.8, 190.0)">y</text><text xml:space="preserve" font-family="Roboto-Thin" font-size="55.0" fill="#3F3F3F" transform="matrix(1.00, 0.00, -0.00, -1.00, 181.1, 190.0)">p</text><text xml:space="preserve" font-family="Roboto-Thin" font-size="55.0" fill="#3F3F3F" transform="matrix(1.00, 0.00, -0.00, -1.00, 211.2, 190.0)">e</text></g></g><g><clipPath id="clip-479"><path d="M 27.9 510.8 L 182.8 510.8 L 182.8 783.9 L 27.9 783.9 Z M 27.9 510.8 "></path></clipPath><g clip-path="url(#clip-479)"><image xlink:href="CF5556F9F053282AD423C32F593AA23E.png" width="153.00" height="271.00" transform="matrix(1.00, 0.00, -0.00, -1.00, 28.9, 782.9)" opacity="0.50"></image></g></g><g><clipPath id="clip-480"><path d="M 31.9 781.9 L 178.8 781.9 L 178.8 516.8 L 31.9 516.8 Z M 31.9 781.9 "></path></clipPath><g clip-path="url(#clip-480)"><g><clipPath id="clip-481"><path d="M 27.9 510.8 L 182.8 510.8 L 182.8 783.9 L 27.9 783.9 Z M 27.9 510.8 "></path></clipPath><g clip-path="url(#clip-481)"><image xlink:href="../../E01699BB-C0D1-4305-AE93-C866749E9FD9/assets/3B125388B1C2690D02541E1FFAB050B1.jpeg" width="600.00" height="600.00" transform="matrix(0.50, 0.00, -0.00, -0.50, 31.9, 781.9)"></image><path d="M 31.9 781.9 L 178.8 781.9 L 178.8 516.8 L 31.9 516.8 Z M 31.9 781.9 " fill="#52575F" fill-opacity="0.50"></path></g></g></g></g><g><clipPath id="clip-482"><path d="M 28.0 728.0 L 182.0 728.0 L 182.0 612.0 L 28.0 612.0 Z M 27.7 728.0 "></path></clipPath><g clip-path="url(#clip-482)"><g><clipPath id="clip-483"><path d="M 28.0 611.5 L 181.7 611.5 L 181.7 728.0 L 28.0 728.0 Z M 28.0 611.5 "></path></clipPath><g clip-path="url(#clip-483)"><g><g><clipPath id="clip-484"><path d="M 28.0 787.0 L 182.0 787.0 L 182.0 523.0 L 28.0 523.0 Z M 28.0 787.0 "></path></clipPath><g clip-path="url(#clip-484)"><g><clipPath id="clip-485"><path d="M 28.0 612.0 L 182.0 612.0 L 182.0 728.0 L 28.0 728.0 Z M 28.0 612.0 "></path></clipPath><g clip-path="url(#clip-485)"><path d="M 58.0 639.2 C 56.6 639.2 55.4 639.6 54.7 640.6 C 54.0 641.5 53.6 642.9 53.6 644.6 L 53.6 654.5 C 53.6 656.3 54.0 657.6 54.7 658.5 C 55.4 659.4 56.6 659.9 58.0 659.9 C 59.5 659.9 60.6 659.4 61.4 658.5 C 62.1 657.6 62.5 656.3 62.5 654.5 L 62.5 654.0 L 61.5 654.0 L 61.5 654.5 C 61.5 655.5 61.4 656.3 61.1 656.9 C 60.9 657.5 60.6 657.9 60.3 658.2 C 60.0 658.5 59.6 658.7 59.2 658.8 C 58.8 658.9 58.4 659.0 58.0 659.0 C 57.7 659.0 57.3 658.9 56.9 658.8 C 56.4 658.7 56.1 658.5 55.7 658.2 C 55.4 657.9 55.1 657.5 54.9 656.9 C 54.7 656.3 54.5 655.5 54.5 654.5 L 54.5 644.6 C 54.5 643.1 54.8 642.0 55.4 641.2 C 56.0 640.5 56.9 640.1 58.0 640.1 C 59.2 640.1 60.0 640.5 60.6 641.2 C 61.2 642.0 61.5 643.1 61.5 644.6 L 61.5 647.4 L 57.0 647.4 L 57.0 648.3 L 62.5 648.3 L 62.5 644.6 C 62.5 642.9 62.1 641.5 61.4 640.6 C 60.6 639.6 59.5 639.2 58.0 639.2 " fill="#FFFFFF"></path><path d="M 64.8 659.9 L 65.8 659.9 L 65.8 639.2 L 64.8 639.2 Z M 64.8 659.9 " fill="#FFFFFF"></path><path d="M 78.2 660.0 L 73.0 639.2 L 72.2 639.2 L 67.0 660.0 L 68.0 660.0 L 72.6 641.7 L 77.2 660.0 Z M 78.2 660.0 " fill="#FFFFFF"></path><path d="M 80.6 659.0 L 80.6 650.0 L 87.1 650.0 L 87.1 649.1 L 80.6 649.1 L 80.6 640.1 L 87.1 640.1 L 87.1 639.2 L 79.7 639.2 L 79.7 659.9 L 87.1 659.9 L 87.1 659.0 Z M 80.6 659.0 " fill="#FFFFFF"></path><path d="M 98.2 655.7 C 98.2 655.3 98.3 654.9 98.4 654.4 C 98.5 654.0 98.6 653.6 98.8 653.1 C 99.0 652.7 99.2 652.4 99.4 652.0 C 99.6 651.7 99.7 651.4 99.9 651.1 C 100.0 651.2 100.1 651.4 100.2 651.5 C 100.3 651.7 100.4 651.8 100.5 652.0 C 101.1 653.0 101.5 654.3 101.5 655.7 C 101.5 656.4 101.4 656.9 101.3 657.3 C 101.3 657.8 101.1 658.1 101.0 658.3 C 100.9 658.6 100.7 658.8 100.5 658.8 C 100.3 658.9 100.1 659.0 99.8 659.0 C 99.6 659.0 99.4 658.9 99.2 658.9 C 99.0 658.8 98.8 658.6 98.7 658.4 C 98.5 658.2 98.4 657.9 98.3 657.4 C 98.2 657.0 98.2 656.4 98.2 655.7 M 98.7 648.8 C 98.4 648.5 98.0 648.2 97.7 647.9 C 97.4 647.6 97.1 647.2 96.9 646.9 C 96.6 646.6 96.5 646.2 96.3 645.8 C 96.2 645.3 96.1 644.8 96.1 644.3 C 96.1 643.8 96.2 643.3 96.3 642.7 C 96.5 642.2 96.7 641.8 97.0 641.4 C 97.3 641.0 97.7 640.7 98.2 640.5 C 98.6 640.2 99.2 640.1 99.8 640.1 C 101.7 640.1 103.1 640.8 104.0 642.3 L 99.7 649.6 C 99.5 649.5 99.4 649.3 99.2 649.2 C 99.1 649.1 98.9 648.9 98.7 648.8 M 99.8 639.2 C 98.4 639.2 97.2 639.7 96.4 640.7 C 95.6 641.6 95.2 642.8 95.2 644.3 C 95.2 645.0 95.3 645.5 95.4 646.1 C 95.6 646.6 95.8 647.0 96.1 647.4 C 96.4 647.8 96.7 648.2 97.0 648.5 C 97.4 648.9 97.8 649.2 98.1 649.5 C 98.3 649.7 98.5 649.8 98.7 650.0 C 98.8 650.1 99.0 650.3 99.2 650.5 C 99.1 650.7 98.9 651.0 98.7 651.4 C 98.4 651.7 98.2 652.2 98.0 652.7 C 97.8 653.1 97.6 653.6 97.4 654.1 C 97.3 654.7 97.2 655.2 97.2 655.7 C 97.2 656.4 97.3 657.0 97.3 657.5 C 97.4 658.0 97.6 658.4 97.7 658.7 C 98.2 659.5 98.9 659.9 99.8 659.9 C 100.9 659.9 101.6 659.4 102.0 658.5 C 102.2 658.1 102.3 657.6 102.4 657.1 C 102.4 656.6 102.4 656.1 102.4 655.7 C 102.4 655.0 102.4 654.3 102.2 653.7 C 102.1 653.1 101.9 652.6 101.7 652.1 C 101.5 651.7 101.2 651.3 101.0 651.0 C 100.8 650.7 100.6 650.5 100.4 650.3 L 104.5 643.4 C 104.8 644.2 104.9 645.0 105.0 645.8 C 105.1 646.6 105.1 647.4 105.1 648.0 L 105.1 648.3 L 106.1 648.3 L 106.1 648.0 C 106.1 647.2 106.0 646.3 105.9 645.3 C 105.8 644.3 105.6 643.3 105.1 642.4 C 105.1 642.4 105.1 642.4 105.1 642.4 C 105.1 642.4 105.1 642.4 105.1 642.3 L 106.9 639.2 L 105.8 639.2 L 104.5 641.4 C 103.5 639.9 101.9 639.2 99.8 639.2 " fill="#FFFFFF"></path><path d="M 125.9 659.0 L 120.9 659.0 L 120.9 639.2 L 120.0 639.2 L 120.0 659.0 L 115.0 659.0 L 115.0 659.9 L 125.9 659.9 Z M 125.9 659.0 " fill="#FFFFFF"></path><path d="M 132.7 657.3 L 130.2 646.5 L 135.2 646.5 Z M 128.5 639.2 L 127.5 639.2 L 129.1 646.4 L 129.1 646.5 L 132.3 659.9 L 133.1 659.9 L 137.8 639.2 L 136.8 639.2 L 135.4 645.5 L 129.9 645.5 Z M 128.5 639.2 " fill="#FFFFFF"></path><path d="M 142.3 650.4 L 148.6 639.2 L 147.5 639.2 L 141.7 649.5 L 139.6 646.4 L 139.6 639.2 L 138.6 639.2 L 138.6 659.9 L 139.6 659.9 L 139.6 648.1 L 147.5 659.9 L 148.6 659.9 Z M 142.3 650.4 " fill="#FFFFFF"></path><path d="M 150.7 659.0 L 150.7 650.0 L 157.2 650.0 L 157.2 649.1 L 150.7 649.1 L 150.7 640.1 L 157.2 640.1 L 157.2 639.2 L 149.7 639.2 L 149.7 659.9 L 157.2 659.9 L 157.2 659.0 Z M 150.7 659.0 " fill="#FFFFFF"></path></g></g></g></g><g><clipPath id="clip-486"><path d="M 28.0 787.0 L 182.0 787.0 L 182.0 523.0 L 28.0 523.0 Z M 28.0 787.0 "></path></clipPath><g clip-path="url(#clip-486)"><g><clipPath id="clip-487"><path d="M 28.0 612.0 L 182.0 612.0 L 182.0 728.0 L 28.0 728.0 Z M 28.0 612.0 "></path></clipPath><g clip-path="url(#clip-487)"><g><g><clipPath id="clip-488"><path d="M 48.7 670.0 L 161.3 670.0 L 161.3 718.8 L 48.7 718.8 Z M 48.7 670.0 "></path></clipPath><g clip-path="url(#clip-488)"><path d="M 92.2 693.7 L 105.0 671.9 L 118.1 694.1 L 105.3 716.0 Z M 105.5 670.1 L 104.6 670.1 L 90.6 693.7 L 105.3 718.6 L 119.7 694.1 Z M 105.5 670.1 " fill="#FFFFFF"></path><path d="M 133.1 671.4 L 158.8 671.4 L 132.6 716.0 L 119.7 694.1 Z M 161.1 670.1 L 132.3 670.1 L 118.1 694.1 L 132.6 718.6 Z M 161.1 670.1 " fill="#FFFFFF"></path><path d="M 106.3 671.4 L 131.6 671.4 L 118.9 692.8 Z M 133.9 670.1 L 104.0 670.1 L 118.9 695.4 Z M 133.9 670.1 " fill="#FFFFFF"></path><path d="M 51.2 671.4 L 77.5 671.4 L 90.6 693.7 L 77.5 716.0 Z M 78.2 670.1 L 48.9 670.1 L 77.5 718.6 L 92.2 693.7 Z M 78.2 670.1 " fill="#FFFFFF"></path><path d="M 79.0 671.4 L 103.8 671.4 L 91.4 692.4 Z M 106.1 670.1 L 76.7 670.1 L 91.4 695.0 Z M 106.1 670.1 " fill="#FFFFFF"></path></g></g></g></g></g></g></g><g><clipPath id="clip-489"><path d="M 160.0 629.6 L 50.0 629.6 L 49.9 629.6 L 49.9 629.5 L 49.9 629.0 L 49.9 628.9 L 50.0 628.9 L 160.0 628.9 L 160.1 628.9 L 160.1 629.0 L 160.1 629.5 L 160.1 629.6 Z M 160.0 629.6 "></path></clipPath><g clip-path="url(#clip-489)"><g><clipPath id="clip-490"><path d="M 28.0 612.0 L 182.0 612.0 L 182.0 728.0 L 28.0 728.0 Z M 28.0 612.0 "></path></clipPath><g clip-path="url(#clip-490)"><path d="M 47.8 626.8 L 162.2 626.8 L 162.2 631.7 L 47.8 631.7 Z M 47.8 626.8 " fill="#FFFFFF"></path></g></g></g></g><g><clipPath id="clip-491"><path d="M 45.2 624.2 L 164.8 624.2 L 164.8 634.3 L 45.2 634.3 Z M 50.0 629.5 L 160.0 629.5 L 160.0 629.0 L 50.0 629.0 Z M 50.0 629.5 "></path></clipPath><g clip-path="url(#clip-491)"><g><clipPath id="clip-492"><path d="M 28.0 612.0 L 182.0 612.0 L 182.0 728.0 L 28.0 728.0 Z M 28.0 612.0 "></path></clipPath><g clip-path="url(#clip-492)"><path d="M 160.4 628.6 L 49.6 628.6 L 49.6 629.9 L 160.4 629.9 Z M 160.4 628.6 " fill="#FFFFFF"></path></g></g></g></g></g></g></g></g></g></g></svg>