<?xml version="1.0" encoding="UTF-8" standalone="no"?><svg xmlns="http://www.w3.org/2000/svg" xmlns:xlink="http://www.w3.org/1999/xlink" clip-rule="evenodd" stroke-miterlimit="4.00" viewBox="0 0 629 838"><desc>SVG generated by Keynote</desc><defs><pattern id="F32E6076-36D9-4C73-B50C-7EC667BCC30C" patternUnits="userSpaceOnUse" width="600" height="600" viewBox="0 0 600 600" patternTransform="matrix(0.500000, 0.000000, 0.000000, -0.500000, 81.364200, 814.454000)"><image xlink:href="../../E01699BB-C0D1-4305-AE93-C866749E9FD9/assets/3B125388B1C2690D02541E1FFAB050B1.jpeg" width="600.00" height="600.00"></image></pattern></defs><g transform="matrix(1.00, 0.00, -0.00, -1.00, 0.0, 838.0)"><g><clipPath id="clip-438"><path d="M 55.7 0.7 L 474.6 0.7 L 474.6 116.1 L 55.7 116.1 Z M 55.7 0.7 "></path></clipPath><g clip-path="url(#clip-438)"><text xml:space="preserve" font-family="Roboto-Regular" font-size="28.0" fill="#3F3F3F" transform="matrix(1.00, 0.00, -0.00, -1.00, 64.0, 82.0)">S</text><text xml:space="preserve" font-family="Roboto-Regular" font-size="28.0" fill="#3F3F3F" transform="matrix(1.00, 0.00, -0.00, -1.00, 80.6, 82.0)">e</text><text xml:space="preserve" font-family="Roboto-Regular" font-size="28.0" fill="#3F3F3F" transform="matrix(1.00, 0.00, -0.00, -1.00, 95.4, 82.0)">t</text><text xml:space="preserve" font-family="Roboto-Regular" font-size="28.0" fill="#3F3F3F" transform="matrix(1.00, 0.00, -0.00, -1.00, 104.6, 82.0)">t</text><text xml:space="preserve" font-family="Roboto-Regular" font-size="28.0" fill="#3F3F3F" transform="matrix(1.00, 0.00, -0.00, -1.00, 113.7, 82.0)">i</text><text xml:space="preserve" font-family="Roboto-Regular" font-size="28.0" fill="#3F3F3F" transform="matrix(1.00, 0.00, -0.00, -1.00, 120.5, 82.0)">n</text><text xml:space="preserve" font-family="Roboto-Regular" font-size="28.0" fill="#3F3F3F" transform="matrix(1.00, 0.00, -0.00, -1.00, 136.0, 82.0)">g</text><text xml:space="preserve" font-family="Roboto-Regular" font-size="28.0" fill="#3F3F3F" transform="matrix(1.00, 0.00, -0.00, -1.00, 151.7, 82.0)"> </text><text xml:space="preserve" font-family="Roboto-Regular" font-size="28.0" fill="#3F3F3F" transform="matrix(1.00, 0.00, -0.00, -1.00, 158.6, 82.0)">u</text><text xml:space="preserve" font-family="Roboto-Regular" font-size="28.0" fill="#3F3F3F" transform="matrix(1.00, 0.00, -0.00, -1.00, 174.0, 82.0)">p</text><text xml:space="preserve" font-family="Roboto-Regular" font-size="28.0" fill="#3F3F3F" transform="matrix(1.00, 0.00, -0.00, -1.00, 189.7, 82.0)"> </text><text xml:space="preserve" font-family="Roboto-Regular" font-size="28.0" fill="#3F3F3F" transform="matrix(1.00, 0.00, -0.00, -1.00, 196.7, 82.0)">a</text><text xml:space="preserve" font-family="Roboto-Regular" font-size="28.0" fill="#3F3F3F" transform="matrix(1.00, 0.00, -0.00, -1.00, 211.9, 82.0)"> </text><text xml:space="preserve" font-family="Roboto-Regular" font-size="28.0" fill="#3F3F3F" transform="matrix(1.00, 0.00, -0.00, -1.00, 218.8, 82.0)">l</text><text xml:space="preserve" font-family="Roboto-Regular" font-size="28.0" fill="#3F3F3F" transform="matrix(1.00, 0.00, -0.00, -1.00, 225.6, 82.0)">a</text><text xml:space="preserve" font-family="Roboto-Regular" font-size="28.0" fill="#3F3F3F" transform="matrix(1.00, 0.00, -0.00, -1.00, 240.8, 82.0)">n</text><text xml:space="preserve" font-family="Roboto-Regular" font-size="28.0" fill="#3F3F3F" transform="matrix(1.00, 0.00, -0.00, -1.00, 256.3, 82.0)">d</text><text xml:space="preserve" font-family="Roboto-Regular" font-size="28.0" fill="#3F3F3F" transform="matrix(1.00, 0.00, -0.00, -1.00, 272.1, 82.0)">i</text><text xml:space="preserve" font-family="Roboto-Regular" font-size="28.0" fill="#3F3F3F" transform="matrix(1.00, 0.00, -0.00, -1.00, 278.8, 82.0)">n</text><text xml:space="preserve" font-family="Roboto-Regular" font-size="28.0" fill="#3F3F3F" transform="matrix(1.00, 0.00, -0.00, -1.00, 294.3, 82.0)">g</text><text xml:space="preserve" font-family="Roboto-Regular" font-size="28.0" fill="#3F3F3F" transform="matrix(1.00, 0.00, -0.00, -1.00, 310.0, 82.0)"> </text><text xml:space="preserve" font-family="Roboto-Regular" font-size="28.0" fill="#3F3F3F" transform="matrix(1.00, 0.00, -0.00, -1.00, 316.9, 82.0)">p</text><text xml:space="preserve" font-family="Roboto-Regular" font-size="28.0" fill="#3F3F3F" transform="matrix(1.00, 0.00, -0.00, -1.00, 332.6, 82.0)">a</text><text xml:space="preserve" font-family="Roboto-Regular" font-size="28.0" fill="#3F3F3F" transform="matrix(1.00, 0.00, -0.00, -1.00, 347.9, 82.0)">g</text><text xml:space="preserve" font-family="Roboto-Regular" font-size="28.0" fill="#3F3F3F" transform="matrix(1.00, 0.00, -0.00, -1.00, 363.6, 82.0)">e</text><text xml:space="preserve" font-family="Roboto-Regular" font-size="28.0" fill="#3F3F3F" transform="matrix(1.00, 0.00, -0.00, -1.00, 378.4, 82.0)"> </text><text xml:space="preserve" font-family="Roboto-Regular" font-size="28.0" fill="#3F3F3F" transform="matrix(1.00, 0.00, -0.00, -1.00, 385.3, 82.0)">w</text><text xml:space="preserve" font-family="Roboto-Regular" font-size="28.0" fill="#3F3F3F" transform="matrix(1.00, 0.00, -0.00, -1.00, 406.4, 82.0)">i</text><text xml:space="preserve" font-family="Roboto-Regular" font-size="28.0" fill="#3F3F3F" transform="matrix(1.00, 0.00, -0.00, -1.00, 413.1, 82.0)">t</text><text xml:space="preserve" font-family="Roboto-Regular" font-size="28.0" fill="#3F3F3F" transform="matrix(1.00, 0.00, -0.00, -1.00, 422.3, 82.0)">h</text><text xml:space="preserve" font-family="Roboto-Regular" font-size="28.0" fill="#3F3F3F" transform="matrix(1.00, 0.00, -0.00, -1.00, 437.7, 82.0)"> </text><text xml:space="preserve" font-family="Roboto-Regular" font-size="28.0" fill="#3F3F3F" transform="matrix(1.00, 0.00, -0.00, -1.00, 64.0, 49.0)">p</text><text xml:space="preserve" font-family="Roboto-Regular" font-size="28.0" fill="#3F3F3F" transform="matrix(1.00, 0.00, -0.00, -1.00, 79.7, 49.0)">r</text><text xml:space="preserve" font-family="Roboto-Regular" font-size="28.0" fill="#3F3F3F" transform="matrix(1.00, 0.00, -0.00, -1.00, 88.9, 49.0)">e</text><text xml:space="preserve" font-family="Roboto-Regular" font-size="28.0" fill="#3F3F3F" transform="matrix(1.00, 0.00, -0.00, -1.00, 103.8, 49.0)">-</text><text xml:space="preserve" font-family="Roboto-Regular" font-size="28.0" fill="#3F3F3F" transform="matrix(1.00, 0.00, -0.00, -1.00, 111.5, 49.0)">r</text><text xml:space="preserve" font-family="Roboto-Regular" font-size="28.0" fill="#3F3F3F" transform="matrix(1.00, 0.00, -0.00, -1.00, 120.7, 49.0)">e</text><text xml:space="preserve" font-family="Roboto-Regular" font-size="28.0" fill="#3F3F3F" transform="matrix(1.00, 0.00, -0.00, -1.00, 135.5, 49.0)">g</text><text xml:space="preserve" font-family="Roboto-Regular" font-size="28.0" fill="#3F3F3F" transform="matrix(1.00, 0.00, -0.00, -1.00, 151.2, 49.0)">i</text><text xml:space="preserve" font-family="Roboto-Regular" font-size="28.0" fill="#3F3F3F" transform="matrix(1.00, 0.00, -0.00, -1.00, 158.0, 49.0)">s</text><text xml:space="preserve" font-family="Roboto-Regular" font-size="28.0" fill="#3F3F3F" transform="matrix(1.00, 0.00, -0.00, -1.00, 172.5, 49.0)">t</text><text xml:space="preserve" font-family="Roboto-Regular" font-size="28.0" fill="#3F3F3F" transform="matrix(1.00, 0.00, -0.00, -1.00, 181.6, 49.0)">e</text><text xml:space="preserve" font-family="Roboto-Regular" font-size="28.0" fill="#3F3F3F" transform="matrix(1.00, 0.00, -0.00, -1.00, 196.4, 49.0)">r</text><text xml:space="preserve" font-family="Roboto-Regular" font-size="28.0" fill="#3F3F3F" transform="matrix(1.00, 0.00, -0.00, -1.00, 205.7, 49.0)">e</text><text xml:space="preserve" font-family="Roboto-Regular" font-size="28.0" fill="#3F3F3F" transform="matrix(1.00, 0.00, -0.00, -1.00, 220.5, 49.0)">d</text><text xml:space="preserve" font-family="Roboto-Regular" font-size="28.0" fill="#3F3F3F" transform="matrix(1.00, 0.00, -0.00, -1.00, 236.3, 49.0)"> </text><text xml:space="preserve" font-family="Roboto-Regular" font-size="28.0" fill="#3F3F3F" transform="matrix(1.00, 0.00, -0.00, -1.00, 243.2, 49.0)">i</text><text xml:space="preserve" font-family="Roboto-Regular" font-size="28.0" fill="#3F3F3F" transform="matrix(1.00, 0.00, -0.00, -1.00, 250.0, 49.0)">t</text><text xml:space="preserve" font-family="Roboto-Regular" font-size="28.0" fill="#3F3F3F" transform="matrix(1.00, 0.00, -0.00, -1.00, 259.1, 49.0)">e</text><text xml:space="preserve" font-family="Roboto-Regular" font-size="28.0" fill="#3F3F3F" transform="matrix(1.00, 0.00, -0.00, -1.00, 273.9, 49.0)">m</text><text xml:space="preserve" font-family="Roboto-Regular" font-size="28.0" fill="#3F3F3F" transform="matrix(1.00, 0.00, -0.00, -1.00, 298.5, 49.0)">s</text><text xml:space="preserve" font-family="Roboto-Regular" font-size="28.0" fill="#3F3F3F" transform="matrix(1.00, 0.00, -0.00, -1.00, 312.9, 49.0)"> </text><text xml:space="preserve" font-family="Roboto-Regular" font-size="28.0" fill="#3F3F3F" transform="matrix(1.00, 0.00, -0.00, -1.00, 319.8, 49.0)">a</text><text xml:space="preserve" font-family="Roboto-Regular" font-size="28.0" fill="#3F3F3F" transform="matrix(1.00, 0.00, -0.00, -1.00, 335.1, 49.0)">n</text><text xml:space="preserve" font-family="Roboto-Regular" font-size="28.0" fill="#3F3F3F" transform="matrix(1.00, 0.00, -0.00, -1.00, 350.5, 49.0)">d</text><text xml:space="preserve" font-family="Roboto-Regular" font-size="28.0" fill="#3F3F3F" transform="matrix(1.00, 0.00, -0.00, -1.00, 366.3, 49.0)"> </text><text xml:space="preserve" font-family="Roboto-Regular" font-size="28.0" fill="#3F3F3F" transform="matrix(1.00, 0.00, -0.00, -1.00, 373.2, 49.0)">t</text><text xml:space="preserve" font-family="Roboto-Regular" font-size="28.0" fill="#3F3F3F" transform="matrix(1.00, 0.00, -0.00, -1.00, 382.4, 49.0)">e</text><text xml:space="preserve" font-family="Roboto-Regular" font-size="28.0" fill="#3F3F3F" transform="matrix(1.00, 0.00, -0.00, -1.00, 397.2, 49.0)">s</text><text xml:space="preserve" font-family="Roboto-Regular" font-size="28.0" fill="#3F3F3F" transform="matrix(1.00, 0.00, -0.00, -1.00, 411.6, 49.0)">t</text><text xml:space="preserve" font-family="Roboto-Regular" font-size="28.0" fill="#3F3F3F" transform="matrix(1.00, 0.00, -0.00, -1.00, 420.8, 49.0)"> </text><text xml:space="preserve" font-family="Roboto-Regular" font-size="28.0" fill="#3F3F3F" transform="matrix(1.00, 0.00, -0.00, -1.00, 64.0, 16.0)">t</text><text xml:space="preserve" font-family="Roboto-Regular" font-size="28.0" fill="#3F3F3F" transform="matrix(1.00, 0.00, -0.00, -1.00, 73.1, 16.0)">h</text><text xml:space="preserve" font-family="Roboto-Regular" font-size="28.0" fill="#3F3F3F" transform="matrix(1.00, 0.00, -0.00, -1.00, 88.6, 16.0)">e</text><text xml:space="preserve" font-family="Roboto-Regular" font-size="28.0" fill="#3F3F3F" transform="matrix(1.00, 0.00, -0.00, -1.00, 103.4, 16.0)"> </text><text xml:space="preserve" font-family="Roboto-Regular" font-size="28.0" fill="#3F3F3F" transform="matrix(1.00, 0.00, -0.00, -1.00, 110.3, 16.0)">t</text><text xml:space="preserve" font-family="Roboto-Regular" font-size="28.0" fill="#3F3F3F" transform="matrix(1.00, 0.00, -0.00, -1.00, 119.4, 16.0)">r</text><text xml:space="preserve" font-family="Roboto-Regular" font-size="28.0" fill="#3F3F3F" transform="matrix(1.00, 0.00, -0.00, -1.00, 128.4, 16.0)">a</text><text xml:space="preserve" font-family="Roboto-Regular" font-size="28.0" fill="#3F3F3F" transform="matrix(1.00, 0.00, -0.00, -1.00, 143.6, 16.0)">d</text><text xml:space="preserve" font-family="Roboto-Regular" font-size="28.0" fill="#3F3F3F" transform="matrix(1.00, 0.00, -0.00, -1.00, 159.4, 16.0)">e</text><text xml:space="preserve" font-family="Roboto-Regular" font-size="28.0" fill="#3F3F3F" transform="matrix(1.00, 0.00, -0.00, -1.00, 174.2, 16.0)"> </text><text xml:space="preserve" font-family="Roboto-Regular" font-size="28.0" fill="#3F3F3F" transform="matrix(1.00, 0.00, -0.00, -1.00, 181.1, 16.0)">i</text><text xml:space="preserve" font-family="Roboto-Regular" font-size="28.0" fill="#3F3F3F" transform="matrix(1.00, 0.00, -0.00, -1.00, 187.9, 16.0)">n</text><text xml:space="preserve" font-family="Roboto-Regular" font-size="28.0" fill="#3F3F3F" transform="matrix(1.00, 0.00, -0.00, -1.00, 203.4, 16.0)">t</text><text xml:space="preserve" font-family="Roboto-Regular" font-size="28.0" fill="#3F3F3F" transform="matrix(1.00, 0.00, -0.00, -1.00, 212.5, 16.0)">e</text><text xml:space="preserve" font-family="Roboto-Regular" font-size="28.0" fill="#3F3F3F" transform="matrix(1.00, 0.00, -0.00, -1.00, 227.3, 16.0)">n</text><text xml:space="preserve" font-family="Roboto-Regular" font-size="28.0" fill="#3F3F3F" transform="matrix(1.00, 0.00, -0.00, -1.00, 242.8, 16.0)">t</text><text xml:space="preserve" font-family="Roboto-Regular" font-size="28.0" fill="#3F3F3F" transform="matrix(1.00, 0.00, -0.00, -1.00, 251.9, 16.0)">.</text></g></g><g><clipPath id="clip-439"><path d="M 0.2 474.7 L 317.6 474.7 L 317.6 490.6 L 0.2 490.6 Z M 0.2 474.7 "></path></clipPath><g clip-path="url(#clip-439)"><path d="M 1.2 483.9 C 1.2 481.4 11.9 475.7 29.0 475.7 C 46.1 475.7 316.6 475.7 316.6 475.7 C 316.6 489.6 316.6 489.6 316.6 489.6 C 1.2 489.6 1.2 489.6 1.2 489.6 L 1.2 483.9 Z M 1.2 483.9 " fill="#B3B4B4"></path></g></g><g><clipPath id="clip-440"><path d="M 311.0 474.7 L 628.4 474.7 L 628.4 490.6 L 311.0 490.6 Z M 311.0 474.7 "></path></clipPath><g clip-path="url(#clip-440)"><path d="M 627.4 483.9 C 627.4 481.4 616.7 475.7 599.6 475.7 C 582.4 475.7 312.0 475.7 312.0 475.7 C 312.0 489.6 312.0 489.6 312.0 489.6 C 627.4 489.6 627.4 489.6 627.4 489.6 L 627.4 483.9 Z M 627.4 483.9 " fill="#B3B4B4"></path></g></g><g><clipPath id="clip-441"><path d="M 61.2 486.8 L 572.4 486.8 L 572.4 837.8 L 61.2 837.8 Z M 61.2 486.8 "></path></clipPath><g clip-path="url(#clip-441)"><path d="M 79.0 490.3 C 71.1 490.3 64.7 496.7 64.7 504.6 C 64.7 820.1 64.7 820.1 64.7 820.1 C 64.7 827.9 71.1 834.3 79.0 834.3 C 554.3 834.3 554.3 834.3 554.3 834.3 C 562.5 834.3 568.9 827.9 568.9 820.1 C 568.9 504.6 568.9 504.6 568.9 504.6 C 568.9 496.7 562.5 490.3 554.3 490.3 L 79.0 490.3 Z M 79.0 490.3 " fill="#3F3F3F"></path><path d="M 14.3 344.0 C 6.4 344.0 0.0 337.6 0.0 329.8 C 0.0 14.3 0.0 14.3 0.0 14.3 C 0.0 6.4 6.4 0.0 14.3 0.0 C 489.5 0.0 489.5 0.0 489.5 0.0 C 497.7 0.0 504.2 6.4 504.2 14.3 C 504.2 329.8 504.2 329.8 504.2 329.8 C 504.2 337.6 497.7 344.0 489.5 344.0 L 14.3 344.0 Z M 14.3 344.0 " fill="none" stroke="#BFBFBF" stroke-width="5.00" stroke-linejoin="round" transform="matrix(1.00, 0.00, 0.00, -1.00, 64.7, 834.3)"></path></g></g><g><clipPath id="clip-442"><path d="M 0.2 482.9 L 628.4 482.9 L 628.4 496.3 L 0.2 496.3 Z M 0.2 482.9 "></path></clipPath><g clip-path="url(#clip-442)"><path d="M 1.2 495.3 L 627.4 495.3 L 627.4 483.9 L 1.2 483.9 Z M 1.2 495.3 " fill="#F2F2F2"></path></g></g><g><clipPath id="clip-443"><path d="M 268.2 487.9 L 360.1 487.9 L 360.1 496.3 L 268.2 496.3 Z M 268.2 487.9 "></path></clipPath><g clip-path="url(#clip-443)"><path d="M 269.2 495.3 C 269.9 491.7 273.1 488.9 277.0 488.9 C 351.2 488.9 351.2 488.9 351.2 488.9 C 355.2 488.9 358.4 491.7 359.1 495.3 L 269.2 495.3 Z M 269.2 495.3 " fill="#B3B4B4"></path></g></g><g><clipPath id="clip-444"><path d="M 80.5 514.3 L 553.1 514.3 L 553.1 813.6 L 80.5 813.6 Z M 80.5 514.3 "></path></clipPath><g clip-path="url(#clip-444)"><path d="M 81.5 812.6 L 552.1 812.6 L 552.1 515.3 L 81.5 515.3 Z M 81.5 812.6 " fill="#F2F2F2"></path></g></g><g><clipPath id="clip-445"><path d="M 313.1 819.5 L 321.0 819.5 L 321.0 827.4 L 313.1 827.4 Z M 313.1 819.5 "></path></clipPath><g clip-path="url(#clip-445)"><path d="M 319.1 825.5 C 320.2 824.4 320.2 822.5 319.1 821.4 C 318.0 820.3 316.1 820.3 315.0 821.4 C 313.8 822.5 313.8 824.4 315.0 825.5 C 316.1 826.7 318.0 826.7 319.1 825.5 Z M 319.1 825.5 " fill="#F2F2F2"></path></g></g><g><clipPath id="clip-446"><path d="M 77.4 509.4 L 558.4 509.4 L 558.4 816.5 L 77.4 816.5 Z M 77.4 509.4 "></path></clipPath><g clip-path="url(#clip-446)"><image xlink:href="F603DC58F301F7EF89716F96EC004664.png" width="479.00" height="305.00" transform="matrix(1.00, 0.00, -0.00, -1.00, 78.4, 815.5)" opacity="0.50"></image></g></g><g><clipPath id="clip-447"><path d="M 81.4 814.5 L 554.4 814.5 L 554.4 515.4 L 81.4 515.4 Z M 81.4 814.5 "></path></clipPath><g clip-path="url(#clip-447)"><g><clipPath id="clip-448"><path d="M 77.4 509.4 L 558.4 509.4 L 558.4 816.5 L 77.4 816.5 Z M 77.4 509.4 "></path></clipPath><g clip-path="url(#clip-448)"><path d="M 81.4 515.4 L 554.4 515.4 L 554.4 814.5 L 81.4 814.5 Z M 81.4 515.4 " fill="url(#F32E6076-36D9-4C73-B50C-7EC667BCC30C)"></path><path d="M 81.4 814.5 L 554.4 814.5 L 554.4 515.4 L 81.4 515.4 Z M 81.4 814.5 " fill="#52575F" fill-opacity="0.50"></path></g></g></g></g><g><clipPath id="clip-449"><path d="M 153.0 777.0 L 476.0 777.0 L 476.0 533.0 L 153.0 533.0 Z M 153.0 777.1 "></path></clipPath><g clip-path="url(#clip-449)"><g><clipPath id="clip-450"><path d="M 153.0 532.9 L 475.7 532.9 L 475.7 777.1 L 153.0 777.1 Z M 153.0 532.9 "></path></clipPath><g clip-path="url(#clip-450)"><g><g><clipPath id="clip-451"><path d="M 153.0 901.0 L 476.0 901.0 L 476.0 348.0 L 153.0 348.0 Z M 153.0 901.0 "></path></clipPath><g clip-path="url(#clip-451)"><g><clipPath id="clip-452"><path d="M 153.0 533.0 L 476.0 533.0 L 476.0 777.0 L 153.0 777.0 Z M 153.0 533.0 "></path></clipPath><g clip-path="url(#clip-452)"><path d="M 216.0 591.3 C 212.9 591.3 210.5 592.3 208.9 594.3 C 207.4 596.3 206.7 599.1 206.7 602.8 L 206.7 623.4 C 206.7 627.1 207.4 629.9 208.9 631.8 C 210.5 633.8 212.9 634.8 216.0 634.8 C 219.1 634.8 221.4 633.8 223.0 631.8 C 224.5 629.9 225.3 627.1 225.3 623.4 L 225.3 622.4 L 223.2 622.4 L 223.2 623.4 C 223.2 625.5 223.0 627.2 222.5 628.4 C 222.0 629.7 221.4 630.6 220.7 631.3 C 220.0 631.9 219.2 632.3 218.4 632.5 C 217.6 632.7 216.8 632.8 216.0 632.8 C 215.2 632.8 214.4 632.7 213.5 632.5 C 212.7 632.3 211.9 631.9 211.2 631.3 C 210.5 630.6 209.9 629.7 209.4 628.4 C 208.9 627.2 208.7 625.5 208.7 623.4 L 208.7 602.8 C 208.7 599.6 209.3 597.2 210.6 595.6 C 211.7 594.1 213.5 593.3 216.0 593.3 C 218.4 593.3 220.2 594.1 221.3 595.6 C 222.6 597.2 223.2 599.6 223.2 602.8 L 223.2 608.5 L 213.8 608.5 L 213.8 610.5 L 225.3 610.5 L 225.3 602.8 C 225.3 599.1 224.5 596.2 223.0 594.3 C 221.4 592.3 219.1 591.3 216.0 591.3 " fill="#FFFFFF"></path><path d="M 230.3 634.8 L 232.3 634.8 L 232.3 591.3 L 230.3 591.3 Z M 230.3 634.8 " fill="#FFFFFF"></path><path d="M 258.2 634.9 L 247.3 591.4 L 245.8 591.4 L 234.8 634.9 L 236.9 634.9 L 246.5 596.5 L 256.1 634.9 Z M 258.2 634.9 " fill="#FFFFFF"></path><path d="M 263.4 632.8 L 263.4 614.1 L 277.0 614.1 L 277.0 612.1 L 263.4 612.1 L 263.4 593.3 L 277.0 593.3 L 277.0 591.3 L 261.4 591.3 L 261.4 634.8 L 277.0 634.8 L 277.0 632.8 Z M 263.4 632.8 " fill="#FFFFFF"></path><path d="M 300.2 626.0 C 300.2 625.1 300.4 624.2 300.6 623.3 C 300.9 622.4 301.2 621.5 301.5 620.6 C 301.9 619.7 302.3 619.0 302.7 618.2 C 303.1 617.5 303.5 616.9 303.8 616.4 C 304.0 616.6 304.2 616.9 304.4 617.2 C 304.6 617.5 304.9 617.8 305.1 618.2 C 306.4 620.4 307.1 623.0 307.1 626.0 C 307.1 627.4 307.0 628.5 306.8 629.4 C 306.6 630.3 306.4 631.0 306.1 631.5 C 305.9 632.0 305.5 632.4 305.1 632.5 C 304.6 632.7 304.2 632.8 303.6 632.8 C 303.2 632.8 302.7 632.7 302.3 632.6 C 301.9 632.4 301.6 632.1 301.3 631.6 C 301.0 631.2 300.7 630.5 300.5 629.6 C 300.3 628.7 300.2 627.5 300.2 626.0 M 301.4 611.4 C 300.6 610.8 299.9 610.2 299.2 609.5 C 298.6 608.9 298.0 608.3 297.5 607.5 C 297.0 606.8 296.6 606.0 296.3 605.2 C 296.0 604.3 295.9 603.2 295.9 602.0 C 295.9 601.0 296.0 599.9 296.3 598.8 C 296.6 597.8 297.1 596.8 297.8 596.0 C 298.4 595.2 299.2 594.6 300.2 594.1 C 301.2 593.6 302.3 593.3 303.6 593.3 C 307.6 593.3 310.6 594.8 312.4 597.9 L 303.4 613.2 C 303.0 612.9 302.7 612.6 302.4 612.3 C 302.1 612.0 301.7 611.7 301.4 611.4 M 303.6 591.3 C 300.6 591.3 298.2 592.4 296.5 594.5 C 294.8 596.5 293.9 599.0 293.9 602.0 C 293.9 603.4 294.1 604.7 294.4 605.8 C 294.8 606.8 295.2 607.8 295.8 608.6 C 296.4 609.5 297.0 610.2 297.8 610.9 C 298.6 611.6 299.3 612.3 300.1 613.0 C 300.4 613.3 300.8 613.7 301.2 614.0 C 301.6 614.3 302.0 614.7 302.4 615.0 C 302.1 615.4 301.7 616.1 301.2 616.9 C 300.7 617.7 300.3 618.6 299.8 619.6 C 299.3 620.6 299.0 621.6 298.6 622.7 C 298.3 623.8 298.2 624.9 298.2 626.0 C 298.2 627.4 298.3 628.7 298.4 629.7 C 298.6 630.7 298.9 631.6 299.3 632.3 C 300.2 634.0 301.6 634.8 303.6 634.8 C 305.8 634.8 307.4 633.8 308.2 631.8 C 308.6 631.0 308.9 630.0 309.0 628.9 C 309.1 627.9 309.1 626.9 309.1 626.0 C 309.1 624.4 309.0 623.0 308.7 621.8 C 308.3 620.5 307.9 619.4 307.5 618.5 C 307.1 617.5 306.6 616.7 306.1 616.1 C 305.6 615.5 305.2 615.0 304.9 614.7 L 313.4 600.2 C 314.0 601.8 314.4 603.5 314.5 605.2 C 314.6 607.0 314.7 608.5 314.7 609.9 L 314.7 610.5 L 316.8 610.5 L 316.8 609.9 C 316.8 608.3 316.7 606.4 316.4 604.2 C 316.2 602.1 315.7 600.0 314.8 598.1 C 314.8 598.1 314.7 598.0 314.7 598.0 C 314.7 598.0 314.7 598.0 314.7 598.0 L 318.6 591.3 L 316.2 591.3 L 313.5 596.0 C 311.3 592.9 308.0 591.3 303.6 591.3 " fill="#FFFFFF"></path><path d="M 358.4 632.8 L 347.9 632.8 L 347.9 591.4 L 345.9 591.4 L 345.9 632.8 L 335.5 632.8 L 335.5 634.9 L 358.4 634.9 Z M 358.4 632.8 " fill="#FFFFFF"></path><path d="M 372.5 629.3 L 367.3 606.6 L 377.8 606.6 Z M 363.8 591.3 L 361.7 591.3 L 365.1 606.4 L 365.1 606.6 L 371.7 634.8 L 373.3 634.8 L 383.3 591.3 L 381.2 591.3 L 378.3 604.6 L 366.8 604.6 Z M 363.8 591.3 " fill="#FFFFFF"></path><path d="M 392.7 614.9 L 406.0 591.3 L 403.7 591.3 L 391.4 612.9 L 387.0 606.4 L 387.0 591.3 L 385.0 591.3 L 385.0 634.8 L 387.0 634.8 L 387.0 610.1 L 403.6 634.8 L 406.0 634.8 Z M 392.7 614.9 " fill="#FFFFFF"></path><path d="M 410.4 632.8 L 410.4 614.1 L 424.0 614.1 L 424.0 612.1 L 410.4 612.1 L 410.4 593.3 L 424.0 593.3 L 424.0 591.3 L 408.4 591.3 L 408.4 634.8 L 424.0 634.8 L 424.0 632.8 Z M 410.4 632.8 " fill="#FFFFFF"></path></g></g></g></g><g><clipPath id="clip-453"><path d="M 153.0 901.0 L 476.0 901.0 L 476.0 348.0 L 153.0 348.0 Z M 153.0 901.0 "></path></clipPath><g clip-path="url(#clip-453)"><g><clipPath id="clip-454"><path d="M 153.0 533.0 L 476.0 533.0 L 476.0 777.0 L 153.0 777.0 Z M 153.0 533.0 "></path></clipPath><g clip-path="url(#clip-454)"><g><g><clipPath id="clip-455"><path d="M 196.4 655.8 L 432.6 655.8 L 432.6 758.1 L 196.4 758.1 Z M 196.4 655.8 "></path></clipPath><g clip-path="url(#clip-455)"><path d="M 287.6 705.6 L 314.6 659.8 L 342.1 706.5 L 315.1 752.2 Z M 315.6 656.1 L 313.6 656.1 L 284.4 705.6 L 315.1 757.7 L 345.3 706.5 Z M 315.6 656.1 " fill="#FFFFFF"></path><path d="M 373.4 658.8 L 427.4 658.8 L 372.3 752.2 L 345.3 706.5 Z M 432.2 656.1 L 371.8 656.1 L 342.1 706.5 L 372.3 757.7 Z M 432.2 656.1 " fill="#FFFFFF"></path><path d="M 317.2 658.8 L 370.2 658.8 L 343.7 703.8 Z M 375.0 656.1 L 312.3 656.1 L 343.7 709.2 Z M 375.0 656.1 " fill="#FFFFFF"></path><path d="M 201.8 658.8 L 256.8 658.8 L 284.4 705.6 L 256.9 752.2 Z M 258.4 656.1 L 196.9 656.1 L 256.9 757.7 L 287.6 705.6 Z M 258.4 656.1 " fill="#FFFFFF"></path><path d="M 260.0 658.8 L 312.0 658.8 L 286.0 702.9 Z M 316.8 656.1 L 255.1 656.1 L 286.0 708.3 Z M 316.8 656.1 " fill="#FFFFFF"></path></g></g></g></g></g></g></g><g><clipPath id="clip-456"><path d="M 429.9 571.3 L 199.1 571.3 L 198.9 571.3 L 198.9 571.0 L 198.9 570.1 L 198.9 569.9 L 199.1 569.9 L 429.9 569.9 L 430.1 569.9 L 430.1 570.1 L 430.1 571.0 L 430.1 571.3 Z M 429.9 571.3 "></path></clipPath><g clip-path="url(#clip-456)"><g><clipPath id="clip-457"><path d="M 153.0 533.0 L 476.0 533.0 L 476.0 777.0 L 153.0 777.0 Z M 153.0 533.0 "></path></clipPath><g clip-path="url(#clip-457)"><path d="M 194.5 565.5 L 434.5 565.5 L 434.5 575.7 L 194.5 575.7 Z M 194.5 565.5 " fill="#FFFFFF"></path></g></g></g></g><g><clipPath id="clip-458"><path d="M 189.0 560.0 L 440.0 560.0 L 440.0 581.2 L 189.0 581.2 Z M 199.1 571.0 L 429.9 571.0 L 429.9 570.1 L 199.1 570.1 Z M 199.1 571.0 "></path></clipPath><g clip-path="url(#clip-458)"><g><clipPath id="clip-459"><path d="M 153.0 533.0 L 476.0 533.0 L 476.0 777.0 L 153.0 777.0 Z M 153.0 533.0 "></path></clipPath><g clip-path="url(#clip-459)"><path d="M 430.8 569.2 L 198.2 569.2 L 198.2 572.0 L 430.8 572.0 Z M 430.8 569.2 " fill="#FFFFFF"></path></g></g></g></g></g></g></g></g></g><g><clipPath id="clip-460"><path d="M 52.4 189.1 L 332.4 189.1 L 332.4 362.1 L 52.4 362.1 Z M 52.4 189.1 "></path></clipPath><g clip-path="url(#clip-460)"><text xml:space="preserve" font-family="Roboto-Thin" font-size="55.0" fill="#3F3F3F" transform="matrix(1.00, 0.00, -0.00, -1.00, 68.0, 295.0)">L</text><text xml:space="preserve" font-family="Roboto-Thin" font-size="55.0" fill="#3F3F3F" transform="matrix(1.00, 0.00, -0.00, -1.00, 96.4, 295.0)">a</text><text xml:space="preserve" font-family="Roboto-Thin" font-size="55.0" fill="#3F3F3F" transform="matrix(1.00, 0.00, -0.00, -1.00, 125.4, 295.0)">n</text><text xml:space="preserve" font-family="Roboto-Thin" font-size="55.0" fill="#3F3F3F" transform="matrix(1.00, 0.00, -0.00, -1.00, 155.5, 295.0)">d</text><text xml:space="preserve" font-family="Roboto-Thin" font-size="55.0" fill="#3F3F3F" transform="matrix(1.00, 0.00, -0.00, -1.00, 185.6, 295.0)">i</text><text xml:space="preserve" font-family="Roboto-Thin" font-size="55.0" fill="#3F3F3F" transform="matrix(1.00, 0.00, -0.00, -1.00, 197.0, 295.0)">n</text><text xml:space="preserve" font-family="Roboto-Thin" font-size="55.0" fill="#3F3F3F" transform="matrix(1.00, 0.00, -0.00, -1.00, 227.1, 295.0)">g</text><text xml:space="preserve" font-family="Roboto-Thin" font-size="55.0" fill="#3F3F3F" transform="matrix(1.00, 0.00, -0.00, -1.00, 257.3, 295.0)"> </text><text xml:space="preserve" font-family="Roboto-Thin" font-size="55.0" fill="#3F3F3F" transform="matrix(1.00, 0.00, -0.00, -1.00, 68.0, 225.0)">P</text><text xml:space="preserve" font-family="Roboto-Thin" font-size="55.0" fill="#3F3F3F" transform="matrix(1.00, 0.00, -0.00, -1.00, 100.7, 225.0)">a</text><text xml:space="preserve" font-family="Roboto-Thin" font-size="55.0" fill="#3F3F3F" transform="matrix(1.00, 0.00, -0.00, -1.00, 129.8, 225.0)">g</text><text xml:space="preserve" font-family="Roboto-Thin" font-size="55.0" fill="#3F3F3F" transform="matrix(1.00, 0.00, -0.00, -1.00, 159.9, 225.0)">e</text></g></g></g></svg>