<?xml version="1.0" encoding="UTF-8" standalone="no"?><svg xmlns="http://www.w3.org/2000/svg" xmlns:xlink="http://www.w3.org/1999/xlink" clip-rule="evenodd" stroke-miterlimit="4.00" viewBox="0 0 1920 1080"><desc>SVG generated by Keynote</desc><defs><pattern id="1E21CE5A-3557-42A3-A5CF-4F0D7E326D3A" patternUnits="userSpaceOnUse" width="600" height="600" viewBox="0 0 600 600" patternTransform="matrix(0.500000, 0.000000, 0.000000, -0.500000, 1314.364000, 936.454000)"><image xlink:href="../../E01699BB-C0D1-4305-AE93-C866749E9FD9/assets/3B125388B1C2690D02541E1FFAB050B1.jpeg" width="600.00" height="600.00"></image></pattern></defs><g transform="matrix(1.00, 0.00, -0.00, -1.00, 0.0, 1080.0)"><path d="M 0.0 1080.0 L 1920.0 1080.0 L 1920.0 0.0 L 0.0 0.0 Z M 0.0 1080.0 " fill="#FEFFFF"></path><g><clipPath id="clip-497"><path d="M 1288.7 122.7 L 1707.6 122.7 L 1707.6 238.1 L 1288.7 238.1 Z M 1288.7 122.7 "></path></clipPath><g clip-path="url(#clip-497)"><text xml:space="preserve" font-family="Roboto-Regular" font-size="28.0" fill="#3F3F3F" transform="matrix(1.00, 0.00, -0.00, -1.00, 1297.0, 204.0)">S</text><text xml:space="preserve" font-family="Roboto-Regular" font-size="28.0" fill="#3F3F3F" transform="matrix(1.00, 0.00, -0.00, -1.00, 1313.6, 204.0)">e</text><text xml:space="preserve" font-family="Roboto-Regular" font-size="28.0" fill="#3F3F3F" transform="matrix(1.00, 0.00, -0.00, -1.00, 1328.4, 204.0)">t</text><text xml:space="preserve" font-family="Roboto-Regular" font-size="28.0" fill="#3F3F3F" transform="matrix(1.00, 0.00, -0.00, -1.00, 1337.6, 204.0)">t</text><text xml:space="preserve" font-family="Roboto-Regular" font-size="28.0" fill="#3F3F3F" transform="matrix(1.00, 0.00, -0.00, -1.00, 1346.7, 204.0)">i</text><text xml:space="preserve" font-family="Roboto-Regular" font-size="28.0" fill="#3F3F3F" transform="matrix(1.00, 0.00, -0.00, -1.00, 1353.5, 204.0)">n</text><text xml:space="preserve" font-family="Roboto-Regular" font-size="28.0" fill="#3F3F3F" transform="matrix(1.00, 0.00, -0.00, -1.00, 1369.0, 204.0)">g</text><text xml:space="preserve" font-family="Roboto-Regular" font-size="28.0" fill="#3F3F3F" transform="matrix(1.00, 0.00, -0.00, -1.00, 1384.7, 204.0)"> </text><text xml:space="preserve" font-family="Roboto-Regular" font-size="28.0" fill="#3F3F3F" transform="matrix(1.00, 0.00, -0.00, -1.00, 1391.6, 204.0)">u</text><text xml:space="preserve" font-family="Roboto-Regular" font-size="28.0" fill="#3F3F3F" transform="matrix(1.00, 0.00, -0.00, -1.00, 1407.0, 204.0)">p</text><text xml:space="preserve" font-family="Roboto-Regular" font-size="28.0" fill="#3F3F3F" transform="matrix(1.00, 0.00, -0.00, -1.00, 1422.7, 204.0)"> </text><text xml:space="preserve" font-family="Roboto-Regular" font-size="28.0" fill="#3F3F3F" transform="matrix(1.00, 0.00, -0.00, -1.00, 1429.7, 204.0)">a</text><text xml:space="preserve" font-family="Roboto-Regular" font-size="28.0" fill="#3F3F3F" transform="matrix(1.00, 0.00, -0.00, -1.00, 1444.9, 204.0)"> </text><text xml:space="preserve" font-family="Roboto-Regular" font-size="28.0" fill="#3F3F3F" transform="matrix(1.00, 0.00, -0.00, -1.00, 1451.8, 204.0)">l</text><text xml:space="preserve" font-family="Roboto-Regular" font-size="28.0" fill="#3F3F3F" transform="matrix(1.00, 0.00, -0.00, -1.00, 1458.6, 204.0)">a</text><text xml:space="preserve" font-family="Roboto-Regular" font-size="28.0" fill="#3F3F3F" transform="matrix(1.00, 0.00, -0.00, -1.00, 1473.8, 204.0)">n</text><text xml:space="preserve" font-family="Roboto-Regular" font-size="28.0" fill="#3F3F3F" transform="matrix(1.00, 0.00, -0.00, -1.00, 1489.3, 204.0)">d</text><text xml:space="preserve" font-family="Roboto-Regular" font-size="28.0" fill="#3F3F3F" transform="matrix(1.00, 0.00, -0.00, -1.00, 1505.1, 204.0)">i</text><text xml:space="preserve" font-family="Roboto-Regular" font-size="28.0" fill="#3F3F3F" transform="matrix(1.00, 0.00, -0.00, -1.00, 1511.8, 204.0)">n</text><text xml:space="preserve" font-family="Roboto-Regular" font-size="28.0" fill="#3F3F3F" transform="matrix(1.00, 0.00, -0.00, -1.00, 1527.3, 204.0)">g</text><text xml:space="preserve" font-family="Roboto-Regular" font-size="28.0" fill="#3F3F3F" transform="matrix(1.00, 0.00, -0.00, -1.00, 1543.0, 204.0)"> </text><text xml:space="preserve" font-family="Roboto-Regular" font-size="28.0" fill="#3F3F3F" transform="matrix(1.00, 0.00, -0.00, -1.00, 1549.9, 204.0)">p</text><text xml:space="preserve" font-family="Roboto-Regular" font-size="28.0" fill="#3F3F3F" transform="matrix(1.00, 0.00, -0.00, -1.00, 1565.6, 204.0)">a</text><text xml:space="preserve" font-family="Roboto-Regular" font-size="28.0" fill="#3F3F3F" transform="matrix(1.00, 0.00, -0.00, -1.00, 1580.9, 204.0)">g</text><text xml:space="preserve" font-family="Roboto-Regular" font-size="28.0" fill="#3F3F3F" transform="matrix(1.00, 0.00, -0.00, -1.00, 1596.6, 204.0)">e</text><text xml:space="preserve" font-family="Roboto-Regular" font-size="28.0" fill="#3F3F3F" transform="matrix(1.00, 0.00, -0.00, -1.00, 1611.4, 204.0)"> </text><text xml:space="preserve" font-family="Roboto-Regular" font-size="28.0" fill="#3F3F3F" transform="matrix(1.00, 0.00, -0.00, -1.00, 1618.3, 204.0)">w</text><text xml:space="preserve" font-family="Roboto-Regular" font-size="28.0" fill="#3F3F3F" transform="matrix(1.00, 0.00, -0.00, -1.00, 1639.4, 204.0)">i</text><text xml:space="preserve" font-family="Roboto-Regular" font-size="28.0" fill="#3F3F3F" transform="matrix(1.00, 0.00, -0.00, -1.00, 1646.1, 204.0)">t</text><text xml:space="preserve" font-family="Roboto-Regular" font-size="28.0" fill="#3F3F3F" transform="matrix(1.00, 0.00, -0.00, -1.00, 1655.3, 204.0)">h</text><text xml:space="preserve" font-family="Roboto-Regular" font-size="28.0" fill="#3F3F3F" transform="matrix(1.00, 0.00, -0.00, -1.00, 1670.7, 204.0)"> </text><text xml:space="preserve" font-family="Roboto-Regular" font-size="28.0" fill="#3F3F3F" transform="matrix(1.00, 0.00, -0.00, -1.00, 1297.0, 171.0)">p</text><text xml:space="preserve" font-family="Roboto-Regular" font-size="28.0" fill="#3F3F3F" transform="matrix(1.00, 0.00, -0.00, -1.00, 1312.7, 171.0)">r</text><text xml:space="preserve" font-family="Roboto-Regular" font-size="28.0" fill="#3F3F3F" transform="matrix(1.00, 0.00, -0.00, -1.00, 1321.9, 171.0)">e</text><text xml:space="preserve" font-family="Roboto-Regular" font-size="28.0" fill="#3F3F3F" transform="matrix(1.00, 0.00, -0.00, -1.00, 1336.8, 171.0)">-</text><text xml:space="preserve" font-family="Roboto-Regular" font-size="28.0" fill="#3F3F3F" transform="matrix(1.00, 0.00, -0.00, -1.00, 1344.5, 171.0)">r</text><text xml:space="preserve" font-family="Roboto-Regular" font-size="28.0" fill="#3F3F3F" transform="matrix(1.00, 0.00, -0.00, -1.00, 1353.7, 171.0)">e</text><text xml:space="preserve" font-family="Roboto-Regular" font-size="28.0" fill="#3F3F3F" transform="matrix(1.00, 0.00, -0.00, -1.00, 1368.5, 171.0)">g</text><text xml:space="preserve" font-family="Roboto-Regular" font-size="28.0" fill="#3F3F3F" transform="matrix(1.00, 0.00, -0.00, -1.00, 1384.2, 171.0)">i</text><text xml:space="preserve" font-family="Roboto-Regular" font-size="28.0" fill="#3F3F3F" transform="matrix(1.00, 0.00, -0.00, -1.00, 1391.0, 171.0)">s</text><text xml:space="preserve" font-family="Roboto-Regular" font-size="28.0" fill="#3F3F3F" transform="matrix(1.00, 0.00, -0.00, -1.00, 1405.5, 171.0)">t</text><text xml:space="preserve" font-family="Roboto-Regular" font-size="28.0" fill="#3F3F3F" transform="matrix(1.00, 0.00, -0.00, -1.00, 1414.6, 171.0)">e</text><text xml:space="preserve" font-family="Roboto-Regular" font-size="28.0" fill="#3F3F3F" transform="matrix(1.00, 0.00, -0.00, -1.00, 1429.4, 171.0)">r</text><text xml:space="preserve" font-family="Roboto-Regular" font-size="28.0" fill="#3F3F3F" transform="matrix(1.00, 0.00, -0.00, -1.00, 1438.7, 171.0)">e</text><text xml:space="preserve" font-family="Roboto-Regular" font-size="28.0" fill="#3F3F3F" transform="matrix(1.00, 0.00, -0.00, -1.00, 1453.5, 171.0)">d</text><text xml:space="preserve" font-family="Roboto-Regular" font-size="28.0" fill="#3F3F3F" transform="matrix(1.00, 0.00, -0.00, -1.00, 1469.3, 171.0)"> </text><text xml:space="preserve" font-family="Roboto-Regular" font-size="28.0" fill="#3F3F3F" transform="matrix(1.00, 0.00, -0.00, -1.00, 1476.2, 171.0)">i</text><text xml:space="preserve" font-family="Roboto-Regular" font-size="28.0" fill="#3F3F3F" transform="matrix(1.00, 0.00, -0.00, -1.00, 1483.0, 171.0)">t</text><text xml:space="preserve" font-family="Roboto-Regular" font-size="28.0" fill="#3F3F3F" transform="matrix(1.00, 0.00, -0.00, -1.00, 1492.1, 171.0)">e</text><text xml:space="preserve" font-family="Roboto-Regular" font-size="28.0" fill="#3F3F3F" transform="matrix(1.00, 0.00, -0.00, -1.00, 1506.9, 171.0)">m</text><text xml:space="preserve" font-family="Roboto-Regular" font-size="28.0" fill="#3F3F3F" transform="matrix(1.00, 0.00, -0.00, -1.00, 1531.5, 171.0)">s</text><text xml:space="preserve" font-family="Roboto-Regular" font-size="28.0" fill="#3F3F3F" transform="matrix(1.00, 0.00, -0.00, -1.00, 1545.9, 171.0)"> </text><text xml:space="preserve" font-family="Roboto-Regular" font-size="28.0" fill="#3F3F3F" transform="matrix(1.00, 0.00, -0.00, -1.00, 1552.8, 171.0)">a</text><text xml:space="preserve" font-family="Roboto-Regular" font-size="28.0" fill="#3F3F3F" transform="matrix(1.00, 0.00, -0.00, -1.00, 1568.1, 171.0)">n</text><text xml:space="preserve" font-family="Roboto-Regular" font-size="28.0" fill="#3F3F3F" transform="matrix(1.00, 0.00, -0.00, -1.00, 1583.5, 171.0)">d</text><text xml:space="preserve" font-family="Roboto-Regular" font-size="28.0" fill="#3F3F3F" transform="matrix(1.00, 0.00, -0.00, -1.00, 1599.3, 171.0)"> </text><text xml:space="preserve" font-family="Roboto-Regular" font-size="28.0" fill="#3F3F3F" transform="matrix(1.00, 0.00, -0.00, -1.00, 1606.2, 171.0)">t</text><text xml:space="preserve" font-family="Roboto-Regular" font-size="28.0" fill="#3F3F3F" transform="matrix(1.00, 0.00, -0.00, -1.00, 1615.4, 171.0)">e</text><text xml:space="preserve" font-family="Roboto-Regular" font-size="28.0" fill="#3F3F3F" transform="matrix(1.00, 0.00, -0.00, -1.00, 1630.2, 171.0)">s</text><text xml:space="preserve" font-family="Roboto-Regular" font-size="28.0" fill="#3F3F3F" transform="matrix(1.00, 0.00, -0.00, -1.00, 1644.6, 171.0)">t</text><text xml:space="preserve" font-family="Roboto-Regular" font-size="28.0" fill="#3F3F3F" transform="matrix(1.00, 0.00, -0.00, -1.00, 1653.8, 171.0)"> </text><text xml:space="preserve" font-family="Roboto-Regular" font-size="28.0" fill="#3F3F3F" transform="matrix(1.00, 0.00, -0.00, -1.00, 1297.0, 138.0)">t</text><text xml:space="preserve" font-family="Roboto-Regular" font-size="28.0" fill="#3F3F3F" transform="matrix(1.00, 0.00, -0.00, -1.00, 1306.1, 138.0)">h</text><text xml:space="preserve" font-family="Roboto-Regular" font-size="28.0" fill="#3F3F3F" transform="matrix(1.00, 0.00, -0.00, -1.00, 1321.6, 138.0)">e</text><text xml:space="preserve" font-family="Roboto-Regular" font-size="28.0" fill="#3F3F3F" transform="matrix(1.00, 0.00, -0.00, -1.00, 1336.4, 138.0)"> </text><text xml:space="preserve" font-family="Roboto-Regular" font-size="28.0" fill="#3F3F3F" transform="matrix(1.00, 0.00, -0.00, -1.00, 1343.3, 138.0)">t</text><text xml:space="preserve" font-family="Roboto-Regular" font-size="28.0" fill="#3F3F3F" transform="matrix(1.00, 0.00, -0.00, -1.00, 1352.4, 138.0)">r</text><text xml:space="preserve" font-family="Roboto-Regular" font-size="28.0" fill="#3F3F3F" transform="matrix(1.00, 0.00, -0.00, -1.00, 1361.4, 138.0)">a</text><text xml:space="preserve" font-family="Roboto-Regular" font-size="28.0" fill="#3F3F3F" transform="matrix(1.00, 0.00, -0.00, -1.00, 1376.6, 138.0)">d</text><text xml:space="preserve" font-family="Roboto-Regular" font-size="28.0" fill="#3F3F3F" transform="matrix(1.00, 0.00, -0.00, -1.00, 1392.4, 138.0)">e</text><text xml:space="preserve" font-family="Roboto-Regular" font-size="28.0" fill="#3F3F3F" transform="matrix(1.00, 0.00, -0.00, -1.00, 1407.2, 138.0)"> </text><text xml:space="preserve" font-family="Roboto-Regular" font-size="28.0" fill="#3F3F3F" transform="matrix(1.00, 0.00, -0.00, -1.00, 1414.1, 138.0)">i</text><text xml:space="preserve" font-family="Roboto-Regular" font-size="28.0" fill="#3F3F3F" transform="matrix(1.00, 0.00, -0.00, -1.00, 1420.9, 138.0)">n</text><text xml:space="preserve" font-family="Roboto-Regular" font-size="28.0" fill="#3F3F3F" transform="matrix(1.00, 0.00, -0.00, -1.00, 1436.4, 138.0)">t</text><text xml:space="preserve" font-family="Roboto-Regular" font-size="28.0" fill="#3F3F3F" transform="matrix(1.00, 0.00, -0.00, -1.00, 1445.5, 138.0)">e</text><text xml:space="preserve" font-family="Roboto-Regular" font-size="28.0" fill="#3F3F3F" transform="matrix(1.00, 0.00, -0.00, -1.00, 1460.3, 138.0)">n</text><text xml:space="preserve" font-family="Roboto-Regular" font-size="28.0" fill="#3F3F3F" transform="matrix(1.00, 0.00, -0.00, -1.00, 1475.8, 138.0)">t</text><text xml:space="preserve" font-family="Roboto-Regular" font-size="28.0" fill="#3F3F3F" transform="matrix(1.00, 0.00, -0.00, -1.00, 1484.9, 138.0)">.</text></g></g><g><clipPath id="clip-498"><path d="M 1233.2 596.7 L 1550.6 596.7 L 1550.6 612.6 L 1233.2 612.6 Z M 1233.2 596.7 "></path></clipPath><g clip-path="url(#clip-498)"><path d="M 1234.2 605.9 C 1234.2 603.4 1244.9 597.7 1262.0 597.7 C 1279.1 597.7 1549.6 597.7 1549.6 597.7 C 1549.6 611.6 1549.6 611.6 1549.6 611.6 C 1234.2 611.6 1234.2 611.6 1234.2 611.6 L 1234.2 605.9 Z M 1234.2 605.9 " fill="#B3B4B4"></path></g></g><g><clipPath id="clip-499"><path d="M 1544.0 596.7 L 1861.4 596.7 L 1861.4 612.6 L 1544.0 612.6 Z M 1544.0 596.7 "></path></clipPath><g clip-path="url(#clip-499)"><path d="M 1860.4 605.9 C 1860.4 603.4 1849.7 597.7 1832.6 597.7 C 1815.4 597.7 1545.0 597.7 1545.0 597.7 C 1545.0 611.6 1545.0 611.6 1545.0 611.6 C 1860.4 611.6 1860.4 611.6 1860.4 611.6 L 1860.4 605.9 Z M 1860.4 605.9 " fill="#B3B4B4"></path></g></g><g><clipPath id="clip-500"><path d="M 1294.2 608.8 L 1805.4 608.8 L 1805.4 959.8 L 1294.2 959.8 Z M 1294.2 608.8 "></path></clipPath><g clip-path="url(#clip-500)"><path d="M 1312.0 612.3 C 1304.1 612.3 1297.7 618.7 1297.7 626.6 C 1297.7 942.1 1297.7 942.1 1297.7 942.1 C 1297.7 949.9 1304.1 956.3 1312.0 956.3 C 1787.3 956.3 1787.3 956.3 1787.3 956.3 C 1795.5 956.3 1801.9 949.9 1801.9 942.1 C 1801.9 626.6 1801.9 626.6 1801.9 626.6 C 1801.9 618.7 1795.5 612.3 1787.3 612.3 L 1312.0 612.3 Z M 1312.0 612.3 " fill="#3F3F3F"></path><path d="M 14.3 344.0 C 6.4 344.0 0.0 337.6 0.0 329.8 C 0.0 14.3 0.0 14.3 0.0 14.3 C 0.0 6.4 6.4 0.0 14.3 0.0 C 489.5 0.0 489.5 0.0 489.5 0.0 C 497.7 0.0 504.2 6.4 504.2 14.3 C 504.2 329.8 504.2 329.8 504.2 329.8 C 504.2 337.6 497.7 344.0 489.5 344.0 L 14.3 344.0 Z M 14.3 344.0 " fill="none" stroke="#BFBFBF" stroke-width="5.00" stroke-linejoin="round" transform="matrix(1.00, 0.00, 0.00, -1.00, 1297.7, 956.3)"></path></g></g><g><clipPath id="clip-501"><path d="M 1233.2 604.9 L 1861.4 604.9 L 1861.4 618.3 L 1233.2 618.3 Z M 1233.2 604.9 "></path></clipPath><g clip-path="url(#clip-501)"><path d="M 1234.2 617.3 L 1860.4 617.3 L 1860.4 605.9 L 1234.2 605.9 Z M 1234.2 617.3 " fill="#F2F2F2"></path></g></g><g><clipPath id="clip-502"><path d="M 1501.2 609.9 L 1593.1 609.9 L 1593.1 618.3 L 1501.2 618.3 Z M 1501.2 609.9 "></path></clipPath><g clip-path="url(#clip-502)"><path d="M 1502.2 617.3 C 1502.9 613.7 1506.1 610.9 1510.0 610.9 C 1584.2 610.9 1584.2 610.9 1584.2 610.9 C 1588.2 610.9 1591.4 613.7 1592.1 617.3 L 1502.2 617.3 Z M 1502.2 617.3 " fill="#B3B4B4"></path></g></g><g><clipPath id="clip-503"><path d="M 1313.5 636.3 L 1786.1 636.3 L 1786.1 935.6 L 1313.5 935.6 Z M 1313.5 636.3 "></path></clipPath><g clip-path="url(#clip-503)"><path d="M 1314.5 934.6 L 1785.1 934.6 L 1785.1 637.3 L 1314.5 637.3 Z M 1314.5 934.6 " fill="#F2F2F2"></path></g></g><g><clipPath id="clip-504"><path d="M 1546.1 941.5 L 1554.0 941.5 L 1554.0 949.4 L 1546.1 949.4 Z M 1546.1 941.5 "></path></clipPath><g clip-path="url(#clip-504)"><path d="M 1552.1 947.5 C 1553.2 946.4 1553.2 944.5 1552.1 943.4 C 1551.0 942.3 1549.1 942.3 1548.0 943.4 C 1546.8 944.5 1546.8 946.4 1548.0 947.5 C 1549.1 948.7 1551.0 948.7 1552.1 947.5 Z M 1552.1 947.5 " fill="#F2F2F2"></path></g></g><g><clipPath id="clip-505"><path d="M 1310.4 631.4 L 1791.4 631.4 L 1791.4 938.5 L 1310.4 938.5 Z M 1310.4 631.4 "></path></clipPath><g clip-path="url(#clip-505)"><image xlink:href="../../D3D482FE-91A6-4891-AAEF-FCD385F432AD/assets/F603DC58F301F7EF89716F96EC004664.png" width="479.00" height="305.00" transform="matrix(1.00, 0.00, -0.00, -1.00, 1311.4, 937.5)" opacity="0.50"></image></g></g><g><clipPath id="clip-506"><path d="M 1314.4 936.5 L 1787.4 936.5 L 1787.4 637.4 L 1314.4 637.4 Z M 1314.4 936.5 "></path></clipPath><g clip-path="url(#clip-506)"><g><clipPath id="clip-507"><path d="M 1310.4 631.4 L 1791.4 631.4 L 1791.4 938.5 L 1310.4 938.5 Z M 1310.4 631.4 "></path></clipPath><g clip-path="url(#clip-507)"><path d="M 1314.4 637.4 L 1787.4 637.4 L 1787.4 936.5 L 1314.4 936.5 Z M 1314.4 637.4 " fill="url(#1E21CE5A-3557-42A3-A5CF-4F0D7E326D3A)"></path><path d="M 1314.4 936.5 L 1787.4 936.5 L 1787.4 637.4 L 1314.4 637.4 Z M 1314.4 936.5 " fill="#52575F" fill-opacity="0.50"></path></g></g></g></g><g><clipPath id="clip-508"><path d="M 1386.0 899.0 L 1709.0 899.0 L 1709.0 655.0 L 1386.0 655.0 Z M 1386.0 899.1 "></path></clipPath><g clip-path="url(#clip-508)"><g><clipPath id="clip-509"><path d="M 1386.0 654.9 L 1708.7 654.9 L 1708.7 899.1 L 1386.0 899.1 Z M 1386.0 654.9 "></path></clipPath><g clip-path="url(#clip-509)"><g><g><clipPath id="clip-510"><path d="M 1386.0 1023.0 L 1709.0 1023.0 L 1709.0 470.0 L 1386.0 470.0 Z M 1386.0 1023.0 "></path></clipPath><g clip-path="url(#clip-510)"><g><clipPath id="clip-511"><path d="M 1386.0 655.0 L 1709.0 655.0 L 1709.0 899.0 L 1386.0 899.0 Z M 1386.0 655.0 "></path></clipPath><g clip-path="url(#clip-511)"><path d="M 1449.0 713.3 C 1445.9 713.3 1443.5 714.3 1441.9 716.3 C 1440.4 718.3 1439.7 721.1 1439.7 724.8 L 1439.7 745.4 C 1439.7 749.1 1440.4 751.9 1441.9 753.8 C 1443.5 755.8 1445.9 756.8 1449.0 756.8 C 1452.1 756.8 1454.4 755.8 1456.0 753.8 C 1457.5 751.9 1458.3 749.1 1458.3 745.4 L 1458.3 744.4 L 1456.2 744.4 L 1456.2 745.4 C 1456.2 747.5 1456.0 749.2 1455.5 750.4 C 1455.0 751.7 1454.4 752.6 1453.7 753.3 C 1453.0 753.9 1452.2 754.3 1451.4 754.5 C 1450.6 754.7 1449.8 754.8 1449.0 754.8 C 1448.2 754.8 1447.4 754.7 1446.5 754.5 C 1445.7 754.3 1444.9 753.9 1444.2 753.3 C 1443.5 752.6 1442.9 751.7 1442.4 750.4 C 1441.9 749.2 1441.7 747.5 1441.7 745.4 L 1441.7 724.8 C 1441.7 721.6 1442.3 719.2 1443.6 717.6 C 1444.7 716.1 1446.5 715.3 1449.0 715.3 C 1451.4 715.3 1453.2 716.1 1454.3 717.6 C 1455.6 719.2 1456.2 721.6 1456.2 724.8 L 1456.2 730.5 L 1446.8 730.5 L 1446.8 732.5 L 1458.3 732.5 L 1458.3 724.8 C 1458.3 721.1 1457.5 718.2 1456.0 716.3 C 1454.4 714.3 1452.1 713.3 1449.0 713.3 " fill="#FFFFFF"></path><path d="M 1463.3 756.8 L 1465.3 756.8 L 1465.3 713.3 L 1463.3 713.3 Z M 1463.3 756.8 " fill="#FFFFFF"></path><path d="M 1491.2 756.9 L 1480.3 713.4 L 1478.8 713.4 L 1467.8 756.9 L 1469.9 756.9 L 1479.5 718.5 L 1489.1 756.9 Z M 1491.2 756.9 " fill="#FFFFFF"></path><path d="M 1496.4 754.8 L 1496.4 736.1 L 1510.0 736.1 L 1510.0 734.1 L 1496.4 734.1 L 1496.4 715.3 L 1510.0 715.3 L 1510.0 713.3 L 1494.4 713.3 L 1494.4 756.8 L 1510.0 756.8 L 1510.0 754.8 Z M 1496.4 754.8 " fill="#FFFFFF"></path><path d="M 1533.2 748.0 C 1533.2 747.1 1533.4 746.2 1533.6 745.3 C 1533.9 744.4 1534.2 743.5 1534.5 742.6 C 1534.9 741.7 1535.3 741.0 1535.7 740.2 C 1536.1 739.5 1536.5 738.9 1536.8 738.4 C 1537.0 738.6 1537.2 738.9 1537.4 739.2 C 1537.6 739.5 1537.9 739.8 1538.1 740.2 C 1539.4 742.4 1540.1 745.0 1540.1 748.0 C 1540.1 749.4 1540.0 750.5 1539.8 751.4 C 1539.6 752.3 1539.4 753.0 1539.1 753.5 C 1538.9 754.0 1538.5 754.4 1538.1 754.5 C 1537.6 754.7 1537.2 754.8 1536.6 754.8 C 1536.2 754.8 1535.7 754.7 1535.3 754.6 C 1534.9 754.4 1534.6 754.1 1534.3 753.6 C 1534.0 753.2 1533.7 752.5 1533.5 751.6 C 1533.3 750.7 1533.2 749.5 1533.2 748.0 M 1534.4 733.4 C 1533.6 732.8 1532.9 732.2 1532.2 731.5 C 1531.6 730.9 1531.0 730.3 1530.5 729.5 C 1530.0 728.8 1529.6 728.0 1529.3 727.2 C 1529.0 726.3 1528.9 725.2 1528.9 724.0 C 1528.9 723.0 1529.0 721.9 1529.3 720.8 C 1529.6 719.8 1530.1 718.8 1530.8 718.0 C 1531.4 717.2 1532.2 716.6 1533.2 716.1 C 1534.2 715.6 1535.3 715.3 1536.6 715.3 C 1540.7 715.3 1543.6 716.8 1545.4 719.9 L 1536.4 735.2 C 1536.0 734.9 1535.7 734.6 1535.4 734.3 C 1535.1 734.0 1534.7 733.7 1534.4 733.4 M 1536.6 713.3 C 1533.6 713.3 1531.2 714.4 1529.5 716.5 C 1527.8 718.5 1526.9 721.0 1526.9 724.0 C 1526.9 725.4 1527.1 726.7 1527.4 727.8 C 1527.8 728.8 1528.2 729.8 1528.8 730.6 C 1529.4 731.5 1530.0 732.2 1530.8 732.9 C 1531.6 733.6 1532.3 734.3 1533.1 735.0 C 1533.4 735.3 1533.8 735.7 1534.2 736.0 C 1534.6 736.3 1535.0 736.7 1535.4 737.0 C 1535.0 737.4 1534.7 738.1 1534.2 738.9 C 1533.7 739.7 1533.3 740.6 1532.8 741.6 C 1532.3 742.6 1532.0 743.6 1531.6 744.7 C 1531.3 745.8 1531.2 746.9 1531.2 748.0 C 1531.2 749.4 1531.3 750.7 1531.4 751.7 C 1531.6 752.7 1531.9 753.6 1532.3 754.3 C 1533.2 756.0 1534.6 756.8 1536.6 756.8 C 1538.8 756.8 1540.4 755.8 1541.2 753.8 C 1541.6 753.0 1541.9 752.0 1542.0 750.9 C 1542.1 749.9 1542.1 748.9 1542.1 748.0 C 1542.1 746.4 1542.0 745.0 1541.7 743.8 C 1541.3 742.5 1541.0 741.4 1540.5 740.5 C 1540.1 739.5 1539.6 738.7 1539.1 738.1 C 1538.6 737.5 1538.2 737.0 1537.9 736.7 L 1546.4 722.2 C 1547.0 723.8 1547.4 725.5 1547.5 727.2 C 1547.6 729.0 1547.7 730.5 1547.7 731.9 L 1547.7 732.5 L 1549.8 732.5 L 1549.8 731.9 C 1549.8 730.3 1549.7 728.4 1549.4 726.2 C 1549.2 724.1 1548.7 722.0 1547.8 720.1 C 1547.8 720.1 1547.7 720.0 1547.7 720.0 C 1547.7 720.0 1547.7 720.0 1547.7 720.0 L 1551.6 713.3 L 1549.2 713.3 L 1546.5 718.0 C 1544.3 714.9 1541.0 713.3 1536.6 713.3 " fill="#FFFFFF"></path><path d="M 1591.4 754.8 L 1580.9 754.8 L 1580.9 713.4 L 1578.9 713.4 L 1578.9 754.8 L 1568.5 754.8 L 1568.5 756.9 L 1591.4 756.9 Z M 1591.4 754.8 " fill="#FFFFFF"></path><path d="M 1605.5 751.3 L 1600.3 728.6 L 1610.8 728.6 Z M 1596.8 713.3 L 1594.7 713.3 L 1598.1 728.4 L 1598.1 728.6 L 1604.7 756.8 L 1606.3 756.8 L 1616.3 713.3 L 1614.2 713.3 L 1611.3 726.6 L 1599.8 726.6 Z M 1596.8 713.3 " fill="#FFFFFF"></path><path d="M 1625.7 736.9 L 1639.0 713.3 L 1636.7 713.3 L 1624.4 734.9 L 1620.0 728.4 L 1620.0 713.3 L 1618.0 713.3 L 1618.0 756.8 L 1620.0 756.8 L 1620.0 732.1 L 1636.6 756.8 L 1639.0 756.8 Z M 1625.7 736.9 " fill="#FFFFFF"></path><path d="M 1643.4 754.8 L 1643.4 736.1 L 1657.0 736.1 L 1657.0 734.1 L 1643.4 734.1 L 1643.4 715.3 L 1657.0 715.3 L 1657.0 713.3 L 1641.4 713.3 L 1641.4 756.8 L 1657.0 756.8 L 1657.0 754.8 Z M 1643.4 754.8 " fill="#FFFFFF"></path></g></g></g></g><g><clipPath id="clip-512"><path d="M 1386.0 1023.0 L 1709.0 1023.0 L 1709.0 470.0 L 1386.0 470.0 Z M 1386.0 1023.0 "></path></clipPath><g clip-path="url(#clip-512)"><g><clipPath id="clip-513"><path d="M 1386.0 655.0 L 1709.0 655.0 L 1709.0 899.0 L 1386.0 899.0 Z M 1386.0 655.0 "></path></clipPath><g clip-path="url(#clip-513)"><g><g><clipPath id="clip-514"><path d="M 1429.4 777.8 L 1665.6 777.8 L 1665.6 880.1 L 1429.4 880.1 Z M 1429.4 777.8 "></path></clipPath><g clip-path="url(#clip-514)"><path d="M 1520.6 827.6 L 1547.6 781.8 L 1575.1 828.5 L 1548.1 874.2 Z M 1548.6 778.1 L 1546.6 778.1 L 1517.4 827.6 L 1548.1 879.7 L 1578.3 828.5 Z M 1548.6 778.1 " fill="#FFFFFF"></path><path d="M 1606.4 780.8 L 1660.4 780.8 L 1605.3 874.2 L 1578.3 828.5 Z M 1665.2 778.1 L 1604.8 778.1 L 1575.1 828.5 L 1605.3 879.7 Z M 1665.2 778.1 " fill="#FFFFFF"></path><path d="M 1550.2 780.8 L 1603.2 780.8 L 1576.7 825.8 Z M 1608.0 778.1 L 1545.3 778.1 L 1576.7 831.2 Z M 1608.0 778.1 " fill="#FFFFFF"></path><path d="M 1434.8 780.8 L 1489.8 780.8 L 1517.4 827.6 L 1489.9 874.2 Z M 1491.4 778.1 L 1429.9 778.1 L 1489.9 879.7 L 1520.6 827.6 Z M 1491.4 778.1 " fill="#FFFFFF"></path><path d="M 1493.0 780.8 L 1545.0 780.8 L 1519.0 824.9 Z M 1549.8 778.1 L 1488.1 778.1 L 1519.0 830.3 Z M 1549.8 778.1 " fill="#FFFFFF"></path></g></g></g></g></g></g></g><g><clipPath id="clip-515"><path d="M 1662.9 693.3 L 1432.1 693.3 L 1431.9 693.3 L 1431.9 693.0 L 1431.9 692.1 L 1431.9 691.9 L 1432.1 691.9 L 1662.9 691.9 L 1663.1 691.9 L 1663.1 692.1 L 1663.1 693.0 L 1663.1 693.3 Z M 1662.9 693.3 "></path></clipPath><g clip-path="url(#clip-515)"><g><clipPath id="clip-516"><path d="M 1386.0 655.0 L 1709.0 655.0 L 1709.0 899.0 L 1386.0 899.0 Z M 1386.0 655.0 "></path></clipPath><g clip-path="url(#clip-516)"><path d="M 1427.5 687.5 L 1667.5 687.5 L 1667.5 697.7 L 1427.5 697.7 Z M 1427.5 687.5 " fill="#FFFFFF"></path></g></g></g></g><g><clipPath id="clip-517"><path d="M 1422.0 682.0 L 1673.0 682.0 L 1673.0 703.2 L 1422.0 703.2 Z M 1432.1 693.0 L 1662.9 693.0 L 1662.9 692.1 L 1432.1 692.1 Z M 1432.1 693.0 "></path></clipPath><g clip-path="url(#clip-517)"><g><clipPath id="clip-518"><path d="M 1386.0 655.0 L 1709.0 655.0 L 1709.0 899.0 L 1386.0 899.0 Z M 1386.0 655.0 "></path></clipPath><g clip-path="url(#clip-518)"><path d="M 1663.8 691.2 L 1431.2 691.2 L 1431.2 694.0 L 1663.8 694.0 Z M 1663.8 691.2 " fill="#FFFFFF"></path></g></g></g></g></g></g></g></g></g><g><clipPath id="clip-519"><path d="M 1285.4 311.1 L 1565.4 311.1 L 1565.4 484.1 L 1285.4 484.1 Z M 1285.4 311.1 "></path></clipPath><g clip-path="url(#clip-519)"><text xml:space="preserve" font-family="Roboto-Thin" font-size="55.0" fill="#3F3F3F" transform="matrix(1.00, 0.00, -0.00, -1.00, 1301.0, 417.0)">L</text><text xml:space="preserve" font-family="Roboto-Thin" font-size="55.0" fill="#3F3F3F" transform="matrix(1.00, 0.00, -0.00, -1.00, 1329.4, 417.0)">a</text><text xml:space="preserve" font-family="Roboto-Thin" font-size="55.0" fill="#3F3F3F" transform="matrix(1.00, 0.00, -0.00, -1.00, 1358.4, 417.0)">n</text><text xml:space="preserve" font-family="Roboto-Thin" font-size="55.0" fill="#3F3F3F" transform="matrix(1.00, 0.00, -0.00, -1.00, 1388.5, 417.0)">d</text><text xml:space="preserve" font-family="Roboto-Thin" font-size="55.0" fill="#3F3F3F" transform="matrix(1.00, 0.00, -0.00, -1.00, 1418.6, 417.0)">i</text><text xml:space="preserve" font-family="Roboto-Thin" font-size="55.0" fill="#3F3F3F" transform="matrix(1.00, 0.00, -0.00, -1.00, 1430.0, 417.0)">n</text><text xml:space="preserve" font-family="Roboto-Thin" font-size="55.0" fill="#3F3F3F" transform="matrix(1.00, 0.00, -0.00, -1.00, 1460.1, 417.0)">g</text><text xml:space="preserve" font-family="Roboto-Thin" font-size="55.0" fill="#3F3F3F" transform="matrix(1.00, 0.00, -0.00, -1.00, 1490.3, 417.0)"> </text><text xml:space="preserve" font-family="Roboto-Thin" font-size="55.0" fill="#3F3F3F" transform="matrix(1.00, 0.00, -0.00, -1.00, 1301.0, 347.0)">P</text><text xml:space="preserve" font-family="Roboto-Thin" font-size="55.0" fill="#3F3F3F" transform="matrix(1.00, 0.00, -0.00, -1.00, 1333.7, 347.0)">a</text><text xml:space="preserve" font-family="Roboto-Thin" font-size="55.0" fill="#3F3F3F" transform="matrix(1.00, 0.00, -0.00, -1.00, 1362.8, 347.0)">g</text><text xml:space="preserve" font-family="Roboto-Thin" font-size="55.0" fill="#3F3F3F" transform="matrix(1.00, 0.00, -0.00, -1.00, 1392.9, 347.0)">e</text></g></g><g><clipPath id="clip-520"><path d="M 905.6 122.7 L 1191.8 122.7 L 1191.8 238.1 L 905.6 238.1 Z M 905.6 122.7 "></path></clipPath><g clip-path="url(#clip-520)"><text xml:space="preserve" font-family="Roboto-Regular" font-size="28.0" fill="#3F3F3F" transform="matrix(1.00, 0.00, -0.00, -1.00, 914.0, 204.0)">C</text><text xml:space="preserve" font-family="Roboto-Regular" font-size="28.0" fill="#3F3F3F" transform="matrix(1.00, 0.00, -0.00, -1.00, 932.2, 204.0)">r</text><text xml:space="preserve" font-family="Roboto-Regular" font-size="28.0" fill="#3F3F3F" transform="matrix(1.00, 0.00, -0.00, -1.00, 941.4, 204.0)">e</text><text xml:space="preserve" font-family="Roboto-Regular" font-size="28.0" fill="#3F3F3F" transform="matrix(1.00, 0.00, -0.00, -1.00, 956.3, 204.0)">a</text><text xml:space="preserve" font-family="Roboto-Regular" font-size="28.0" fill="#3F3F3F" transform="matrix(1.00, 0.00, -0.00, -1.00, 971.5, 204.0)">t</text><text xml:space="preserve" font-family="Roboto-Regular" font-size="28.0" fill="#3F3F3F" transform="matrix(1.00, 0.00, -0.00, -1.00, 980.6, 204.0)">e</text><text xml:space="preserve" font-family="Roboto-Regular" font-size="28.0" fill="#3F3F3F" transform="matrix(1.00, 0.00, -0.00, -1.00, 995.5, 204.0)"> </text><text xml:space="preserve" font-family="Roboto-Regular" font-size="28.0" fill="#3F3F3F" transform="matrix(1.00, 0.00, -0.00, -1.00, 1002.4, 204.0)">a</text><text xml:space="preserve" font-family="Roboto-Regular" font-size="28.0" fill="#3F3F3F" transform="matrix(1.00, 0.00, -0.00, -1.00, 1017.6, 204.0)"> </text><text xml:space="preserve" font-family="Roboto-Regular" font-size="28.0" fill="#3F3F3F" transform="matrix(1.00, 0.00, -0.00, -1.00, 1024.5, 204.0)">p</text><text xml:space="preserve" font-family="Roboto-Regular" font-size="28.0" fill="#3F3F3F" transform="matrix(1.00, 0.00, -0.00, -1.00, 1040.2, 204.0)">r</text><text xml:space="preserve" font-family="Roboto-Regular" font-size="28.0" fill="#3F3F3F" transform="matrix(1.00, 0.00, -0.00, -1.00, 1049.5, 204.0)">o</text><text xml:space="preserve" font-family="Roboto-Regular" font-size="28.0" fill="#3F3F3F" transform="matrix(1.00, 0.00, -0.00, -1.00, 1065.4, 204.0)">t</text><text xml:space="preserve" font-family="Roboto-Regular" font-size="28.0" fill="#3F3F3F" transform="matrix(1.00, 0.00, -0.00, -1.00, 1074.3, 204.0)">o</text><text xml:space="preserve" font-family="Roboto-Regular" font-size="28.0" fill="#3F3F3F" transform="matrix(1.00, 0.00, -0.00, -1.00, 1090.3, 204.0)">t</text><text xml:space="preserve" font-family="Roboto-Regular" font-size="28.0" fill="#3F3F3F" transform="matrix(1.00, 0.00, -0.00, -1.00, 1099.4, 204.0)">y</text><text xml:space="preserve" font-family="Roboto-Regular" font-size="28.0" fill="#3F3F3F" transform="matrix(1.00, 0.00, -0.00, -1.00, 1112.7, 204.0)">p</text><text xml:space="preserve" font-family="Roboto-Regular" font-size="28.0" fill="#3F3F3F" transform="matrix(1.00, 0.00, -0.00, -1.00, 1128.4, 204.0)">e</text><text xml:space="preserve" font-family="Roboto-Regular" font-size="28.0" fill="#3F3F3F" transform="matrix(1.00, 0.00, -0.00, -1.00, 1143.2, 204.0)"> </text><text xml:space="preserve" font-family="Roboto-Regular" font-size="28.0" fill="#3F3F3F" transform="matrix(1.00, 0.00, -0.00, -1.00, 1150.1, 204.0)">t</text><text xml:space="preserve" font-family="Roboto-Regular" font-size="28.0" fill="#3F3F3F" transform="matrix(1.00, 0.00, -0.00, -1.00, 1159.0, 204.0)">o</text><text xml:space="preserve" font-family="Roboto-Regular" font-size="28.0" fill="#3F3F3F" transform="matrix(1.00, 0.00, -0.00, -1.00, 1175.0, 204.0)"> </text><text xml:space="preserve" font-family="Roboto-Regular" font-size="28.0" fill="#3F3F3F" transform="matrix(1.00, 0.00, -0.00, -1.00, 914.0, 171.0)">t</text><text xml:space="preserve" font-family="Roboto-Regular" font-size="28.0" fill="#3F3F3F" transform="matrix(1.00, 0.00, -0.00, -1.00, 923.1, 171.0)">e</text><text xml:space="preserve" font-family="Roboto-Regular" font-size="28.0" fill="#3F3F3F" transform="matrix(1.00, 0.00, -0.00, -1.00, 938.0, 171.0)">s</text><text xml:space="preserve" font-family="Roboto-Regular" font-size="28.0" fill="#3F3F3F" transform="matrix(1.00, 0.00, -0.00, -1.00, 952.4, 171.0)">t</text><text xml:space="preserve" font-family="Roboto-Regular" font-size="28.0" fill="#3F3F3F" transform="matrix(1.00, 0.00, -0.00, -1.00, 961.5, 171.0)"> </text><text xml:space="preserve" font-family="Roboto-Regular" font-size="28.0" fill="#3F3F3F" transform="matrix(1.00, 0.00, -0.00, -1.00, 968.5, 171.0)">t</text><text xml:space="preserve" font-family="Roboto-Regular" font-size="28.0" fill="#3F3F3F" transform="matrix(1.00, 0.00, -0.00, -1.00, 977.6, 171.0)">h</text><text xml:space="preserve" font-family="Roboto-Regular" font-size="28.0" fill="#3F3F3F" transform="matrix(1.00, 0.00, -0.00, -1.00, 993.0, 171.0)">e</text><text xml:space="preserve" font-family="Roboto-Regular" font-size="28.0" fill="#3F3F3F" transform="matrix(1.00, 0.00, -0.00, -1.00, 1007.8, 171.0)"> </text><text xml:space="preserve" font-family="Roboto-Regular" font-size="28.0" fill="#3F3F3F" transform="matrix(1.00, 0.00, -0.00, -1.00, 1014.8, 171.0)">p</text><text xml:space="preserve" font-family="Roboto-Regular" font-size="28.0" fill="#3F3F3F" transform="matrix(1.00, 0.00, -0.00, -1.00, 1030.5, 171.0)">r</text><text xml:space="preserve" font-family="Roboto-Regular" font-size="28.0" fill="#3F3F3F" transform="matrix(1.00, 0.00, -0.00, -1.00, 1039.7, 171.0)">o</text><text xml:space="preserve" font-family="Roboto-Regular" font-size="28.0" fill="#3F3F3F" transform="matrix(1.00, 0.00, -0.00, -1.00, 1055.7, 171.0)">c</text><text xml:space="preserve" font-family="Roboto-Regular" font-size="28.0" fill="#3F3F3F" transform="matrix(1.00, 0.00, -0.00, -1.00, 1070.3, 171.0)">e</text><text xml:space="preserve" font-family="Roboto-Regular" font-size="28.0" fill="#3F3F3F" transform="matrix(1.00, 0.00, -0.00, -1.00, 1085.1, 171.0)">s</text><text xml:space="preserve" font-family="Roboto-Regular" font-size="28.0" fill="#3F3F3F" transform="matrix(1.00, 0.00, -0.00, -1.00, 1099.6, 171.0)">s</text><text xml:space="preserve" font-family="Roboto-Regular" font-size="28.0" fill="#3F3F3F" transform="matrix(1.00, 0.00, -0.00, -1.00, 1114.0, 171.0)"> </text><text xml:space="preserve" font-family="Roboto-Regular" font-size="28.0" fill="#3F3F3F" transform="matrix(1.00, 0.00, -0.00, -1.00, 1120.9, 171.0)">o</text><text xml:space="preserve" font-family="Roboto-Regular" font-size="28.0" fill="#3F3F3F" transform="matrix(1.00, 0.00, -0.00, -1.00, 1136.9, 171.0)">f</text><text xml:space="preserve" font-family="Roboto-Regular" font-size="28.0" fill="#3F3F3F" transform="matrix(1.00, 0.00, -0.00, -1.00, 1146.6, 171.0)"> </text><text xml:space="preserve" font-family="Roboto-Regular" font-size="28.0" fill="#3F3F3F" transform="matrix(1.00, 0.00, -0.00, -1.00, 914.0, 138.0)">r</text><text xml:space="preserve" font-family="Roboto-Regular" font-size="28.0" fill="#3F3F3F" transform="matrix(1.00, 0.00, -0.00, -1.00, 923.2, 138.0)">e</text><text xml:space="preserve" font-family="Roboto-Regular" font-size="28.0" fill="#3F3F3F" transform="matrix(1.00, 0.00, -0.00, -1.00, 938.1, 138.0)">g</text><text xml:space="preserve" font-family="Roboto-Regular" font-size="28.0" fill="#3F3F3F" transform="matrix(1.00, 0.00, -0.00, -1.00, 953.8, 138.0)">i</text><text xml:space="preserve" font-family="Roboto-Regular" font-size="28.0" fill="#3F3F3F" transform="matrix(1.00, 0.00, -0.00, -1.00, 960.5, 138.0)">s</text><text xml:space="preserve" font-family="Roboto-Regular" font-size="28.0" fill="#3F3F3F" transform="matrix(1.00, 0.00, -0.00, -1.00, 975.0, 138.0)">t</text><text xml:space="preserve" font-family="Roboto-Regular" font-size="28.0" fill="#3F3F3F" transform="matrix(1.00, 0.00, -0.00, -1.00, 984.1, 138.0)">e</text><text xml:space="preserve" font-family="Roboto-Regular" font-size="28.0" fill="#3F3F3F" transform="matrix(1.00, 0.00, -0.00, -1.00, 998.9, 138.0)">r</text><text xml:space="preserve" font-family="Roboto-Regular" font-size="28.0" fill="#3F3F3F" transform="matrix(1.00, 0.00, -0.00, -1.00, 1008.4, 138.0)">i</text><text xml:space="preserve" font-family="Roboto-Regular" font-size="28.0" fill="#3F3F3F" transform="matrix(1.00, 0.00, -0.00, -1.00, 1015.2, 138.0)">n</text><text xml:space="preserve" font-family="Roboto-Regular" font-size="28.0" fill="#3F3F3F" transform="matrix(1.00, 0.00, -0.00, -1.00, 1030.7, 138.0)">g</text><text xml:space="preserve" font-family="Roboto-Regular" font-size="28.0" fill="#3F3F3F" transform="matrix(1.00, 0.00, -0.00, -1.00, 1046.4, 138.0)"> </text><text xml:space="preserve" font-family="Roboto-Regular" font-size="28.0" fill="#3F3F3F" transform="matrix(1.00, 0.00, -0.00, -1.00, 1053.3, 138.0)">t</text><text xml:space="preserve" font-family="Roboto-Regular" font-size="28.0" fill="#3F3F3F" transform="matrix(1.00, 0.00, -0.00, -1.00, 1062.4, 138.0)">h</text><text xml:space="preserve" font-family="Roboto-Regular" font-size="28.0" fill="#3F3F3F" transform="matrix(1.00, 0.00, -0.00, -1.00, 1077.8, 138.0)">e</text><text xml:space="preserve" font-family="Roboto-Regular" font-size="28.0" fill="#3F3F3F" transform="matrix(1.00, 0.00, -0.00, -1.00, 1092.7, 138.0)"> </text><text xml:space="preserve" font-family="Roboto-Regular" font-size="28.0" fill="#3F3F3F" transform="matrix(1.00, 0.00, -0.00, -1.00, 1099.6, 138.0)">i</text><text xml:space="preserve" font-family="Roboto-Regular" font-size="28.0" fill="#3F3F3F" transform="matrix(1.00, 0.00, -0.00, -1.00, 1106.4, 138.0)">t</text><text xml:space="preserve" font-family="Roboto-Regular" font-size="28.0" fill="#3F3F3F" transform="matrix(1.00, 0.00, -0.00, -1.00, 1115.5, 138.0)">e</text><text xml:space="preserve" font-family="Roboto-Regular" font-size="28.0" fill="#3F3F3F" transform="matrix(1.00, 0.00, -0.00, -1.00, 1130.3, 138.0)">m</text><text xml:space="preserve" font-family="Roboto-Regular" font-size="28.0" fill="#3F3F3F" transform="matrix(1.00, 0.00, -0.00, -1.00, 1154.9, 138.0)">s</text><text xml:space="preserve" font-family="Roboto-Regular" font-size="28.0" fill="#3F3F3F" transform="matrix(1.00, 0.00, -0.00, -1.00, 1169.3, 138.0)">.</text></g></g><g><clipPath id="clip-521"><path d="M 911.2 597.0 L 1086.1 597.0 L 1086.1 957.0 L 911.2 957.0 Z M 911.2 597.0 "></path></clipPath><g clip-path="url(#clip-521)"><path d="M 930.2 600.5 C 921.4 600.5 914.7 607.2 914.7 616.0 C 914.7 938.0 914.7 938.0 914.7 938.0 C 914.7 946.8 921.4 953.5 930.2 953.5 C 1067.6 953.5 1067.6 953.5 1067.6 953.5 C 1075.9 953.5 1082.6 946.8 1082.6 938.0 C 1082.6 616.0 1082.6 616.0 1082.6 616.0 C 1082.6 607.2 1075.9 600.5 1067.6 600.5 L 930.2 600.5 Z M 930.2 600.5 " fill="#3F3F3F"></path><path d="M 15.5 353.1 C 6.7 353.1 0.0 346.4 0.0 337.6 C 0.0 15.5 0.0 15.5 0.0 15.5 C 0.0 6.7 6.7 0.0 15.5 0.0 C 152.8 0.0 152.8 0.0 152.8 0.0 C 161.2 0.0 167.9 6.7 167.9 15.5 C 167.9 337.6 167.9 337.6 167.9 337.6 C 167.9 346.4 161.2 353.1 152.8 353.1 L 15.5 353.1 Z M 15.5 353.1 " fill="none" stroke="#BFBFBF" stroke-width="5.00" stroke-linejoin="round" transform="matrix(1.00, 0.00, 0.00, -1.00, 914.7, 953.5)"></path></g></g><g><clipPath id="clip-522"><path d="M 995.4 932.4 L 1002.4 932.4 L 1002.4 939.5 L 995.4 939.5 Z M 995.4 932.4 "></path></clipPath><g clip-path="url(#clip-522)"><path d="M 1000.7 937.7 C 1001.7 936.7 1001.7 935.1 1000.7 934.2 C 999.7 933.2 998.1 933.2 997.1 934.2 C 996.1 935.1 996.1 936.7 997.1 937.7 C 998.1 938.7 999.7 938.7 1000.7 937.7 Z M 1000.7 937.7 " fill="#F2F2F2"></path></g></g><g><clipPath id="clip-523"><path d="M 996.6 934.0 L 1000.8 934.0 L 1000.8 938.3 L 996.6 938.3 Z M 996.6 934.0 "></path></clipPath><g clip-path="url(#clip-523)"><path d="M 997.6 936.2 C 997.6 936.8 998.1 937.3 998.7 937.3 C 999.3 937.3 999.8 936.8 999.8 936.2 C 999.8 935.5 999.3 935.0 998.7 935.0 C 998.1 935.0 997.6 935.5 997.6 936.2 Z M 997.6 936.2 " fill="#F2F2F2"></path></g></g><g><clipPath id="clip-524"><path d="M 995.4 932.8 L 1002.4 932.8 L 1002.4 939.9 L 995.4 939.9 Z M 995.4 932.8 "></path></clipPath><g clip-path="url(#clip-524)"><path d="M 1000.7 938.1 C 1001.7 937.2 1001.7 935.6 1000.7 934.6 C 999.7 933.6 998.1 933.6 997.1 934.6 C 996.1 935.6 996.1 937.2 997.1 938.1 C 998.1 939.1 999.7 939.1 1000.7 938.1 Z M 1000.7 938.1 " fill="#F2F2F2"></path></g></g><g><clipPath id="clip-525"><path d="M 996.6 934.5 L 1000.8 934.5 L 1000.8 938.7 L 996.6 938.7 Z M 996.6 934.5 "></path></clipPath><g clip-path="url(#clip-525)"><path d="M 997.6 936.6 C 997.6 937.2 998.1 937.7 998.7 937.7 C 999.3 937.7 999.8 937.2 999.8 936.6 C 999.8 936.0 999.3 935.5 998.7 935.5 C 998.1 935.5 997.6 936.0 997.6 936.6 Z M 997.6 936.6 " fill="#F2F2F2"></path></g></g><g><clipPath id="clip-526"><path d="M 996.2 933.7 L 1001.6 933.7 L 1001.6 939.0 L 996.2 939.0 Z M 996.2 933.7 "></path></clipPath><g clip-path="url(#clip-526)"><path d="M 1000.1 937.5 C 1000.7 936.9 1000.7 935.8 1000.1 935.2 C 999.4 934.5 998.4 934.5 997.7 935.2 C 997.1 935.8 997.1 936.9 997.7 937.5 C 998.4 938.2 999.4 938.2 1000.1 937.5 Z M 1000.1 937.5 " fill="#F2F2F2"></path></g></g><g><clipPath id="clip-527"><path d="M 996.2 933.7 L 1001.6 933.7 L 1001.6 939.0 L 996.2 939.0 Z M 996.2 933.7 "></path></clipPath><g clip-path="url(#clip-527)"><path d="M 1000.1 937.5 C 1000.7 936.9 1000.7 935.8 1000.1 935.2 C 999.4 934.5 998.4 934.5 997.7 935.2 C 997.1 935.8 997.1 936.9 997.7 937.5 C 998.4 938.2 999.4 938.2 1000.1 937.5 Z M 1000.1 937.5 " fill="#F2F2F2"></path></g></g><g><clipPath id="clip-528"><path d="M 996.8 934.2 L 1001.0 934.2 L 1001.0 938.5 L 996.8 938.5 Z M 996.8 934.2 "></path></clipPath><g clip-path="url(#clip-528)"><path d="M 997.8 936.4 C 997.8 937.0 998.3 937.5 998.9 937.5 C 999.5 937.5 1000.0 937.0 1000.0 936.4 C 1000.0 935.7 999.5 935.2 998.9 935.2 C 998.3 935.2 997.8 935.7 997.8 936.4 Z M 997.8 936.4 " fill="#F2F2F2"></path></g></g><g><clipPath id="clip-529"><path d="M 996.8 934.2 L 1001.0 934.2 L 1001.0 938.5 L 996.8 938.5 Z M 996.8 934.2 "></path></clipPath><g clip-path="url(#clip-529)"><path d="M 997.8 936.4 C 997.8 937.0 998.3 937.5 998.9 937.5 C 999.5 937.5 1000.0 937.0 1000.0 936.4 C 1000.0 935.7 999.5 935.2 998.9 935.2 C 998.3 935.2 997.8 935.7 997.8 936.4 Z M 997.8 936.4 " fill="#F2F2F2"></path></g></g><g><clipPath id="clip-530"><path d="M 996.6 934.5 L 1000.8 934.5 L 1000.8 938.7 L 996.6 938.7 Z M 996.6 934.5 "></path></clipPath><g clip-path="url(#clip-530)"><path d="M 999.8 935.5 L 997.6 935.5 L 999.8 937.7 L 999.8 935.5 Z M 999.8 935.5 " fill="#F2F2F2"></path></g></g><g><clipPath id="clip-531"><path d="M 996.6 934.5 L 1000.8 934.5 L 1000.8 938.7 L 996.6 938.7 Z M 996.6 934.5 "></path></clipPath><g clip-path="url(#clip-531)"><path d="M 999.8 935.5 L 997.6 935.5 L 999.8 937.7 L 999.8 935.5 Z M 999.8 935.5 " fill="#F2F2F2"></path></g></g><g><clipPath id="clip-532"><path d="M 983.6 607.3 L 1013.8 607.3 L 1013.8 637.6 L 983.6 637.6 Z M 983.6 607.3 "></path></clipPath><g clip-path="url(#clip-532)"><path d="M 23.2 4.0 C 28.5 9.3 28.5 17.9 23.2 23.2 C 17.9 28.6 9.3 28.6 4.0 23.2 C -1.3 17.9 -1.3 9.3 4.0 4.0 C 9.3 -1.3 17.9 -1.3 23.2 4.0 Z M 23.2 4.0 " fill="none" stroke="#F2F2F2" stroke-width="1.00" stroke-linejoin="round" transform="matrix(1.00, 0.00, 0.00, -1.00, 985.1, 636.1)"></path></g></g><g><clipPath id="clip-533"><path d="M 924.2 643.4 L 1073.6 643.4 L 1073.6 903.9 L 924.2 903.9 Z M 924.2 643.4 "></path></clipPath><g clip-path="url(#clip-533)"><path d="M 925.2 902.9 L 1072.6 902.9 L 1072.6 644.4 L 925.2 644.4 Z M 925.2 902.9 " fill="#F2F2F2"></path></g></g><g><clipPath id="clip-534"><path d="M 984.9 918.2 L 1017.5 918.2 L 1017.5 927.3 L 984.9 927.3 Z M 984.9 918.2 "></path></clipPath><g clip-path="url(#clip-534)"><path d="M 989.3 919.2 C 987.2 919.2 985.9 920.9 985.9 922.5 C 985.9 924.6 987.2 926.3 989.3 926.3 C 1013.1 926.3 1013.1 926.3 1013.1 926.3 C 1015.2 926.3 1016.5 924.6 1016.5 922.5 C 1016.5 920.9 1015.2 919.2 1013.1 919.2 L 989.3 919.2 Z M 989.3 919.2 " fill="#F2F2F2"></path></g></g><g><clipPath id="clip-535"><path d="M 986.6 920.3 L 1015.8 920.3 L 1015.8 925.2 L 986.6 925.2 Z M 986.6 920.3 "></path></clipPath><g clip-path="url(#clip-535)"><path d="M 1014.8 922.5 C 1014.8 921.7 1014.0 921.3 1013.1 921.3 C 989.3 921.3 989.3 921.3 989.3 921.3 C 988.4 921.3 987.6 921.7 987.6 922.5 C 987.6 923.4 988.4 924.2 989.3 924.2 C 1013.1 924.2 1013.1 924.2 1013.1 924.2 C 1014.0 924.2 1014.8 923.4 1014.8 922.5 Z M 1014.8 922.5 " fill="#3F3F3F"></path></g></g><g><clipPath id="clip-536"><path d="M 974.9 919.4 L 981.5 919.4 L 981.5 926.1 L 974.9 926.1 Z M 974.9 919.4 "></path></clipPath><g clip-path="url(#clip-536)"><path d="M 979.8 924.4 C 980.7 923.5 980.7 922.0 979.8 921.1 C 978.9 920.2 977.4 920.2 976.5 921.1 C 975.6 922.0 975.6 923.5 976.5 924.4 C 977.4 925.3 978.9 925.3 979.8 924.4 Z M 979.8 924.4 " fill="#F2F2F2"></path></g></g><g><clipPath id="clip-537"><path d="M 886.6 275.9 L 1235.9 275.9 L 1235.9 519.3 L 886.6 519.3 Z M 886.6 275.9 "></path></clipPath><g clip-path="url(#clip-537)"><text xml:space="preserve" font-family="Roboto-Thin" font-size="55.0" fill="#3F3F3F" transform="matrix(1.00, 0.00, -0.00, -1.00, 903.0, 453.0)">A</text><text xml:space="preserve" font-family="Roboto-Thin" font-size="55.0" fill="#3F3F3F" transform="matrix(1.00, 0.00, -0.00, -1.00, 935.9, 453.0)">p</text><text xml:space="preserve" font-family="Roboto-Thin" font-size="55.0" fill="#3F3F3F" transform="matrix(1.00, 0.00, -0.00, -1.00, 966.0, 453.0)">p</text><text xml:space="preserve" font-family="Roboto-Thin" font-size="55.0" fill="#3F3F3F" transform="matrix(1.00, 0.00, -0.00, -1.00, 996.1, 453.0)"> </text><text xml:space="preserve" font-family="Roboto-Thin" font-size="55.0" fill="#3F3F3F" transform="matrix(1.00, 0.00, -0.00, -1.00, 903.0, 382.0)">I</text><text xml:space="preserve" font-family="Roboto-Thin" font-size="55.0" fill="#3F3F3F" transform="matrix(1.00, 0.00, -0.00, -1.00, 917.3, 382.0)">n</text><text xml:space="preserve" font-family="Roboto-Thin" font-size="55.0" fill="#3F3F3F" transform="matrix(1.00, 0.00, -0.00, -1.00, 947.5, 382.0)">t</text><text xml:space="preserve" font-family="Roboto-Thin" font-size="55.0" fill="#3F3F3F" transform="matrix(1.00, 0.00, -0.00, -1.00, 964.9, 382.0)">e</text><text xml:space="preserve" font-family="Roboto-Thin" font-size="55.0" fill="#3F3F3F" transform="matrix(1.00, 0.00, -0.00, -1.00, 992.6, 382.0)">r</text><text xml:space="preserve" font-family="Roboto-Thin" font-size="55.0" fill="#3F3F3F" transform="matrix(1.00, 0.00, -0.00, -1.00, 1009.9, 382.0)">a</text><text xml:space="preserve" font-family="Roboto-Thin" font-size="55.0" fill="#3F3F3F" transform="matrix(1.00, 0.00, -0.00, -1.00, 1039.0, 382.0)">c</text><text xml:space="preserve" font-family="Roboto-Thin" font-size="55.0" fill="#3F3F3F" transform="matrix(1.00, 0.00, -0.00, -1.00, 1066.9, 382.0)">t</text><text xml:space="preserve" font-family="Roboto-Thin" font-size="55.0" fill="#3F3F3F" transform="matrix(1.00, 0.00, -0.00, -1.00, 1084.3, 382.0)">i</text><text xml:space="preserve" font-family="Roboto-Thin" font-size="55.0" fill="#3F3F3F" transform="matrix(1.00, 0.00, -0.00, -1.00, 1095.7, 382.0)">v</text><text xml:space="preserve" font-family="Roboto-Thin" font-size="55.0" fill="#3F3F3F" transform="matrix(1.00, 0.00, -0.00, -1.00, 1121.5, 382.0)">e</text><text xml:space="preserve" font-family="Roboto-Thin" font-size="55.0" fill="#3F3F3F" transform="matrix(1.00, 0.00, -0.00, -1.00, 1149.2, 382.0)"> </text><text xml:space="preserve" font-family="Roboto-Thin" font-size="55.0" fill="#3F3F3F" transform="matrix(1.00, 0.00, -0.00, -1.00, 903.0, 312.0)">P</text><text xml:space="preserve" font-family="Roboto-Thin" font-size="55.0" fill="#3F3F3F" transform="matrix(1.00, 0.00, -0.00, -1.00, 936.0, 312.0)">r</text><text xml:space="preserve" font-family="Roboto-Thin" font-size="55.0" fill="#3F3F3F" transform="matrix(1.00, 0.00, -0.00, -1.00, 953.9, 312.0)">o</text><text xml:space="preserve" font-family="Roboto-Thin" font-size="55.0" fill="#3F3F3F" transform="matrix(1.00, 0.00, -0.00, -1.00, 984.2, 312.0)">t</text><text xml:space="preserve" font-family="Roboto-Thin" font-size="55.0" fill="#3F3F3F" transform="matrix(1.00, 0.00, -0.00, -1.00, 1001.1, 312.0)">o</text><text xml:space="preserve" font-family="Roboto-Thin" font-size="55.0" fill="#3F3F3F" transform="matrix(1.00, 0.00, -0.00, -1.00, 1031.4, 312.0)">t</text><text xml:space="preserve" font-family="Roboto-Thin" font-size="55.0" fill="#3F3F3F" transform="matrix(1.00, 0.00, -0.00, -1.00, 1048.8, 312.0)">y</text><text xml:space="preserve" font-family="Roboto-Thin" font-size="55.0" fill="#3F3F3F" transform="matrix(1.00, 0.00, -0.00, -1.00, 1075.1, 312.0)">p</text><text xml:space="preserve" font-family="Roboto-Thin" font-size="55.0" fill="#3F3F3F" transform="matrix(1.00, 0.00, -0.00, -1.00, 1105.2, 312.0)">e</text></g></g><g><clipPath id="clip-538"><path d="M 921.9 632.8 L 1076.8 632.8 L 1076.8 905.9 L 921.9 905.9 Z M 921.9 632.8 "></path></clipPath><g clip-path="url(#clip-538)"><image xlink:href="../../D3D482FE-91A6-4891-AAEF-FCD385F432AD/assets/CF5556F9F053282AD423C32F593AA23E.png" width="153.00" height="271.00" transform="matrix(1.00, 0.00, -0.00, -1.00, 922.9, 904.9)" opacity="0.50"></image></g></g><g><clipPath id="clip-539"><path d="M 925.9 903.9 L 1072.8 903.9 L 1072.8 638.8 L 925.9 638.8 Z M 925.9 903.9 "></path></clipPath><g clip-path="url(#clip-539)"><g><clipPath id="clip-540"><path d="M 921.9 632.8 L 1076.8 632.8 L 1076.8 905.9 L 921.9 905.9 Z M 921.9 632.8 "></path></clipPath><g clip-path="url(#clip-540)"><image xlink:href="../../E01699BB-C0D1-4305-AE93-C866749E9FD9/assets/3B125388B1C2690D02541E1FFAB050B1.jpeg" width="600.00" height="600.00" transform="matrix(0.50, 0.00, -0.00, -0.50, 925.9, 903.9)"></image><path d="M 925.9 903.9 L 1072.8 903.9 L 1072.8 638.8 L 925.9 638.8 Z M 925.9 903.9 " fill="#52575F" fill-opacity="0.50"></path></g></g></g></g><g><clipPath id="clip-541"><path d="M 922.0 850.0 L 1076.0 850.0 L 1076.0 734.0 L 922.0 734.0 Z M 921.7 850.0 "></path></clipPath><g clip-path="url(#clip-541)"><g><clipPath id="clip-542"><path d="M 922.0 733.5 L 1075.7 733.5 L 1075.7 850.0 L 922.0 850.0 Z M 922.0 733.5 "></path></clipPath><g clip-path="url(#clip-542)"><g><g><clipPath id="clip-543"><path d="M 922.0 909.0 L 1076.0 909.0 L 1076.0 645.0 L 922.0 645.0 Z M 922.0 909.0 "></path></clipPath><g clip-path="url(#clip-543)"><g><clipPath id="clip-544"><path d="M 922.0 734.0 L 1076.0 734.0 L 1076.0 850.0 L 922.0 850.0 Z M 922.0 734.0 "></path></clipPath><g clip-path="url(#clip-544)"><path d="M 952.0 761.2 C 950.6 761.2 949.4 761.6 948.7 762.6 C 948.0 763.5 947.6 764.9 947.6 766.6 L 947.6 776.5 C 947.6 778.3 948.0 779.6 948.7 780.5 C 949.4 781.4 950.6 781.9 952.0 781.9 C 953.5 781.9 954.6 781.4 955.4 780.5 C 956.1 779.6 956.5 778.3 956.5 776.5 L 956.5 776.0 L 955.5 776.0 L 955.5 776.5 C 955.5 777.5 955.4 778.3 955.1 778.9 C 954.9 779.5 954.6 779.9 954.3 780.2 C 954.0 780.5 953.6 780.7 953.2 780.8 C 952.8 780.9 952.4 781.0 952.0 781.0 C 951.7 781.0 951.3 780.9 950.9 780.8 C 950.4 780.7 950.1 780.5 949.7 780.2 C 949.4 779.9 949.1 779.5 948.9 778.9 C 948.7 778.3 948.5 777.5 948.5 776.5 L 948.5 766.6 C 948.5 765.1 948.8 764.0 949.4 763.2 C 950.0 762.5 950.9 762.1 952.0 762.1 C 953.2 762.1 954.0 762.5 954.6 763.2 C 955.2 764.0 955.5 765.1 955.5 766.6 L 955.5 769.4 L 951.0 769.4 L 951.0 770.3 L 956.5 770.3 L 956.5 766.6 C 956.5 764.9 956.1 763.5 955.4 762.6 C 954.6 761.6 953.5 761.2 952.0 761.2 " fill="#FFFFFF"></path><path d="M 958.8 781.9 L 959.8 781.9 L 959.8 761.2 L 958.8 761.2 Z M 958.8 781.9 " fill="#FFFFFF"></path><path d="M 972.2 782.0 L 967.0 761.2 L 966.2 761.2 L 961.0 782.0 L 962.0 782.0 L 966.6 763.7 L 971.2 782.0 Z M 972.2 782.0 " fill="#FFFFFF"></path><path d="M 974.6 781.0 L 974.6 772.0 L 981.1 772.0 L 981.1 771.1 L 974.6 771.1 L 974.6 762.1 L 981.1 762.1 L 981.1 761.2 L 973.7 761.2 L 973.7 781.9 L 981.1 781.9 L 981.1 781.0 Z M 974.6 781.0 " fill="#FFFFFF"></path><path d="M 992.2 777.7 C 992.2 777.3 992.3 776.9 992.4 776.4 C 992.5 776.0 992.6 775.6 992.8 775.1 C 993.0 774.7 993.2 774.4 993.4 774.0 C 993.6 773.7 993.7 773.4 993.9 773.1 C 994.0 773.2 994.1 773.4 994.2 773.5 C 994.3 773.7 994.4 773.8 994.5 774.0 C 995.1 775.0 995.5 776.3 995.5 777.7 C 995.5 778.4 995.4 778.9 995.3 779.3 C 995.3 779.8 995.1 780.1 995.0 780.3 C 994.9 780.6 994.7 780.8 994.5 780.8 C 994.3 780.9 994.1 781.0 993.8 781.0 C 993.6 781.0 993.4 780.9 993.2 780.9 C 993.0 780.8 992.8 780.6 992.7 780.4 C 992.5 780.2 992.4 779.9 992.3 779.4 C 992.2 779.0 992.2 778.4 992.2 777.7 M 992.7 770.8 C 992.4 770.5 992.0 770.2 991.7 769.9 C 991.4 769.6 991.1 769.2 990.9 768.9 C 990.6 768.6 990.5 768.2 990.3 767.8 C 990.2 767.3 990.1 766.8 990.1 766.3 C 990.1 765.8 990.2 765.3 990.3 764.7 C 990.5 764.2 990.7 763.8 991.0 763.4 C 991.3 763.0 991.7 762.7 992.2 762.5 C 992.6 762.2 993.2 762.1 993.8 762.1 C 995.7 762.1 997.1 762.8 998.0 764.3 L 993.7 771.6 C 993.5 771.5 993.4 771.3 993.2 771.2 C 993.1 771.1 992.9 770.9 992.7 770.8 M 993.8 761.2 C 992.4 761.2 991.2 761.7 990.4 762.7 C 989.6 763.6 989.2 764.8 989.2 766.3 C 989.2 767.0 989.3 767.5 989.4 768.1 C 989.6 768.6 989.8 769.0 990.1 769.4 C 990.4 769.8 990.7 770.2 991.0 770.5 C 991.4 770.9 991.8 771.2 992.1 771.5 C 992.3 771.7 992.5 771.8 992.7 772.0 C 992.8 772.1 993.0 772.3 993.2 772.5 C 993.1 772.7 992.9 773.0 992.7 773.4 C 992.4 773.7 992.2 774.2 992.0 774.7 C 991.8 775.1 991.6 775.6 991.4 776.1 C 991.3 776.7 991.2 777.2 991.2 777.7 C 991.2 778.4 991.3 779.0 991.3 779.5 C 991.4 780.0 991.6 780.4 991.7 780.7 C 992.2 781.5 992.9 781.9 993.8 781.9 C 994.9 781.9 995.6 781.4 996.0 780.5 C 996.2 780.1 996.3 779.6 996.4 779.1 C 996.4 778.6 996.4 778.1 996.4 777.7 C 996.4 777.0 996.4 776.3 996.2 775.7 C 996.1 775.1 995.9 774.6 995.7 774.1 C 995.5 773.7 995.2 773.3 995.0 773.0 C 994.8 772.7 994.6 772.5 994.4 772.3 L 998.5 765.4 C 998.8 766.2 998.9 767.0 999.0 767.8 C 999.1 768.6 999.1 769.4 999.1 770.0 L 999.1 770.3 L 1000.1 770.3 L 1000.1 770.0 C 1000.1 769.2 1000.0 768.3 999.9 767.3 C 999.8 766.3 999.6 765.3 999.1 764.4 C 999.1 764.4 999.1 764.4 999.1 764.4 C 999.1 764.4 999.1 764.4 999.1 764.3 L 1000.9 761.2 L 999.8 761.2 L 998.5 763.4 C 997.5 761.9 995.9 761.2 993.8 761.2 " fill="#FFFFFF"></path><path d="M 1019.9 781.0 L 1014.9 781.0 L 1014.9 761.2 L 1014.0 761.2 L 1014.0 781.0 L 1009.0 781.0 L 1009.0 781.9 L 1019.9 781.9 Z M 1019.9 781.0 " fill="#FFFFFF"></path><path d="M 1026.7 779.3 L 1024.2 768.5 L 1029.2 768.5 Z M 1022.5 761.2 L 1021.5 761.2 L 1023.1 768.4 L 1023.1 768.5 L 1026.3 781.9 L 1027.1 781.9 L 1031.8 761.2 L 1030.8 761.2 L 1029.4 767.5 L 1023.9 767.5 Z M 1022.5 761.2 " fill="#FFFFFF"></path><path d="M 1036.3 772.4 L 1042.6 761.2 L 1041.5 761.2 L 1035.7 771.5 L 1033.6 768.4 L 1033.6 761.2 L 1032.6 761.2 L 1032.6 781.9 L 1033.6 781.9 L 1033.6 770.1 L 1041.5 781.9 L 1042.6 781.9 Z M 1036.3 772.4 " fill="#FFFFFF"></path><path d="M 1044.7 781.0 L 1044.7 772.0 L 1051.2 772.0 L 1051.2 771.1 L 1044.7 771.1 L 1044.7 762.1 L 1051.2 762.1 L 1051.2 761.2 L 1043.7 761.2 L 1043.7 781.9 L 1051.2 781.9 L 1051.2 781.0 Z M 1044.7 781.0 " fill="#FFFFFF"></path></g></g></g></g><g><clipPath id="clip-545"><path d="M 922.0 909.0 L 1076.0 909.0 L 1076.0 645.0 L 922.0 645.0 Z M 922.0 909.0 "></path></clipPath><g clip-path="url(#clip-545)"><g><clipPath id="clip-546"><path d="M 922.0 734.0 L 1076.0 734.0 L 1076.0 850.0 L 922.0 850.0 Z M 922.0 734.0 "></path></clipPath><g clip-path="url(#clip-546)"><g><g><clipPath id="clip-547"><path d="M 942.7 792.0 L 1055.3 792.0 L 1055.3 840.8 L 942.7 840.8 Z M 942.7 792.0 "></path></clipPath><g clip-path="url(#clip-547)"><path d="M 986.2 815.7 L 999.0 793.9 L 1012.1 816.1 L 999.3 838.0 Z M 999.5 792.1 L 998.6 792.1 L 984.6 815.7 L 999.3 840.6 L 1013.7 816.1 Z M 999.5 792.1 " fill="#FFFFFF"></path><path d="M 1027.1 793.4 L 1052.8 793.4 L 1026.5 838.0 L 1013.7 816.1 Z M 1055.1 792.1 L 1026.3 792.1 L 1012.1 816.1 L 1026.5 840.6 Z M 1055.1 792.1 " fill="#FFFFFF"></path><path d="M 1000.3 793.4 L 1025.6 793.4 L 1012.9 814.8 Z M 1027.9 792.1 L 998.0 792.1 L 1012.9 817.4 Z M 1027.9 792.1 " fill="#FFFFFF"></path><path d="M 945.2 793.4 L 971.5 793.4 L 984.6 815.7 L 971.5 838.0 Z M 972.2 792.1 L 942.9 792.1 L 971.5 840.6 L 986.2 815.7 Z M 972.2 792.1 " fill="#FFFFFF"></path><path d="M 973.0 793.4 L 997.8 793.4 L 985.4 814.4 Z M 1000.1 792.1 L 970.7 792.1 L 985.4 817.0 Z M 1000.1 792.1 " fill="#FFFFFF"></path></g></g></g></g></g></g></g><g><clipPath id="clip-548"><path d="M 1054.0 751.6 L 944.0 751.6 L 943.9 751.6 L 943.9 751.5 L 943.9 751.0 L 943.9 750.9 L 944.0 750.9 L 1054.0 750.9 L 1054.1 750.9 L 1054.1 751.0 L 1054.1 751.5 L 1054.1 751.6 Z M 1054.0 751.6 "></path></clipPath><g clip-path="url(#clip-548)"><g><clipPath id="clip-549"><path d="M 922.0 734.0 L 1076.0 734.0 L 1076.0 850.0 L 922.0 850.0 Z M 922.0 734.0 "></path></clipPath><g clip-path="url(#clip-549)"><path d="M 941.8 748.8 L 1056.2 748.8 L 1056.2 753.7 L 941.8 753.7 Z M 941.8 748.8 " fill="#FFFFFF"></path></g></g></g></g><g><clipPath id="clip-550"><path d="M 939.2 746.2 L 1058.8 746.2 L 1058.8 756.3 L 939.2 756.3 Z M 944.0 751.5 L 1054.0 751.5 L 1054.0 751.0 L 944.0 751.0 Z M 944.0 751.5 "></path></clipPath><g clip-path="url(#clip-550)"><g><clipPath id="clip-551"><path d="M 922.0 734.0 L 1076.0 734.0 L 1076.0 850.0 L 922.0 850.0 Z M 922.0 734.0 "></path></clipPath><g clip-path="url(#clip-551)"><path d="M 1054.4 750.6 L 943.6 750.6 L 943.6 751.9 L 1054.4 751.9 Z M 1054.4 750.6 " fill="#FFFFFF"></path></g></g></g></g></g></g></g></g></g><g><clipPath id="clip-552"><path d="M 240.4 904.6 L 585.6 904.6 L 585.6 989.7 L 240.4 989.7 Z M 240.4 904.6 "></path></clipPath><g clip-path="url(#clip-552)"><text xml:space="preserve" font-family="Roboto-Thin" font-size="48.0" fill="#52575F" transform="matrix(1.00, 0.00, -0.00, -1.00, 364.0, 930.0)">M</text><text xml:space="preserve" font-family="Roboto-Thin" font-size="48.0" fill="#52575F" transform="matrix(1.00, 0.00, -0.00, -1.00, 405.2, 930.0)">V</text><text xml:space="preserve" font-family="Roboto-Thin" font-size="48.0" fill="#52575F" transform="matrix(1.00, 0.00, -0.00, -1.00, 433.9, 930.0)">P</text></g></g><g><clipPath id="clip-553"><path d="M 70.8 611.8 L 755.2 611.8 L 755.2 901.8 L 70.8 901.8 Z M 70.8 611.8 "></path></clipPath><g clip-path="url(#clip-553)"><text xml:space="preserve" font-family="NexaBold" font-weight="bold" font-size="100.0" fill="#52575F" transform="matrix(1.00, 0.00, -0.00, -1.00, 160.0, 782.0)">H</text><text xml:space="preserve" font-family="NexaBold" font-weight="bold" font-size="100.0" fill="#52575F" transform="matrix(1.00, 0.00, -0.00, -1.00, 233.2, 782.0)">o</text><text xml:space="preserve" font-family="NexaBold" font-weight="bold" font-size="100.0" fill="#52575F" transform="matrix(1.00, 0.00, -0.00, -1.00, 288.5, 782.0)">w</text><text xml:space="preserve" font-family="NexaBold" font-weight="bold" font-size="100.0" fill="#52575F" transform="matrix(1.00, 0.00, -0.00, -1.00, 379.7, 782.0)"> </text><text xml:space="preserve" font-family="NexaBold" font-weight="bold" font-size="100.0" fill="#52575F" transform="matrix(1.00, 0.00, -0.00, -1.00, 399.9, 782.0)">m</text><text xml:space="preserve" font-family="NexaBold" font-weight="bold" font-size="100.0" fill="#52575F" transform="matrix(1.00, 0.00, -0.00, -1.00, 489.5, 782.0)">i</text><text xml:space="preserve" font-family="NexaBold" font-weight="bold" font-size="100.0" fill="#52575F" transform="matrix(1.00, 0.00, -0.00, -1.00, 512.7, 782.0)">g</text><text xml:space="preserve" font-family="NexaBold" font-weight="bold" font-size="100.0" fill="#52575F" transform="matrix(1.00, 0.00, -0.00, -1.00, 568.9, 782.0)">h</text><text xml:space="preserve" font-family="NexaBold" font-weight="bold" font-size="100.0" fill="#52575F" transform="matrix(1.00, 0.00, -0.00, -1.00, 627.0, 782.0)">t</text><text xml:space="preserve" font-family="NexaBold" font-weight="bold" font-size="100.0" fill="#52575F" transform="matrix(1.00, 0.00, -0.00, -1.00, 666.9, 782.0)"> </text><text xml:space="preserve" font-family="NexaBold" font-weight="bold" font-size="100.0" fill="#52575F" transform="matrix(1.00, 0.00, -0.00, -1.00, 162.0, 662.0)">w</text><text xml:space="preserve" font-family="NexaBold" font-weight="bold" font-size="100.0" fill="#52575F" transform="matrix(1.00, 0.00, -0.00, -1.00, 253.2, 662.0)">e</text><text xml:space="preserve" font-family="NexaBold" font-weight="bold" font-size="100.0" fill="#52575F" transform="matrix(1.00, 0.00, -0.00, -1.00, 311.5, 662.0)"> </text><text xml:space="preserve" font-family="NexaBold" font-weight="bold" font-size="100.0" fill="#52575F" transform="matrix(1.00, 0.00, -0.00, -1.00, 331.7, 662.0)">t</text><text xml:space="preserve" font-family="NexaBold" font-weight="bold" font-size="100.0" fill="#52575F" transform="matrix(1.00, 0.00, -0.00, -1.00, 371.6, 662.0)">e</text><text xml:space="preserve" font-family="NexaBold" font-weight="bold" font-size="100.0" fill="#52575F" transform="matrix(1.00, 0.00, -0.00, -1.00, 429.9, 662.0)">s</text><text xml:space="preserve" font-family="NexaBold" font-weight="bold" font-size="100.0" fill="#52575F" transform="matrix(1.00, 0.00, -0.00, -1.00, 479.0, 662.0)">t</text><text xml:space="preserve" font-family="NexaBold" font-weight="bold" font-size="100.0" fill="#52575F" transform="matrix(1.00, 0.00, -0.00, -1.00, 518.9, 662.0)"> </text><text xml:space="preserve" font-family="NexaBold" font-weight="bold" font-size="100.0" fill="#52575F" transform="matrix(1.00, 0.00, -0.00, -1.00, 539.1, 662.0)">i</text><text xml:space="preserve" font-family="NexaBold" font-weight="bold" font-size="100.0" fill="#52575F" transform="matrix(1.00, 0.00, -0.00, -1.00, 562.3, 662.0)">t</text><text xml:space="preserve" font-family="NexaBold" font-weight="bold" font-size="100.0" fill="#52575F" transform="matrix(1.00, 0.00, -0.00, -1.00, 602.2, 662.0)">?</text></g></g><g><clipPath id="clip-554"><path d="M 40.6 509.7 L 785.4 509.7 L 785.4 1254.6 L 40.6 1254.6 Z M 40.6 509.7 "></path></clipPath><g clip-path="url(#clip-554)"><path d="M 0.0 0.0 L 734.9 0.0 L 734.9 734.9 L 0.0 734.9 Z M 0.0 0.0 " fill="none" stroke="#A6AAA8" stroke-width="8.00" stroke-miterlimit="8.00" transform="matrix(1.00, 0.00, 0.00, -1.00, 45.6, 1249.6)"></path></g></g><g><clipPath id="clip-555"><path d="M -76.3 404.0 L 117.1 404.0 L 117.1 615.6 L -76.3 615.6 Z M -76.3 404.0 "></path></clipPath><g clip-path="url(#clip-555)"><path d="M 0.0 0.0 L 188.5 0.0 L 188.5 206.5 L 0.0 206.5 Z M 0.0 0.0 " fill="none" stroke="#A6AAA8" stroke-width="3.00" stroke-miterlimit="8.00" transform="matrix(1.00, 0.00, 0.00, -1.00, -73.8, 613.1)"></path></g></g></g></svg>