<?xml version="1.0" encoding="UTF-8" standalone="no"?><svg xmlns="http://www.w3.org/2000/svg" xmlns:xlink="http://www.w3.org/1999/xlink" clip-rule="evenodd" stroke-miterlimit="4.00" viewBox="0 0 863 851"><desc>SVG generated by Keynote</desc><defs></defs><g transform="matrix(1.00, 0.00, -0.00, -1.00, 0.0, 851.0)"><g><clipPath id="clip-493"><path d="M 317.4 500.6 L 662.6 500.6 L 662.6 585.7 L 317.4 585.7 Z M 317.4 500.6 "></path></clipPath><g clip-path="url(#clip-493)"><text xml:space="preserve" font-family="Roboto-Thin" font-size="48.0" fill="#52575F" transform="matrix(1.00, 0.00, -0.00, -1.00, 441.0, 526.0)">M</text><text xml:space="preserve" font-family="Roboto-Thin" font-size="48.0" fill="#52575F" transform="matrix(1.00, 0.00, -0.00, -1.00, 482.2, 526.0)">V</text><text xml:space="preserve" font-family="Roboto-Thin" font-size="48.0" fill="#52575F" transform="matrix(1.00, 0.00, -0.00, -1.00, 510.9, 526.0)">P</text></g></g><g><clipPath id="clip-494"><path d="M 147.8 207.8 L 832.2 207.8 L 832.2 497.8 L 147.8 497.8 Z M 147.8 207.8 "></path></clipPath><g clip-path="url(#clip-494)"><text xml:space="preserve" font-family="NexaBold" font-weight="bold" font-size="100.0" fill="#52575F" transform="matrix(1.00, 0.00, -0.00, -1.00, 237.0, 378.0)">H</text><text xml:space="preserve" font-family="NexaBold" font-weight="bold" font-size="100.0" fill="#52575F" transform="matrix(1.00, 0.00, -0.00, -1.00, 310.2, 378.0)">o</text><text xml:space="preserve" font-family="NexaBold" font-weight="bold" font-size="100.0" fill="#52575F" transform="matrix(1.00, 0.00, -0.00, -1.00, 365.5, 378.0)">w</text><text xml:space="preserve" font-family="NexaBold" font-weight="bold" font-size="100.0" fill="#52575F" transform="matrix(1.00, 0.00, -0.00, -1.00, 456.7, 378.0)"> </text><text xml:space="preserve" font-family="NexaBold" font-weight="bold" font-size="100.0" fill="#52575F" transform="matrix(1.00, 0.00, -0.00, -1.00, 476.9, 378.0)">m</text><text xml:space="preserve" font-family="NexaBold" font-weight="bold" font-size="100.0" fill="#52575F" transform="matrix(1.00, 0.00, -0.00, -1.00, 566.5, 378.0)">i</text><text xml:space="preserve" font-family="NexaBold" font-weight="bold" font-size="100.0" fill="#52575F" transform="matrix(1.00, 0.00, -0.00, -1.00, 589.7, 378.0)">g</text><text xml:space="preserve" font-family="NexaBold" font-weight="bold" font-size="100.0" fill="#52575F" transform="matrix(1.00, 0.00, -0.00, -1.00, 645.9, 378.0)">h</text><text xml:space="preserve" font-family="NexaBold" font-weight="bold" font-size="100.0" fill="#52575F" transform="matrix(1.00, 0.00, -0.00, -1.00, 704.0, 378.0)">t</text><text xml:space="preserve" font-family="NexaBold" font-weight="bold" font-size="100.0" fill="#52575F" transform="matrix(1.00, 0.00, -0.00, -1.00, 743.9, 378.0)"> </text><text xml:space="preserve" font-family="NexaBold" font-weight="bold" font-size="100.0" fill="#52575F" transform="matrix(1.00, 0.00, -0.00, -1.00, 239.0, 258.0)">w</text><text xml:space="preserve" font-family="NexaBold" font-weight="bold" font-size="100.0" fill="#52575F" transform="matrix(1.00, 0.00, -0.00, -1.00, 330.2, 258.0)">e</text><text xml:space="preserve" font-family="NexaBold" font-weight="bold" font-size="100.0" fill="#52575F" transform="matrix(1.00, 0.00, -0.00, -1.00, 388.5, 258.0)"> </text><text xml:space="preserve" font-family="NexaBold" font-weight="bold" font-size="100.0" fill="#52575F" transform="matrix(1.00, 0.00, -0.00, -1.00, 408.7, 258.0)">t</text><text xml:space="preserve" font-family="NexaBold" font-weight="bold" font-size="100.0" fill="#52575F" transform="matrix(1.00, 0.00, -0.00, -1.00, 448.6, 258.0)">e</text><text xml:space="preserve" font-family="NexaBold" font-weight="bold" font-size="100.0" fill="#52575F" transform="matrix(1.00, 0.00, -0.00, -1.00, 506.9, 258.0)">s</text><text xml:space="preserve" font-family="NexaBold" font-weight="bold" font-size="100.0" fill="#52575F" transform="matrix(1.00, 0.00, -0.00, -1.00, 556.0, 258.0)">t</text><text xml:space="preserve" font-family="NexaBold" font-weight="bold" font-size="100.0" fill="#52575F" transform="matrix(1.00, 0.00, -0.00, -1.00, 595.9, 258.0)"> </text><text xml:space="preserve" font-family="NexaBold" font-weight="bold" font-size="100.0" fill="#52575F" transform="matrix(1.00, 0.00, -0.00, -1.00, 616.1, 258.0)">i</text><text xml:space="preserve" font-family="NexaBold" font-weight="bold" font-size="100.0" fill="#52575F" transform="matrix(1.00, 0.00, -0.00, -1.00, 639.3, 258.0)">t</text><text xml:space="preserve" font-family="NexaBold" font-weight="bold" font-size="100.0" fill="#52575F" transform="matrix(1.00, 0.00, -0.00, -1.00, 679.2, 258.0)">?</text></g></g><g><clipPath id="clip-495"><path d="M 117.6 105.7 L 862.4 105.7 L 862.4 850.6 L 117.6 850.6 Z M 117.6 105.7 "></path></clipPath><g clip-path="url(#clip-495)"><path d="M 0.0 0.0 L 734.9 0.0 L 734.9 734.9 L 0.0 734.9 Z M 0.0 0.0 " fill="none" stroke="#A6AAA8" stroke-width="8.00" stroke-miterlimit="8.00" transform="matrix(1.00, 0.00, 0.00, -1.00, 122.6, 845.6)"></path></g></g><g><clipPath id="clip-496"><path d="M 0.7 0.0 L 194.1 0.0 L 194.1 211.6 L 0.7 211.6 Z M 0.7 0.0 "></path></clipPath><g clip-path="url(#clip-496)"><path d="M 0.0 0.0 L 188.5 0.0 L 188.5 206.5 L 0.0 206.5 Z M 0.0 0.0 " fill="none" stroke="#A6AAA8" stroke-width="3.00" stroke-miterlimit="8.00" transform="matrix(1.00, 0.00, 0.00, -1.00, 3.2, 209.1)"></path></g></g></g></svg>