<?xml version="1.0" encoding="UTF-8" standalone="no"?><svg xmlns="http://www.w3.org/2000/svg" xmlns:xlink="http://www.w3.org/1999/xlink" clip-rule="evenodd" stroke-miterlimit="4.00" viewBox="0 0 807 1088"><desc>SVG generated by Keynote</desc><defs><pattern id="17D4C193-411D-4210-BCD6-5F98D8EFF4E5" patternUnits="userSpaceOnUse" width="600" height="600" viewBox="0 0 600 600" patternTransform="matrix(0.500000, 0.000000, 0.000000, -0.500000, 4.676741, 1086.000000)"><image xlink:href="../../E01699BB-C0D1-4305-AE93-C866749E9FD9/assets/3B125388B1C2690D02541E1FFAB050B1.jpeg" width="600.00" height="600.00"></image></pattern></defs><g transform="matrix(1.00, 0.00, -0.00, -1.00, 0.0, 1088.0)"><g><clipPath id="clip-396"><path d="M 0.7 0.0 L 806.0 0.0 L 806.0 1088.0 L 0.7 1088.0 Z M 0.7 0.0 "></path></clipPath><g clip-path="url(#clip-396)"><image xlink:href="DE6E0E4A11C4AB7CBB236FACCF38C9BD.png" width="803.00" height="1086.00" transform="matrix(1.00, 0.00, -0.00, -1.00, 1.7, 1087.0)" opacity="0.50"></image></g></g><g><clipPath id="clip-397"><path d="M 4.7 1086.0 L 802.0 1086.0 L 802.0 6.0 L 4.7 6.0 Z M 4.7 1086.0 "></path></clipPath><g clip-path="url(#clip-397)"><g><clipPath id="clip-398"><path d="M 0.7 0.0 L 806.0 0.0 L 806.0 1088.0 L 0.7 1088.0 Z M 0.7 0.0 "></path></clipPath><g clip-path="url(#clip-398)"><path d="M 4.7 6.0 L 802.0 6.0 L 802.0 1086.0 L 4.7 1086.0 Z M 4.7 6.0 " fill="url(#17D4C193-411D-4210-BCD6-5F98D8EFF4E5)"></path><path d="M 4.7 1086.0 L 802.0 1086.0 L 802.0 6.0 L 4.7 6.0 Z M 4.7 1086.0 " fill="#8336BB" fill-opacity="0.50"></path></g></g></g></g><g><clipPath id="clip-399"><path d="M 98.8 871.3 L 667.3 871.3 L 667.3 956.4 L 98.8 956.4 Z M 98.8 871.3 "></path></clipPath><g clip-path="url(#clip-399)"><text xml:space="preserve" font-family="Roboto-Thin" font-size="48.0" fill="#FEFFFF" transform="matrix(1.00, 0.00, -0.00, -1.00, 113.0, 897.0)">B</text><text xml:space="preserve" font-family="Roboto-Thin" font-size="48.0" fill="#FEFFFF" transform="matrix(1.00, 0.00, -0.00, -1.00, 141.9, 897.0)">U</text><text xml:space="preserve" font-family="Roboto-Thin" font-size="48.0" fill="#FEFFFF" transform="matrix(1.00, 0.00, -0.00, -1.00, 173.9, 897.0)">S</text><text xml:space="preserve" font-family="Roboto-Thin" font-size="48.0" fill="#FEFFFF" transform="matrix(1.00, 0.00, -0.00, -1.00, 202.3, 897.0)">I</text><text xml:space="preserve" font-family="Roboto-Thin" font-size="48.0" fill="#FEFFFF" transform="matrix(1.00, 0.00, -0.00, -1.00, 214.8, 897.0)">N</text><text xml:space="preserve" font-family="Roboto-Thin" font-size="48.0" fill="#FEFFFF" transform="matrix(1.00, 0.00, -0.00, -1.00, 248.7, 897.0)">E</text><text xml:space="preserve" font-family="Roboto-Thin" font-size="48.0" fill="#FEFFFF" transform="matrix(1.00, 0.00, -0.00, -1.00, 276.1, 897.0)">S</text><text xml:space="preserve" font-family="Roboto-Thin" font-size="48.0" fill="#FEFFFF" transform="matrix(1.00, 0.00, -0.00, -1.00, 304.5, 897.0)">S</text><text xml:space="preserve" font-family="Roboto-Thin" font-size="48.0" fill="#FEFFFF" transform="matrix(1.00, 0.00, -0.00, -1.00, 332.9, 897.0)"> </text><text xml:space="preserve" font-family="Roboto-Thin" font-size="48.0" fill="#FEFFFF" transform="matrix(1.00, 0.00, -0.00, -1.00, 344.4, 897.0)">M</text><text xml:space="preserve" font-family="Roboto-Thin" font-size="48.0" fill="#FEFFFF" transform="matrix(1.00, 0.00, -0.00, -1.00, 385.6, 897.0)">O</text><text xml:space="preserve" font-family="Roboto-Thin" font-size="48.0" fill="#FEFFFF" transform="matrix(1.00, 0.00, -0.00, -1.00, 417.5, 897.0)">D</text><text xml:space="preserve" font-family="Roboto-Thin" font-size="48.0" fill="#FEFFFF" transform="matrix(1.00, 0.00, -0.00, -1.00, 448.9, 897.0)">E</text><text xml:space="preserve" font-family="Roboto-Thin" font-size="48.0" fill="#FEFFFF" transform="matrix(1.00, 0.00, -0.00, -1.00, 476.3, 897.0)">L</text></g></g><g><clipPath id="clip-400"><path d="M 90.8 503.5 L 737.0 503.5 L 737.0 869.9 L 90.8 869.9 Z M 90.8 503.5 "></path></clipPath><g clip-path="url(#clip-400)"><text xml:space="preserve" font-family="NexaBold" font-weight="bold" font-size="80.0" fill="#FEFFFF" transform="matrix(1.00, 0.00, -0.00, -1.00, 111.0, 774.0)">B</text><text xml:space="preserve" font-family="NexaBold" font-weight="bold" font-size="80.0" fill="#FEFFFF" transform="matrix(1.00, 0.00, -0.00, -1.00, 165.6, 774.0)">u</text><text xml:space="preserve" font-family="NexaBold" font-weight="bold" font-size="80.0" fill="#FEFFFF" transform="matrix(1.00, 0.00, -0.00, -1.00, 213.6, 774.0)">t</text><text xml:space="preserve" font-family="NexaBold" font-weight="bold" font-size="80.0" fill="#FEFFFF" transform="matrix(1.00, 0.00, -0.00, -1.00, 245.5, 774.0)"> </text><text xml:space="preserve" font-family="NexaBold" font-weight="bold" font-size="80.0" fill="#FEFFFF" transform="matrix(1.00, 0.00, -0.00, -1.00, 261.6, 774.0)">h</text><text xml:space="preserve" font-family="NexaBold" font-weight="bold" font-size="80.0" fill="#FEFFFF" transform="matrix(1.00, 0.00, -0.00, -1.00, 308.1, 774.0)">o</text><text xml:space="preserve" font-family="NexaBold" font-weight="bold" font-size="80.0" fill="#FEFFFF" transform="matrix(1.00, 0.00, -0.00, -1.00, 352.4, 774.0)">w</text><text xml:space="preserve" font-family="NexaBold" font-weight="bold" font-size="80.0" fill="#FEFFFF" transform="matrix(1.00, 0.00, -0.00, -1.00, 425.3, 774.0)"> </text><text xml:space="preserve" font-family="NexaBold" font-weight="bold" font-size="80.0" fill="#FEFFFF" transform="matrix(1.00, 0.00, -0.00, -1.00, 441.5, 774.0)">t</text><text xml:space="preserve" font-family="NexaBold" font-weight="bold" font-size="80.0" fill="#FEFFFF" transform="matrix(1.00, 0.00, -0.00, -1.00, 473.4, 774.0)">o</text><text xml:space="preserve" font-family="NexaBold" font-weight="bold" font-size="80.0" fill="#FEFFFF" transform="matrix(1.00, 0.00, -0.00, -1.00, 519.3, 774.0)"> </text><text xml:space="preserve" font-family="NexaBold" font-weight="bold" font-size="80.0" fill="#FEFFFF" transform="matrix(1.00, 0.00, -0.00, -1.00, 111.0, 697.0)">m</text><text xml:space="preserve" font-family="NexaBold" font-weight="bold" font-size="80.0" fill="#FEFFFF" transform="matrix(1.00, 0.00, -0.00, -1.00, 182.7, 697.0)">a</text><text xml:space="preserve" font-family="NexaBold" font-weight="bold" font-size="80.0" fill="#FEFFFF" transform="matrix(1.00, 0.00, -0.00, -1.00, 231.6, 697.0)">k</text><text xml:space="preserve" font-family="NexaBold" font-weight="bold" font-size="80.0" fill="#FEFFFF" transform="matrix(1.00, 0.00, -0.00, -1.00, 272.8, 697.0)">e</text><text xml:space="preserve" font-family="NexaBold" font-weight="bold" font-size="80.0" fill="#FEFFFF" transform="matrix(1.00, 0.00, -0.00, -1.00, 319.4, 697.0)"> </text><text xml:space="preserve" font-family="NexaBold" font-weight="bold" font-size="80.0" fill="#FEFFFF" transform="matrix(1.00, 0.00, -0.00, -1.00, 335.6, 697.0)">m</text><text xml:space="preserve" font-family="NexaBold" font-weight="bold" font-size="80.0" fill="#FEFFFF" transform="matrix(1.00, 0.00, -0.00, -1.00, 407.2, 697.0)">o</text><text xml:space="preserve" font-family="NexaBold" font-weight="bold" font-size="80.0" fill="#FEFFFF" transform="matrix(1.00, 0.00, -0.00, -1.00, 453.2, 697.0)">n</text><text xml:space="preserve" font-family="NexaBold" font-weight="bold" font-size="80.0" fill="#FEFFFF" transform="matrix(1.00, 0.00, -0.00, -1.00, 500.4, 697.0)">e</text><text xml:space="preserve" font-family="NexaBold" font-weight="bold" font-size="80.0" fill="#FEFFFF" transform="matrix(1.00, 0.00, -0.00, -1.00, 545.3, 697.0)">y</text><text xml:space="preserve" font-family="NexaBold" font-weight="bold" font-size="80.0" fill="#FEFFFF" transform="matrix(1.00, 0.00, -0.00, -1.00, 590.2, 697.0)"> </text><text xml:space="preserve" font-family="NexaBold" font-weight="bold" font-size="80.0" fill="#FEFFFF" transform="matrix(1.00, 0.00, -0.00, -1.00, 111.0, 620.0)">w</text><text xml:space="preserve" font-family="NexaBold" font-weight="bold" font-size="80.0" fill="#FEFFFF" transform="matrix(1.00, 0.00, -0.00, -1.00, 184.0, 620.0)">i</text><text xml:space="preserve" font-family="NexaBold" font-weight="bold" font-size="80.0" fill="#FEFFFF" transform="matrix(1.00, 0.00, -0.00, -1.00, 202.5, 620.0)">t</text><text xml:space="preserve" font-family="NexaBold" font-weight="bold" font-size="80.0" fill="#FEFFFF" transform="matrix(1.00, 0.00, -0.00, -1.00, 234.4, 620.0)">h</text><text xml:space="preserve" font-family="NexaBold" font-weight="bold" font-size="80.0" fill="#FEFFFF" transform="matrix(1.00, 0.00, -0.00, -1.00, 280.9, 620.0)"> </text><text xml:space="preserve" font-family="NexaBold" font-weight="bold" font-size="80.0" fill="#FEFFFF" transform="matrix(1.00, 0.00, -0.00, -1.00, 297.1, 620.0)">a</text><text xml:space="preserve" font-family="NexaBold" font-weight="bold" font-size="80.0" fill="#FEFFFF" transform="matrix(1.00, 0.00, -0.00, -1.00, 346.0, 620.0)"> </text><text xml:space="preserve" font-family="NexaBold" font-weight="bold" font-size="80.0" fill="#FEFFFF" transform="matrix(1.00, 0.00, -0.00, -1.00, 362.1, 620.0)">t</text><text xml:space="preserve" font-family="NexaBold" font-weight="bold" font-size="80.0" fill="#FEFFFF" transform="matrix(1.00, 0.00, -0.00, -1.00, 394.0, 620.0)">r</text><text xml:space="preserve" font-family="NexaBold" font-weight="bold" font-size="80.0" fill="#FEFFFF" transform="matrix(1.00, 0.00, -0.00, -1.00, 428.8, 620.0)">a</text><text xml:space="preserve" font-family="NexaBold" font-weight="bold" font-size="80.0" fill="#FEFFFF" transform="matrix(1.00, 0.00, -0.00, -1.00, 477.6, 620.0)">d</text><text xml:space="preserve" font-family="NexaBold" font-weight="bold" font-size="80.0" fill="#FEFFFF" transform="matrix(1.00, 0.00, -0.00, -1.00, 527.1, 620.0)">i</text><text xml:space="preserve" font-family="NexaBold" font-weight="bold" font-size="80.0" fill="#FEFFFF" transform="matrix(1.00, 0.00, -0.00, -1.00, 545.6, 620.0)">n</text><text xml:space="preserve" font-family="NexaBold" font-weight="bold" font-size="80.0" fill="#FEFFFF" transform="matrix(1.00, 0.00, -0.00, -1.00, 592.8, 620.0)">g</text><text xml:space="preserve" font-family="NexaBold" font-weight="bold" font-size="80.0" fill="#FEFFFF" transform="matrix(1.00, 0.00, -0.00, -1.00, 637.0, 620.0)"> </text><text xml:space="preserve" font-family="NexaBold" font-weight="bold" font-size="80.0" fill="#FEFFFF" transform="matrix(1.00, 0.00, -0.00, -1.00, 111.0, 544.0)">s</text><text xml:space="preserve" font-family="NexaBold" font-weight="bold" font-size="80.0" fill="#FEFFFF" transform="matrix(1.00, 0.00, -0.00, -1.00, 150.3, 544.0)">y</text><text xml:space="preserve" font-family="NexaBold" font-weight="bold" font-size="80.0" fill="#FEFFFF" transform="matrix(1.00, 0.00, -0.00, -1.00, 195.2, 544.0)">s</text><text xml:space="preserve" font-family="NexaBold" font-weight="bold" font-size="80.0" fill="#FEFFFF" transform="matrix(1.00, 0.00, -0.00, -1.00, 234.4, 544.0)">t</text><text xml:space="preserve" font-family="NexaBold" font-weight="bold" font-size="80.0" fill="#FEFFFF" transform="matrix(1.00, 0.00, -0.00, -1.00, 266.4, 544.0)">e</text><text xml:space="preserve" font-family="NexaBold" font-weight="bold" font-size="80.0" fill="#FEFFFF" transform="matrix(1.00, 0.00, -0.00, -1.00, 312.2, 544.0)">m</text><text xml:space="preserve" font-family="NexaBold" font-weight="bold" font-size="80.0" fill="#FEFFFF" transform="matrix(1.00, 0.00, -0.00, -1.00, 383.9, 544.0)">?</text></g></g></g></svg>