<?xml version="1.0" encoding="UTF-8" standalone="no"?><svg xmlns="http://www.w3.org/2000/svg" xmlns:xlink="http://www.w3.org/1999/xlink" clip-rule="evenodd" stroke-miterlimit="4.00" viewBox="0 0 1920 1080"><desc>SVG generated by Keynote</desc><defs><pattern id="3299F453-CBF2-451B-B4DE-D2AAFE65379B" patternUnits="userSpaceOnUse" width="600" height="600" viewBox="0 0 600 600" patternTransform="matrix(0.500000, 0.000000, 0.000000, -0.500000, -26.323260, 1080.000000)"><image xlink:href="../../E01699BB-C0D1-4305-AE93-C866749E9FD9/assets/3B125388B1C2690D02541E1FFAB050B1.jpeg" width="600.00" height="600.00"></image></pattern></defs><g transform="matrix(1.00, 0.00, -0.00, -1.00, 0.0, 1080.0)"><path d="M 0.0 1080.0 L 1920.0 1080.0 L 1920.0 0.0 L 0.0 0.0 Z M 0.0 1080.0 " fill="#FEFFFF"></path><g><clipPath id="clip-417"><path d="M -30.3 -6.0 L 775.0 -6.0 L 775.0 1082.0 L -30.3 1082.0 Z M -30.3 -6.0 "></path></clipPath><g clip-path="url(#clip-417)"><image xlink:href="../../81B05E9F-1585-4958-9AB8-BDEB67AA6FE0/assets/DE6E0E4A11C4AB7CBB236FACCF38C9BD.png" width="803.00" height="1086.00" transform="matrix(1.00, 0.00, -0.00, -1.00, -29.3, 1081.0)" opacity="0.50"></image></g></g><g><clipPath id="clip-418"><path d="M -26.3 1080.0 L 771.0 1080.0 L 771.0 0.0 L -26.3 0.0 Z M -26.3 1080.0 "></path></clipPath><g clip-path="url(#clip-418)"><g><clipPath id="clip-419"><path d="M -30.3 -6.0 L 775.0 -6.0 L 775.0 1082.0 L -30.3 1082.0 Z M -30.3 -6.0 "></path></clipPath><g clip-path="url(#clip-419)"><path d="M 0.0 0.0 L 771.0 0.0 L 771.0 1080.0 L 0.0 1080.0 Z M 0.0 0.0 " fill="url(#3299F453-CBF2-451B-B4DE-D2AAFE65379B)"></path><path d="M -26.3 1080.0 L 771.0 1080.0 L 771.0 0.0 L -26.3 0.0 Z M -26.3 1080.0 " fill="#8336BB" fill-opacity="0.50"></path></g></g></g></g><g><clipPath id="clip-420"><path d="M 67.8 865.3 L 636.3 865.3 L 636.3 950.4 L 67.8 950.4 Z M 67.8 865.3 "></path></clipPath><g clip-path="url(#clip-420)"><text xml:space="preserve" font-family="Roboto-Thin" font-size="48.0" fill="#FEFFFF" transform="matrix(1.00, 0.00, -0.00, -1.00, 82.0, 891.0)">B</text><text xml:space="preserve" font-family="Roboto-Thin" font-size="48.0" fill="#FEFFFF" transform="matrix(1.00, 0.00, -0.00, -1.00, 110.9, 891.0)">U</text><text xml:space="preserve" font-family="Roboto-Thin" font-size="48.0" fill="#FEFFFF" transform="matrix(1.00, 0.00, -0.00, -1.00, 142.9, 891.0)">S</text><text xml:space="preserve" font-family="Roboto-Thin" font-size="48.0" fill="#FEFFFF" transform="matrix(1.00, 0.00, -0.00, -1.00, 171.3, 891.0)">I</text><text xml:space="preserve" font-family="Roboto-Thin" font-size="48.0" fill="#FEFFFF" transform="matrix(1.00, 0.00, -0.00, -1.00, 183.8, 891.0)">N</text><text xml:space="preserve" font-family="Roboto-Thin" font-size="48.0" fill="#FEFFFF" transform="matrix(1.00, 0.00, -0.00, -1.00, 217.7, 891.0)">E</text><text xml:space="preserve" font-family="Roboto-Thin" font-size="48.0" fill="#FEFFFF" transform="matrix(1.00, 0.00, -0.00, -1.00, 245.1, 891.0)">S</text><text xml:space="preserve" font-family="Roboto-Thin" font-size="48.0" fill="#FEFFFF" transform="matrix(1.00, 0.00, -0.00, -1.00, 273.5, 891.0)">S</text><text xml:space="preserve" font-family="Roboto-Thin" font-size="48.0" fill="#FEFFFF" transform="matrix(1.00, 0.00, -0.00, -1.00, 301.9, 891.0)"> </text><text xml:space="preserve" font-family="Roboto-Thin" font-size="48.0" fill="#FEFFFF" transform="matrix(1.00, 0.00, -0.00, -1.00, 313.4, 891.0)">M</text><text xml:space="preserve" font-family="Roboto-Thin" font-size="48.0" fill="#FEFFFF" transform="matrix(1.00, 0.00, -0.00, -1.00, 354.6, 891.0)">O</text><text xml:space="preserve" font-family="Roboto-Thin" font-size="48.0" fill="#FEFFFF" transform="matrix(1.00, 0.00, -0.00, -1.00, 386.5, 891.0)">D</text><text xml:space="preserve" font-family="Roboto-Thin" font-size="48.0" fill="#FEFFFF" transform="matrix(1.00, 0.00, -0.00, -1.00, 417.9, 891.0)">E</text><text xml:space="preserve" font-family="Roboto-Thin" font-size="48.0" fill="#FEFFFF" transform="matrix(1.00, 0.00, -0.00, -1.00, 445.3, 891.0)">L</text></g></g><g><clipPath id="clip-421"><path d="M 59.8 497.5 L 706.0 497.5 L 706.0 863.9 L 59.8 863.9 Z M 59.8 497.5 "></path></clipPath><g clip-path="url(#clip-421)"><text xml:space="preserve" font-family="NexaBold" font-weight="bold" font-size="80.0" fill="#FEFFFF" transform="matrix(1.00, 0.00, -0.00, -1.00, 80.0, 768.0)">B</text><text xml:space="preserve" font-family="NexaBold" font-weight="bold" font-size="80.0" fill="#FEFFFF" transform="matrix(1.00, 0.00, -0.00, -1.00, 134.6, 768.0)">u</text><text xml:space="preserve" font-family="NexaBold" font-weight="bold" font-size="80.0" fill="#FEFFFF" transform="matrix(1.00, 0.00, -0.00, -1.00, 182.6, 768.0)">t</text><text xml:space="preserve" font-family="NexaBold" font-weight="bold" font-size="80.0" fill="#FEFFFF" transform="matrix(1.00, 0.00, -0.00, -1.00, 214.5, 768.0)"> </text><text xml:space="preserve" font-family="NexaBold" font-weight="bold" font-size="80.0" fill="#FEFFFF" transform="matrix(1.00, 0.00, -0.00, -1.00, 230.6, 768.0)">h</text><text xml:space="preserve" font-family="NexaBold" font-weight="bold" font-size="80.0" fill="#FEFFFF" transform="matrix(1.00, 0.00, -0.00, -1.00, 277.1, 768.0)">o</text><text xml:space="preserve" font-family="NexaBold" font-weight="bold" font-size="80.0" fill="#FEFFFF" transform="matrix(1.00, 0.00, -0.00, -1.00, 321.4, 768.0)">w</text><text xml:space="preserve" font-family="NexaBold" font-weight="bold" font-size="80.0" fill="#FEFFFF" transform="matrix(1.00, 0.00, -0.00, -1.00, 394.3, 768.0)"> </text><text xml:space="preserve" font-family="NexaBold" font-weight="bold" font-size="80.0" fill="#FEFFFF" transform="matrix(1.00, 0.00, -0.00, -1.00, 410.5, 768.0)">t</text><text xml:space="preserve" font-family="NexaBold" font-weight="bold" font-size="80.0" fill="#FEFFFF" transform="matrix(1.00, 0.00, -0.00, -1.00, 442.4, 768.0)">o</text><text xml:space="preserve" font-family="NexaBold" font-weight="bold" font-size="80.0" fill="#FEFFFF" transform="matrix(1.00, 0.00, -0.00, -1.00, 488.3, 768.0)"> </text><text xml:space="preserve" font-family="NexaBold" font-weight="bold" font-size="80.0" fill="#FEFFFF" transform="matrix(1.00, 0.00, -0.00, -1.00, 80.0, 691.0)">m</text><text xml:space="preserve" font-family="NexaBold" font-weight="bold" font-size="80.0" fill="#FEFFFF" transform="matrix(1.00, 0.00, -0.00, -1.00, 151.7, 691.0)">a</text><text xml:space="preserve" font-family="NexaBold" font-weight="bold" font-size="80.0" fill="#FEFFFF" transform="matrix(1.00, 0.00, -0.00, -1.00, 200.6, 691.0)">k</text><text xml:space="preserve" font-family="NexaBold" font-weight="bold" font-size="80.0" fill="#FEFFFF" transform="matrix(1.00, 0.00, -0.00, -1.00, 241.8, 691.0)">e</text><text xml:space="preserve" font-family="NexaBold" font-weight="bold" font-size="80.0" fill="#FEFFFF" transform="matrix(1.00, 0.00, -0.00, -1.00, 288.4, 691.0)"> </text><text xml:space="preserve" font-family="NexaBold" font-weight="bold" font-size="80.0" fill="#FEFFFF" transform="matrix(1.00, 0.00, -0.00, -1.00, 304.6, 691.0)">m</text><text xml:space="preserve" font-family="NexaBold" font-weight="bold" font-size="80.0" fill="#FEFFFF" transform="matrix(1.00, 0.00, -0.00, -1.00, 376.2, 691.0)">o</text><text xml:space="preserve" font-family="NexaBold" font-weight="bold" font-size="80.0" fill="#FEFFFF" transform="matrix(1.00, 0.00, -0.00, -1.00, 422.2, 691.0)">n</text><text xml:space="preserve" font-family="NexaBold" font-weight="bold" font-size="80.0" fill="#FEFFFF" transform="matrix(1.00, 0.00, -0.00, -1.00, 469.4, 691.0)">e</text><text xml:space="preserve" font-family="NexaBold" font-weight="bold" font-size="80.0" fill="#FEFFFF" transform="matrix(1.00, 0.00, -0.00, -1.00, 514.3, 691.0)">y</text><text xml:space="preserve" font-family="NexaBold" font-weight="bold" font-size="80.0" fill="#FEFFFF" transform="matrix(1.00, 0.00, -0.00, -1.00, 559.2, 691.0)"> </text><text xml:space="preserve" font-family="NexaBold" font-weight="bold" font-size="80.0" fill="#FEFFFF" transform="matrix(1.00, 0.00, -0.00, -1.00, 80.0, 614.0)">w</text><text xml:space="preserve" font-family="NexaBold" font-weight="bold" font-size="80.0" fill="#FEFFFF" transform="matrix(1.00, 0.00, -0.00, -1.00, 153.0, 614.0)">i</text><text xml:space="preserve" font-family="NexaBold" font-weight="bold" font-size="80.0" fill="#FEFFFF" transform="matrix(1.00, 0.00, -0.00, -1.00, 171.5, 614.0)">t</text><text xml:space="preserve" font-family="NexaBold" font-weight="bold" font-size="80.0" fill="#FEFFFF" transform="matrix(1.00, 0.00, -0.00, -1.00, 203.4, 614.0)">h</text><text xml:space="preserve" font-family="NexaBold" font-weight="bold" font-size="80.0" fill="#FEFFFF" transform="matrix(1.00, 0.00, -0.00, -1.00, 249.9, 614.0)"> </text><text xml:space="preserve" font-family="NexaBold" font-weight="bold" font-size="80.0" fill="#FEFFFF" transform="matrix(1.00, 0.00, -0.00, -1.00, 266.1, 614.0)">a</text><text xml:space="preserve" font-family="NexaBold" font-weight="bold" font-size="80.0" fill="#FEFFFF" transform="matrix(1.00, 0.00, -0.00, -1.00, 315.0, 614.0)"> </text><text xml:space="preserve" font-family="NexaBold" font-weight="bold" font-size="80.0" fill="#FEFFFF" transform="matrix(1.00, 0.00, -0.00, -1.00, 331.1, 614.0)">t</text><text xml:space="preserve" font-family="NexaBold" font-weight="bold" font-size="80.0" fill="#FEFFFF" transform="matrix(1.00, 0.00, -0.00, -1.00, 363.0, 614.0)">r</text><text xml:space="preserve" font-family="NexaBold" font-weight="bold" font-size="80.0" fill="#FEFFFF" transform="matrix(1.00, 0.00, -0.00, -1.00, 397.8, 614.0)">a</text><text xml:space="preserve" font-family="NexaBold" font-weight="bold" font-size="80.0" fill="#FEFFFF" transform="matrix(1.00, 0.00, -0.00, -1.00, 446.6, 614.0)">d</text><text xml:space="preserve" font-family="NexaBold" font-weight="bold" font-size="80.0" fill="#FEFFFF" transform="matrix(1.00, 0.00, -0.00, -1.00, 496.1, 614.0)">i</text><text xml:space="preserve" font-family="NexaBold" font-weight="bold" font-size="80.0" fill="#FEFFFF" transform="matrix(1.00, 0.00, -0.00, -1.00, 514.6, 614.0)">n</text><text xml:space="preserve" font-family="NexaBold" font-weight="bold" font-size="80.0" fill="#FEFFFF" transform="matrix(1.00, 0.00, -0.00, -1.00, 561.8, 614.0)">g</text><text xml:space="preserve" font-family="NexaBold" font-weight="bold" font-size="80.0" fill="#FEFFFF" transform="matrix(1.00, 0.00, -0.00, -1.00, 606.0, 614.0)"> </text><text xml:space="preserve" font-family="NexaBold" font-weight="bold" font-size="80.0" fill="#FEFFFF" transform="matrix(1.00, 0.00, -0.00, -1.00, 80.0, 538.0)">s</text><text xml:space="preserve" font-family="NexaBold" font-weight="bold" font-size="80.0" fill="#FEFFFF" transform="matrix(1.00, 0.00, -0.00, -1.00, 119.3, 538.0)">y</text><text xml:space="preserve" font-family="NexaBold" font-weight="bold" font-size="80.0" fill="#FEFFFF" transform="matrix(1.00, 0.00, -0.00, -1.00, 164.2, 538.0)">s</text><text xml:space="preserve" font-family="NexaBold" font-weight="bold" font-size="80.0" fill="#FEFFFF" transform="matrix(1.00, 0.00, -0.00, -1.00, 203.4, 538.0)">t</text><text xml:space="preserve" font-family="NexaBold" font-weight="bold" font-size="80.0" fill="#FEFFFF" transform="matrix(1.00, 0.00, -0.00, -1.00, 235.4, 538.0)">e</text><text xml:space="preserve" font-family="NexaBold" font-weight="bold" font-size="80.0" fill="#FEFFFF" transform="matrix(1.00, 0.00, -0.00, -1.00, 281.2, 538.0)">m</text><text xml:space="preserve" font-family="NexaBold" font-weight="bold" font-size="80.0" fill="#FEFFFF" transform="matrix(1.00, 0.00, -0.00, -1.00, 352.9, 538.0)">?</text></g></g><g><clipPath id="clip-422"><path d="M 907.0 611.2 L 1088.4 611.2 L 1088.4 798.6 L 907.0 798.6 Z M 907.0 611.2 "></path></clipPath><g clip-path="url(#clip-422)"><image xlink:href="../../81B05E9F-1585-4958-9AB8-BDEB67AA6FE0/assets/5D38468E67E61D37FAE54749171C6450.png" width="181.00" height="188.00" transform="matrix(1.00, 0.00, -0.00, -1.00, 907.0, 799.0)" opacity="0.66"></image></g></g><g><clipPath id="clip-423"><path d="M 1542.9 617.9 L 1711.3 617.9 L 1711.3 791.9 L 1542.9 791.9 Z M 1542.9 617.9 "></path></clipPath><g clip-path="url(#clip-423)"><image xlink:href="../../81B05E9F-1585-4958-9AB8-BDEB67AA6FE0/assets/301477F06B4BF7983816E0B759F3529D.png" width="168.00" height="174.00" transform="matrix(1.00, 0.00, -0.00, -1.00, 1543.0, 792.0)" opacity="0.66"></image></g></g><g><clipPath id="clip-424"><path d="M 1516.3 269.3 L 1609.2 269.3 L 1609.2 362.2 L 1516.3 362.2 Z M 1516.3 269.3 "></path></clipPath><g clip-path="url(#clip-424)"><image xlink:href="../../81B05E9F-1585-4958-9AB8-BDEB67AA6FE0/assets/AF656B0ADB90AEC8C7F5896063A9F667.png" width="93.00" height="93.00" transform="matrix(1.00, 0.00, -0.00, -1.00, 1516.0, 362.0)" opacity="0.39"></image></g></g><g><clipPath id="clip-425"><path d="M 1115.9 706.1 L 1502.0 706.1 L 1502.0 816.4 L 1115.9 816.4 Z M 1115.9 706.1 "></path></clipPath><g clip-path="url(#clip-425)"><text xml:space="preserve" font-family="Roboto-Thin" font-size="38.0" fill="#000000" transform="matrix(1.00, 0.00, -0.00, -1.00, 1183.0, 771.0)">T</text><text xml:space="preserve" font-family="Roboto-Thin" font-size="38.0" fill="#000000" transform="matrix(1.00, 0.00, -0.00, -1.00, 1204.3, 771.0)">r</text><text xml:space="preserve" font-family="Roboto-Thin" font-size="38.0" fill="#000000" transform="matrix(1.00, 0.00, -0.00, -1.00, 1216.3, 771.0)">a</text><text xml:space="preserve" font-family="Roboto-Thin" font-size="38.0" fill="#000000" transform="matrix(1.00, 0.00, -0.00, -1.00, 1236.4, 771.0)">n</text><text xml:space="preserve" font-family="Roboto-Thin" font-size="38.0" fill="#000000" transform="matrix(1.00, 0.00, -0.00, -1.00, 1257.2, 771.0)">s</text><text xml:space="preserve" font-family="Roboto-Thin" font-size="38.0" fill="#000000" transform="matrix(1.00, 0.00, -0.00, -1.00, 1276.1, 771.0)">a</text><text xml:space="preserve" font-family="Roboto-Thin" font-size="38.0" fill="#000000" transform="matrix(1.00, 0.00, -0.00, -1.00, 1296.1, 771.0)">c</text><text xml:space="preserve" font-family="Roboto-Thin" font-size="38.0" fill="#000000" transform="matrix(1.00, 0.00, -0.00, -1.00, 1315.4, 771.0)">t</text><text xml:space="preserve" font-family="Roboto-Thin" font-size="38.0" fill="#000000" transform="matrix(1.00, 0.00, -0.00, -1.00, 1327.4, 771.0)">i</text><text xml:space="preserve" font-family="Roboto-Thin" font-size="38.0" fill="#000000" transform="matrix(1.00, 0.00, -0.00, -1.00, 1335.2, 771.0)">o</text><text xml:space="preserve" font-family="Roboto-Thin" font-size="38.0" fill="#000000" transform="matrix(1.00, 0.00, -0.00, -1.00, 1356.2, 771.0)">n</text><text xml:space="preserve" font-family="Roboto-Thin" font-size="38.0" fill="#000000" transform="matrix(1.00, 0.00, -0.00, -1.00, 1377.0, 771.0)"> </text><text xml:space="preserve" font-family="Roboto-Thin" font-size="38.0" fill="#000000" transform="matrix(1.00, 0.00, -0.00, -1.00, 1386.0, 771.0)">f</text><text xml:space="preserve" font-family="Roboto-Thin" font-size="38.0" fill="#000000" transform="matrix(1.00, 0.00, -0.00, -1.00, 1397.6, 771.0)">e</text><text xml:space="preserve" font-family="Roboto-Thin" font-size="38.0" fill="#000000" transform="matrix(1.00, 0.00, -0.00, -1.00, 1416.7, 771.0)">e</text><text xml:space="preserve" font-family="Roboto-Thin" font-size="38.0" fill="#000000" transform="matrix(1.00, 0.00, -0.00, -1.00, 1435.9, 771.0)"> </text><text xml:space="preserve" font-family="Roboto-Thin" font-size="38.0" fill="#000000" transform="matrix(1.00, 0.00, -0.00, -1.00, 1137.0, 727.0)">a</text><text xml:space="preserve" font-family="Roboto-Thin" font-size="38.0" fill="#000000" transform="matrix(1.00, 0.00, -0.00, -1.00, 1157.1, 727.0)">p</text><text xml:space="preserve" font-family="Roboto-Thin" font-size="38.0" fill="#000000" transform="matrix(1.00, 0.00, -0.00, -1.00, 1177.9, 727.0)">p</text><text xml:space="preserve" font-family="Roboto-Thin" font-size="38.0" fill="#000000" transform="matrix(1.00, 0.00, -0.00, -1.00, 1198.7, 727.0)">l</text><text xml:space="preserve" font-family="Roboto-Thin" font-size="38.0" fill="#000000" transform="matrix(1.00, 0.00, -0.00, -1.00, 1206.5, 727.0)">i</text><text xml:space="preserve" font-family="Roboto-Thin" font-size="38.0" fill="#000000" transform="matrix(1.00, 0.00, -0.00, -1.00, 1214.4, 727.0)">e</text><text xml:space="preserve" font-family="Roboto-Thin" font-size="38.0" fill="#000000" transform="matrix(1.00, 0.00, -0.00, -1.00, 1233.5, 727.0)">d</text><text xml:space="preserve" font-family="Roboto-Thin" font-size="38.0" fill="#000000" transform="matrix(1.00, 0.00, -0.00, -1.00, 1254.3, 727.0)"> </text><text xml:space="preserve" font-family="Roboto-Thin" font-size="38.0" fill="#000000" transform="matrix(1.00, 0.00, -0.00, -1.00, 1263.4, 727.0)">o</text><text xml:space="preserve" font-family="Roboto-Thin" font-size="38.0" fill="#000000" transform="matrix(1.00, 0.00, -0.00, -1.00, 1284.4, 727.0)">n</text><text xml:space="preserve" font-family="Roboto-Thin" font-size="38.0" fill="#000000" transform="matrix(1.00, 0.00, -0.00, -1.00, 1305.2, 727.0)"> </text><text xml:space="preserve" font-family="Roboto-Thin" font-size="38.0" fill="#000000" transform="matrix(1.00, 0.00, -0.00, -1.00, 1314.3, 727.0)">t</text><text xml:space="preserve" font-family="Roboto-Thin" font-size="38.0" fill="#000000" transform="matrix(1.00, 0.00, -0.00, -1.00, 1326.4, 727.0)">h</text><text xml:space="preserve" font-family="Roboto-Thin" font-size="38.0" fill="#000000" transform="matrix(1.00, 0.00, -0.00, -1.00, 1347.2, 727.0)">e</text><text xml:space="preserve" font-family="Roboto-Thin" font-size="38.0" fill="#000000" transform="matrix(1.00, 0.00, -0.00, -1.00, 1366.4, 727.0)"> </text><text xml:space="preserve" font-family="Roboto-Thin" font-size="38.0" fill="#000000" transform="matrix(1.00, 0.00, -0.00, -1.00, 1375.5, 727.0)">m</text><text xml:space="preserve" font-family="Roboto-Thin" font-size="38.0" fill="#000000" transform="matrix(1.00, 0.00, -0.00, -1.00, 1409.6, 727.0)">a</text><text xml:space="preserve" font-family="Roboto-Thin" font-size="38.0" fill="#000000" transform="matrix(1.00, 0.00, -0.00, -1.00, 1429.6, 727.0)">t</text><text xml:space="preserve" font-family="Roboto-Thin" font-size="38.0" fill="#000000" transform="matrix(1.00, 0.00, -0.00, -1.00, 1441.7, 727.0)">c</text><text xml:space="preserve" font-family="Roboto-Thin" font-size="38.0" fill="#000000" transform="matrix(1.00, 0.00, -0.00, -1.00, 1461.0, 727.0)">h</text></g></g><g><clipPath id="clip-426"><path d="M 1163.0 649.8 L 1437.5 649.8 L 1437.5 681.0 L 1163.0 681.0 Z M 1163.0 649.8 "></path></clipPath><g clip-path="url(#clip-426)"><path d="M 21.0 0.0 L 24.0 0.0 L 249.5 0.0 L 252.5 0.0 " fill="none" stroke="#52575F" stroke-width="6.00" transform="matrix(1.00, 0.00, 0.00, -1.00, 1164.0, 665.4)"></path><path d="M 0.0 0.0 L 3.0 5.0 L 6.0 0.0 M 3.0 0.0 L 3.0 5.0 " fill="none" stroke="#52575F" stroke-width="1.50" stroke-miterlimit="10.00" stroke-linejoin="round" transform="matrix(0.00, 4.00, 4.00, 0.00, 1413.5, 653.4)"></path><path d="M 1188.0 677.4 L 1164.0 665.4 L 1188.0 653.4 Z M 1188.0 677.4 " fill="#52575F"></path></g></g><g><clipPath id="clip-427"><path d="M 1388.2 269.3 L 1481.1 269.3 L 1481.1 362.2 L 1388.2 362.2 Z M 1388.2 269.3 "></path></clipPath><g clip-path="url(#clip-427)"><image xlink:href="../../81B05E9F-1585-4958-9AB8-BDEB67AA6FE0/assets/AF656B0ADB90AEC8C7F5896063A9F667.png" width="93.00" height="93.00" transform="matrix(1.00, 0.00, -0.00, -1.00, 1388.0, 362.0)" opacity="0.39"></image></g></g><g><clipPath id="clip-428"><path d="M 912.7 194.5 L 1257.6 194.5 L 1257.6 265.0 L 912.7 265.0 Z M 912.7 194.5 "></path></clipPath><g clip-path="url(#clip-428)"><text xml:space="preserve" font-family="Roboto-Thin" font-size="40.0" fill="#000000" transform="matrix(1.00, 0.00, -0.00, -1.00, 977.0, 216.0)">E</text><text xml:space="preserve" font-family="Roboto-Thin" font-size="40.0" fill="#000000" transform="matrix(1.00, 0.00, -0.00, -1.00, 999.3, 216.0)">v</text><text xml:space="preserve" font-family="Roboto-Thin" font-size="40.0" fill="#000000" transform="matrix(1.00, 0.00, -0.00, -1.00, 1018.1, 216.0)">e</text><text xml:space="preserve" font-family="Roboto-Thin" font-size="40.0" fill="#000000" transform="matrix(1.00, 0.00, -0.00, -1.00, 1038.3, 216.0)">r</text><text xml:space="preserve" font-family="Roboto-Thin" font-size="40.0" fill="#000000" transform="matrix(1.00, 0.00, -0.00, -1.00, 1052.0, 216.0)">y</text><text xml:space="preserve" font-family="Roboto-Thin" font-size="40.0" fill="#000000" transform="matrix(1.00, 0.00, -0.00, -1.00, 1071.1, 216.0)"> </text><text xml:space="preserve" font-family="Roboto-Thin" font-size="40.0" fill="#000000" transform="matrix(1.00, 0.00, -0.00, -1.00, 1080.7, 216.0)">m</text><text xml:space="preserve" font-family="Roboto-Thin" font-size="40.0" fill="#000000" transform="matrix(1.00, 0.00, -0.00, -1.00, 1116.6, 216.0)">a</text><text xml:space="preserve" font-family="Roboto-Thin" font-size="40.0" fill="#000000" transform="matrix(1.00, 0.00, -0.00, -1.00, 1137.7, 216.0)">t</text><text xml:space="preserve" font-family="Roboto-Thin" font-size="40.0" fill="#000000" transform="matrix(1.00, 0.00, -0.00, -1.00, 1150.4, 216.0)">c</text><text xml:space="preserve" font-family="Roboto-Thin" font-size="40.0" fill="#000000" transform="matrix(1.00, 0.00, -0.00, -1.00, 1170.7, 216.0)">h</text></g></g><g><clipPath id="clip-429"><path d="M 1046.0 351.0 L 1124.0 351.0 L 1124.0 280.0 L 1046.0 280.0 Z M 1046.4 351.4 "></path></clipPath><g clip-path="url(#clip-429)"><g><clipPath id="clip-430"><path d="M 1046.4 280.0 L 1123.8 280.0 L 1123.8 351.4 L 1046.4 351.4 Z M 1046.4 280.0 "></path></clipPath><g clip-path="url(#clip-430)"><image xlink:href="../../81B05E9F-1585-4958-9AB8-BDEB67AA6FE0/assets/6D89B4986F1A9C63E3A26A192F92129A.png" width="78.00" height="72.00" transform="matrix(1.00, 0.00, -0.00, -0.99, 1046.0, 351.0)" opacity="0.25"></image></g></g></g></g><g><clipPath id="clip-431"><path d="M 1158.3 221.7 L 1353.6 221.7 L 1353.6 409.7 L 1158.3 409.7 Z M 1158.3 221.7 "></path></clipPath><g clip-path="url(#clip-431)"><text xml:space="preserve" font-family="NexaBold" font-weight="bold" font-size="110.0" fill="#A6AAA8" transform="matrix(1.00, 0.00, -0.00, -1.00, 1233.0, 277.0)">=</text></g></g><g><clipPath id="clip-432"><path d="M 1396.8 194.5 L 1632.6 194.5 L 1632.6 265.0 L 1396.8 265.0 Z M 1396.8 194.5 "></path></clipPath><g clip-path="url(#clip-432)"><text xml:space="preserve" font-family="Roboto-Thin" font-size="40.0" fill="#000000" transform="matrix(1.00, 0.00, -0.00, -1.00, 1463.0, 216.0)">2</text><text xml:space="preserve" font-family="Roboto-Thin" font-size="40.0" fill="#000000" transform="matrix(1.00, 0.00, -0.00, -1.00, 1484.9, 216.0)"> </text><text xml:space="preserve" font-family="Roboto-Thin" font-size="40.0" fill="#000000" transform="matrix(1.00, 0.00, -0.00, -1.00, 1494.5, 216.0)">f</text><text xml:space="preserve" font-family="Roboto-Thin" font-size="40.0" fill="#000000" transform="matrix(1.00, 0.00, -0.00, -1.00, 1506.6, 216.0)">e</text><text xml:space="preserve" font-family="Roboto-Thin" font-size="40.0" fill="#000000" transform="matrix(1.00, 0.00, -0.00, -1.00, 1526.8, 216.0)">e</text><text xml:space="preserve" font-family="Roboto-Thin" font-size="40.0" fill="#000000" transform="matrix(1.00, 0.00, -0.00, -1.00, 1546.9, 216.0)">s</text></g></g><g><clipPath id="clip-433"><path d="M 882.7 522.8 L 1112.6 522.8 L 1112.6 575.4 L 882.7 575.4 Z M 882.7 522.8 "></path></clipPath><g clip-path="url(#clip-433)"><text xml:space="preserve" font-family="Roboto-Regular" font-size="30.0" fill="#52575F" transform="matrix(1.00, 0.00, -0.00, -1.00, 943.0, 539.0)">T</text><text xml:space="preserve" font-family="Roboto-Regular" font-size="30.0" fill="#52575F" transform="matrix(1.00, 0.00, -0.00, -1.00, 960.9, 539.0)">h</text><text xml:space="preserve" font-family="Roboto-Regular" font-size="30.0" fill="#52575F" transform="matrix(1.00, 0.00, -0.00, -1.00, 977.4, 539.0)">o</text><text xml:space="preserve" font-family="Roboto-Regular" font-size="30.0" fill="#52575F" transform="matrix(1.00, 0.00, -0.00, -1.00, 994.5, 539.0)">m</text><text xml:space="preserve" font-family="Roboto-Regular" font-size="30.0" fill="#52575F" transform="matrix(1.00, 0.00, -0.00, -1.00, 1020.9, 539.0)">รก</text><text xml:space="preserve" font-family="Roboto-Regular" font-size="30.0" fill="#52575F" transform="matrix(1.00, 0.00, -0.00, -1.00, 1037.2, 539.0)">s</text></g></g><g><clipPath id="clip-434"><path d="M 1512.2 522.8 L 1742.1 522.8 L 1742.1 575.4 L 1512.2 575.4 Z M 1512.2 522.8 "></path></clipPath><g clip-path="url(#clip-434)"><text xml:space="preserve" font-family="Roboto-Regular" font-size="30.0" fill="#52575F" transform="matrix(1.00, 0.00, -0.00, -1.00, 1582.0, 539.0)">K</text><text xml:space="preserve" font-family="Roboto-Regular" font-size="30.0" fill="#52575F" transform="matrix(1.00, 0.00, -0.00, -1.00, 1600.8, 539.0)">a</text><text xml:space="preserve" font-family="Roboto-Regular" font-size="30.0" fill="#52575F" transform="matrix(1.00, 0.00, -0.00, -1.00, 1617.1, 539.0)">i</text><text xml:space="preserve" font-family="Roboto-Regular" font-size="30.0" fill="#52575F" transform="matrix(1.00, 0.00, -0.00, -1.00, 1624.4, 539.0)">t</text><text xml:space="preserve" font-family="Roboto-Regular" font-size="30.0" fill="#52575F" transform="matrix(1.00, 0.00, -0.00, -1.00, 1634.2, 539.0)">l</text><text xml:space="preserve" font-family="Roboto-Regular" font-size="30.0" fill="#52575F" transform="matrix(1.00, 0.00, -0.00, -1.00, 1641.5, 539.0)">y</text><text xml:space="preserve" font-family="Roboto-Regular" font-size="30.0" fill="#52575F" transform="matrix(1.00, 0.00, -0.00, -1.00, 1655.7, 539.0)">n</text></g></g><g><clipPath id="clip-435"><path d="M 1077.8 518.2 L 1540.1 518.2 L 1540.1 570.8 L 1077.8 570.8 Z M 1077.8 518.2 "></path></clipPath><g clip-path="url(#clip-435)"><text xml:space="preserve" font-family="Roboto-Thin" font-size="30.0" fill="#000000" transform="matrix(1.00, 0.00, -0.00, -1.00, 1089.0, 534.0)">T</text><text xml:space="preserve" font-family="Roboto-Thin" font-size="30.0" fill="#000000" transform="matrix(1.00, 0.00, -0.00, -1.00, 1105.8, 534.0)">r</text><text xml:space="preserve" font-family="Roboto-Thin" font-size="30.0" fill="#000000" transform="matrix(1.00, 0.00, -0.00, -1.00, 1115.3, 534.0)">a</text><text xml:space="preserve" font-family="Roboto-Thin" font-size="30.0" fill="#000000" transform="matrix(1.00, 0.00, -0.00, -1.00, 1131.1, 534.0)">d</text><text xml:space="preserve" font-family="Roboto-Thin" font-size="30.0" fill="#000000" transform="matrix(1.00, 0.00, -0.00, -1.00, 1147.5, 534.0)">e</text><text xml:space="preserve" font-family="Roboto-Thin" font-size="30.0" fill="#000000" transform="matrix(1.00, 0.00, -0.00, -1.00, 1162.7, 534.0)"> </text><text xml:space="preserve" font-family="Roboto-Thin" font-size="30.0" fill="#000000" transform="matrix(1.00, 0.00, -0.00, -1.00, 1169.8, 534.0)">h</text><text xml:space="preserve" font-family="Roboto-Thin" font-size="30.0" fill="#000000" transform="matrix(1.00, 0.00, -0.00, -1.00, 1186.3, 534.0)">i</text><text xml:space="preserve" font-family="Roboto-Thin" font-size="30.0" fill="#000000" transform="matrix(1.00, 0.00, -0.00, -1.00, 1192.5, 534.0)">s</text><text xml:space="preserve" font-family="Roboto-Thin" font-size="30.0" fill="#000000" transform="matrix(1.00, 0.00, -0.00, -1.00, 1207.4, 534.0)"> </text><text xml:space="preserve" font-family="Roboto-Thin" font-size="30.0" fill="#000000" transform="matrix(1.00, 0.00, -0.00, -1.00, 1214.6, 534.0)">B</text><text xml:space="preserve" font-family="Roboto-Thin" font-size="30.0" fill="#000000" transform="matrix(1.00, 0.00, -0.00, -1.00, 1232.7, 534.0)">i</text><text xml:space="preserve" font-family="Roboto-Thin" font-size="30.0" fill="#000000" transform="matrix(1.00, 0.00, -0.00, -1.00, 1238.8, 534.0)">k</text><text xml:space="preserve" font-family="Roboto-Thin" font-size="30.0" fill="#000000" transform="matrix(1.00, 0.00, -0.00, -1.00, 1252.7, 534.0)">e</text><text xml:space="preserve" font-family="Roboto-Thin" font-size="30.0" fill="#000000" transform="matrix(1.00, 0.00, -0.00, -1.00, 1267.9, 534.0)"> </text><text xml:space="preserve" font-family="Roboto-Thin" font-size="30.0" fill="#000000" transform="matrix(1.00, 0.00, -0.00, -1.00, 1275.0, 534.0)">f</text><text xml:space="preserve" font-family="Roboto-Thin" font-size="30.0" fill="#000000" transform="matrix(1.00, 0.00, -0.00, -1.00, 1284.5, 534.0)">o</text><text xml:space="preserve" font-family="Roboto-Thin" font-size="30.0" fill="#000000" transform="matrix(1.00, 0.00, -0.00, -1.00, 1301.0, 534.0)">r</text><text xml:space="preserve" font-family="Roboto-Thin" font-size="30.0" fill="#000000" transform="matrix(1.00, 0.00, -0.00, -1.00, 1311.1, 534.0)"> </text><text xml:space="preserve" font-family="Roboto-Thin" font-size="30.0" fill="#000000" transform="matrix(1.00, 0.00, -0.00, -1.00, 1318.2, 534.0)">h</text><text xml:space="preserve" font-family="Roboto-Thin" font-size="30.0" fill="#000000" transform="matrix(1.00, 0.00, -0.00, -1.00, 1334.7, 534.0)">e</text><text xml:space="preserve" font-family="Roboto-Thin" font-size="30.0" fill="#000000" transform="matrix(1.00, 0.00, -0.00, -1.00, 1349.8, 534.0)">r</text><text xml:space="preserve" font-family="Roboto-Thin" font-size="30.0" fill="#000000" transform="matrix(1.00, 0.00, -0.00, -1.00, 1359.8, 534.0)"> </text><text xml:space="preserve" font-family="Roboto-Thin" font-size="30.0" fill="#000000" transform="matrix(1.00, 0.00, -0.00, -1.00, 1367.0, 534.0)">P</text><text xml:space="preserve" font-family="Roboto-Thin" font-size="30.0" fill="#000000" transform="matrix(1.00, 0.00, -0.00, -1.00, 1385.0, 534.0)">l</text><text xml:space="preserve" font-family="Roboto-Thin" font-size="30.0" fill="#000000" transform="matrix(1.00, 0.00, -0.00, -1.00, 1391.2, 534.0)">a</text><text xml:space="preserve" font-family="Roboto-Thin" font-size="30.0" fill="#000000" transform="matrix(1.00, 0.00, -0.00, -1.00, 1406.8, 534.0)">y</text><text xml:space="preserve" font-family="Roboto-Thin" font-size="30.0" fill="#000000" transform="matrix(1.00, 0.00, -0.00, -1.00, 1421.1, 534.0)">S</text><text xml:space="preserve" font-family="Roboto-Thin" font-size="30.0" fill="#000000" transform="matrix(1.00, 0.00, -0.00, -1.00, 1438.9, 534.0)">t</text><text xml:space="preserve" font-family="Roboto-Thin" font-size="30.0" fill="#000000" transform="matrix(1.00, 0.00, -0.00, -1.00, 1448.4, 534.0)">a</text><text xml:space="preserve" font-family="Roboto-Thin" font-size="30.0" fill="#000000" transform="matrix(1.00, 0.00, -0.00, -1.00, 1464.2, 534.0)">t</text><text xml:space="preserve" font-family="Roboto-Thin" font-size="30.0" fill="#000000" transform="matrix(1.00, 0.00, -0.00, -1.00, 1473.7, 534.0)">i</text><text xml:space="preserve" font-family="Roboto-Thin" font-size="30.0" fill="#000000" transform="matrix(1.00, 0.00, -0.00, -1.00, 1479.9, 534.0)">o</text><text xml:space="preserve" font-family="Roboto-Thin" font-size="30.0" fill="#000000" transform="matrix(1.00, 0.00, -0.00, -1.00, 1496.4, 534.0)">n</text><text xml:space="preserve" font-family="Roboto-Thin" font-size="30.0" fill="#000000" transform="matrix(1.00, 0.00, -0.00, -1.00, 1512.9, 534.0)">4</text></g></g><g><clipPath id="clip-436"><path d="M 853.0 177.4 L 1784.9 177.4 L 1784.9 401.0 L 853.0 401.0 Z M 853.0 177.4 "></path></clipPath><g clip-path="url(#clip-436)"><path d="M 0.0 0.0 L 920.9 0.0 L 920.9 212.5 L 0.0 212.5 Z M 0.0 0.0 " fill="none" stroke="#DCDDE0" stroke-width="9.00" stroke-miterlimit="8.00" transform="matrix(1.00, 0.00, 0.00, -1.00, 858.5, 395.5)"></path></g></g><g><clipPath id="clip-437"><path d="M 853.0 436.6 L 1784.9 436.6 L 1784.9 902.6 L 853.0 902.6 Z M 853.0 436.6 "></path></clipPath><g clip-path="url(#clip-437)"><path d="M 0.0 0.0 L 920.9 0.0 L 920.9 454.9 L 0.0 454.9 Z M 0.0 0.0 " fill="none" stroke="#9459B2" stroke-width="9.00" stroke-miterlimit="8.00" transform="matrix(1.00, 0.00, 0.00, -1.00, 858.5, 897.1)"></path></g></g></g></svg>