<?xml version="1.0" encoding="UTF-8" standalone="no"?><svg xmlns="http://www.w3.org/2000/svg" xmlns:xlink="http://www.w3.org/1999/xlink" clip-rule="evenodd" stroke-miterlimit="4.00" viewBox="0 0 1920 1080"><desc>SVG generated by Keynote</desc><defs><pattern id="4FB1179E-2742-4E5D-B3C9-2C1A201EDBE3" patternUnits="userSpaceOnUse" width="600" height="600" viewBox="0 0 600 600" patternTransform="matrix(0.500000, 0.000000, 0.000000, -0.500000, -63.601560, 1080.000000)"><image xlink:href="../../E01699BB-C0D1-4305-AE93-C866749E9FD9/assets/3B125388B1C2690D02541E1FFAB050B1.jpeg" width="600.00" height="600.00"></image></pattern></defs><g transform="matrix(1.00, 0.00, -0.00, -1.00, 0.0, 1080.0)"><path d="M 0.0 1080.0 L 1920.0 1080.0 L 1920.0 0.0 L 0.0 0.0 Z M 0.0 1080.0 " fill="#FEFFFF"></path><image xlink:href="../../D3D482FE-91A6-4891-AAEF-FCD385F432AD/assets/ED7BB328FB30B63612F52D86711DCDDA.png" width="1996.00" height="1086.00" transform="matrix(1.00, 0.00, -0.00, -1.00, -66.6, 1081.0)" opacity="0.50"></image><g><clipPath id="clip-558"><path d="M -63.6 1080.0 L 1926.0 1080.0 L 1926.0 0.0 L -63.6 0.0 Z M -63.6 1080.0 "></path></clipPath><g clip-path="url(#clip-558)"><path d="M 0.0 0.0 L 1920.0 0.0 L 1920.0 1080.0 L 0.0 1080.0 Z M 0.0 0.0 " fill="url(#4FB1179E-2742-4E5D-B3C9-2C1A201EDBE3)"></path><path d="M -63.6 1080.0 L 1926.0 1080.0 L 1926.0 0.0 L -63.6 0.0 Z M -63.6 1080.0 " fill="#A6AAA8" fill-opacity="0.50"></path></g></g><text xml:space="preserve" font-family="NexaBold" font-weight="bold" font-size="100.0" fill="#A6AAA8" transform="matrix(1.00, 0.00, -0.00, -1.00, 532.0, 732.0)">T</text><text xml:space="preserve" font-family="NexaBold" font-weight="bold" font-size="100.0" fill="#A6AAA8" transform="matrix(1.00, 0.00, -0.00, -1.00, 583.1, 732.0)">r</text><text xml:space="preserve" font-family="NexaBold" font-weight="bold" font-size="100.0" fill="#A6AAA8" transform="matrix(1.00, 0.00, -0.00, -1.00, 629.6, 732.0)">y</text><text xml:space="preserve" font-family="NexaBold" font-weight="bold" font-size="100.0" fill="#A6AAA8" transform="matrix(1.00, 0.00, -0.00, -1.00, 685.7, 732.0)"> </text><text xml:space="preserve" font-family="NexaBold" font-weight="bold" font-size="100.0" fill="#A6AAA8" transform="matrix(1.00, 0.00, -0.00, -1.00, 705.9, 732.0)">t</text><text xml:space="preserve" font-family="NexaBold" font-weight="bold" font-size="100.0" fill="#A6AAA8" transform="matrix(1.00, 0.00, -0.00, -1.00, 745.8, 732.0)">h</text><text xml:space="preserve" font-family="NexaBold" font-weight="bold" font-size="100.0" fill="#A6AAA8" transform="matrix(1.00, 0.00, -0.00, -1.00, 803.9, 732.0)">e</text><text xml:space="preserve" font-family="NexaBold" font-weight="bold" font-size="100.0" fill="#A6AAA8" transform="matrix(1.00, 0.00, -0.00, -1.00, 862.2, 732.0)"> </text><text xml:space="preserve" font-family="NexaBold" font-weight="bold" font-size="100.0" fill="#A6AAA8" transform="matrix(1.00, 0.00, -0.00, -1.00, 882.4, 732.0)">p</text><text xml:space="preserve" font-family="NexaBold" font-weight="bold" font-size="100.0" fill="#A6AAA8" transform="matrix(1.00, 0.00, -0.00, -1.00, 944.9, 732.0)">r</text><text xml:space="preserve" font-family="NexaBold" font-weight="bold" font-size="100.0" fill="#A6AAA8" transform="matrix(1.00, 0.00, -0.00, -1.00, 988.3, 732.0)">o</text><text xml:space="preserve" font-family="NexaBold" font-weight="bold" font-size="100.0" fill="#A6AAA8" transform="matrix(1.00, 0.00, -0.00, -1.00, 1044.7, 732.0)">t</text><text xml:space="preserve" font-family="NexaBold" font-weight="bold" font-size="100.0" fill="#A6AAA8" transform="matrix(1.00, 0.00, -0.00, -1.00, 1084.6, 732.0)">o</text><text xml:space="preserve" font-family="NexaBold" font-weight="bold" font-size="100.0" fill="#A6AAA8" transform="matrix(1.00, 0.00, -0.00, -1.00, 1141.0, 732.0)">t</text><text xml:space="preserve" font-family="NexaBold" font-weight="bold" font-size="100.0" fill="#A6AAA8" transform="matrix(1.00, 0.00, -0.00, -1.00, 1182.0, 732.0)">y</text><text xml:space="preserve" font-family="NexaBold" font-weight="bold" font-size="100.0" fill="#A6AAA8" transform="matrix(1.00, 0.00, -0.00, -1.00, 1238.1, 732.0)">p</text><text xml:space="preserve" font-family="NexaBold" font-weight="bold" font-size="100.0" fill="#A6AAA8" transform="matrix(1.00, 0.00, -0.00, -1.00, 1300.6, 732.0)">e</text><text xml:space="preserve" font-family="NexaBold" font-weight="bold" font-size="100.0" fill="#A6AAA8" transform="matrix(1.00, 0.00, -0.00, -1.00, 1358.9, 732.0)">!</text><text xml:space="preserve" font-family="NexaBold" font-weight="bold" font-size="150.0" fill="#FFFFFF" transform="matrix(1.00, 0.00, -0.00, -1.00, 420.0, 532.0)">g</text><text xml:space="preserve" font-family="NexaBold" font-weight="bold" font-size="150.0" fill="#FFFFFF" transform="matrix(1.00, 0.00, -0.00, -1.00, 502.8, 532.0)">i</text><text xml:space="preserve" font-family="NexaBold" font-weight="bold" font-size="150.0" fill="#FFFFFF" transform="matrix(1.00, 0.00, -0.00, -1.00, 537.6, 532.0)">v</text><text xml:space="preserve" font-family="NexaBold" font-weight="bold" font-size="150.0" fill="#FFFFFF" transform="matrix(1.00, 0.00, -0.00, -1.00, 623.1, 532.0)">e</text><text xml:space="preserve" font-family="NexaBold" font-weight="bold" font-size="150.0" fill="#FFFFFF" transform="matrix(1.00, 0.00, -0.00, -1.00, 710.5, 532.0)">a</text><text xml:space="preserve" font-family="NexaBold" font-weight="bold" font-size="150.0" fill="#FFFFFF" transform="matrix(1.00, 0.00, -0.00, -1.00, 802.2, 532.0)">n</text><text xml:space="preserve" font-family="NexaBold" font-weight="bold" font-size="150.0" fill="#FFFFFF" transform="matrix(1.00, 0.00, -0.00, -1.00, 890.7, 532.0)">d</text><text xml:space="preserve" font-family="NexaBold" font-weight="bold" font-size="150.0" fill="#FFFFFF" transform="matrix(1.00, 0.00, -0.00, -1.00, 983.4, 532.0)">t</text><text xml:space="preserve" font-family="NexaBold" font-weight="bold" font-size="150.0" fill="#FFFFFF" transform="matrix(1.00, 0.00, -0.00, -1.00, 1043.2, 532.0)">a</text><text xml:space="preserve" font-family="NexaBold" font-weight="bold" font-size="150.0" fill="#FFFFFF" transform="matrix(1.00, 0.00, -0.00, -1.00, 1134.9, 532.0)">k</text><text xml:space="preserve" font-family="NexaBold" font-weight="bold" font-size="150.0" fill="#FFFFFF" transform="matrix(1.00, 0.00, -0.00, -1.00, 1212.2, 532.0)">e</text><text xml:space="preserve" font-family="NexaBold" font-weight="bold" font-size="150.0" fill="#FFFFFF" transform="matrix(1.00, 0.00, -0.00, -1.00, 1299.6, 532.0)">.</text><text xml:space="preserve" font-family="NexaBold" font-weight="bold" font-size="150.0" fill="#FFFFFF" transform="matrix(1.00, 0.00, -0.00, -1.00, 1335.9, 532.0)">u</text><text xml:space="preserve" font-family="NexaBold" font-weight="bold" font-size="150.0" fill="#FFFFFF" transform="matrix(1.00, 0.00, -0.00, -1.00, 1425.8, 532.0)">s</text><text xml:space="preserve" font-family="NexaBold" font-weight="bold" font-size="100.0" fill="#A6AAA8" transform="matrix(1.00, 0.00, -0.00, -1.00, 701.0, 342.0)">Q</text><text xml:space="preserve" font-family="NexaBold" font-weight="bold" font-size="100.0" fill="#A6AAA8" transform="matrix(1.00, 0.00, -0.00, -1.00, 779.2, 342.0)">u</text><text xml:space="preserve" font-family="NexaBold" font-weight="bold" font-size="100.0" fill="#A6AAA8" transform="matrix(1.00, 0.00, -0.00, -1.00, 839.1, 342.0)">e</text><text xml:space="preserve" font-family="NexaBold" font-weight="bold" font-size="100.0" fill="#A6AAA8" transform="matrix(1.00, 0.00, -0.00, -1.00, 897.4, 342.0)">s</text><text xml:space="preserve" font-family="NexaBold" font-weight="bold" font-size="100.0" fill="#A6AAA8" transform="matrix(1.00, 0.00, -0.00, -1.00, 946.5, 342.0)">t</text><text xml:space="preserve" font-family="NexaBold" font-weight="bold" font-size="100.0" fill="#A6AAA8" transform="matrix(1.00, 0.00, -0.00, -1.00, 986.4, 342.0)">i</text><text xml:space="preserve" font-family="NexaBold" font-weight="bold" font-size="100.0" fill="#A6AAA8" transform="matrix(1.00, 0.00, -0.00, -1.00, 1010.7, 342.0)">o</text><text xml:space="preserve" font-family="NexaBold" font-weight="bold" font-size="100.0" fill="#A6AAA8" transform="matrix(1.00, 0.00, -0.00, -1.00, 1068.1, 342.0)">n</text><text xml:space="preserve" font-family="NexaBold" font-weight="bold" font-size="100.0" fill="#A6AAA8" transform="matrix(1.00, 0.00, -0.00, -1.00, 1127.1, 342.0)">s</text><text xml:space="preserve" font-family="NexaBold" font-weight="bold" font-size="100.0" fill="#A6AAA8" transform="matrix(1.00, 0.00, -0.00, -1.00, 1176.2, 342.0)">?</text></g></svg>