<?xml version="1.0" encoding="UTF-8" standalone="no"?><svg xmlns="http://www.w3.org/2000/svg" xmlns:xlink="http://www.w3.org/1999/xlink" clip-rule="evenodd" stroke-miterlimit="4.00" viewBox="0 0 1920 1080"><desc>SVG generated by Keynote</desc><defs></defs><g transform="matrix(1.00, 0.00, -0.00, -1.00, 0.0, 1080.0)"><path d="M 0.0 1080.0 L 1920.0 1080.0 L 1920.0 0.0 L 0.0 0.0 Z M 0.0 1080.0 " fill="#FEFFFF"></path><path d="M 0.0 1080.0 L 1920.0 1080.0 L 1920.0 0.0 L 0.0 0.0 Z M 0.0 1080.0 " fill="#2F2F2F"></path><path d="M 0.0 0.0 L 60.7 0.0 " fill="none" stroke="#FFFFFF" stroke-width="1.00" stroke-miterlimit="8.00" transform="matrix(1.00, 0.00, 0.00, -1.00, 1748.1, 128.1)"></path><text xml:space="preserve" font-family="Roboto-LightItalic" font-style="italic" font-size="22.0" fill="#FFFFFF" transform="matrix(1.00, 0.00, -0.00, -1.00, 1434.6, 90.7)">I</text><text xml:space="preserve" font-family="Roboto-LightItalic" font-style="italic" font-size="22.0" fill="#FFFFFF" transform="matrix(1.00, 0.00, -0.00, -1.00, 1452.4, 90.7)">s</text><text xml:space="preserve" font-family="Roboto-LightItalic" font-style="italic" font-size="22.0" fill="#FFFFFF" transform="matrix(1.00, 0.00, -0.00, -1.00, 1475.3, 90.7)">a</text><text xml:space="preserve" font-family="Roboto-LightItalic" font-style="italic" font-size="22.0" fill="#FFFFFF" transform="matrix(1.00, 0.00, -0.00, -1.00, 1498.8, 90.7)">b</text><text xml:space="preserve" font-family="Roboto-LightItalic" font-style="italic" font-size="22.0" fill="#FFFFFF" transform="matrix(1.00, 0.00, -0.00, -1.00, 1522.8, 90.7)">e</text><text xml:space="preserve" font-family="Roboto-LightItalic" font-style="italic" font-size="22.0" fill="#FFFFFF" transform="matrix(1.00, 0.00, -0.00, -1.00, 1545.9, 90.7)">l</text><text xml:space="preserve" font-family="Roboto-LightItalic" font-style="italic" font-size="22.0" fill="#FFFFFF" transform="matrix(1.00, 0.00, -0.00, -1.00, 1562.8, 90.7)">l</text><text xml:space="preserve" font-family="Roboto-LightItalic" font-style="italic" font-size="22.0" fill="#FFFFFF" transform="matrix(1.00, 0.00, -0.00, -1.00, 1579.7, 90.7)">e</text><text xml:space="preserve" font-family="Roboto-LightItalic" font-style="italic" font-size="22.0" fill="#FFFFFF" transform="matrix(1.00, 0.00, -0.00, -1.00, 1602.8, 90.7)"> </text><text xml:space="preserve" font-family="Roboto-LightItalic" font-style="italic" font-size="22.0" fill="#FFFFFF" transform="matrix(1.00, 0.00, -0.00, -1.00, 1620.1, 90.7)">A</text><text xml:space="preserve" font-family="Roboto-LightItalic" font-style="italic" font-size="22.0" fill="#FFFFFF" transform="matrix(1.00, 0.00, -0.00, -1.00, 1645.6, 90.7)">m</text><text xml:space="preserve" font-family="Roboto-LightItalic" font-style="italic" font-size="22.0" fill="#FFFFFF" transform="matrix(1.00, 0.00, -0.00, -1.00, 1676.6, 90.7)">e</text><text xml:space="preserve" font-family="Roboto-LightItalic" font-style="italic" font-size="22.0" fill="#FFFFFF" transform="matrix(1.00, 0.00, -0.00, -1.00, 1699.7, 90.7)">r</text><text xml:space="preserve" font-family="Roboto-LightItalic" font-style="italic" font-size="22.0" fill="#FFFFFF" transform="matrix(1.00, 0.00, -0.00, -1.00, 1719.0, 90.7)">i</text><text xml:space="preserve" font-family="Roboto-LightItalic" font-style="italic" font-size="22.0" fill="#FFFFFF" transform="matrix(1.00, 0.00, -0.00, -1.00, 1735.9, 90.7)">c</text><text xml:space="preserve" font-family="Roboto-LightItalic" font-style="italic" font-size="22.0" fill="#FFFFFF" transform="matrix(1.00, 0.00, -0.00, -1.00, 1759.0, 90.7)">a</text><text xml:space="preserve" font-family="Roboto-LightItalic" font-style="italic" font-size="22.0" fill="#FFFFFF" transform="matrix(1.00, 0.00, -0.00, -1.00, 1782.5, 90.7)">n</text><text xml:space="preserve" font-family="Roboto-LightItalic" font-style="italic" font-size="22.0" fill="#FFFFFF" transform="matrix(1.00, 0.00, -0.00, -1.00, 1806.4, 90.7)">o</text><g><clipPath id="clip-559"><path d="M 511.0 889.0 L 1409.0 889.0 L 1409.0 211.0 L 511.0 211.0 Z M 511.3 889.5 "></path></clipPath><g clip-path="url(#clip-559)"><g><clipPath id="clip-560"><path d="M 511.0 -305.0 L 1409.0 -305.0 L 1409.0 1233.0 L 511.0 1233.0 Z M 511.0 -305.0 "></path></clipPath><g clip-path="url(#clip-560)"><g><g><clipPath id="clip-561"><path d="M 511.0 1233.0 L 1409.0 1233.0 L 1409.0 -305.0 L 511.0 -305.0 Z M 511.0 1233.0 "></path></clipPath><g clip-path="url(#clip-561)"><g><clipPath id="clip-562"><path d="M 511.0 211.0 L 1409.0 211.0 L 1409.0 889.0 L 511.0 889.0 Z M 511.0 211.0 "></path></clipPath><g clip-path="url(#clip-562)"><path d="M 686.1 371.7 C 677.5 371.7 671.0 374.5 666.5 380.0 C 662.3 385.5 660.2 393.4 660.2 403.7 L 660.2 460.9 C 660.2 471.3 662.3 479.1 666.5 484.4 C 671.0 489.9 677.5 492.7 686.1 492.7 C 694.7 492.7 701.2 489.9 705.5 484.4 C 709.8 479.1 712.0 471.3 712.0 460.9 L 712.0 458.0 L 706.2 458.0 L 706.2 460.9 C 706.2 466.8 705.6 471.4 704.2 474.9 C 702.9 478.4 701.3 481.0 699.3 482.8 C 697.3 484.6 695.2 485.7 692.8 486.3 C 690.5 486.8 688.3 487.1 686.1 487.1 C 684.0 487.1 681.7 486.8 679.3 486.3 C 676.9 485.7 674.7 484.6 672.7 482.8 C 670.8 481.0 669.1 478.4 667.8 474.9 C 666.5 471.4 665.8 466.8 665.8 460.9 L 665.8 403.7 C 665.8 394.7 667.5 388.0 671.0 383.6 C 674.3 379.4 679.3 377.3 686.1 377.3 C 692.8 377.3 697.8 379.4 701.0 383.6 C 704.5 388.0 706.2 394.7 706.2 403.7 L 706.2 419.4 L 680.0 419.4 L 680.0 425.2 L 712.0 425.2 L 712.0 403.7 C 712.0 393.3 709.8 385.4 705.5 380.0 C 701.2 374.5 694.7 371.7 686.1 371.7 " fill="#FFFFFF"></path><path d="M 725.8 492.7 L 731.4 492.7 L 731.4 371.7 L 725.8 371.7 Z M 725.8 492.7 " fill="#FFFFFF"></path><path d="M 803.6 492.8 L 773.2 371.9 L 768.9 371.9 L 738.6 492.8 L 744.3 492.8 L 771.1 386.3 L 797.6 492.8 Z M 803.6 492.8 " fill="#FFFFFF"></path><path d="M 817.9 487.1 L 817.9 435.1 L 855.8 435.1 L 855.8 429.5 L 817.9 429.5 L 817.9 377.3 L 855.8 377.3 L 855.8 371.7 L 812.4 371.7 L 812.4 492.7 L 855.8 492.7 L 855.8 487.1 Z M 817.9 487.1 " fill="#FFFFFF"></path><path d="M 920.3 468.1 C 920.3 465.7 920.7 463.2 921.4 460.6 C 922.1 458.1 923.0 455.6 924.0 453.2 C 925.0 450.8 926.1 448.6 927.2 446.5 C 928.4 444.5 929.3 442.8 930.2 441.5 C 930.8 442.1 931.4 442.8 932.0 443.7 C 932.6 444.5 933.2 445.4 933.8 446.4 C 937.5 452.6 939.3 459.8 939.3 468.1 C 939.3 472.0 939.1 475.2 938.6 477.7 C 938.1 480.1 937.5 482.1 936.7 483.5 C 936.0 484.9 935.0 485.9 933.8 486.4 C 932.6 486.9 931.3 487.1 929.8 487.1 C 928.5 487.1 927.3 486.9 926.1 486.5 C 925.0 486.0 924.0 485.2 923.2 483.9 C 922.3 482.5 921.6 480.6 921.1 478.1 C 920.6 475.6 920.3 472.3 920.3 468.1 M 923.5 427.7 C 921.4 425.9 919.4 424.1 917.5 422.4 C 915.7 420.7 914.0 418.8 912.7 416.8 C 911.3 414.9 910.2 412.7 909.4 410.2 C 908.7 407.8 908.3 404.9 908.3 401.5 C 908.3 398.5 908.7 395.6 909.5 392.6 C 910.4 389.7 911.7 387.1 913.5 384.8 C 915.3 382.5 917.5 380.7 920.2 379.3 C 922.9 378.0 926.1 377.3 929.8 377.3 C 941.0 377.3 949.0 381.5 954.1 390.0 L 929.1 432.6 C 928.1 431.7 927.2 430.9 926.3 430.1 C 925.4 429.3 924.5 428.5 923.5 427.7 M 929.8 371.7 C 921.4 371.7 914.8 374.6 909.9 380.5 C 905.1 386.0 902.7 393.0 902.7 401.5 C 902.7 405.5 903.2 408.9 904.1 411.9 C 905.1 414.9 906.4 417.6 908.0 419.9 C 909.6 422.2 911.5 424.4 913.6 426.3 C 915.7 428.2 917.8 430.1 919.9 432.0 C 920.9 433.0 921.9 433.9 923.0 434.8 C 924.1 435.7 925.2 436.6 926.2 437.6 C 925.4 438.8 924.3 440.5 923.0 442.8 C 921.7 445.0 920.4 447.6 919.1 450.3 C 917.9 453.1 916.8 456.0 915.9 459.0 C 915.0 462.1 914.6 465.1 914.6 468.1 C 914.6 472.1 914.8 475.6 915.4 478.4 C 915.9 481.2 916.6 483.6 917.6 485.7 C 920.1 490.3 924.2 492.7 929.8 492.7 C 935.9 492.7 940.2 489.9 942.6 484.4 C 943.6 482.0 944.3 479.3 944.6 476.3 C 944.9 473.3 945.1 470.6 945.1 468.1 C 945.1 463.8 944.6 459.9 943.7 456.4 C 942.8 452.9 941.8 449.9 940.6 447.3 C 939.4 444.6 938.1 442.4 936.7 440.7 C 935.4 439.0 934.2 437.6 933.4 436.7 L 956.9 396.3 C 958.6 400.8 959.6 405.5 960.0 410.4 C 960.3 415.2 960.5 419.6 960.5 423.4 L 960.5 425.2 L 966.3 425.2 L 966.3 423.4 C 966.3 418.8 966.0 413.6 965.4 407.6 C 964.8 401.6 963.2 395.9 960.7 390.6 C 960.7 390.4 960.7 390.4 960.6 390.4 C 960.6 390.4 960.5 390.3 960.5 390.2 L 971.3 371.7 L 964.8 371.7 L 957.3 384.6 C 951.2 376.0 942.0 371.7 929.8 371.7 " fill="#FFFFFF"></path><path d="M 1081.9 487.1 L 1052.8 487.1 L 1052.8 371.9 L 1047.3 371.9 L 1047.3 487.1 L 1018.4 487.1 L 1018.4 492.8 L 1081.9 492.8 Z M 1081.9 487.1 " fill="#FFFFFF"></path><path d="M 1121.3 477.4 L 1106.7 414.2 L 1136.0 414.2 Z M 1097.0 371.7 L 1091.3 371.7 L 1100.8 413.7 L 1100.8 414.2 L 1119.1 492.7 L 1123.6 492.7 L 1151.3 371.7 L 1145.5 371.7 L 1137.2 408.7 L 1105.3 408.7 Z M 1097.0 371.7 " fill="#FFFFFF"></path><path d="M 1177.3 437.2 L 1214.5 371.7 L 1208.0 371.7 L 1173.9 431.8 L 1161.7 413.7 L 1161.7 371.7 L 1155.9 371.7 L 1155.9 492.7 L 1161.7 492.7 L 1161.7 423.9 L 1207.7 492.7 L 1214.5 492.7 Z M 1177.3 437.2 " fill="#FFFFFF"></path><path d="M 1226.5 487.1 L 1226.5 435.1 L 1264.4 435.1 L 1264.4 429.5 L 1226.5 429.5 L 1226.5 377.3 L 1264.4 377.3 L 1264.4 371.7 L 1220.9 371.7 L 1220.9 492.7 L 1264.4 492.7 L 1264.4 487.1 Z M 1226.5 487.1 " fill="#FFFFFF"></path></g></g></g></g><g><clipPath id="clip-563"><path d="M 511.0 1233.0 L 1409.0 1233.0 L 1409.0 -305.0 L 511.0 -305.0 Z M 511.0 1233.0 "></path></clipPath><g clip-path="url(#clip-563)"><g><clipPath id="clip-564"><path d="M 511.0 211.0 L 1409.0 211.0 L 1409.0 889.0 L 511.0 889.0 Z M 511.0 211.0 "></path></clipPath><g clip-path="url(#clip-564)"><g><g><clipPath id="clip-565"><path d="M 631.6 551.2 L 1288.4 551.2 L 1288.4 835.7 L 631.6 835.7 Z M 631.6 551.2 "></path></clipPath><g clip-path="url(#clip-565)"><path d="M 885.2 689.6 L 960.2 562.3 L 1036.7 692.0 L 961.6 819.3 Z M 962.9 551.8 L 957.5 551.8 L 876.2 689.6 L 961.6 834.4 L 1045.6 692.0 Z M 962.9 551.8 " fill="#FFFFFF"></path><path d="M 1123.8 559.5 L 1273.8 559.5 L 1120.7 819.3 L 1045.6 692.0 Z M 1287.3 551.8 L 1119.4 551.8 L 1036.7 692.0 L 1120.7 834.4 Z M 1287.3 551.8 " fill="#FFFFFF"></path><path d="M 967.5 559.5 L 1114.8 559.5 L 1041.1 684.4 Z M 1128.3 551.8 L 954.0 551.8 L 1041.1 699.6 Z M 1128.3 551.8 " fill="#FFFFFF"></path><path d="M 646.5 559.5 L 799.5 559.5 L 876.2 689.6 L 799.7 819.3 Z M 803.9 551.8 L 633.1 551.8 L 799.7 834.4 L 885.2 689.6 Z M 803.9 551.8 " fill="#FFFFFF"></path><path d="M 808.4 559.5 L 952.9 559.5 L 880.7 682.0 Z M 966.4 551.8 L 795.0 551.8 L 880.7 697.1 Z M 966.4 551.8 " fill="#FFFFFF"></path></g></g></g></g></g></g></g><g><clipPath id="clip-566"><path d="M 1280.7 316.0 L 639.3 316.0 L 638.6 316.0 L 638.6 315.3 L 638.6 312.8 L 638.6 312.1 L 639.3 312.1 L 1280.7 312.1 L 1281.4 312.1 L 1281.4 312.8 L 1281.4 315.3 L 1281.4 316.0 Z M 1280.7 316.0 "></path></clipPath><g clip-path="url(#clip-566)"><g><clipPath id="clip-567"><path d="M 511.0 211.0 L 1409.0 211.0 L 1409.0 889.0 L 511.0 889.0 Z M 511.0 211.0 "></path></clipPath><g clip-path="url(#clip-567)"><path d="M 626.5 299.9 L 1293.5 299.9 L 1293.5 328.1 L 626.5 328.1 Z M 626.5 299.9 " fill="#FFFFFF"></path></g></g></g></g><g><clipPath id="clip-568"><path d="M 611.1 284.6 L 1308.9 284.6 L 1308.9 343.5 L 611.1 343.5 Z M 639.3 315.3 L 1280.7 315.3 L 1280.7 312.8 L 639.3 312.8 Z M 639.3 315.3 "></path></clipPath><g clip-path="url(#clip-568)"><g><clipPath id="clip-569"><path d="M 511.0 211.0 L 1409.0 211.0 L 1409.0 889.0 L 511.0 889.0 Z M 511.0 211.0 "></path></clipPath><g clip-path="url(#clip-569)"><path d="M 1283.3 310.2 L 636.7 310.2 L 636.7 317.9 L 1283.3 317.9 Z M 1283.3 310.2 " fill="#FFFFFF"></path></g></g></g></g></g></g></g></g></g><path d="M 0.0 0.0 L 0.0 323.7 L 323.7 323.7 Z M 0.0 0.0 " fill="none" stroke="#C1CAD4" stroke-width="2.00" stroke-miterlimit="8.00" transform="matrix(1.00, 0.00, 0.00, -1.00, -40.0, 258.4)"></path><path d="M 0.0 0.0 L 258.0 0.0 " fill="none" stroke="#A7A7A7" stroke-width="2.00" stroke-miterlimit="8.00" transform="matrix(-0.71, 0.71, 0.71, 0.71, 197.2, 109.6)"></path><path d="M 180.6 181.9 L 180.6 -0.0 L -0.0 -0.0 Z M 180.6 181.9 " fill="none" stroke="#C1CAD4" stroke-width="2.00" stroke-miterlimit="8.00" transform="matrix(1.00, 0.00, 0.00, -1.00, 1741.4, 1106.7)"></path><path d="M 0.0 0.0 L 258.0 0.0 " fill="none" stroke="#A7A7A7" stroke-width="2.00" stroke-miterlimit="8.00" transform="matrix(-0.71, 0.71, 0.71, 0.71, 1961.2, 803.6)"></path></g></svg>