<?xml version="1.0" encoding="UTF-8" standalone="no"?><svg xmlns="http://www.w3.org/2000/svg" xmlns:xlink="http://www.w3.org/1999/xlink" clip-rule="evenodd" stroke-miterlimit="4.00" viewBox="0 0 534 81"><desc>SVG generated by Keynote</desc><defs></defs><g transform="matrix(1.00, 0.00, -0.00, -1.00, 0.0, 81.0)"><text xml:space="preserve" font-family="NexaBold" font-weight="bold" font-size="100.0" fill="#A6AAA8" transform="matrix(1.00, 0.00, -0.00, -1.00, 0.0, 6.0)">Q</text><text xml:space="preserve" font-family="NexaBold" font-weight="bold" font-size="100.0" fill="#A6AAA8" transform="matrix(1.00, 0.00, -0.00, -1.00, 78.2, 6.0)">u</text><text xml:space="preserve" font-family="NexaBold" font-weight="bold" font-size="100.0" fill="#A6AAA8" transform="matrix(1.00, 0.00, -0.00, -1.00, 138.1, 6.0)">e</text><text xml:space="preserve" font-family="NexaBold" font-weight="bold" font-size="100.0" fill="#A6AAA8" transform="matrix(1.00, 0.00, -0.00, -1.00, 196.4, 6.0)">s</text><text xml:space="preserve" font-family="NexaBold" font-weight="bold" font-size="100.0" fill="#A6AAA8" transform="matrix(1.00, 0.00, -0.00, -1.00, 245.5, 6.0)">t</text><text xml:space="preserve" font-family="NexaBold" font-weight="bold" font-size="100.0" fill="#A6AAA8" transform="matrix(1.00, 0.00, -0.00, -1.00, 285.4, 6.0)">i</text><text xml:space="preserve" font-family="NexaBold" font-weight="bold" font-size="100.0" fill="#A6AAA8" transform="matrix(1.00, 0.00, -0.00, -1.00, 309.7, 6.0)">o</text><text xml:space="preserve" font-family="NexaBold" font-weight="bold" font-size="100.0" fill="#A6AAA8" transform="matrix(1.00, 0.00, -0.00, -1.00, 367.1, 6.0)">n</text><text xml:space="preserve" font-family="NexaBold" font-weight="bold" font-size="100.0" fill="#A6AAA8" transform="matrix(1.00, 0.00, -0.00, -1.00, 426.1, 6.0)">s</text><text xml:space="preserve" font-family="NexaBold" font-weight="bold" font-size="100.0" fill="#A6AAA8" transform="matrix(1.00, 0.00, -0.00, -1.00, 475.2, 6.0)">?</text></g></svg>