<?xml version="1.0" encoding="UTF-8" standalone="no"?><svg xmlns="http://www.w3.org/2000/svg" xmlns:xlink="http://www.w3.org/1999/xlink" clip-rule="evenodd" stroke-miterlimit="4.00" viewBox="0 0 358 608"><desc>SVG generated by Keynote</desc><defs></defs><g transform="matrix(1.00, 0.00, -0.00, -1.00, 0.0, 608.0)"><g><clipPath id="clip-64"><path d="M -4.3 426.0 L 361.7 426.0 L 361.7 611.9 L -4.3 611.9 Z M -4.3 426.0 "></path></clipPath><g clip-path="url(#clip-64)"><text xml:space="preserve" font-family="Roboto-Medium" font-size="32.0" fill="#3F3F3F" transform="matrix(1.00, 0.00, -0.00, -1.00, 5.0, 572.0)">E</text><text xml:space="preserve" font-family="Roboto-Medium" font-size="32.0" fill="#3F3F3F" transform="matrix(1.00, 0.00, -0.00, -1.00, 23.1, 572.0)">n</text><text xml:space="preserve" font-family="Roboto-Medium" font-size="32.0" fill="#3F3F3F" transform="matrix(1.00, 0.00, -0.00, -1.00, 40.9, 572.0)">v</text><text xml:space="preserve" font-family="Roboto-Medium" font-size="32.0" fill="#3F3F3F" transform="matrix(1.00, 0.00, -0.00, -1.00, 56.7, 572.0)">i</text><text xml:space="preserve" font-family="Roboto-Medium" font-size="32.0" fill="#3F3F3F" transform="matrix(1.00, 0.00, -0.00, -1.00, 64.9, 572.0)">r</text><text xml:space="preserve" font-family="Roboto-Medium" font-size="32.0" fill="#3F3F3F" transform="matrix(1.00, 0.00, -0.00, -1.00, 75.6, 572.0)">o</text><text xml:space="preserve" font-family="Roboto-Medium" font-size="32.0" fill="#3F3F3F" transform="matrix(1.00, 0.00, -0.00, -1.00, 93.8, 572.0)">n</text><text xml:space="preserve" font-family="Roboto-Medium" font-size="32.0" fill="#3F3F3F" transform="matrix(1.00, 0.00, -0.00, -1.00, 111.6, 572.0)">m</text><text xml:space="preserve" font-family="Roboto-Medium" font-size="32.0" fill="#3F3F3F" transform="matrix(1.00, 0.00, -0.00, -1.00, 139.5, 572.0)">e</text><text xml:space="preserve" font-family="Roboto-Medium" font-size="32.0" fill="#3F3F3F" transform="matrix(1.00, 0.00, -0.00, -1.00, 156.6, 572.0)">n</text><text xml:space="preserve" font-family="Roboto-Medium" font-size="32.0" fill="#3F3F3F" transform="matrix(1.00, 0.00, -0.00, -1.00, 174.5, 572.0)">t</text><text xml:space="preserve" font-family="Roboto-Medium" font-size="32.0" fill="#3F3F3F" transform="matrix(1.00, 0.00, -0.00, -1.00, 185.1, 572.0)"> </text><text xml:space="preserve" font-family="Roboto-Thin" font-size="32.0" fill="#3F3F3F" transform="matrix(1.00, 0.00, -0.00, -1.00, 5.0, 531.0)">W</text><text xml:space="preserve" font-family="Roboto-Thin" font-size="32.0" fill="#3F3F3F" transform="matrix(1.00, 0.00, -0.00, -1.00, 34.0, 531.0)">h</text><text xml:space="preserve" font-family="Roboto-Thin" font-size="32.0" fill="#3F3F3F" transform="matrix(1.00, 0.00, -0.00, -1.00, 51.5, 531.0)">e</text><text xml:space="preserve" font-family="Roboto-Thin" font-size="32.0" fill="#3F3F3F" transform="matrix(1.00, 0.00, -0.00, -1.00, 67.6, 531.0)">r</text><text xml:space="preserve" font-family="Roboto-Thin" font-size="32.0" fill="#3F3F3F" transform="matrix(1.00, 0.00, -0.00, -1.00, 78.0, 531.0)">e</text><text xml:space="preserve" font-family="Roboto-Thin" font-size="32.0" fill="#3F3F3F" transform="matrix(1.00, 0.00, -0.00, -1.00, 94.2, 531.0)"> </text><text xml:space="preserve" font-family="Roboto-Thin" font-size="32.0" fill="#3F3F3F" transform="matrix(1.00, 0.00, -0.00, -1.00, 101.8, 531.0)">a</text><text xml:space="preserve" font-family="Roboto-Thin" font-size="32.0" fill="#3F3F3F" transform="matrix(1.00, 0.00, -0.00, -1.00, 118.7, 531.0)">r</text><text xml:space="preserve" font-family="Roboto-Thin" font-size="32.0" fill="#3F3F3F" transform="matrix(1.00, 0.00, -0.00, -1.00, 129.1, 531.0)">e</text><text xml:space="preserve" font-family="Roboto-Thin" font-size="32.0" fill="#3F3F3F" transform="matrix(1.00, 0.00, -0.00, -1.00, 145.3, 531.0)"> </text><text xml:space="preserve" font-family="Roboto-Thin" font-size="32.0" fill="#3F3F3F" transform="matrix(1.00, 0.00, -0.00, -1.00, 152.9, 531.0)">a</text><text xml:space="preserve" font-family="Roboto-Thin" font-size="32.0" fill="#3F3F3F" transform="matrix(1.00, 0.00, -0.00, -1.00, 169.8, 531.0)">l</text><text xml:space="preserve" font-family="Roboto-Thin" font-size="32.0" fill="#3F3F3F" transform="matrix(1.00, 0.00, -0.00, -1.00, 176.4, 531.0)">l</text><text xml:space="preserve" font-family="Roboto-Thin" font-size="32.0" fill="#3F3F3F" transform="matrix(1.00, 0.00, -0.00, -1.00, 183.0, 531.0)"> </text><text xml:space="preserve" font-family="Roboto-Thin" font-size="32.0" fill="#3F3F3F" transform="matrix(1.00, 0.00, -0.00, -1.00, 190.7, 531.0)">t</text><text xml:space="preserve" font-family="Roboto-Thin" font-size="32.0" fill="#3F3F3F" transform="matrix(1.00, 0.00, -0.00, -1.00, 200.8, 531.0)">h</text><text xml:space="preserve" font-family="Roboto-Thin" font-size="32.0" fill="#3F3F3F" transform="matrix(1.00, 0.00, -0.00, -1.00, 218.4, 531.0)">i</text><text xml:space="preserve" font-family="Roboto-Thin" font-size="32.0" fill="#3F3F3F" transform="matrix(1.00, 0.00, -0.00, -1.00, 225.0, 531.0)">s</text><text xml:space="preserve" font-family="Roboto-Thin" font-size="32.0" fill="#3F3F3F" transform="matrix(1.00, 0.00, -0.00, -1.00, 240.9, 531.0)"> </text><text xml:space="preserve" font-family="Roboto-Thin" font-size="32.0" fill="#3F3F3F" transform="matrix(1.00, 0.00, -0.00, -1.00, 248.6, 531.0)">t</text><text xml:space="preserve" font-family="Roboto-Thin" font-size="32.0" fill="#3F3F3F" transform="matrix(1.00, 0.00, -0.00, -1.00, 258.7, 531.0)">r</text><text xml:space="preserve" font-family="Roboto-Thin" font-size="32.0" fill="#3F3F3F" transform="matrix(1.00, 0.00, -0.00, -1.00, 268.8, 531.0)">a</text><text xml:space="preserve" font-family="Roboto-Thin" font-size="32.0" fill="#3F3F3F" transform="matrix(1.00, 0.00, -0.00, -1.00, 285.7, 531.0)">s</text><text xml:space="preserve" font-family="Roboto-Thin" font-size="32.0" fill="#3F3F3F" transform="matrix(1.00, 0.00, -0.00, -1.00, 301.6, 531.0)">h</text><text xml:space="preserve" font-family="Roboto-Thin" font-size="32.0" fill="#3F3F3F" transform="matrix(1.00, 0.00, -0.00, -1.00, 319.1, 531.0)"> </text><text xml:space="preserve" font-family="Roboto-Thin" font-size="32.0" fill="#3F3F3F" transform="matrix(1.00, 0.00, -0.00, -1.00, 5.0, 489.0)">g</text><text xml:space="preserve" font-family="Roboto-Thin" font-size="32.0" fill="#3F3F3F" transform="matrix(1.00, 0.00, -0.00, -1.00, 22.6, 489.0)">o</text><text xml:space="preserve" font-family="Roboto-Thin" font-size="32.0" fill="#3F3F3F" transform="matrix(1.00, 0.00, -0.00, -1.00, 40.2, 489.0)">i</text><text xml:space="preserve" font-family="Roboto-Thin" font-size="32.0" fill="#3F3F3F" transform="matrix(1.00, 0.00, -0.00, -1.00, 46.8, 489.0)">n</text><text xml:space="preserve" font-family="Roboto-Thin" font-size="32.0" fill="#3F3F3F" transform="matrix(1.00, 0.00, -0.00, -1.00, 64.3, 489.0)">g</text><text xml:space="preserve" font-family="Roboto-Thin" font-size="32.0" fill="#3F3F3F" transform="matrix(1.00, 0.00, -0.00, -1.00, 81.9, 489.0)">?</text><text xml:space="preserve" font-family="Roboto-Thin" font-size="32.0" fill="#3F3F3F" transform="matrix(1.00, 0.00, -0.00, -1.00, 95.8, 489.0)"> </text></g></g><g><clipPath id="clip-65"><path d="M -4.3 200.1 L 361.7 200.1 L 361.7 386.0 L -4.3 386.0 Z M -4.3 200.1 "></path></clipPath><g clip-path="url(#clip-65)"><text xml:space="preserve" font-family="Roboto-Medium" font-size="32.0" fill="#3F3F3F" transform="matrix(1.00, 0.00, -0.00, -1.00, 5.0, 346.0)">D</text><text xml:space="preserve" font-family="Roboto-Medium" font-size="32.0" fill="#3F3F3F" transform="matrix(1.00, 0.00, -0.00, -1.00, 25.9, 346.0)">i</text><text xml:space="preserve" font-family="Roboto-Medium" font-size="32.0" fill="#3F3F3F" transform="matrix(1.00, 0.00, -0.00, -1.00, 34.1, 346.0)">s</text><text xml:space="preserve" font-family="Roboto-Medium" font-size="32.0" fill="#3F3F3F" transform="matrix(1.00, 0.00, -0.00, -1.00, 50.6, 346.0)">c</text><text xml:space="preserve" font-family="Roboto-Medium" font-size="32.0" fill="#3F3F3F" transform="matrix(1.00, 0.00, -0.00, -1.00, 67.4, 346.0)">a</text><text xml:space="preserve" font-family="Roboto-Medium" font-size="32.0" fill="#3F3F3F" transform="matrix(1.00, 0.00, -0.00, -1.00, 84.7, 346.0)">r</text><text xml:space="preserve" font-family="Roboto-Medium" font-size="32.0" fill="#3F3F3F" transform="matrix(1.00, 0.00, -0.00, -1.00, 95.6, 346.0)">d</text><text xml:space="preserve" font-family="Roboto-Medium" font-size="32.0" fill="#3F3F3F" transform="matrix(1.00, 0.00, -0.00, -1.00, 113.7, 346.0)"> </text><text xml:space="preserve" font-family="Roboto-Medium" font-size="32.0" fill="#3F3F3F" transform="matrix(1.00, 0.00, -0.00, -1.00, 121.7, 346.0)">i</text><text xml:space="preserve" font-family="Roboto-Medium" font-size="32.0" fill="#3F3F3F" transform="matrix(1.00, 0.00, -0.00, -1.00, 129.9, 346.0)">s</text><text xml:space="preserve" font-family="Roboto-Medium" font-size="32.0" fill="#3F3F3F" transform="matrix(1.00, 0.00, -0.00, -1.00, 146.4, 346.0)">s</text><text xml:space="preserve" font-family="Roboto-Medium" font-size="32.0" fill="#3F3F3F" transform="matrix(1.00, 0.00, -0.00, -1.00, 162.9, 346.0)">u</text><text xml:space="preserve" font-family="Roboto-Medium" font-size="32.0" fill="#3F3F3F" transform="matrix(1.00, 0.00, -0.00, -1.00, 180.7, 346.0)">e</text><text xml:space="preserve" font-family="Roboto-Medium" font-size="32.0" fill="#3F3F3F" transform="matrix(1.00, 0.00, -0.00, -1.00, 197.8, 346.0)">s</text><text xml:space="preserve" font-family="Roboto-Medium" font-size="32.0" fill="#3F3F3F" transform="matrix(1.00, 0.00, -0.00, -1.00, 214.4, 346.0)"> </text><text xml:space="preserve" font-family="Roboto-Thin" font-size="32.0" fill="#3F3F3F" transform="matrix(1.00, 0.00, -0.00, -1.00, 5.0, 305.0)">S</text><text xml:space="preserve" font-family="Roboto-Thin" font-size="32.0" fill="#3F3F3F" transform="matrix(1.00, 0.00, -0.00, -1.00, 23.9, 305.0)">o</text><text xml:space="preserve" font-family="Roboto-Thin" font-size="32.0" fill="#3F3F3F" transform="matrix(1.00, 0.00, -0.00, -1.00, 41.6, 305.0)">m</text><text xml:space="preserve" font-family="Roboto-Thin" font-size="32.0" fill="#3F3F3F" transform="matrix(1.00, 0.00, -0.00, -1.00, 70.2, 305.0)">e</text><text xml:space="preserve" font-family="Roboto-Thin" font-size="32.0" fill="#3F3F3F" transform="matrix(1.00, 0.00, -0.00, -1.00, 86.4, 305.0)"> </text><text xml:space="preserve" font-family="Roboto-Thin" font-size="32.0" fill="#3F3F3F" transform="matrix(1.00, 0.00, -0.00, -1.00, 94.0, 305.0)">i</text><text xml:space="preserve" font-family="Roboto-Thin" font-size="32.0" fill="#3F3F3F" transform="matrix(1.00, 0.00, -0.00, -1.00, 100.7, 305.0)">t</text><text xml:space="preserve" font-family="Roboto-Thin" font-size="32.0" fill="#3F3F3F" transform="matrix(1.00, 0.00, -0.00, -1.00, 110.8, 305.0)">e</text><text xml:space="preserve" font-family="Roboto-Thin" font-size="32.0" fill="#3F3F3F" transform="matrix(1.00, 0.00, -0.00, -1.00, 126.9, 305.0)">m</text><text xml:space="preserve" font-family="Roboto-Thin" font-size="32.0" fill="#3F3F3F" transform="matrix(1.00, 0.00, -0.00, -1.00, 155.6, 305.0)">s</text><text xml:space="preserve" font-family="Roboto-Thin" font-size="32.0" fill="#3F3F3F" transform="matrix(1.00, 0.00, -0.00, -1.00, 171.5, 305.0)"> </text><text xml:space="preserve" font-family="Roboto-Thin" font-size="32.0" fill="#3F3F3F" transform="matrix(1.00, 0.00, -0.00, -1.00, 179.2, 305.0)">a</text><text xml:space="preserve" font-family="Roboto-Thin" font-size="32.0" fill="#3F3F3F" transform="matrix(1.00, 0.00, -0.00, -1.00, 196.1, 305.0)">r</text><text xml:space="preserve" font-family="Roboto-Thin" font-size="32.0" fill="#3F3F3F" transform="matrix(1.00, 0.00, -0.00, -1.00, 206.5, 305.0)">e</text><text xml:space="preserve" font-family="Roboto-Thin" font-size="32.0" fill="#3F3F3F" transform="matrix(1.00, 0.00, -0.00, -1.00, 222.6, 305.0)"> </text><text xml:space="preserve" font-family="Roboto-Thin" font-size="32.0" fill="#3F3F3F" transform="matrix(1.00, 0.00, -0.00, -1.00, 230.3, 305.0)">h</text><text xml:space="preserve" font-family="Roboto-Thin" font-size="32.0" fill="#3F3F3F" transform="matrix(1.00, 0.00, -0.00, -1.00, 247.8, 305.0)">a</text><text xml:space="preserve" font-family="Roboto-Thin" font-size="32.0" fill="#3F3F3F" transform="matrix(1.00, 0.00, -0.00, -1.00, 264.7, 305.0)">r</text><text xml:space="preserve" font-family="Roboto-Thin" font-size="32.0" fill="#3F3F3F" transform="matrix(1.00, 0.00, -0.00, -1.00, 275.1, 305.0)">d</text><text xml:space="preserve" font-family="Roboto-Thin" font-size="32.0" fill="#3F3F3F" transform="matrix(1.00, 0.00, -0.00, -1.00, 292.6, 305.0)"> </text><text xml:space="preserve" font-family="Roboto-Thin" font-size="32.0" fill="#3F3F3F" transform="matrix(1.00, 0.00, -0.00, -1.00, 300.3, 305.0)">t</text><text xml:space="preserve" font-family="Roboto-Thin" font-size="32.0" fill="#3F3F3F" transform="matrix(1.00, 0.00, -0.00, -1.00, 310.1, 305.0)">o</text><text xml:space="preserve" font-family="Roboto-Thin" font-size="32.0" fill="#3F3F3F" transform="matrix(1.00, 0.00, -0.00, -1.00, 327.7, 305.0)"> </text><text xml:space="preserve" font-family="Roboto-Thin" font-size="32.0" fill="#3F3F3F" transform="matrix(1.00, 0.00, -0.00, -1.00, 5.0, 263.0)">d</text><text xml:space="preserve" font-family="Roboto-Thin" font-size="32.0" fill="#3F3F3F" transform="matrix(1.00, 0.00, -0.00, -1.00, 22.5, 263.0)">i</text><text xml:space="preserve" font-family="Roboto-Thin" font-size="32.0" fill="#3F3F3F" transform="matrix(1.00, 0.00, -0.00, -1.00, 29.1, 263.0)">s</text><text xml:space="preserve" font-family="Roboto-Thin" font-size="32.0" fill="#3F3F3F" transform="matrix(1.00, 0.00, -0.00, -1.00, 45.0, 263.0)">c</text><text xml:space="preserve" font-family="Roboto-Thin" font-size="32.0" fill="#3F3F3F" transform="matrix(1.00, 0.00, -0.00, -1.00, 61.3, 263.0)">a</text><text xml:space="preserve" font-family="Roboto-Thin" font-size="32.0" fill="#3F3F3F" transform="matrix(1.00, 0.00, -0.00, -1.00, 78.2, 263.0)">r</text><text xml:space="preserve" font-family="Roboto-Thin" font-size="32.0" fill="#3F3F3F" transform="matrix(1.00, 0.00, -0.00, -1.00, 88.6, 263.0)">d</text><text xml:space="preserve" font-family="Roboto-Thin" font-size="32.0" fill="#3F3F3F" transform="matrix(1.00, 0.00, -0.00, -1.00, 106.1, 263.0)"> </text><text xml:space="preserve" font-family="Roboto-Thin" font-size="32.0" fill="#3F3F3F" transform="matrix(1.00, 0.00, -0.00, -1.00, 113.8, 263.0)">(</text><text xml:space="preserve" font-family="Roboto-Thin" font-size="32.0" fill="#3F3F3F" transform="matrix(1.00, 0.00, -0.00, -1.00, 123.3, 263.0)">l</text><text xml:space="preserve" font-family="Roboto-Thin" font-size="32.0" fill="#3F3F3F" transform="matrix(1.00, 0.00, -0.00, -1.00, 129.9, 263.0)">i</text><text xml:space="preserve" font-family="Roboto-Thin" font-size="32.0" fill="#3F3F3F" transform="matrix(1.00, 0.00, -0.00, -1.00, 136.5, 263.0)">k</text><text xml:space="preserve" font-family="Roboto-Thin" font-size="32.0" fill="#3F3F3F" transform="matrix(1.00, 0.00, -0.00, -1.00, 151.3, 263.0)">e</text><text xml:space="preserve" font-family="Roboto-Thin" font-size="32.0" fill="#3F3F3F" transform="matrix(1.00, 0.00, -0.00, -1.00, 167.4, 263.0)"> </text><text xml:space="preserve" font-family="Roboto-Thin" font-size="32.0" fill="#3F3F3F" transform="matrix(1.00, 0.00, -0.00, -1.00, 175.1, 263.0)">a</text><text xml:space="preserve" font-family="Roboto-Thin" font-size="32.0" fill="#3F3F3F" transform="matrix(1.00, 0.00, -0.00, -1.00, 192.0, 263.0)"> </text><text xml:space="preserve" font-family="Roboto-Thin" font-size="32.0" fill="#3F3F3F" transform="matrix(1.00, 0.00, -0.00, -1.00, 199.6, 263.0)">c</text><text xml:space="preserve" font-family="Roboto-Thin" font-size="32.0" fill="#3F3F3F" transform="matrix(1.00, 0.00, -0.00, -1.00, 215.9, 263.0)">o</text><text xml:space="preserve" font-family="Roboto-Thin" font-size="32.0" fill="#3F3F3F" transform="matrix(1.00, 0.00, -0.00, -1.00, 233.5, 263.0)">u</text><text xml:space="preserve" font-family="Roboto-Thin" font-size="32.0" fill="#3F3F3F" transform="matrix(1.00, 0.00, -0.00, -1.00, 251.0, 263.0)">c</text><text xml:space="preserve" font-family="Roboto-Thin" font-size="32.0" fill="#3F3F3F" transform="matrix(1.00, 0.00, -0.00, -1.00, 267.3, 263.0)">h</text><text xml:space="preserve" font-family="Roboto-Thin" font-size="32.0" fill="#3F3F3F" transform="matrix(1.00, 0.00, -0.00, -1.00, 284.8, 263.0)">)</text><text xml:space="preserve" font-family="Roboto-Thin" font-size="32.0" fill="#3F3F3F" transform="matrix(1.00, 0.00, -0.00, -1.00, 294.6, 263.0)">.</text><text xml:space="preserve" font-family="Roboto-Thin" font-size="32.0" fill="#3F3F3F" transform="matrix(1.00, 0.00, -0.00, -1.00, 301.4, 263.0)"> </text></g></g><g><clipPath id="clip-66"><path d="M -4.3 -7.8 L 361.7 -7.8 L 361.7 178.1 L -4.3 178.1 Z M -4.3 -7.8 "></path></clipPath><g clip-path="url(#clip-66)"><text xml:space="preserve" font-family="Roboto-Medium" font-size="32.0" fill="#3F3F3F" transform="matrix(1.00, 0.00, -0.00, -1.00, 5.0, 139.0)">W</text><text xml:space="preserve" font-family="Roboto-Medium" font-size="32.0" fill="#3F3F3F" transform="matrix(1.00, 0.00, -0.00, -1.00, 32.7, 139.0)">o</text><text xml:space="preserve" font-family="Roboto-Medium" font-size="32.0" fill="#3F3F3F" transform="matrix(1.00, 0.00, -0.00, -1.00, 50.9, 139.0)">r</text><text xml:space="preserve" font-family="Roboto-Medium" font-size="32.0" fill="#3F3F3F" transform="matrix(1.00, 0.00, -0.00, -1.00, 62.1, 139.0)">k</text><text xml:space="preserve" font-family="Roboto-Medium" font-size="32.0" fill="#3F3F3F" transform="matrix(1.00, 0.00, -0.00, -1.00, 78.8, 139.0)">i</text><text xml:space="preserve" font-family="Roboto-Medium" font-size="32.0" fill="#3F3F3F" transform="matrix(1.00, 0.00, -0.00, -1.00, 87.0, 139.0)">n</text><text xml:space="preserve" font-family="Roboto-Medium" font-size="32.0" fill="#3F3F3F" transform="matrix(1.00, 0.00, -0.00, -1.00, 104.8, 139.0)">g</text><text xml:space="preserve" font-family="Roboto-Medium" font-size="32.0" fill="#3F3F3F" transform="matrix(1.00, 0.00, -0.00, -1.00, 123.0, 139.0)"> </text><text xml:space="preserve" font-family="Roboto-Medium" font-size="32.0" fill="#3F3F3F" transform="matrix(1.00, 0.00, -0.00, -1.00, 130.9, 139.0)">i</text><text xml:space="preserve" font-family="Roboto-Medium" font-size="32.0" fill="#3F3F3F" transform="matrix(1.00, 0.00, -0.00, -1.00, 139.1, 139.0)">t</text><text xml:space="preserve" font-family="Roboto-Medium" font-size="32.0" fill="#3F3F3F" transform="matrix(1.00, 0.00, -0.00, -1.00, 149.7, 139.0)">e</text><text xml:space="preserve" font-family="Roboto-Medium" font-size="32.0" fill="#3F3F3F" transform="matrix(1.00, 0.00, -0.00, -1.00, 166.9, 139.0)">m</text><text xml:space="preserve" font-family="Roboto-Medium" font-size="32.0" fill="#3F3F3F" transform="matrix(1.00, 0.00, -0.00, -1.00, 194.7, 139.0)">s</text><text xml:space="preserve" font-family="Roboto-Medium" font-size="32.0" fill="#3F3F3F" transform="matrix(1.00, 0.00, -0.00, -1.00, 211.3, 139.0)"> </text><text xml:space="preserve" font-family="Roboto-Thin" font-size="32.0" fill="#3F3F3F" transform="matrix(1.00, 0.00, -0.00, -1.00, 5.0, 97.0)">I</text><text xml:space="preserve" font-family="Roboto-Thin" font-size="32.0" fill="#3F3F3F" transform="matrix(1.00, 0.00, -0.00, -1.00, 13.3, 97.0)">f</text><text xml:space="preserve" font-family="Roboto-Thin" font-size="32.0" fill="#3F3F3F" transform="matrix(1.00, 0.00, -0.00, -1.00, 23.4, 97.0)"> </text><text xml:space="preserve" font-family="Roboto-Thin" font-size="32.0" fill="#3F3F3F" transform="matrix(1.00, 0.00, -0.00, -1.00, 31.1, 97.0)">i</text><text xml:space="preserve" font-family="Roboto-Thin" font-size="32.0" fill="#3F3F3F" transform="matrix(1.00, 0.00, -0.00, -1.00, 37.7, 97.0)">t</text><text xml:space="preserve" font-family="Roboto-Thin" font-size="32.0" fill="#3F3F3F" transform="matrix(1.00, 0.00, -0.00, -1.00, 47.8, 97.0)">’</text><text xml:space="preserve" font-family="Roboto-Thin" font-size="32.0" fill="#3F3F3F" transform="matrix(1.00, 0.00, -0.00, -1.00, 51.1, 97.0)">s</text><text xml:space="preserve" font-family="Roboto-Thin" font-size="32.0" fill="#3F3F3F" transform="matrix(1.00, 0.00, -0.00, -1.00, 67.0, 97.0)"> </text><text xml:space="preserve" font-family="Roboto-Thin" font-size="32.0" fill="#3F3F3F" transform="matrix(1.00, 0.00, -0.00, -1.00, 74.6, 97.0)">w</text><text xml:space="preserve" font-family="Roboto-Thin" font-size="32.0" fill="#3F3F3F" transform="matrix(1.00, 0.00, -0.00, -1.00, 98.9, 97.0)">o</text><text xml:space="preserve" font-family="Roboto-Thin" font-size="32.0" fill="#3F3F3F" transform="matrix(1.00, 0.00, -0.00, -1.00, 116.5, 97.0)">r</text><text xml:space="preserve" font-family="Roboto-Thin" font-size="32.0" fill="#3F3F3F" transform="matrix(1.00, 0.00, -0.00, -1.00, 127.2, 97.0)">k</text><text xml:space="preserve" font-family="Roboto-Thin" font-size="32.0" fill="#3F3F3F" transform="matrix(1.00, 0.00, -0.00, -1.00, 142.3, 97.0)">i</text><text xml:space="preserve" font-family="Roboto-Thin" font-size="32.0" fill="#3F3F3F" transform="matrix(1.00, 0.00, -0.00, -1.00, 148.9, 97.0)">n</text><text xml:space="preserve" font-family="Roboto-Thin" font-size="32.0" fill="#3F3F3F" transform="matrix(1.00, 0.00, -0.00, -1.00, 166.5, 97.0)">g</text><text xml:space="preserve" font-family="Roboto-Thin" font-size="32.0" fill="#3F3F3F" transform="matrix(1.00, 0.00, -0.00, -1.00, 184.0, 97.0)">,</text><text xml:space="preserve" font-family="Roboto-Thin" font-size="32.0" fill="#3F3F3F" transform="matrix(1.00, 0.00, -0.00, -1.00, 190.0, 97.0)"> </text><text xml:space="preserve" font-family="Roboto-Thin" font-size="32.0" fill="#3F3F3F" transform="matrix(1.00, 0.00, -0.00, -1.00, 197.7, 97.0)">w</text><text xml:space="preserve" font-family="Roboto-Thin" font-size="32.0" fill="#3F3F3F" transform="matrix(1.00, 0.00, -0.00, -1.00, 221.9, 97.0)">h</text><text xml:space="preserve" font-family="Roboto-Thin" font-size="32.0" fill="#3F3F3F" transform="matrix(1.00, 0.00, -0.00, -1.00, 239.4, 97.0)">y</text><text xml:space="preserve" font-family="Roboto-Thin" font-size="32.0" fill="#3F3F3F" transform="matrix(1.00, 0.00, -0.00, -1.00, 254.7, 97.0)"> </text><text xml:space="preserve" font-family="Roboto-Thin" font-size="32.0" fill="#3F3F3F" transform="matrix(1.00, 0.00, -0.00, -1.00, 262.3, 97.0)">d</text><text xml:space="preserve" font-family="Roboto-Thin" font-size="32.0" fill="#3F3F3F" transform="matrix(1.00, 0.00, -0.00, -1.00, 279.9, 97.0)">o</text><text xml:space="preserve" font-family="Roboto-Thin" font-size="32.0" fill="#3F3F3F" transform="matrix(1.00, 0.00, -0.00, -1.00, 297.5, 97.0)"> </text><text xml:space="preserve" font-family="Roboto-Thin" font-size="32.0" fill="#3F3F3F" transform="matrix(1.00, 0.00, -0.00, -1.00, 5.0, 55.0)">y</text><text xml:space="preserve" font-family="Roboto-Thin" font-size="32.0" fill="#3F3F3F" transform="matrix(1.00, 0.00, -0.00, -1.00, 20.0, 55.0)">o</text><text xml:space="preserve" font-family="Roboto-Thin" font-size="32.0" fill="#3F3F3F" transform="matrix(1.00, 0.00, -0.00, -1.00, 37.7, 55.0)">u</text><text xml:space="preserve" font-family="Roboto-Thin" font-size="32.0" fill="#3F3F3F" transform="matrix(1.00, 0.00, -0.00, -1.00, 55.2, 55.0)"> </text><text xml:space="preserve" font-family="Roboto-Thin" font-size="32.0" fill="#3F3F3F" transform="matrix(1.00, 0.00, -0.00, -1.00, 62.8, 55.0)">t</text><text xml:space="preserve" font-family="Roboto-Thin" font-size="32.0" fill="#3F3F3F" transform="matrix(1.00, 0.00, -0.00, -1.00, 73.0, 55.0)">h</text><text xml:space="preserve" font-family="Roboto-Thin" font-size="32.0" fill="#3F3F3F" transform="matrix(1.00, 0.00, -0.00, -1.00, 90.5, 55.0)">r</text><text xml:space="preserve" font-family="Roboto-Thin" font-size="32.0" fill="#3F3F3F" transform="matrix(1.00, 0.00, -0.00, -1.00, 100.9, 55.0)">o</text><text xml:space="preserve" font-family="Roboto-Thin" font-size="32.0" fill="#3F3F3F" transform="matrix(1.00, 0.00, -0.00, -1.00, 118.5, 55.0)">w</text><text xml:space="preserve" font-family="Roboto-Thin" font-size="32.0" fill="#3F3F3F" transform="matrix(1.00, 0.00, -0.00, -1.00, 142.7, 55.0)"> </text><text xml:space="preserve" font-family="Roboto-Thin" font-size="32.0" fill="#3F3F3F" transform="matrix(1.00, 0.00, -0.00, -1.00, 150.4, 55.0)">a</text><text xml:space="preserve" font-family="Roboto-Thin" font-size="32.0" fill="#3F3F3F" transform="matrix(1.00, 0.00, -0.00, -1.00, 167.3, 55.0)">w</text><text xml:space="preserve" font-family="Roboto-Thin" font-size="32.0" fill="#3F3F3F" transform="matrix(1.00, 0.00, -0.00, -1.00, 191.5, 55.0)">a</text><text xml:space="preserve" font-family="Roboto-Thin" font-size="32.0" fill="#3F3F3F" transform="matrix(1.00, 0.00, -0.00, -1.00, 208.2, 55.0)">y</text><text xml:space="preserve" font-family="Roboto-Thin" font-size="32.0" fill="#3F3F3F" transform="matrix(1.00, 0.00, -0.00, -1.00, 223.4, 55.0)">?</text><text xml:space="preserve" font-family="Roboto-Thin" font-size="32.0" fill="#3F3F3F" transform="matrix(1.00, 0.00, -0.00, -1.00, 237.4, 55.0)"> </text></g></g></g></svg>