<?xml version="1.0" encoding="UTF-8" standalone="no"?><svg xmlns="http://www.w3.org/2000/svg" xmlns:xlink="http://www.w3.org/1999/xlink" clip-rule="evenodd" stroke-miterlimit="4.00" viewBox="0 0 592 272"><desc>SVG generated by Keynote</desc><defs></defs><g transform="matrix(1.00, 0.00, -0.00, -1.00, 0.0, 272.0)"><g><clipPath id="clip-32"><path d="M 180.8 70.8 L 623.1 70.8 L 623.1 302.2 L 180.8 302.2 Z M 180.8 70.8 "></path></clipPath><g clip-path="url(#clip-32)"><text xml:space="preserve" font-family="Roboto-Bold" font-weight="bold" font-size="132.0" fill="#3F3F3F" transform="matrix(1.00, 0.00, -0.00, -1.00, 220.4, 141.7)">0</text><text xml:space="preserve" font-family="Roboto-Bold" font-weight="bold" font-size="132.0" fill="#3F3F3F" transform="matrix(1.00, 0.00, -0.00, -1.00, 296.1, 141.7)">.</text><text xml:space="preserve" font-family="Roboto-Bold" font-weight="bold" font-size="132.0" fill="#3F3F3F" transform="matrix(1.00, 0.00, -0.00, -1.00, 334.4, 141.7)">0</text><text xml:space="preserve" font-family="Roboto-Bold" font-weight="bold" font-size="132.0" fill="#3F3F3F" transform="matrix(1.00, 0.00, -0.00, -1.00, 410.1, 141.7)">5</text><text xml:space="preserve" font-family="Roboto-Bold" font-weight="bold" font-size="132.0" fill="#3F3F3F" transform="matrix(1.00, 0.00, -0.00, -1.00, 485.8, 141.7)">%</text></g></g><g><clipPath id="clip-33"><path d="M -2.1 -1.6 L 594.0 -1.6 L 594.0 103.5 L -2.1 103.5 Z M -2.1 -1.6 "></path></clipPath><g clip-path="url(#clip-33)"><text xml:space="preserve" font-family="Roboto-Light" font-size="36.0" fill="#3F3F3F" transform="matrix(1.00, 0.00, -0.00, -1.00, 43.8, 59.7)">T</text><text xml:space="preserve" font-family="Roboto-Light" font-size="36.0" fill="#3F3F3F" transform="matrix(1.00, 0.00, -0.00, -1.00, 65.4, 59.7)">h</text><text xml:space="preserve" font-family="Roboto-Light" font-size="36.0" fill="#3F3F3F" transform="matrix(1.00, 0.00, -0.00, -1.00, 85.1, 59.7)">e</text><text xml:space="preserve" font-family="Roboto-Light" font-size="36.0" fill="#3F3F3F" transform="matrix(1.00, 0.00, -0.00, -1.00, 103.7, 59.7)"> </text><text xml:space="preserve" font-family="Roboto-Light" font-size="36.0" fill="#3F3F3F" transform="matrix(1.00, 0.00, -0.00, -1.00, 112.4, 59.7)">a</text><text xml:space="preserve" font-family="Roboto-Light" font-size="36.0" fill="#3F3F3F" transform="matrix(1.00, 0.00, -0.00, -1.00, 131.4, 59.7)">v</text><text xml:space="preserve" font-family="Roboto-Light" font-size="36.0" fill="#3F3F3F" transform="matrix(1.00, 0.00, -0.00, -1.00, 148.5, 59.7)">e</text><text xml:space="preserve" font-family="Roboto-Light" font-size="36.0" fill="#3F3F3F" transform="matrix(1.00, 0.00, -0.00, -1.00, 167.1, 59.7)">r</text><text xml:space="preserve" font-family="Roboto-Light" font-size="36.0" fill="#3F3F3F" transform="matrix(1.00, 0.00, -0.00, -1.00, 178.5, 59.7)">a</text><text xml:space="preserve" font-family="Roboto-Light" font-size="36.0" fill="#3F3F3F" transform="matrix(1.00, 0.00, -0.00, -1.00, 197.8, 59.7)">g</text><text xml:space="preserve" font-family="Roboto-Light" font-size="36.0" fill="#3F3F3F" transform="matrix(1.00, 0.00, -0.00, -1.00, 217.7, 59.7)">e</text><text xml:space="preserve" font-family="Roboto-Light" font-size="36.0" fill="#3F3F3F" transform="matrix(1.00, 0.00, -0.00, -1.00, 236.3, 59.7)"> </text><text xml:space="preserve" font-family="Roboto-Light" font-size="36.0" fill="#3F3F3F" transform="matrix(1.00, 0.00, -0.00, -1.00, 245.0, 59.7)">1</text><text xml:space="preserve" font-family="Roboto-Light" font-size="36.0" fill="#3F3F3F" transform="matrix(1.00, 0.00, -0.00, -1.00, 265.0, 59.7)">0</text><text xml:space="preserve" font-family="Roboto-Light" font-size="36.0" fill="#3F3F3F" transform="matrix(1.00, 0.00, -0.00, -1.00, 285.0, 59.7)">-</text><text xml:space="preserve" font-family="Roboto-Light" font-size="36.0" fill="#3F3F3F" transform="matrix(1.00, 0.00, -0.00, -1.00, 295.3, 59.7)">y</text><text xml:space="preserve" font-family="Roboto-Light" font-size="36.0" fill="#3F3F3F" transform="matrix(1.00, 0.00, -0.00, -1.00, 312.1, 59.7)">e</text><text xml:space="preserve" font-family="Roboto-Light" font-size="36.0" fill="#3F3F3F" transform="matrix(1.00, 0.00, -0.00, -1.00, 330.7, 59.7)">a</text><text xml:space="preserve" font-family="Roboto-Light" font-size="36.0" fill="#3F3F3F" transform="matrix(1.00, 0.00, -0.00, -1.00, 350.0, 59.7)">r</text><text xml:space="preserve" font-family="Roboto-Light" font-size="36.0" fill="#3F3F3F" transform="matrix(1.00, 0.00, -0.00, -1.00, 362.1, 59.7)">-</text><text xml:space="preserve" font-family="Roboto-Light" font-size="36.0" fill="#3F3F3F" transform="matrix(1.00, 0.00, -0.00, -1.00, 372.4, 59.7)">o</text><text xml:space="preserve" font-family="Roboto-Light" font-size="36.0" fill="#3F3F3F" transform="matrix(1.00, 0.00, -0.00, -1.00, 392.5, 59.7)">l</text><text xml:space="preserve" font-family="Roboto-Light" font-size="36.0" fill="#3F3F3F" transform="matrix(1.00, 0.00, -0.00, -1.00, 400.6, 59.7)">d</text><text xml:space="preserve" font-family="Roboto-Light" font-size="36.0" fill="#3F3F3F" transform="matrix(1.00, 0.00, -0.00, -1.00, 420.6, 59.7)"> </text><text xml:space="preserve" font-family="Roboto-Light" font-size="36.0" fill="#3F3F3F" transform="matrix(1.00, 0.00, -0.00, -1.00, 429.4, 59.7)">o</text><text xml:space="preserve" font-family="Roboto-Light" font-size="36.0" fill="#3F3F3F" transform="matrix(1.00, 0.00, -0.00, -1.00, 449.5, 59.7)">w</text><text xml:space="preserve" font-family="Roboto-Light" font-size="36.0" fill="#3F3F3F" transform="matrix(1.00, 0.00, -0.00, -1.00, 476.7, 59.7)">n</text><text xml:space="preserve" font-family="Roboto-Light" font-size="36.0" fill="#3F3F3F" transform="matrix(1.00, 0.00, -0.00, -1.00, 496.5, 59.7)">s</text><text xml:space="preserve" font-family="Roboto-Light" font-size="36.0" fill="#3F3F3F" transform="matrix(1.00, 0.00, -0.00, -1.00, 514.7, 59.7)"> </text><text xml:space="preserve" font-family="Roboto-Light" font-size="36.0" fill="#3F3F3F" transform="matrix(1.00, 0.00, -0.00, -1.00, 523.5, 59.7)">2</text><text xml:space="preserve" font-family="Roboto-Light" font-size="36.0" fill="#3F3F3F" transform="matrix(1.00, 0.00, -0.00, -1.00, 543.4, 59.7)">3</text><text xml:space="preserve" font-family="Roboto-Light" font-size="36.0" fill="#3F3F3F" transform="matrix(1.00, 0.00, -0.00, -1.00, 563.4, 59.7)">8</text><text xml:space="preserve" font-family="Roboto-Light" font-size="36.0" fill="#3F3F3F" transform="matrix(1.00, 0.00, -0.00, -1.00, 583.3, 59.7)"> </text><text xml:space="preserve" font-family="Roboto-Light" font-size="36.0" fill="#3F3F3F" transform="matrix(1.00, 0.00, -0.00, -1.00, 87.4, 17.7)">t</text><text xml:space="preserve" font-family="Roboto-Light" font-size="36.0" fill="#3F3F3F" transform="matrix(1.00, 0.00, -0.00, -1.00, 98.6, 17.7)">o</text><text xml:space="preserve" font-family="Roboto-Light" font-size="36.0" fill="#3F3F3F" transform="matrix(1.00, 0.00, -0.00, -1.00, 118.5, 17.7)">y</text><text xml:space="preserve" font-family="Roboto-Light" font-size="36.0" fill="#3F3F3F" transform="matrix(1.00, 0.00, -0.00, -1.00, 135.6, 17.7)">s</text><text xml:space="preserve" font-family="Roboto-Light" font-size="36.0" fill="#3F3F3F" transform="matrix(1.00, 0.00, -0.00, -1.00, 153.8, 17.7)"> </text><text xml:space="preserve" font-family="Roboto-Light" font-size="36.0" fill="#3F3F3F" transform="matrix(1.00, 0.00, -0.00, -1.00, 162.6, 17.7)">b</text><text xml:space="preserve" font-family="Roboto-Light" font-size="36.0" fill="#3F3F3F" transform="matrix(1.00, 0.00, -0.00, -1.00, 182.5, 17.7)">u</text><text xml:space="preserve" font-family="Roboto-Light" font-size="36.0" fill="#3F3F3F" transform="matrix(1.00, 0.00, -0.00, -1.00, 202.3, 17.7)">t</text><text xml:space="preserve" font-family="Roboto-Light" font-size="36.0" fill="#3F3F3F" transform="matrix(1.00, 0.00, -0.00, -1.00, 213.9, 17.7)"> </text><text xml:space="preserve" font-family="Roboto-Light" font-size="36.0" fill="#3F3F3F" transform="matrix(1.00, 0.00, -0.00, -1.00, 222.7, 17.7)">p</text><text xml:space="preserve" font-family="Roboto-Light" font-size="36.0" fill="#3F3F3F" transform="matrix(1.00, 0.00, -0.00, -1.00, 242.6, 17.7)">l</text><text xml:space="preserve" font-family="Roboto-Light" font-size="36.0" fill="#3F3F3F" transform="matrix(1.00, 0.00, -0.00, -1.00, 250.7, 17.7)">a</text><text xml:space="preserve" font-family="Roboto-Light" font-size="36.0" fill="#3F3F3F" transform="matrix(1.00, 0.00, -0.00, -1.00, 269.7, 17.7)">y</text><text xml:space="preserve" font-family="Roboto-Light" font-size="36.0" fill="#3F3F3F" transform="matrix(1.00, 0.00, -0.00, -1.00, 286.8, 17.7)">s</text><text xml:space="preserve" font-family="Roboto-Light" font-size="36.0" fill="#3F3F3F" transform="matrix(1.00, 0.00, -0.00, -1.00, 305.0, 17.7)"> </text><text xml:space="preserve" font-family="Roboto-Light" font-size="36.0" fill="#3F3F3F" transform="matrix(1.00, 0.00, -0.00, -1.00, 313.8, 17.7)">w</text><text xml:space="preserve" font-family="Roboto-Light" font-size="36.0" fill="#3F3F3F" transform="matrix(1.00, 0.00, -0.00, -1.00, 340.9, 17.7)">i</text><text xml:space="preserve" font-family="Roboto-Light" font-size="36.0" fill="#3F3F3F" transform="matrix(1.00, 0.00, -0.00, -1.00, 349.0, 17.7)">t</text><text xml:space="preserve" font-family="Roboto-Light" font-size="36.0" fill="#3F3F3F" transform="matrix(1.00, 0.00, -0.00, -1.00, 360.6, 17.7)">h</text><text xml:space="preserve" font-family="Roboto-Light" font-size="36.0" fill="#3F3F3F" transform="matrix(1.00, 0.00, -0.00, -1.00, 380.3, 17.7)"> </text><text xml:space="preserve" font-family="Roboto-Light" font-size="36.0" fill="#3F3F3F" transform="matrix(1.00, 0.00, -0.00, -1.00, 389.1, 17.7)">j</text><text xml:space="preserve" font-family="Roboto-Light" font-size="36.0" fill="#3F3F3F" transform="matrix(1.00, 0.00, -0.00, -1.00, 397.3, 17.7)">u</text><text xml:space="preserve" font-family="Roboto-Light" font-size="36.0" fill="#3F3F3F" transform="matrix(1.00, 0.00, -0.00, -1.00, 417.1, 17.7)">s</text><text xml:space="preserve" font-family="Roboto-Light" font-size="36.0" fill="#3F3F3F" transform="matrix(1.00, 0.00, -0.00, -1.00, 435.3, 17.7)">t</text><text xml:space="preserve" font-family="Roboto-Light" font-size="36.0" fill="#3F3F3F" transform="matrix(1.00, 0.00, -0.00, -1.00, 446.9, 17.7)"> </text><text xml:space="preserve" font-family="Roboto-Light" font-size="36.0" fill="#3F3F3F" transform="matrix(1.00, 0.00, -0.00, -1.00, 455.7, 17.7)">1</text><text xml:space="preserve" font-family="Roboto-Light" font-size="36.0" fill="#3F3F3F" transform="matrix(1.00, 0.00, -0.00, -1.00, 475.6, 17.7)">2</text><text xml:space="preserve" font-family="Roboto-Light" font-size="36.0" fill="#3F3F3F" transform="matrix(1.00, 0.00, -0.00, -1.00, 495.6, 17.7)"> </text><text xml:space="preserve" font-family="Roboto-Light" font-size="36.0" fill="#3F3F3F" transform="matrix(1.00, 0.00, -0.00, -1.00, 504.4, 17.7)">d</text><text xml:space="preserve" font-family="Roboto-Light" font-size="36.0" fill="#3F3F3F" transform="matrix(1.00, 0.00, -0.00, -1.00, 524.4, 17.7)">a</text><text xml:space="preserve" font-family="Roboto-Light" font-size="36.0" fill="#3F3F3F" transform="matrix(1.00, 0.00, -0.00, -1.00, 543.6, 17.7)">i</text><text xml:space="preserve" font-family="Roboto-Light" font-size="36.0" fill="#3F3F3F" transform="matrix(1.00, 0.00, -0.00, -1.00, 551.7, 17.7)">l</text><text xml:space="preserve" font-family="Roboto-Light" font-size="36.0" fill="#3F3F3F" transform="matrix(1.00, 0.00, -0.00, -1.00, 559.8, 17.7)">y</text><text xml:space="preserve" font-family="Roboto-Light" font-size="36.0" fill="#3F3F3F" transform="matrix(1.00, 0.00, -0.00, -1.00, 574.8, 17.7)">.</text></g></g></g></svg>