<?xml version="1.0" encoding="UTF-8" standalone="no"?><svg xmlns="http://www.w3.org/2000/svg" xmlns:xlink="http://www.w3.org/1999/xlink" clip-rule="evenodd" stroke-miterlimit="4.00" viewBox="0 0 558 451"><desc>SVG generated by Keynote</desc><defs></defs><g transform="matrix(1.00, 0.00, -0.00, -1.00, 0.0, 451.0)"><g><clipPath id="clip-34"><path d="M 254.9 249.3 L 583.1 249.3 L 583.1 480.7 L 254.9 480.7 Z M 254.9 249.3 "></path></clipPath><g clip-path="url(#clip-34)"><text xml:space="preserve" font-family="Roboto-Bold" font-weight="bold" font-size="132.0" fill="#3F3F3F" transform="matrix(1.00, 0.00, -0.00, -1.00, 294.5, 320.2)">7</text><text xml:space="preserve" font-family="Roboto-Bold" font-weight="bold" font-size="132.0" fill="#3F3F3F" transform="matrix(1.00, 0.00, -0.00, -1.00, 370.2, 320.2)">0</text><text xml:space="preserve" font-family="Roboto-Bold" font-weight="bold" font-size="132.0" fill="#3F3F3F" transform="matrix(1.00, 0.00, -0.00, -1.00, 446.0, 320.2)">%</text></g></g><g><clipPath id="clip-35"><path d="M -1.4 134.8 L 561.2 134.8 L 561.2 281.9 L -1.4 281.9 Z M -1.4 134.8 "></path></clipPath><g clip-path="url(#clip-35)"><text xml:space="preserve" font-family="Roboto-Light" font-size="36.0" fill="#3F3F3F" transform="matrix(1.00, 0.00, -0.00, -1.00, 32.4, 238.2)">O</text><text xml:space="preserve" font-family="Roboto-Light" font-size="36.0" fill="#3F3F3F" transform="matrix(1.00, 0.00, -0.00, -1.00, 56.8, 238.2)">f</text><text xml:space="preserve" font-family="Roboto-Light" font-size="36.0" fill="#3F3F3F" transform="matrix(1.00, 0.00, -0.00, -1.00, 68.7, 238.2)"> </text><text xml:space="preserve" font-family="Roboto-Light" font-size="36.0" fill="#3F3F3F" transform="matrix(1.00, 0.00, -0.00, -1.00, 77.4, 238.2)">o</text><text xml:space="preserve" font-family="Roboto-Light" font-size="36.0" fill="#3F3F3F" transform="matrix(1.00, 0.00, -0.00, -1.00, 97.3, 238.2)">v</text><text xml:space="preserve" font-family="Roboto-Light" font-size="36.0" fill="#3F3F3F" transform="matrix(1.00, 0.00, -0.00, -1.00, 114.4, 238.2)">e</text><text xml:space="preserve" font-family="Roboto-Light" font-size="36.0" fill="#3F3F3F" transform="matrix(1.00, 0.00, -0.00, -1.00, 133.0, 238.2)">r</text><text xml:space="preserve" font-family="Roboto-Light" font-size="36.0" fill="#3F3F3F" transform="matrix(1.00, 0.00, -0.00, -1.00, 144.4, 238.2)">a</text><text xml:space="preserve" font-family="Roboto-Light" font-size="36.0" fill="#3F3F3F" transform="matrix(1.00, 0.00, -0.00, -1.00, 163.7, 238.2)">l</text><text xml:space="preserve" font-family="Roboto-Light" font-size="36.0" fill="#3F3F3F" transform="matrix(1.00, 0.00, -0.00, -1.00, 171.8, 238.2)">l</text><text xml:space="preserve" font-family="Roboto-Light" font-size="36.0" fill="#3F3F3F" transform="matrix(1.00, 0.00, -0.00, -1.00, 179.8, 238.2)"> </text><text xml:space="preserve" font-family="Roboto-Light" font-size="36.0" fill="#3F3F3F" transform="matrix(1.00, 0.00, -0.00, -1.00, 188.6, 238.2)">t</text><text xml:space="preserve" font-family="Roboto-Light" font-size="36.0" fill="#3F3F3F" transform="matrix(1.00, 0.00, -0.00, -1.00, 199.8, 238.2)">o</text><text xml:space="preserve" font-family="Roboto-Light" font-size="36.0" fill="#3F3F3F" transform="matrix(1.00, 0.00, -0.00, -1.00, 219.6, 238.2)">x</text><text xml:space="preserve" font-family="Roboto-Light" font-size="36.0" fill="#3F3F3F" transform="matrix(1.00, 0.00, -0.00, -1.00, 237.2, 238.2)">i</text><text xml:space="preserve" font-family="Roboto-Light" font-size="36.0" fill="#3F3F3F" transform="matrix(1.00, 0.00, -0.00, -1.00, 245.2, 238.2)">c</text><text xml:space="preserve" font-family="Roboto-Light" font-size="36.0" fill="#3F3F3F" transform="matrix(1.00, 0.00, -0.00, -1.00, 263.8, 238.2)"> </text><text xml:space="preserve" font-family="Roboto-Light" font-size="36.0" fill="#3F3F3F" transform="matrix(1.00, 0.00, -0.00, -1.00, 272.5, 238.2)">w</text><text xml:space="preserve" font-family="Roboto-Light" font-size="36.0" fill="#3F3F3F" transform="matrix(1.00, 0.00, -0.00, -1.00, 299.6, 238.2)">a</text><text xml:space="preserve" font-family="Roboto-Light" font-size="36.0" fill="#3F3F3F" transform="matrix(1.00, 0.00, -0.00, -1.00, 318.9, 238.2)">s</text><text xml:space="preserve" font-family="Roboto-Light" font-size="36.0" fill="#3F3F3F" transform="matrix(1.00, 0.00, -0.00, -1.00, 337.2, 238.2)">t</text><text xml:space="preserve" font-family="Roboto-Light" font-size="36.0" fill="#3F3F3F" transform="matrix(1.00, 0.00, -0.00, -1.00, 348.8, 238.2)">e</text><text xml:space="preserve" font-family="Roboto-Light" font-size="36.0" fill="#3F3F3F" transform="matrix(1.00, 0.00, -0.00, -1.00, 367.3, 238.2)"> </text><text xml:space="preserve" font-family="Roboto-Light" font-size="36.0" fill="#3F3F3F" transform="matrix(1.00, 0.00, -0.00, -1.00, 376.1, 238.2)">i</text><text xml:space="preserve" font-family="Roboto-Light" font-size="36.0" fill="#3F3F3F" transform="matrix(1.00, 0.00, -0.00, -1.00, 384.2, 238.2)">s</text><text xml:space="preserve" font-family="Roboto-Light" font-size="36.0" fill="#3F3F3F" transform="matrix(1.00, 0.00, -0.00, -1.00, 402.4, 238.2)"> </text><text xml:space="preserve" font-family="Roboto-Light" font-size="36.0" fill="#3F3F3F" transform="matrix(1.00, 0.00, -0.00, -1.00, 411.2, 238.2)">e</text><text xml:space="preserve" font-family="Roboto-Light" font-size="36.0" fill="#3F3F3F" transform="matrix(1.00, 0.00, -0.00, -1.00, 429.7, 238.2)">-</text><text xml:space="preserve" font-family="Roboto-Light" font-size="36.0" fill="#3F3F3F" transform="matrix(1.00, 0.00, -0.00, -1.00, 440.0, 238.2)">w</text><text xml:space="preserve" font-family="Roboto-Light" font-size="36.0" fill="#3F3F3F" transform="matrix(1.00, 0.00, -0.00, -1.00, 467.2, 238.2)">a</text><text xml:space="preserve" font-family="Roboto-Light" font-size="36.0" fill="#3F3F3F" transform="matrix(1.00, 0.00, -0.00, -1.00, 486.4, 238.2)">s</text><text xml:space="preserve" font-family="Roboto-Light" font-size="36.0" fill="#3F3F3F" transform="matrix(1.00, 0.00, -0.00, -1.00, 504.7, 238.2)">t</text><text xml:space="preserve" font-family="Roboto-Light" font-size="36.0" fill="#3F3F3F" transform="matrix(1.00, 0.00, -0.00, -1.00, 516.2, 238.2)">e</text><text xml:space="preserve" font-family="Roboto-Light" font-size="36.0" fill="#3F3F3F" transform="matrix(1.00, 0.00, -0.00, -1.00, 534.8, 238.2)">.</text><text xml:space="preserve" font-family="Roboto-Light" font-size="36.0" fill="#3F3F3F" transform="matrix(1.00, 0.00, -0.00, -1.00, 543.4, 238.2)"> </text></g></g><g><clipPath id="clip-36"><path d="M 65.4 1.9 L 563.6 1.9 L 563.6 212.3 L 65.4 212.3 Z M 65.4 1.9 "></path></clipPath><g clip-path="url(#clip-36)"><text xml:space="preserve" font-family="Roboto-Light" font-size="24.0" fill="#3F3F3F" transform="matrix(1.00, 0.00, -0.00, -1.00, 96.3, 182.9)">A</text><text xml:space="preserve" font-family="Roboto-Light" font-size="24.0" fill="#3F3F3F" transform="matrix(1.00, 0.00, -0.00, -1.00, 111.3, 182.9)"> </text><text xml:space="preserve" font-family="Roboto-Light" font-size="24.0" fill="#3F3F3F" transform="matrix(1.00, 0.00, -0.00, -1.00, 117.2, 182.9)">l</text><text xml:space="preserve" font-family="Roboto-Light" font-size="24.0" fill="#3F3F3F" transform="matrix(1.00, 0.00, -0.00, -1.00, 122.6, 182.9)">a</text><text xml:space="preserve" font-family="Roboto-Light" font-size="24.0" fill="#3F3F3F" transform="matrix(1.00, 0.00, -0.00, -1.00, 135.4, 182.9)">r</text><text xml:space="preserve" font-family="Roboto-Light" font-size="24.0" fill="#3F3F3F" transform="matrix(1.00, 0.00, -0.00, -1.00, 143.3, 182.9)">g</text><text xml:space="preserve" font-family="Roboto-Light" font-size="24.0" fill="#3F3F3F" transform="matrix(1.00, 0.00, -0.00, -1.00, 156.6, 182.9)">e</text><text xml:space="preserve" font-family="Roboto-Light" font-size="24.0" fill="#3F3F3F" transform="matrix(1.00, 0.00, -0.00, -1.00, 169.0, 182.9)"> </text><text xml:space="preserve" font-family="Roboto-Light" font-size="24.0" fill="#3F3F3F" transform="matrix(1.00, 0.00, -0.00, -1.00, 174.8, 182.9)">n</text><text xml:space="preserve" font-family="Roboto-Light" font-size="24.0" fill="#3F3F3F" transform="matrix(1.00, 0.00, -0.00, -1.00, 188.0, 182.9)">u</text><text xml:space="preserve" font-family="Roboto-Light" font-size="24.0" fill="#3F3F3F" transform="matrix(1.00, 0.00, -0.00, -1.00, 201.2, 182.9)">m</text><text xml:space="preserve" font-family="Roboto-Light" font-size="24.0" fill="#3F3F3F" transform="matrix(1.00, 0.00, -0.00, -1.00, 222.5, 182.9)">b</text><text xml:space="preserve" font-family="Roboto-Light" font-size="24.0" fill="#3F3F3F" transform="matrix(1.00, 0.00, -0.00, -1.00, 235.8, 182.9)">e</text><text xml:space="preserve" font-family="Roboto-Light" font-size="24.0" fill="#3F3F3F" transform="matrix(1.00, 0.00, -0.00, -1.00, 248.2, 182.9)">r</text><text xml:space="preserve" font-family="Roboto-Light" font-size="24.0" fill="#3F3F3F" transform="matrix(1.00, 0.00, -0.00, -1.00, 256.3, 182.9)"> </text><text xml:space="preserve" font-family="Roboto-Light" font-size="24.0" fill="#3F3F3F" transform="matrix(1.00, 0.00, -0.00, -1.00, 262.1, 182.9)">t</text><text xml:space="preserve" font-family="Roboto-Light" font-size="24.0" fill="#3F3F3F" transform="matrix(1.00, 0.00, -0.00, -1.00, 269.8, 182.9)">h</text><text xml:space="preserve" font-family="Roboto-Light" font-size="24.0" fill="#3F3F3F" transform="matrix(1.00, 0.00, -0.00, -1.00, 283.0, 182.9)">a</text><text xml:space="preserve" font-family="Roboto-Light" font-size="24.0" fill="#3F3F3F" transform="matrix(1.00, 0.00, -0.00, -1.00, 295.8, 182.9)">t</text><text xml:space="preserve" font-family="Roboto-Light" font-size="24.0" fill="#3F3F3F" transform="matrix(1.00, 0.00, -0.00, -1.00, 303.6, 182.9)"> </text><text xml:space="preserve" font-family="Roboto-Light" font-size="24.0" fill="#3F3F3F" transform="matrix(1.00, 0.00, -0.00, -1.00, 309.4, 182.9)">i</text><text xml:space="preserve" font-family="Roboto-Light" font-size="24.0" fill="#3F3F3F" transform="matrix(1.00, 0.00, -0.00, -1.00, 314.8, 182.9)">s</text><text xml:space="preserve" font-family="Roboto-Light" font-size="24.0" fill="#3F3F3F" transform="matrix(1.00, 0.00, -0.00, -1.00, 327.0, 182.9)"> </text><text xml:space="preserve" font-family="Roboto-Light" font-size="24.0" fill="#3F3F3F" transform="matrix(1.00, 0.00, -0.00, -1.00, 332.8, 182.9)">a</text><text xml:space="preserve" font-family="Roboto-Light" font-size="24.0" fill="#3F3F3F" transform="matrix(1.00, 0.00, -0.00, -1.00, 345.6, 182.9)">c</text><text xml:space="preserve" font-family="Roboto-Light" font-size="24.0" fill="#3F3F3F" transform="matrix(1.00, 0.00, -0.00, -1.00, 358.0, 182.9)">t</text><text xml:space="preserve" font-family="Roboto-Light" font-size="24.0" fill="#3F3F3F" transform="matrix(1.00, 0.00, -0.00, -1.00, 365.7, 182.9)">u</text><text xml:space="preserve" font-family="Roboto-Light" font-size="24.0" fill="#3F3F3F" transform="matrix(1.00, 0.00, -0.00, -1.00, 378.9, 182.9)">a</text><text xml:space="preserve" font-family="Roboto-Light" font-size="24.0" fill="#3F3F3F" transform="matrix(1.00, 0.00, -0.00, -1.00, 391.8, 182.9)">l</text><text xml:space="preserve" font-family="Roboto-Light" font-size="24.0" fill="#3F3F3F" transform="matrix(1.00, 0.00, -0.00, -1.00, 397.2, 182.9)">l</text><text xml:space="preserve" font-family="Roboto-Light" font-size="24.0" fill="#3F3F3F" transform="matrix(1.00, 0.00, -0.00, -1.00, 402.6, 182.9)">y</text><text xml:space="preserve" font-family="Roboto-Light" font-size="24.0" fill="#3F3F3F" transform="matrix(1.00, 0.00, -0.00, -1.00, 414.0, 182.9)"> </text><text xml:space="preserve" font-family="Roboto-Light" font-size="24.0" fill="#3F3F3F" transform="matrix(1.00, 0.00, -0.00, -1.00, 419.8, 182.9)">n</text><text xml:space="preserve" font-family="Roboto-Light" font-size="24.0" fill="#3F3F3F" transform="matrix(1.00, 0.00, -0.00, -1.00, 433.0, 182.9)">o</text><text xml:space="preserve" font-family="Roboto-Light" font-size="24.0" fill="#3F3F3F" transform="matrix(1.00, 0.00, -0.00, -1.00, 446.5, 182.9)">t</text><text xml:space="preserve" font-family="Roboto-Light" font-size="24.0" fill="#3F3F3F" transform="matrix(1.00, 0.00, -0.00, -1.00, 454.2, 182.9)"> </text><text xml:space="preserve" font-family="Roboto-Light" font-size="24.0" fill="#3F3F3F" transform="matrix(1.00, 0.00, -0.00, -1.00, 460.1, 182.9)">w</text><text xml:space="preserve" font-family="Roboto-Light" font-size="24.0" fill="#3F3F3F" transform="matrix(1.00, 0.00, -0.00, -1.00, 478.1, 182.9)">a</text><text xml:space="preserve" font-family="Roboto-Light" font-size="24.0" fill="#3F3F3F" transform="matrix(1.00, 0.00, -0.00, -1.00, 491.0, 182.9)">s</text><text xml:space="preserve" font-family="Roboto-Light" font-size="24.0" fill="#3F3F3F" transform="matrix(1.00, 0.00, -0.00, -1.00, 503.1, 182.9)">t</text><text xml:space="preserve" font-family="Roboto-Light" font-size="24.0" fill="#3F3F3F" transform="matrix(1.00, 0.00, -0.00, -1.00, 510.9, 182.9)">e</text><text xml:space="preserve" font-family="Roboto-Light" font-size="24.0" fill="#3F3F3F" transform="matrix(1.00, 0.00, -0.00, -1.00, 523.2, 182.9)"> </text><text xml:space="preserve" font-family="Roboto-Light" font-size="24.0" fill="#3F3F3F" transform="matrix(1.00, 0.00, -0.00, -1.00, 529.1, 182.9)">a</text><text xml:space="preserve" font-family="Roboto-Light" font-size="24.0" fill="#3F3F3F" transform="matrix(1.00, 0.00, -0.00, -1.00, 541.9, 182.9)">t</text><text xml:space="preserve" font-family="Roboto-Light" font-size="24.0" fill="#3F3F3F" transform="matrix(1.00, 0.00, -0.00, -1.00, 549.7, 182.9)"> </text><text xml:space="preserve" font-family="Roboto-Light" font-size="24.0" fill="#3F3F3F" transform="matrix(1.00, 0.00, -0.00, -1.00, 91.5, 154.9)">a</text><text xml:space="preserve" font-family="Roboto-Light" font-size="24.0" fill="#3F3F3F" transform="matrix(1.00, 0.00, -0.00, -1.00, 104.4, 154.9)">l</text><text xml:space="preserve" font-family="Roboto-Light" font-size="24.0" fill="#3F3F3F" transform="matrix(1.00, 0.00, -0.00, -1.00, 109.8, 154.9)">l</text><text xml:space="preserve" font-family="Roboto-Light" font-size="24.0" fill="#3F3F3F" transform="matrix(1.00, 0.00, -0.00, -1.00, 115.2, 154.9)">,</text><text xml:space="preserve" font-family="Roboto-Light" font-size="24.0" fill="#3F3F3F" transform="matrix(1.00, 0.00, -0.00, -1.00, 119.8, 154.9)"> </text><text xml:space="preserve" font-family="Roboto-Light" font-size="24.0" fill="#3F3F3F" transform="matrix(1.00, 0.00, -0.00, -1.00, 125.6, 154.9)">b</text><text xml:space="preserve" font-family="Roboto-Light" font-size="24.0" fill="#3F3F3F" transform="matrix(1.00, 0.00, -0.00, -1.00, 138.9, 154.9)">u</text><text xml:space="preserve" font-family="Roboto-Light" font-size="24.0" fill="#3F3F3F" transform="matrix(1.00, 0.00, -0.00, -1.00, 152.1, 154.9)">t</text><text xml:space="preserve" font-family="Roboto-Light" font-size="24.0" fill="#3F3F3F" transform="matrix(1.00, 0.00, -0.00, -1.00, 159.9, 154.9)"> </text><text xml:space="preserve" font-family="Roboto-Light" font-size="24.0" fill="#3F3F3F" transform="matrix(1.00, 0.00, -0.00, -1.00, 165.7, 154.9)">r</text><text xml:space="preserve" font-family="Roboto-Light" font-size="24.0" fill="#3F3F3F" transform="matrix(1.00, 0.00, -0.00, -1.00, 173.3, 154.9)">a</text><text xml:space="preserve" font-family="Roboto-Light" font-size="24.0" fill="#3F3F3F" transform="matrix(1.00, 0.00, -0.00, -1.00, 186.2, 154.9)">t</text><text xml:space="preserve" font-family="Roboto-Light" font-size="24.0" fill="#3F3F3F" transform="matrix(1.00, 0.00, -0.00, -1.00, 193.9, 154.9)">h</text><text xml:space="preserve" font-family="Roboto-Light" font-size="24.0" fill="#3F3F3F" transform="matrix(1.00, 0.00, -0.00, -1.00, 207.1, 154.9)">e</text><text xml:space="preserve" font-family="Roboto-Light" font-size="24.0" fill="#3F3F3F" transform="matrix(1.00, 0.00, -0.00, -1.00, 219.5, 154.9)">r</text><text xml:space="preserve" font-family="Roboto-Light" font-size="24.0" fill="#3F3F3F" transform="matrix(1.00, 0.00, -0.00, -1.00, 227.5, 154.9)"> </text><text xml:space="preserve" font-family="Roboto-Light" font-size="24.0" fill="#3F3F3F" transform="matrix(1.00, 0.00, -0.00, -1.00, 233.4, 154.9)">w</text><text xml:space="preserve" font-family="Roboto-Light" font-size="24.0" fill="#3F3F3F" transform="matrix(1.00, 0.00, -0.00, -1.00, 251.5, 154.9)">h</text><text xml:space="preserve" font-family="Roboto-Light" font-size="24.0" fill="#3F3F3F" transform="matrix(1.00, 0.00, -0.00, -1.00, 264.6, 154.9)">o</text><text xml:space="preserve" font-family="Roboto-Light" font-size="24.0" fill="#3F3F3F" transform="matrix(1.00, 0.00, -0.00, -1.00, 278.1, 154.9)">l</text><text xml:space="preserve" font-family="Roboto-Light" font-size="24.0" fill="#3F3F3F" transform="matrix(1.00, 0.00, -0.00, -1.00, 283.5, 154.9)">e</text><text xml:space="preserve" font-family="Roboto-Light" font-size="24.0" fill="#3F3F3F" transform="matrix(1.00, 0.00, -0.00, -1.00, 295.9, 154.9)"> </text><text xml:space="preserve" font-family="Roboto-Light" font-size="24.0" fill="#3F3F3F" transform="matrix(1.00, 0.00, -0.00, -1.00, 301.7, 154.9)">e</text><text xml:space="preserve" font-family="Roboto-Light" font-size="24.0" fill="#3F3F3F" transform="matrix(1.00, 0.00, -0.00, -1.00, 314.1, 154.9)">l</text><text xml:space="preserve" font-family="Roboto-Light" font-size="24.0" fill="#3F3F3F" transform="matrix(1.00, 0.00, -0.00, -1.00, 319.5, 154.9)">e</text><text xml:space="preserve" font-family="Roboto-Light" font-size="24.0" fill="#3F3F3F" transform="matrix(1.00, 0.00, -0.00, -1.00, 331.9, 154.9)">c</text><text xml:space="preserve" font-family="Roboto-Light" font-size="24.0" fill="#3F3F3F" transform="matrix(1.00, 0.00, -0.00, -1.00, 344.3, 154.9)">t</text><text xml:space="preserve" font-family="Roboto-Light" font-size="24.0" fill="#3F3F3F" transform="matrix(1.00, 0.00, -0.00, -1.00, 352.0, 154.9)">r</text><text xml:space="preserve" font-family="Roboto-Light" font-size="24.0" fill="#3F3F3F" transform="matrix(1.00, 0.00, -0.00, -1.00, 359.8, 154.9)">o</text><text xml:space="preserve" font-family="Roboto-Light" font-size="24.0" fill="#3F3F3F" transform="matrix(1.00, 0.00, -0.00, -1.00, 373.3, 154.9)">n</text><text xml:space="preserve" font-family="Roboto-Light" font-size="24.0" fill="#3F3F3F" transform="matrix(1.00, 0.00, -0.00, -1.00, 386.5, 154.9)">i</text><text xml:space="preserve" font-family="Roboto-Light" font-size="24.0" fill="#3F3F3F" transform="matrix(1.00, 0.00, -0.00, -1.00, 391.9, 154.9)">c</text><text xml:space="preserve" font-family="Roboto-Light" font-size="24.0" fill="#3F3F3F" transform="matrix(1.00, 0.00, -0.00, -1.00, 404.3, 154.9)"> </text><text xml:space="preserve" font-family="Roboto-Light" font-size="24.0" fill="#3F3F3F" transform="matrix(1.00, 0.00, -0.00, -1.00, 410.1, 154.9)">e</text><text xml:space="preserve" font-family="Roboto-Light" font-size="24.0" fill="#3F3F3F" transform="matrix(1.00, 0.00, -0.00, -1.00, 422.5, 154.9)">q</text><text xml:space="preserve" font-family="Roboto-Light" font-size="24.0" fill="#3F3F3F" transform="matrix(1.00, 0.00, -0.00, -1.00, 435.9, 154.9)">u</text><text xml:space="preserve" font-family="Roboto-Light" font-size="24.0" fill="#3F3F3F" transform="matrix(1.00, 0.00, -0.00, -1.00, 449.1, 154.9)">i</text><text xml:space="preserve" font-family="Roboto-Light" font-size="24.0" fill="#3F3F3F" transform="matrix(1.00, 0.00, -0.00, -1.00, 454.5, 154.9)">p</text><text xml:space="preserve" font-family="Roboto-Light" font-size="24.0" fill="#3F3F3F" transform="matrix(1.00, 0.00, -0.00, -1.00, 467.8, 154.9)">m</text><text xml:space="preserve" font-family="Roboto-Light" font-size="24.0" fill="#3F3F3F" transform="matrix(1.00, 0.00, -0.00, -1.00, 489.1, 154.9)">e</text><text xml:space="preserve" font-family="Roboto-Light" font-size="24.0" fill="#3F3F3F" transform="matrix(1.00, 0.00, -0.00, -1.00, 501.5, 154.9)">n</text><text xml:space="preserve" font-family="Roboto-Light" font-size="24.0" fill="#3F3F3F" transform="matrix(1.00, 0.00, -0.00, -1.00, 514.7, 154.9)">t</text><text xml:space="preserve" font-family="Roboto-Light" font-size="24.0" fill="#3F3F3F" transform="matrix(1.00, 0.00, -0.00, -1.00, 522.4, 154.9)"> </text><text xml:space="preserve" font-family="Roboto-Light" font-size="24.0" fill="#3F3F3F" transform="matrix(1.00, 0.00, -0.00, -1.00, 528.2, 154.9)">o</text><text xml:space="preserve" font-family="Roboto-Light" font-size="24.0" fill="#3F3F3F" transform="matrix(1.00, 0.00, -0.00, -1.00, 541.7, 154.9)">r</text><text xml:space="preserve" font-family="Roboto-Light" font-size="24.0" fill="#3F3F3F" transform="matrix(1.00, 0.00, -0.00, -1.00, 549.8, 154.9)"> </text><text xml:space="preserve" font-family="Roboto-Light" font-size="24.0" fill="#3F3F3F" transform="matrix(1.00, 0.00, -0.00, -1.00, 84.0, 126.9)">p</text><text xml:space="preserve" font-family="Roboto-Light" font-size="24.0" fill="#3F3F3F" transform="matrix(1.00, 0.00, -0.00, -1.00, 97.3, 126.9)">a</text><text xml:space="preserve" font-family="Roboto-Light" font-size="24.0" fill="#3F3F3F" transform="matrix(1.00, 0.00, -0.00, -1.00, 110.2, 126.9)">r</text><text xml:space="preserve" font-family="Roboto-Light" font-size="24.0" fill="#3F3F3F" transform="matrix(1.00, 0.00, -0.00, -1.00, 118.9, 126.9)">t</text><text xml:space="preserve" font-family="Roboto-Light" font-size="24.0" fill="#3F3F3F" transform="matrix(1.00, 0.00, -0.00, -1.00, 126.6, 126.9)">s</text><text xml:space="preserve" font-family="Roboto-Light" font-size="24.0" fill="#3F3F3F" transform="matrix(1.00, 0.00, -0.00, -1.00, 138.7, 126.9)"> </text><text xml:space="preserve" font-family="Roboto-Light" font-size="24.0" fill="#3F3F3F" transform="matrix(1.00, 0.00, -0.00, -1.00, 144.6, 126.9)">t</text><text xml:space="preserve" font-family="Roboto-Light" font-size="24.0" fill="#3F3F3F" transform="matrix(1.00, 0.00, -0.00, -1.00, 152.3, 126.9)">h</text><text xml:space="preserve" font-family="Roboto-Light" font-size="24.0" fill="#3F3F3F" transform="matrix(1.00, 0.00, -0.00, -1.00, 165.5, 126.9)">a</text><text xml:space="preserve" font-family="Roboto-Light" font-size="24.0" fill="#3F3F3F" transform="matrix(1.00, 0.00, -0.00, -1.00, 178.3, 126.9)">t</text><text xml:space="preserve" font-family="Roboto-Light" font-size="24.0" fill="#3F3F3F" transform="matrix(1.00, 0.00, -0.00, -1.00, 186.0, 126.9)"> </text><text xml:space="preserve" font-family="Roboto-Light" font-size="24.0" fill="#3F3F3F" transform="matrix(1.00, 0.00, -0.00, -1.00, 191.9, 126.9)">a</text><text xml:space="preserve" font-family="Roboto-Light" font-size="24.0" fill="#3F3F3F" transform="matrix(1.00, 0.00, -0.00, -1.00, 204.7, 126.9)">r</text><text xml:space="preserve" font-family="Roboto-Light" font-size="24.0" fill="#3F3F3F" transform="matrix(1.00, 0.00, -0.00, -1.00, 212.5, 126.9)">e</text><text xml:space="preserve" font-family="Roboto-Light" font-size="24.0" fill="#3F3F3F" transform="matrix(1.00, 0.00, -0.00, -1.00, 224.9, 126.9)"> </text><text xml:space="preserve" font-family="Roboto-Light" font-size="24.0" fill="#3F3F3F" transform="matrix(1.00, 0.00, -0.00, -1.00, 230.8, 126.9)">r</text><text xml:space="preserve" font-family="Roboto-Light" font-size="24.0" fill="#3F3F3F" transform="matrix(1.00, 0.00, -0.00, -1.00, 238.6, 126.9)">e</text><text xml:space="preserve" font-family="Roboto-Light" font-size="24.0" fill="#3F3F3F" transform="matrix(1.00, 0.00, -0.00, -1.00, 251.0, 126.9)">a</text><text xml:space="preserve" font-family="Roboto-Light" font-size="24.0" fill="#3F3F3F" transform="matrix(1.00, 0.00, -0.00, -1.00, 263.8, 126.9)">d</text><text xml:space="preserve" font-family="Roboto-Light" font-size="24.0" fill="#3F3F3F" transform="matrix(1.00, 0.00, -0.00, -1.00, 277.2, 126.9)">i</text><text xml:space="preserve" font-family="Roboto-Light" font-size="24.0" fill="#3F3F3F" transform="matrix(1.00, 0.00, -0.00, -1.00, 282.5, 126.9)">l</text><text xml:space="preserve" font-family="Roboto-Light" font-size="24.0" fill="#3F3F3F" transform="matrix(1.00, 0.00, -0.00, -1.00, 287.9, 126.9)">y</text><text xml:space="preserve" font-family="Roboto-Light" font-size="24.0" fill="#3F3F3F" transform="matrix(1.00, 0.00, -0.00, -1.00, 299.3, 126.9)"> </text><text xml:space="preserve" font-family="Roboto-Light" font-size="24.0" fill="#3F3F3F" transform="matrix(1.00, 0.00, -0.00, -1.00, 305.2, 126.9)">m</text><text xml:space="preserve" font-family="Roboto-Light" font-size="24.0" fill="#3F3F3F" transform="matrix(1.00, 0.00, -0.00, -1.00, 326.5, 126.9)">a</text><text xml:space="preserve" font-family="Roboto-Light" font-size="24.0" fill="#3F3F3F" transform="matrix(1.00, 0.00, -0.00, -1.00, 339.3, 126.9)">r</text><text xml:space="preserve" font-family="Roboto-Light" font-size="24.0" fill="#3F3F3F" transform="matrix(1.00, 0.00, -0.00, -1.00, 347.4, 126.9)">k</text><text xml:space="preserve" font-family="Roboto-Light" font-size="24.0" fill="#3F3F3F" transform="matrix(1.00, 0.00, -0.00, -1.00, 358.9, 126.9)">e</text><text xml:space="preserve" font-family="Roboto-Light" font-size="24.0" fill="#3F3F3F" transform="matrix(1.00, 0.00, -0.00, -1.00, 371.3, 126.9)">t</text><text xml:space="preserve" font-family="Roboto-Light" font-size="24.0" fill="#3F3F3F" transform="matrix(1.00, 0.00, -0.00, -1.00, 379.0, 126.9)">a</text><text xml:space="preserve" font-family="Roboto-Light" font-size="24.0" fill="#3F3F3F" transform="matrix(1.00, 0.00, -0.00, -1.00, 391.8, 126.9)">b</text><text xml:space="preserve" font-family="Roboto-Light" font-size="24.0" fill="#3F3F3F" transform="matrix(1.00, 0.00, -0.00, -1.00, 405.1, 126.9)">l</text><text xml:space="preserve" font-family="Roboto-Light" font-size="24.0" fill="#3F3F3F" transform="matrix(1.00, 0.00, -0.00, -1.00, 410.5, 126.9)">e</text><text xml:space="preserve" font-family="Roboto-Light" font-size="24.0" fill="#3F3F3F" transform="matrix(1.00, 0.00, -0.00, -1.00, 422.9, 126.9)"> </text><text xml:space="preserve" font-family="Roboto-Light" font-size="24.0" fill="#3F3F3F" transform="matrix(1.00, 0.00, -0.00, -1.00, 428.7, 126.9)">f</text><text xml:space="preserve" font-family="Roboto-Light" font-size="24.0" fill="#3F3F3F" transform="matrix(1.00, 0.00, -0.00, -1.00, 436.7, 126.9)">o</text><text xml:space="preserve" font-family="Roboto-Light" font-size="24.0" fill="#3F3F3F" transform="matrix(1.00, 0.00, -0.00, -1.00, 450.1, 126.9)">r</text><text xml:space="preserve" font-family="Roboto-Light" font-size="24.0" fill="#3F3F3F" transform="matrix(1.00, 0.00, -0.00, -1.00, 458.2, 126.9)"> </text><text xml:space="preserve" font-family="Roboto-Light" font-size="24.0" fill="#3F3F3F" transform="matrix(1.00, 0.00, -0.00, -1.00, 464.0, 126.9)">r</text><text xml:space="preserve" font-family="Roboto-Light" font-size="24.0" fill="#3F3F3F" transform="matrix(1.00, 0.00, -0.00, -1.00, 471.9, 126.9)">e</text><text xml:space="preserve" font-family="Roboto-Light" font-size="24.0" fill="#3F3F3F" transform="matrix(1.00, 0.00, -0.00, -1.00, 484.3, 126.9)">u</text><text xml:space="preserve" font-family="Roboto-Light" font-size="24.0" fill="#3F3F3F" transform="matrix(1.00, 0.00, -0.00, -1.00, 497.5, 126.9)">s</text><text xml:space="preserve" font-family="Roboto-Light" font-size="24.0" fill="#3F3F3F" transform="matrix(1.00, 0.00, -0.00, -1.00, 509.6, 126.9)">e</text><text xml:space="preserve" font-family="Roboto-Light" font-size="24.0" fill="#3F3F3F" transform="matrix(1.00, 0.00, -0.00, -1.00, 522.0, 126.9)"> </text><text xml:space="preserve" font-family="Roboto-Light" font-size="24.0" fill="#3F3F3F" transform="matrix(1.00, 0.00, -0.00, -1.00, 527.9, 126.9)">o</text><text xml:space="preserve" font-family="Roboto-Light" font-size="24.0" fill="#3F3F3F" transform="matrix(1.00, 0.00, -0.00, -1.00, 541.3, 126.9)">r</text><text xml:space="preserve" font-family="Roboto-Light" font-size="24.0" fill="#3F3F3F" transform="matrix(1.00, 0.00, -0.00, -1.00, 549.4, 126.9)"> </text><text xml:space="preserve" font-family="Roboto-Light" font-size="24.0" fill="#3F3F3F" transform="matrix(1.00, 0.00, -0.00, -1.00, 95.4, 98.9)">c</text><text xml:space="preserve" font-family="Roboto-Light" font-size="24.0" fill="#3F3F3F" transform="matrix(1.00, 0.00, -0.00, -1.00, 107.8, 98.9)">a</text><text xml:space="preserve" font-family="Roboto-Light" font-size="24.0" fill="#3F3F3F" transform="matrix(1.00, 0.00, -0.00, -1.00, 120.6, 98.9)">n</text><text xml:space="preserve" font-family="Roboto-Light" font-size="24.0" fill="#3F3F3F" transform="matrix(1.00, 0.00, -0.00, -1.00, 133.8, 98.9)"> </text><text xml:space="preserve" font-family="Roboto-Light" font-size="24.0" fill="#3F3F3F" transform="matrix(1.00, 0.00, -0.00, -1.00, 139.6, 98.9)">b</text><text xml:space="preserve" font-family="Roboto-Light" font-size="24.0" fill="#3F3F3F" transform="matrix(1.00, 0.00, -0.00, -1.00, 152.9, 98.9)">e</text><text xml:space="preserve" font-family="Roboto-Light" font-size="24.0" fill="#3F3F3F" transform="matrix(1.00, 0.00, -0.00, -1.00, 165.3, 98.9)"> </text><text xml:space="preserve" font-family="Roboto-Light" font-size="24.0" fill="#3F3F3F" transform="matrix(1.00, 0.00, -0.00, -1.00, 171.2, 98.9)">r</text><text xml:space="preserve" font-family="Roboto-Light" font-size="24.0" fill="#3F3F3F" transform="matrix(1.00, 0.00, -0.00, -1.00, 179.0, 98.9)">e</text><text xml:space="preserve" font-family="Roboto-Light" font-size="24.0" fill="#3F3F3F" transform="matrix(1.00, 0.00, -0.00, -1.00, 191.4, 98.9)">c</text><text xml:space="preserve" font-family="Roboto-Light" font-size="24.0" fill="#3F3F3F" transform="matrix(1.00, 0.00, -0.00, -1.00, 203.8, 98.9)">y</text><text xml:space="preserve" font-family="Roboto-Light" font-size="24.0" fill="#3F3F3F" transform="matrix(1.00, 0.00, -0.00, -1.00, 215.0, 98.9)">c</text><text xml:space="preserve" font-family="Roboto-Light" font-size="24.0" fill="#3F3F3F" transform="matrix(1.00, 0.00, -0.00, -1.00, 227.4, 98.9)">l</text><text xml:space="preserve" font-family="Roboto-Light" font-size="24.0" fill="#3F3F3F" transform="matrix(1.00, 0.00, -0.00, -1.00, 232.8, 98.9)">e</text><text xml:space="preserve" font-family="Roboto-Light" font-size="24.0" fill="#3F3F3F" transform="matrix(1.00, 0.00, -0.00, -1.00, 245.1, 98.9)">d</text><text xml:space="preserve" font-family="Roboto-Light" font-size="24.0" fill="#3F3F3F" transform="matrix(1.00, 0.00, -0.00, -1.00, 258.5, 98.9)"> </text><text xml:space="preserve" font-family="Roboto-Light" font-size="24.0" fill="#3F3F3F" transform="matrix(1.00, 0.00, -0.00, -1.00, 264.3, 98.9)">f</text><text xml:space="preserve" font-family="Roboto-Light" font-size="24.0" fill="#3F3F3F" transform="matrix(1.00, 0.00, -0.00, -1.00, 272.3, 98.9)">o</text><text xml:space="preserve" font-family="Roboto-Light" font-size="24.0" fill="#3F3F3F" transform="matrix(1.00, 0.00, -0.00, -1.00, 285.7, 98.9)">r</text><text xml:space="preserve" font-family="Roboto-Light" font-size="24.0" fill="#3F3F3F" transform="matrix(1.00, 0.00, -0.00, -1.00, 293.8, 98.9)"> </text><text xml:space="preserve" font-family="Roboto-Light" font-size="24.0" fill="#3F3F3F" transform="matrix(1.00, 0.00, -0.00, -1.00, 299.6, 98.9)">m</text><text xml:space="preserve" font-family="Roboto-Light" font-size="24.0" fill="#3F3F3F" transform="matrix(1.00, 0.00, -0.00, -1.00, 320.9, 98.9)">a</text><text xml:space="preserve" font-family="Roboto-Light" font-size="24.0" fill="#3F3F3F" transform="matrix(1.00, 0.00, -0.00, -1.00, 333.7, 98.9)">t</text><text xml:space="preserve" font-family="Roboto-Light" font-size="24.0" fill="#3F3F3F" transform="matrix(1.00, 0.00, -0.00, -1.00, 341.4, 98.9)">e</text><text xml:space="preserve" font-family="Roboto-Light" font-size="24.0" fill="#3F3F3F" transform="matrix(1.00, 0.00, -0.00, -1.00, 353.8, 98.9)">r</text><text xml:space="preserve" font-family="Roboto-Light" font-size="24.0" fill="#3F3F3F" transform="matrix(1.00, 0.00, -0.00, -1.00, 361.9, 98.9)">i</text><text xml:space="preserve" font-family="Roboto-Light" font-size="24.0" fill="#3F3F3F" transform="matrix(1.00, 0.00, -0.00, -1.00, 367.3, 98.9)">a</text><text xml:space="preserve" font-family="Roboto-Light" font-size="24.0" fill="#3F3F3F" transform="matrix(1.00, 0.00, -0.00, -1.00, 380.1, 98.9)">l</text><text xml:space="preserve" font-family="Roboto-Light" font-size="24.0" fill="#3F3F3F" transform="matrix(1.00, 0.00, -0.00, -1.00, 385.5, 98.9)">s</text><text xml:space="preserve" font-family="Roboto-Light" font-size="24.0" fill="#3F3F3F" transform="matrix(1.00, 0.00, -0.00, -1.00, 397.6, 98.9)"> </text><text xml:space="preserve" font-family="Roboto-Light" font-size="24.0" fill="#3F3F3F" transform="matrix(1.00, 0.00, -0.00, -1.00, 403.5, 98.9)">r</text><text xml:space="preserve" font-family="Roboto-Light" font-size="24.0" fill="#3F3F3F" transform="matrix(1.00, 0.00, -0.00, -1.00, 411.3, 98.9)">e</text><text xml:space="preserve" font-family="Roboto-Light" font-size="24.0" fill="#3F3F3F" transform="matrix(1.00, 0.00, -0.00, -1.00, 423.7, 98.9)">c</text><text xml:space="preserve" font-family="Roboto-Light" font-size="24.0" fill="#3F3F3F" transform="matrix(1.00, 0.00, -0.00, -1.00, 436.1, 98.9)">o</text><text xml:space="preserve" font-family="Roboto-Light" font-size="24.0" fill="#3F3F3F" transform="matrix(1.00, 0.00, -0.00, -1.00, 449.4, 98.9)">v</text><text xml:space="preserve" font-family="Roboto-Light" font-size="24.0" fill="#3F3F3F" transform="matrix(1.00, 0.00, -0.00, -1.00, 460.7, 98.9)">e</text><text xml:space="preserve" font-family="Roboto-Light" font-size="24.0" fill="#3F3F3F" transform="matrix(1.00, 0.00, -0.00, -1.00, 473.1, 98.9)">r</text><text xml:space="preserve" font-family="Roboto-Light" font-size="24.0" fill="#3F3F3F" transform="matrix(1.00, 0.00, -0.00, -1.00, 481.4, 98.9)">y</text><text xml:space="preserve" font-family="Roboto-Light" font-size="24.0" fill="#3F3F3F" transform="matrix(1.00, 0.00, -0.00, -1.00, 491.6, 98.9)">.</text><text xml:space="preserve" font-family="Roboto-Light" font-size="24.0" fill="#3F3F3F" transform="matrix(1.00, 0.00, -0.00, -1.00, 497.3, 98.9)"> </text><text xml:space="preserve" font-family="Roboto-Light" font-size="24.0" fill="#3F3F3F" transform="matrix(1.00, 0.00, -0.00, -1.00, 503.2, 98.9)">O</text><text xml:space="preserve" font-family="Roboto-Light" font-size="24.0" fill="#3F3F3F" transform="matrix(1.00, 0.00, -0.00, -1.00, 519.5, 98.9)">n</text><text xml:space="preserve" font-family="Roboto-Light" font-size="24.0" fill="#3F3F3F" transform="matrix(1.00, 0.00, -0.00, -1.00, 532.7, 98.9)">l</text><text xml:space="preserve" font-family="Roboto-Light" font-size="24.0" fill="#3F3F3F" transform="matrix(1.00, 0.00, -0.00, -1.00, 538.0, 98.9)">y</text><text xml:space="preserve" font-family="Roboto-Light" font-size="24.0" fill="#3F3F3F" transform="matrix(1.00, 0.00, -0.00, -1.00, 549.4, 98.9)"> </text><text xml:space="preserve" font-family="Roboto-Light" font-size="24.0" fill="#3F3F3F" transform="matrix(1.00, 0.00, -0.00, -1.00, 150.9, 70.9)">1</text><text xml:space="preserve" font-family="Roboto-Light" font-size="24.0" fill="#3F3F3F" transform="matrix(1.00, 0.00, -0.00, -1.00, 164.2, 70.9)">2</text><text xml:space="preserve" font-family="Roboto-Light" font-size="24.0" fill="#3F3F3F" transform="matrix(1.00, 0.00, -0.00, -1.00, 177.5, 70.9)">.</text><text xml:space="preserve" font-family="Roboto-Light" font-size="24.0" fill="#3F3F3F" transform="matrix(1.00, 0.00, -0.00, -1.00, 183.2, 70.9)">5</text><text xml:space="preserve" font-family="Roboto-Light" font-size="24.0" fill="#3F3F3F" transform="matrix(1.00, 0.00, -0.00, -1.00, 196.5, 70.9)">%</text><text xml:space="preserve" font-family="Roboto-Light" font-size="24.0" fill="#3F3F3F" transform="matrix(1.00, 0.00, -0.00, -1.00, 214.3, 70.9)"> </text><text xml:space="preserve" font-family="Roboto-Light" font-size="24.0" fill="#3F3F3F" transform="matrix(1.00, 0.00, -0.00, -1.00, 220.1, 70.9)">o</text><text xml:space="preserve" font-family="Roboto-Light" font-size="24.0" fill="#3F3F3F" transform="matrix(1.00, 0.00, -0.00, -1.00, 233.6, 70.9)">f</text><text xml:space="preserve" font-family="Roboto-Light" font-size="24.0" fill="#3F3F3F" transform="matrix(1.00, 0.00, -0.00, -1.00, 241.5, 70.9)"> </text><text xml:space="preserve" font-family="Roboto-Light" font-size="24.0" fill="#3F3F3F" transform="matrix(1.00, 0.00, -0.00, -1.00, 247.4, 70.9)">e</text><text xml:space="preserve" font-family="Roboto-Light" font-size="24.0" fill="#3F3F3F" transform="matrix(1.00, 0.00, -0.00, -1.00, 259.7, 70.9)">-</text><text xml:space="preserve" font-family="Roboto-Light" font-size="24.0" fill="#3F3F3F" transform="matrix(1.00, 0.00, -0.00, -1.00, 266.6, 70.9)">w</text><text xml:space="preserve" font-family="Roboto-Light" font-size="24.0" fill="#3F3F3F" transform="matrix(1.00, 0.00, -0.00, -1.00, 284.7, 70.9)">a</text><text xml:space="preserve" font-family="Roboto-Light" font-size="24.0" fill="#3F3F3F" transform="matrix(1.00, 0.00, -0.00, -1.00, 297.5, 70.9)">s</text><text xml:space="preserve" font-family="Roboto-Light" font-size="24.0" fill="#3F3F3F" transform="matrix(1.00, 0.00, -0.00, -1.00, 309.7, 70.9)">t</text><text xml:space="preserve" font-family="Roboto-Light" font-size="24.0" fill="#3F3F3F" transform="matrix(1.00, 0.00, -0.00, -1.00, 317.4, 70.9)">e</text><text xml:space="preserve" font-family="Roboto-Light" font-size="24.0" fill="#3F3F3F" transform="matrix(1.00, 0.00, -0.00, -1.00, 329.8, 70.9)"> </text><text xml:space="preserve" font-family="Roboto-Light" font-size="24.0" fill="#3F3F3F" transform="matrix(1.00, 0.00, -0.00, -1.00, 335.6, 70.9)">i</text><text xml:space="preserve" font-family="Roboto-Light" font-size="24.0" fill="#3F3F3F" transform="matrix(1.00, 0.00, -0.00, -1.00, 341.0, 70.9)">s</text><text xml:space="preserve" font-family="Roboto-Light" font-size="24.0" fill="#3F3F3F" transform="matrix(1.00, 0.00, -0.00, -1.00, 353.2, 70.9)"> </text><text xml:space="preserve" font-family="Roboto-Light" font-size="24.0" fill="#3F3F3F" transform="matrix(1.00, 0.00, -0.00, -1.00, 359.0, 70.9)">c</text><text xml:space="preserve" font-family="Roboto-Light" font-size="24.0" fill="#3F3F3F" transform="matrix(1.00, 0.00, -0.00, -1.00, 371.4, 70.9)">u</text><text xml:space="preserve" font-family="Roboto-Light" font-size="24.0" fill="#3F3F3F" transform="matrix(1.00, 0.00, -0.00, -1.00, 384.6, 70.9)">r</text><text xml:space="preserve" font-family="Roboto-Light" font-size="24.0" fill="#3F3F3F" transform="matrix(1.00, 0.00, -0.00, -1.00, 392.6, 70.9)">r</text><text xml:space="preserve" font-family="Roboto-Light" font-size="24.0" fill="#3F3F3F" transform="matrix(1.00, 0.00, -0.00, -1.00, 400.5, 70.9)">e</text><text xml:space="preserve" font-family="Roboto-Light" font-size="24.0" fill="#3F3F3F" transform="matrix(1.00, 0.00, -0.00, -1.00, 412.9, 70.9)">n</text><text xml:space="preserve" font-family="Roboto-Light" font-size="24.0" fill="#3F3F3F" transform="matrix(1.00, 0.00, -0.00, -1.00, 426.1, 70.9)">t</text><text xml:space="preserve" font-family="Roboto-Light" font-size="24.0" fill="#3F3F3F" transform="matrix(1.00, 0.00, -0.00, -1.00, 433.8, 70.9)">l</text><text xml:space="preserve" font-family="Roboto-Light" font-size="24.0" fill="#3F3F3F" transform="matrix(1.00, 0.00, -0.00, -1.00, 439.2, 70.9)">y</text><text xml:space="preserve" font-family="Roboto-Light" font-size="24.0" fill="#3F3F3F" transform="matrix(1.00, 0.00, -0.00, -1.00, 450.6, 70.9)"> </text><text xml:space="preserve" font-family="Roboto-Light" font-size="24.0" fill="#3F3F3F" transform="matrix(1.00, 0.00, -0.00, -1.00, 456.4, 70.9)">r</text><text xml:space="preserve" font-family="Roboto-Light" font-size="24.0" fill="#3F3F3F" transform="matrix(1.00, 0.00, -0.00, -1.00, 464.3, 70.9)">e</text><text xml:space="preserve" font-family="Roboto-Light" font-size="24.0" fill="#3F3F3F" transform="matrix(1.00, 0.00, -0.00, -1.00, 476.7, 70.9)">c</text><text xml:space="preserve" font-family="Roboto-Light" font-size="24.0" fill="#3F3F3F" transform="matrix(1.00, 0.00, -0.00, -1.00, 489.0, 70.9)">y</text><text xml:space="preserve" font-family="Roboto-Light" font-size="24.0" fill="#3F3F3F" transform="matrix(1.00, 0.00, -0.00, -1.00, 500.3, 70.9)">c</text><text xml:space="preserve" font-family="Roboto-Light" font-size="24.0" fill="#3F3F3F" transform="matrix(1.00, 0.00, -0.00, -1.00, 512.6, 70.9)">l</text><text xml:space="preserve" font-family="Roboto-Light" font-size="24.0" fill="#3F3F3F" transform="matrix(1.00, 0.00, -0.00, -1.00, 518.0, 70.9)">e</text><text xml:space="preserve" font-family="Roboto-Light" font-size="24.0" fill="#3F3F3F" transform="matrix(1.00, 0.00, -0.00, -1.00, 530.4, 70.9)">d</text><text xml:space="preserve" font-family="Roboto-Light" font-size="24.0" fill="#3F3F3F" transform="matrix(1.00, 0.00, -0.00, -1.00, 543.7, 70.9)">.</text><text xml:space="preserve" font-family="Roboto-Light" font-size="24.0" fill="#3F3F3F" transform="matrix(1.00, 0.00, -0.00, -1.00, 549.5, 70.9)"> </text></g></g></g></svg>