<?xml version="1.0" encoding="UTF-8" standalone="no"?><svg xmlns="http://www.w3.org/2000/svg" xmlns:xlink="http://www.w3.org/1999/xlink" clip-rule="evenodd" stroke-miterlimit="4.00" viewBox="0 0 693 461"><desc>SVG generated by Keynote</desc><defs></defs><g transform="matrix(1.00, 0.00, -0.00, -1.00, 0.0, 461.0)"><g><clipPath id="clip-192"><path d="M -19.1 291.7 L 712.5 291.7 L 712.5 479.7 L -19.1 479.7 Z M -19.1 291.7 "></path></clipPath><g clip-path="url(#clip-192)"><text xml:space="preserve" font-family="NexaBold" font-weight="bold" font-size="110.0" fill="#3F3F3F" transform="matrix(1.00, 0.00, -0.00, -1.00, 8.0, 347.0)">G</text><text xml:space="preserve" font-family="NexaBold" font-weight="bold" font-size="110.0" fill="#3F3F3F" transform="matrix(1.00, 0.00, -0.00, -1.00, 88.2, 347.0)">I</text><text xml:space="preserve" font-family="NexaBold" font-weight="bold" font-size="110.0" fill="#3F3F3F" transform="matrix(1.00, 0.00, -0.00, -1.00, 116.3, 347.0)">V</text><text xml:space="preserve" font-family="NexaBold" font-weight="bold" font-size="110.0" fill="#3F3F3F" transform="matrix(1.00, 0.00, -0.00, -1.00, 199.1, 347.0)">E</text><text xml:space="preserve" font-family="NexaBold" font-weight="bold" font-size="110.0" fill="#3F3F3F" transform="matrix(1.00, 0.00, -0.00, -1.00, 267.7, 347.0)"> </text><text xml:space="preserve" font-family="NexaBold" font-weight="bold" font-size="110.0" fill="#3F3F3F" transform="matrix(1.00, 0.00, -0.00, -1.00, 289.9, 347.0)">&amp;</text><text xml:space="preserve" font-family="NexaBold" font-weight="bold" font-size="110.0" fill="#3F3F3F" transform="matrix(1.00, 0.00, -0.00, -1.00, 369.7, 347.0)"> </text><text xml:space="preserve" font-family="NexaBold" font-weight="bold" font-size="110.0" fill="#3F3F3F" transform="matrix(1.00, 0.00, -0.00, -1.00, 391.9, 347.0)">T</text><text xml:space="preserve" font-family="NexaBold" font-weight="bold" font-size="110.0" fill="#3F3F3F" transform="matrix(1.00, 0.00, -0.00, -1.00, 459.5, 347.0)">A</text><text xml:space="preserve" font-family="NexaBold" font-weight="bold" font-size="110.0" fill="#3F3F3F" transform="matrix(1.00, 0.00, -0.00, -1.00, 541.9, 347.0)">K</text><text xml:space="preserve" font-family="NexaBold" font-weight="bold" font-size="110.0" fill="#3F3F3F" transform="matrix(1.00, 0.00, -0.00, -1.00, 614.0, 347.0)">E</text></g></g><g><clipPath id="clip-193"><path d="M -6.0 -11.8 L 682.2 -11.8 L 682.2 267.7 L -6.0 267.7 Z M -6.0 -11.8 "></path></clipPath><g clip-path="url(#clip-193)"><text xml:space="preserve" font-family="Roboto-Thin" font-size="49.0" fill="#3F3F3F" transform="matrix(1.00, 0.00, -0.00, -1.00, 8.0, 208.0)">A</text><text xml:space="preserve" font-family="Roboto-Thin" font-size="49.0" fill="#3F3F3F" transform="matrix(1.00, 0.00, -0.00, -1.00, 37.3, 208.0)"> </text><text xml:space="preserve" font-family="Roboto-Thin" font-size="49.0" fill="#3F3F3F" transform="matrix(1.00, 0.00, -0.00, -1.00, 49.0, 208.0)">p</text><text xml:space="preserve" font-family="Roboto-Thin" font-size="49.0" fill="#3F3F3F" transform="matrix(1.00, 0.00, -0.00, -1.00, 75.8, 208.0)">l</text><text xml:space="preserve" font-family="Roboto-Thin" font-size="49.0" fill="#3F3F3F" transform="matrix(1.00, 0.00, -0.00, -1.00, 85.9, 208.0)">a</text><text xml:space="preserve" font-family="Roboto-Thin" font-size="49.0" fill="#3F3F3F" transform="matrix(1.00, 0.00, -0.00, -1.00, 111.8, 208.0)">c</text><text xml:space="preserve" font-family="Roboto-Thin" font-size="49.0" fill="#3F3F3F" transform="matrix(1.00, 0.00, -0.00, -1.00, 136.7, 208.0)">e</text><text xml:space="preserve" font-family="Roboto-Thin" font-size="49.0" fill="#3F3F3F" transform="matrix(1.00, 0.00, -0.00, -1.00, 161.4, 208.0)"> </text><text xml:space="preserve" font-family="Roboto-Thin" font-size="49.0" fill="#3F3F3F" transform="matrix(1.00, 0.00, -0.00, -1.00, 173.1, 208.0)">f</text><text xml:space="preserve" font-family="Roboto-Thin" font-size="49.0" fill="#3F3F3F" transform="matrix(1.00, 0.00, -0.00, -1.00, 188.6, 208.0)">o</text><text xml:space="preserve" font-family="Roboto-Thin" font-size="49.0" fill="#3F3F3F" transform="matrix(1.00, 0.00, -0.00, -1.00, 215.5, 208.0)">r</text><text xml:space="preserve" font-family="Roboto-Thin" font-size="49.0" fill="#3F3F3F" transform="matrix(1.00, 0.00, -0.00, -1.00, 231.9, 208.0)"> </text><text xml:space="preserve" font-family="Roboto-Light" font-size="49.0" fill="#3F3F3F" transform="matrix(1.00, 0.00, -0.00, -1.00, 243.5, 208.0)">K</text><text xml:space="preserve" font-family="Roboto-Light" font-size="49.0" fill="#3F3F3F" transform="matrix(1.00, 0.00, -0.00, -1.00, 274.5, 208.0)">a</text><text xml:space="preserve" font-family="Roboto-Light" font-size="49.0" fill="#3F3F3F" transform="matrix(1.00, 0.00, -0.00, -1.00, 300.7, 208.0)">i</text><text xml:space="preserve" font-family="Roboto-Light" font-size="49.0" fill="#3F3F3F" transform="matrix(1.00, 0.00, -0.00, -1.00, 311.7, 208.0)">t</text><text xml:space="preserve" font-family="Roboto-Light" font-size="49.0" fill="#3F3F3F" transform="matrix(1.00, 0.00, -0.00, -1.00, 327.4, 208.0)">l</text><text xml:space="preserve" font-family="Roboto-Light" font-size="49.0" fill="#3F3F3F" transform="matrix(1.00, 0.00, -0.00, -1.00, 338.4, 208.0)">y</text><text xml:space="preserve" font-family="Roboto-Light" font-size="49.0" fill="#3F3F3F" transform="matrix(1.00, 0.00, -0.00, -1.00, 361.7, 208.0)">n</text><text xml:space="preserve" font-family="Roboto-Light" font-size="49.0" fill="#3F3F3F" transform="matrix(1.00, 0.00, -0.00, -1.00, 388.6, 208.0)"> </text><text xml:space="preserve" font-family="Roboto-Light" font-size="49.0" fill="#3F3F3F" transform="matrix(1.00, 0.00, -0.00, -1.00, 400.5, 208.0)">&amp;</text><text xml:space="preserve" font-family="Roboto-Thin" font-size="49.0" fill="#3F3F3F" transform="matrix(1.00, 0.00, -0.00, -1.00, 430.7, 208.0)"> </text><text xml:space="preserve" font-family="Roboto-Light" font-size="49.0" fill="#3F3F3F" transform="matrix(1.00, 0.00, -0.00, -1.00, 442.4, 208.0)">T</text><text xml:space="preserve" font-family="Roboto-Light" font-size="49.0" fill="#3F3F3F" transform="matrix(1.00, 0.00, -0.00, -1.00, 471.7, 208.0)">h</text><text xml:space="preserve" font-family="Roboto-Light" font-size="49.0" fill="#3F3F3F" transform="matrix(1.00, 0.00, -0.00, -1.00, 498.6, 208.0)">o</text><text xml:space="preserve" font-family="Roboto-Light" font-size="49.0" fill="#3F3F3F" transform="matrix(1.00, 0.00, -0.00, -1.00, 526.0, 208.0)">m</text><text xml:space="preserve" font-family="Roboto-Light" font-size="49.0" fill="#3F3F3F" transform="matrix(1.00, 0.00, -0.00, -1.00, 569.5, 208.0)">รก</text><text xml:space="preserve" font-family="Roboto-Light" font-size="49.0" fill="#3F3F3F" transform="matrix(1.00, 0.00, -0.00, -1.00, 595.7, 208.0)">s</text><text xml:space="preserve" font-family="Roboto-Thin" font-size="49.0" fill="#3F3F3F" transform="matrix(1.00, 0.00, -0.00, -1.00, 620.5, 208.0)"> </text><text xml:space="preserve" font-family="Roboto-Thin" font-size="49.0" fill="#3F3F3F" transform="matrix(1.00, 0.00, -0.00, -1.00, 8.0, 146.0)">t</text><text xml:space="preserve" font-family="Roboto-Thin" font-size="49.0" fill="#3F3F3F" transform="matrix(1.00, 0.00, -0.00, -1.00, 23.0, 146.0)">o</text><text xml:space="preserve" font-family="Roboto-Thin" font-size="49.0" fill="#3F3F3F" transform="matrix(1.00, 0.00, -0.00, -1.00, 50.0, 146.0)"> </text><text xml:space="preserve" font-family="Roboto-Thin" font-size="49.0" fill="#3F3F3F" transform="matrix(1.00, 0.00, -0.00, -1.00, 61.8, 146.0)">m</text><text xml:space="preserve" font-family="Roboto-Thin" font-size="49.0" fill="#3F3F3F" transform="matrix(1.00, 0.00, -0.00, -1.00, 105.7, 146.0)">a</text><text xml:space="preserve" font-family="Roboto-Thin" font-size="49.0" fill="#3F3F3F" transform="matrix(1.00, 0.00, -0.00, -1.00, 131.6, 146.0)">k</text><text xml:space="preserve" font-family="Roboto-Thin" font-size="49.0" fill="#3F3F3F" transform="matrix(1.00, 0.00, -0.00, -1.00, 154.3, 146.0)">e</text><text xml:space="preserve" font-family="Roboto-Thin" font-size="49.0" fill="#3F3F3F" transform="matrix(1.00, 0.00, -0.00, -1.00, 179.0, 146.0)"> </text><text xml:space="preserve" font-family="Roboto-Thin" font-size="49.0" fill="#3F3F3F" transform="matrix(1.00, 0.00, -0.00, -1.00, 190.7, 146.0)">r</text><text xml:space="preserve" font-family="Roboto-Thin" font-size="49.0" fill="#3F3F3F" transform="matrix(1.00, 0.00, -0.00, -1.00, 206.7, 146.0)">e</text><text xml:space="preserve" font-family="Roboto-Thin" font-size="49.0" fill="#3F3F3F" transform="matrix(1.00, 0.00, -0.00, -1.00, 231.4, 146.0)">a</text><text xml:space="preserve" font-family="Roboto-Thin" font-size="49.0" fill="#3F3F3F" transform="matrix(1.00, 0.00, -0.00, -1.00, 257.2, 146.0)">l</text><text xml:space="preserve" font-family="Roboto-Thin" font-size="49.0" fill="#3F3F3F" transform="matrix(1.00, 0.00, -0.00, -1.00, 267.4, 146.0)"> </text><text xml:space="preserve" font-family="Roboto-Thin" font-size="49.0" fill="#3F3F3F" transform="matrix(1.00, 0.00, -0.00, -1.00, 279.1, 146.0)">c</text><text xml:space="preserve" font-family="Roboto-Thin" font-size="49.0" fill="#3F3F3F" transform="matrix(1.00, 0.00, -0.00, -1.00, 304.0, 146.0)">o</text><text xml:space="preserve" font-family="Roboto-Thin" font-size="49.0" fill="#3F3F3F" transform="matrix(1.00, 0.00, -0.00, -1.00, 331.0, 146.0)">n</text><text xml:space="preserve" font-family="Roboto-Thin" font-size="49.0" fill="#3F3F3F" transform="matrix(1.00, 0.00, -0.00, -1.00, 357.8, 146.0)">n</text><text xml:space="preserve" font-family="Roboto-Thin" font-size="49.0" fill="#3F3F3F" transform="matrix(1.00, 0.00, -0.00, -1.00, 384.7, 146.0)">e</text><text xml:space="preserve" font-family="Roboto-Thin" font-size="49.0" fill="#3F3F3F" transform="matrix(1.00, 0.00, -0.00, -1.00, 409.4, 146.0)">c</text><text xml:space="preserve" font-family="Roboto-Thin" font-size="49.0" fill="#3F3F3F" transform="matrix(1.00, 0.00, -0.00, -1.00, 434.3, 146.0)">t</text><text xml:space="preserve" font-family="Roboto-Thin" font-size="49.0" fill="#3F3F3F" transform="matrix(1.00, 0.00, -0.00, -1.00, 449.8, 146.0)">i</text><text xml:space="preserve" font-family="Roboto-Thin" font-size="49.0" fill="#3F3F3F" transform="matrix(1.00, 0.00, -0.00, -1.00, 459.9, 146.0)">o</text><text xml:space="preserve" font-family="Roboto-Thin" font-size="49.0" fill="#3F3F3F" transform="matrix(1.00, 0.00, -0.00, -1.00, 486.9, 146.0)">n</text><text xml:space="preserve" font-family="Roboto-Thin" font-size="49.0" fill="#3F3F3F" transform="matrix(1.00, 0.00, -0.00, -1.00, 513.8, 146.0)">s</text><text xml:space="preserve" font-family="Roboto-Thin" font-size="49.0" fill="#3F3F3F" transform="matrix(1.00, 0.00, -0.00, -1.00, 538.1, 146.0)"> </text><text xml:space="preserve" font-family="Roboto-Thin" font-size="49.0" fill="#3F3F3F" transform="matrix(1.00, 0.00, -0.00, -1.00, 549.9, 146.0)">a</text><text xml:space="preserve" font-family="Roboto-Thin" font-size="49.0" fill="#3F3F3F" transform="matrix(1.00, 0.00, -0.00, -1.00, 575.7, 146.0)">n</text><text xml:space="preserve" font-family="Roboto-Thin" font-size="49.0" fill="#3F3F3F" transform="matrix(1.00, 0.00, -0.00, -1.00, 602.6, 146.0)">d</text><text xml:space="preserve" font-family="Roboto-Thin" font-size="49.0" fill="#3F3F3F" transform="matrix(1.00, 0.00, -0.00, -1.00, 629.4, 146.0)"> </text><text xml:space="preserve" font-family="Roboto-Thin" font-size="49.0" fill="#3F3F3F" transform="matrix(1.00, 0.00, -0.00, -1.00, 8.0, 83.0)">e</text><text xml:space="preserve" font-family="Roboto-Thin" font-size="49.0" fill="#3F3F3F" transform="matrix(1.00, 0.00, -0.00, -1.00, 32.7, 83.0)">x</text><text xml:space="preserve" font-family="Roboto-Thin" font-size="49.0" fill="#3F3F3F" transform="matrix(1.00, 0.00, -0.00, -1.00, 55.6, 83.0)">c</text><text xml:space="preserve" font-family="Roboto-Thin" font-size="49.0" fill="#3F3F3F" transform="matrix(1.00, 0.00, -0.00, -1.00, 80.5, 83.0)">h</text><text xml:space="preserve" font-family="Roboto-Thin" font-size="49.0" fill="#3F3F3F" transform="matrix(1.00, 0.00, -0.00, -1.00, 107.3, 83.0)">a</text><text xml:space="preserve" font-family="Roboto-Thin" font-size="49.0" fill="#3F3F3F" transform="matrix(1.00, 0.00, -0.00, -1.00, 133.2, 83.0)">n</text><text xml:space="preserve" font-family="Roboto-Thin" font-size="49.0" fill="#3F3F3F" transform="matrix(1.00, 0.00, -0.00, -1.00, 160.0, 83.0)">g</text><text xml:space="preserve" font-family="Roboto-Thin" font-size="49.0" fill="#3F3F3F" transform="matrix(1.00, 0.00, -0.00, -1.00, 186.9, 83.0)">e</text><text xml:space="preserve" font-family="Roboto-Thin" font-size="49.0" fill="#3F3F3F" transform="matrix(1.00, 0.00, -0.00, -1.00, 211.6, 83.0)"> </text><text xml:space="preserve" font-family="Roboto-Thin" font-size="49.0" fill="#3F3F3F" transform="matrix(1.00, 0.00, -0.00, -1.00, 223.3, 83.0)">n</text><text xml:space="preserve" font-family="Roboto-Thin" font-size="49.0" fill="#3F3F3F" transform="matrix(1.00, 0.00, -0.00, -1.00, 250.1, 83.0)">o</text><text xml:space="preserve" font-family="Roboto-Thin" font-size="49.0" fill="#3F3F3F" transform="matrix(1.00, 0.00, -0.00, -1.00, 277.1, 83.0)">t</text><text xml:space="preserve" font-family="Roboto-Thin" font-size="49.0" fill="#3F3F3F" transform="matrix(1.00, 0.00, -0.00, -1.00, 292.6, 83.0)"> </text><text xml:space="preserve" font-family="Roboto-Thin" font-size="49.0" fill="#3F3F3F" transform="matrix(1.00, 0.00, -0.00, -1.00, 304.4, 83.0)">o</text><text xml:space="preserve" font-family="Roboto-Thin" font-size="49.0" fill="#3F3F3F" transform="matrix(1.00, 0.00, -0.00, -1.00, 331.4, 83.0)">n</text><text xml:space="preserve" font-family="Roboto-Thin" font-size="49.0" fill="#3F3F3F" transform="matrix(1.00, 0.00, -0.00, -1.00, 358.2, 83.0)">l</text><text xml:space="preserve" font-family="Roboto-Thin" font-size="49.0" fill="#3F3F3F" transform="matrix(1.00, 0.00, -0.00, -1.00, 368.3, 83.0)">y</text><text xml:space="preserve" font-family="Roboto-Thin" font-size="49.0" fill="#3F3F3F" transform="matrix(1.00, 0.00, -0.00, -1.00, 391.7, 83.0)"> </text><text xml:space="preserve" font-family="Roboto-Thin" font-size="49.0" fill="#3F3F3F" transform="matrix(1.00, 0.00, -0.00, -1.00, 403.4, 83.0)">i</text><text xml:space="preserve" font-family="Roboto-Thin" font-size="49.0" fill="#3F3F3F" transform="matrix(1.00, 0.00, -0.00, -1.00, 413.5, 83.0)">t</text><text xml:space="preserve" font-family="Roboto-Thin" font-size="49.0" fill="#3F3F3F" transform="matrix(1.00, 0.00, -0.00, -1.00, 429.0, 83.0)">e</text><text xml:space="preserve" font-family="Roboto-Thin" font-size="49.0" fill="#3F3F3F" transform="matrix(1.00, 0.00, -0.00, -1.00, 453.7, 83.0)">m</text><text xml:space="preserve" font-family="Roboto-Thin" font-size="49.0" fill="#3F3F3F" transform="matrix(1.00, 0.00, -0.00, -1.00, 497.7, 83.0)">s</text><text xml:space="preserve" font-family="Roboto-Thin" font-size="49.0" fill="#3F3F3F" transform="matrix(1.00, 0.00, -0.00, -1.00, 522.0, 83.0)">,</text><text xml:space="preserve" font-family="Roboto-Thin" font-size="49.0" fill="#3F3F3F" transform="matrix(1.00, 0.00, -0.00, -1.00, 531.2, 83.0)"> </text><text xml:space="preserve" font-family="Roboto-Thin" font-size="49.0" fill="#3F3F3F" transform="matrix(1.00, 0.00, -0.00, -1.00, 542.9, 83.0)">b</text><text xml:space="preserve" font-family="Roboto-Thin" font-size="49.0" fill="#3F3F3F" transform="matrix(1.00, 0.00, -0.00, -1.00, 569.8, 83.0)">u</text><text xml:space="preserve" font-family="Roboto-Thin" font-size="49.0" fill="#3F3F3F" transform="matrix(1.00, 0.00, -0.00, -1.00, 596.6, 83.0)">t</text><text xml:space="preserve" font-family="Roboto-Thin" font-size="49.0" fill="#3F3F3F" transform="matrix(1.00, 0.00, -0.00, -1.00, 612.1, 83.0)"> </text><text xml:space="preserve" font-family="Roboto-Thin" font-size="49.0" fill="#3F3F3F" transform="matrix(1.00, 0.00, -0.00, -1.00, 8.0, 20.0)">e</text><text xml:space="preserve" font-family="Roboto-Thin" font-size="49.0" fill="#3F3F3F" transform="matrix(1.00, 0.00, -0.00, -1.00, 32.7, 20.0)">x</text><text xml:space="preserve" font-family="Roboto-Thin" font-size="49.0" fill="#3F3F3F" transform="matrix(1.00, 0.00, -0.00, -1.00, 56.1, 20.0)">p</text><text xml:space="preserve" font-family="Roboto-Thin" font-size="49.0" fill="#3F3F3F" transform="matrix(1.00, 0.00, -0.00, -1.00, 82.9, 20.0)">e</text><text xml:space="preserve" font-family="Roboto-Thin" font-size="49.0" fill="#3F3F3F" transform="matrix(1.00, 0.00, -0.00, -1.00, 107.6, 20.0)">r</text><text xml:space="preserve" font-family="Roboto-Thin" font-size="49.0" fill="#3F3F3F" transform="matrix(1.00, 0.00, -0.00, -1.00, 124.1, 20.0)">i</text><text xml:space="preserve" font-family="Roboto-Thin" font-size="49.0" fill="#3F3F3F" transform="matrix(1.00, 0.00, -0.00, -1.00, 134.2, 20.0)">e</text><text xml:space="preserve" font-family="Roboto-Thin" font-size="49.0" fill="#3F3F3F" transform="matrix(1.00, 0.00, -0.00, -1.00, 158.8, 20.0)">n</text><text xml:space="preserve" font-family="Roboto-Thin" font-size="49.0" fill="#3F3F3F" transform="matrix(1.00, 0.00, -0.00, -1.00, 185.7, 20.0)">c</text><text xml:space="preserve" font-family="Roboto-Thin" font-size="49.0" fill="#3F3F3F" transform="matrix(1.00, 0.00, -0.00, -1.00, 210.6, 20.0)">e</text><text xml:space="preserve" font-family="Roboto-Thin" font-size="49.0" fill="#3F3F3F" transform="matrix(1.00, 0.00, -0.00, -1.00, 235.2, 20.0)">s</text><text xml:space="preserve" font-family="Roboto-Thin" font-size="49.0" fill="#3F3F3F" transform="matrix(1.00, 0.00, -0.00, -1.00, 259.6, 20.0)">.</text></g></g></g></svg>