<?xml version="1.0" encoding="UTF-8" standalone="no"?><svg xmlns="http://www.w3.org/2000/svg" xmlns:xlink="http://www.w3.org/1999/xlink" clip-rule="evenodd" stroke-miterlimit="4.00" viewBox="0 0 546 1138"><desc>SVG generated by Keynote</desc><defs></defs><g transform="matrix(1.00, 0.00, -0.00, -1.00, 0.0, 1138.0)"><g><clipPath id="clip-173"><path d="M 0.9 0.4 L 545.4 0.4 L 545.4 1137.6 L 0.9 1137.6 Z M 0.9 0.4 "></path></clipPath><g clip-path="url(#clip-173)"><path d="M 54.0 3.9 C 25.8 3.9 4.4 25.4 4.4 53.5 C 4.4 1084.5 4.4 1084.5 4.4 1084.5 C 4.4 1112.7 25.8 1134.1 54.0 1134.1 C 493.6 1134.1 493.6 1134.1 493.6 1134.1 C 520.4 1134.1 541.9 1112.7 541.9 1084.5 C 541.9 53.5 541.9 53.5 541.9 53.5 C 541.9 25.4 520.4 3.9 493.6 3.9 L 54.0 3.9 Z M 54.0 3.9 " fill="#3F3F3F"></path><path d="M 49.6 1130.2 C 21.4 1130.2 0.0 1108.7 0.0 1080.6 C 0.0 49.6 0.0 49.6 0.0 49.6 C 0.0 21.5 21.4 0.0 49.6 0.0 C 489.2 0.0 489.2 0.0 489.2 0.0 C 516.0 0.0 537.5 21.5 537.5 49.6 C 537.5 1080.6 537.5 1080.6 537.5 1080.6 C 537.5 1108.7 516.0 1130.2 489.2 1130.2 L 49.6 1130.2 Z M 49.6 1130.2 " fill="none" stroke="#BFBFBF" stroke-width="5.00" stroke-linejoin="round" transform="matrix(1.00, 0.00, 0.00, -1.00, 4.4, 1134.1)"></path></g></g><g><clipPath id="clip-174"><path d="M 264.8 1068.7 L 282.8 1068.7 L 282.8 1086.8 L 264.8 1086.8 Z M 264.8 1068.7 "></path></clipPath><g clip-path="url(#clip-174)"><path d="M 279.5 1083.5 C 282.6 1080.3 282.6 1075.2 279.5 1072.1 C 276.3 1069.0 271.2 1069.0 268.1 1072.1 C 265.0 1075.2 265.0 1080.3 268.1 1083.5 C 271.2 1086.6 276.3 1086.6 279.5 1083.5 Z M 279.5 1083.5 " fill="#F2F2F2"></path></g></g><g><clipPath id="clip-175"><path d="M 270.1 1075.5 L 276.1 1075.5 L 276.1 1081.5 L 270.1 1081.5 Z M 270.1 1075.5 "></path></clipPath><g clip-path="url(#clip-175)"><path d="M 274.5 1079.9 C 275.3 1079.1 275.3 1077.8 274.5 1077.0 C 273.8 1076.3 272.5 1076.3 271.7 1077.0 C 270.9 1077.8 270.9 1079.1 271.7 1079.9 C 272.5 1080.7 273.8 1080.7 274.5 1079.9 Z M 274.5 1079.9 " fill="#F2F2F2"></path></g></g><g><clipPath id="clip-176"><path d="M 264.8 1070.1 L 282.8 1070.1 L 282.8 1088.2 L 264.8 1088.2 Z M 264.8 1070.1 "></path></clipPath><g clip-path="url(#clip-176)"><path d="M 279.5 1084.8 C 282.6 1081.7 282.6 1076.6 279.5 1073.4 C 276.3 1070.3 271.2 1070.3 268.1 1073.4 C 265.0 1076.6 265.0 1081.7 268.1 1084.8 C 271.2 1088.0 276.3 1088.0 279.5 1084.8 Z M 279.5 1084.8 " fill="#F2F2F2"></path></g></g><g><clipPath id="clip-177"><path d="M 270.1 1076.8 L 276.1 1076.8 L 276.1 1082.8 L 270.1 1082.8 Z M 270.1 1076.8 "></path></clipPath><g clip-path="url(#clip-177)"><path d="M 274.5 1081.2 C 275.3 1080.4 275.3 1079.2 274.5 1078.4 C 273.8 1077.6 272.5 1077.6 271.7 1078.4 C 270.9 1079.2 270.9 1080.4 271.7 1081.2 C 272.5 1082.0 273.8 1082.0 274.5 1081.2 Z M 274.5 1081.2 " fill="#F2F2F2"></path></g></g><g><clipPath id="clip-178"><path d="M 267.4 1072.8 L 280.2 1072.8 L 280.2 1085.5 L 267.4 1085.5 Z M 267.4 1072.8 "></path></clipPath><g clip-path="url(#clip-178)"><path d="M 277.6 1082.9 C 279.7 1080.8 279.7 1077.4 277.6 1075.3 C 275.5 1073.2 272.1 1073.2 270.0 1075.3 C 267.9 1077.4 267.9 1080.8 270.0 1082.9 C 272.1 1085.0 275.5 1085.0 277.6 1082.9 Z M 277.6 1082.9 " fill="#F2F2F2"></path></g></g><g><clipPath id="clip-179"><path d="M 267.4 1072.8 L 280.2 1072.8 L 280.2 1085.5 L 267.4 1085.5 Z M 267.4 1072.8 "></path></clipPath><g clip-path="url(#clip-179)"><path d="M 277.6 1082.9 C 279.7 1080.8 279.7 1077.4 277.6 1075.3 C 275.5 1073.2 272.1 1073.2 270.0 1075.3 C 267.9 1077.4 267.9 1080.8 270.0 1082.9 C 272.1 1085.0 275.5 1085.0 277.6 1082.9 Z M 277.6 1082.9 " fill="#F2F2F2"></path></g></g><g><clipPath id="clip-180"><path d="M 270.1 1075.5 L 277.5 1075.5 L 277.5 1082.8 L 270.1 1082.8 Z M 270.1 1075.5 "></path></clipPath><g clip-path="url(#clip-180)"><path d="M 275.7 1081.0 C 276.7 1080.0 276.7 1078.3 275.7 1077.2 C 274.6 1076.2 272.9 1076.2 271.9 1077.2 C 270.9 1078.3 270.9 1080.0 271.9 1081.0 C 272.9 1082.1 274.6 1082.1 275.7 1081.0 Z M 275.7 1081.0 " fill="#F2F2F2"></path></g></g><g><clipPath id="clip-181"><path d="M 270.1 1075.5 L 277.5 1075.5 L 277.5 1082.8 L 270.1 1082.8 Z M 270.1 1075.5 "></path></clipPath><g clip-path="url(#clip-181)"><path d="M 275.7 1081.0 C 276.7 1080.0 276.7 1078.3 275.7 1077.2 C 274.6 1076.2 272.9 1076.2 271.9 1077.2 C 270.9 1078.3 270.9 1080.0 271.9 1081.0 C 272.9 1082.1 274.6 1082.1 275.7 1081.0 Z M 275.7 1081.0 " fill="#F2F2F2"></path></g></g><g><clipPath id="clip-182"><path d="M 271.2 1077.8 L 275.1 1077.8 L 275.1 1081.8 L 271.2 1081.8 Z M 271.2 1077.8 "></path></clipPath><g clip-path="url(#clip-182)"><path d="M 274.1 1078.8 L 272.2 1078.8 L 274.1 1080.8 L 274.1 1078.8 Z M 274.1 1078.8 " fill="#F2F2F2"></path></g></g><g><clipPath id="clip-183"><path d="M 271.2 1077.8 L 275.1 1077.8 L 275.1 1081.8 L 271.2 1081.8 Z M 271.2 1077.8 "></path></clipPath><g clip-path="url(#clip-183)"><path d="M 274.1 1078.8 L 272.2 1078.8 L 274.1 1080.8 L 274.1 1078.8 Z M 274.1 1078.8 " fill="#F2F2F2"></path></g></g><g><clipPath id="clip-184"><path d="M 228.1 29.2 L 318.2 29.2 L 318.2 119.4 L 228.1 119.4 Z M 228.1 29.2 "></path></clipPath><g clip-path="url(#clip-184)"><path d="M 74.4 12.8 C 91.4 29.8 91.4 57.4 74.4 74.4 C 57.4 91.4 29.8 91.4 12.8 74.4 C -4.3 57.4 -4.3 29.8 12.8 12.8 C 29.8 -4.3 57.4 -4.3 74.4 12.8 Z M 74.4 12.8 " fill="none" stroke="#F2F2F2" stroke-width="1.00" stroke-linejoin="round" transform="matrix(1.00, 0.00, 0.00, -1.00, 229.6, 117.9)"></path></g></g><g><clipPath id="clip-185"><path d="M 36.9 143.7 L 510.7 143.7 L 510.7 972.9 L 36.9 972.9 Z M 36.9 143.7 "></path></clipPath><g clip-path="url(#clip-185)"><path d="M 37.9 971.9 L 509.7 971.9 L 509.7 144.7 L 37.9 144.7 Z M 37.9 971.9 " fill="#F2F2F2"></path></g></g><g><clipPath id="clip-186"><path d="M 231.2 1023.2 L 331.1 1023.2 L 331.1 1048.0 L 231.2 1048.0 Z M 231.2 1023.2 "></path></clipPath><g clip-path="url(#clip-186)"><path d="M 243.0 1024.2 C 236.3 1024.2 232.2 1029.5 232.2 1034.9 C 232.2 1041.6 236.3 1047.0 243.0 1047.0 C 319.4 1047.0 319.4 1047.0 319.4 1047.0 C 326.1 1047.0 330.1 1041.6 330.1 1034.9 C 330.1 1029.5 326.1 1024.2 319.4 1024.2 L 243.0 1024.2 Z M 243.0 1024.2 " fill="#F2F2F2"></path></g></g><g><clipPath id="clip-187"><path d="M 236.6 1029.9 L 325.7 1029.9 L 325.7 1041.3 L 236.6 1041.3 Z M 236.6 1029.9 "></path></clipPath><g clip-path="url(#clip-187)"><path d="M 324.7 1034.9 C 324.7 1032.2 322.0 1030.9 319.4 1030.9 C 243.0 1030.9 243.0 1030.9 243.0 1030.9 C 240.3 1030.9 237.6 1032.2 237.6 1034.9 C 237.6 1037.6 240.3 1040.3 243.0 1040.3 C 319.4 1040.3 319.4 1040.3 319.4 1040.3 C 322.0 1040.3 324.7 1037.6 324.7 1034.9 Z M 324.7 1034.9 " fill="#3F3F3F"></path></g></g><g><clipPath id="clip-188"><path d="M 199.1 1027.2 L 215.8 1027.2 L 215.8 1043.9 L 199.1 1043.9 Z M 199.1 1027.2 "></path></clipPath><g clip-path="url(#clip-188)"><path d="M 212.7 1040.8 C 215.5 1037.9 215.5 1033.2 212.7 1030.3 C 209.8 1027.5 205.1 1027.5 202.2 1030.3 C 199.4 1033.2 199.4 1037.9 202.2 1040.8 C 205.1 1043.7 209.8 1043.7 212.7 1040.8 Z M 212.7 1040.8 " fill="#F2F2F2"></path></g></g><g><clipPath id="clip-189"><path d="M 36.8 159.2 L 511.6 159.2 L 511.6 973.1 L 36.8 973.1 Z M 36.8 159.2 "></path></clipPath><g clip-path="url(#clip-189)"><image xlink:href="3D799C85267D97E0AD559A85AA9EA2FD.jpeg" width="448.00" height="769.00" transform="matrix(1.06, 0.00, -0.00, -1.06, 37.0, 973.0)"></image></g></g></g></svg>