<?xml version="1.0" encoding="UTF-8" standalone="no"?><svg xmlns="http://www.w3.org/2000/svg" xmlns:xlink="http://www.w3.org/1999/xlink" clip-rule="evenodd" stroke-miterlimit="4.00" viewBox="0 0 341 149"><desc>SVG generated by Keynote</desc><defs></defs><g transform="matrix(1.00, 0.00, -0.00, -1.00, 0.0, 149.0)"><g><clipPath id="clip-190"><path d="M 1.0 147.0 L 339.0 147.0 L 339.0 2.0 L 1.0 2.0 Z M 1.0 147.0 "></path></clipPath><g clip-path="url(#clip-190)"><g><clipPath id="clip-191"><path d="M 1.0 2.0 L 339.0 2.0 L 339.0 147.0 L 1.0 147.0 Z M 1.0 2.0 "></path></clipPath><g clip-path="url(#clip-191)"><path d="M 0.0 0.0 L -28.0 -47.6 L -0.7 -94.0 L -0.3 -94.0 L 27.5 -46.7 L 0.0 0.0 Z M 0.0 0.0 " fill="none" stroke="#000000" stroke-width="2.00" stroke-miterlimit="0.00" transform="matrix(1.50, 0.00, 0.00, 1.50, 170.8, 144.1)"></path><path d="M 0.0 0.0 L -27.5 -46.7 L 0.3 -94.0 L 55.3 -94.0 L 0.0 0.0 Z M 0.0 0.0 " fill="none" stroke="#000000" stroke-width="2.00" stroke-miterlimit="0.00" transform="matrix(1.50, 0.00, 0.00, 1.50, 253.3, 144.1)"></path><path d="M 0.0 0.0 L 55.6 0.0 L 27.8 47.3 L 0.0 0.0 Z M 0.0 0.0 " fill="none" stroke="#000000" stroke-width="2.00" stroke-miterlimit="0.00" transform="matrix(1.50, 0.00, 0.00, 1.50, 170.3, 3.5)"></path><path d="M 0.0 0.0 L -55.3 -94.0 L 0.7 -94.0 L 28.0 -47.6 L 0.0 0.0 Z M 0.0 0.0 " fill="none" stroke="#000000" stroke-width="2.00" stroke-miterlimit="0.00" transform="matrix(1.50, 0.00, 0.00, 1.50, 86.7, 144.1)"></path><path d="M 0.0 0.0 L 54.6 0.0 L 27.3 46.4 L 0.0 0.0 Z M 0.0 0.0 " fill="none" stroke="#000000" stroke-width="2.00" stroke-miterlimit="0.00" transform="matrix(1.50, 0.00, 0.00, 1.50, 87.7, 3.5)"></path></g></g></g></g></g></svg>